%FSLAX25Y25*%
%MOIN*%
G70*
G01*
G75*
G04 Layer_Color=16711935*
%ADD10R,0.04331X0.05512*%
%ADD11R,0.08071X0.01772*%
%ADD12R,0.08071X0.01772*%
%ADD13R,0.05512X0.04331*%
%ADD14O,0.08000X0.01600*%
%ADD15O,0.01575X0.07480*%
%ADD16R,0.05118X0.03937*%
%ADD17R,0.03937X0.05118*%
%ADD18O,0.07480X0.01575*%
%ADD19R,0.07480X0.07087*%
%ADD20R,0.05315X0.01575*%
%ADD21R,0.06299X0.08268*%
%ADD22R,0.07480X0.07480*%
%ADD23O,0.02559X0.06693*%
%ADD24R,0.04000X0.02600*%
%ADD25R,0.05512X0.03937*%
%ADD26R,0.05906X0.05906*%
%ADD27O,0.07087X0.01575*%
%ADD28R,0.03500X0.05000*%
%ADD29R,0.05000X0.05000*%
%ADD30C,0.03000*%
%ADD31C,0.00700*%
%ADD32C,0.00800*%
%ADD33C,0.01000*%
%ADD34R,0.05906X0.05906*%
%ADD35C,0.05906*%
%ADD36C,0.04724*%
%ADD37R,0.04724X0.04724*%
%ADD38C,0.06000*%
%ADD39C,0.04000*%
%ADD40R,0.04000X0.04000*%
%ADD41R,0.05000X0.05000*%
%ADD42C,0.05000*%
%ADD43R,0.06500X0.06500*%
%ADD44C,0.06500*%
%ADD45C,0.12000*%
%ADD46C,0.14000*%
%ADD47R,0.06000X0.06000*%
%ADD48C,0.06693*%
%ADD49C,0.06299*%
%ADD50R,0.04000X0.04000*%
%ADD51C,0.15748*%
%ADD52R,0.06000X0.06000*%
%ADD53C,0.06200*%
%ADD54R,0.06200X0.06200*%
%ADD55C,0.08400*%
%ADD56C,0.10600*%
%ADD57C,0.12500*%
%ADD58C,0.00984*%
%ADD59C,0.00787*%
%ADD60C,0.01200*%
%ADD61C,0.00600*%
%ADD62R,0.04731X0.05912*%
%ADD63R,0.08471X0.02172*%
%ADD64R,0.08471X0.02172*%
%ADD65R,0.05912X0.04731*%
%ADD66O,0.08400X0.02000*%
%ADD67O,0.01975X0.07880*%
%ADD68R,0.05518X0.04337*%
%ADD69R,0.04337X0.05518*%
%ADD70O,0.07880X0.01975*%
%ADD71R,0.07880X0.07487*%
%ADD72R,0.05715X0.01975*%
%ADD73R,0.06699X0.08668*%
%ADD74R,0.07880X0.07880*%
%ADD75O,0.02959X0.07093*%
%ADD76R,0.04400X0.03000*%
%ADD77R,0.05912X0.04337*%
%ADD78R,0.06306X0.06306*%
%ADD79O,0.07487X0.01975*%
%ADD80R,0.03900X0.05400*%
%ADD81R,0.05400X0.05400*%
%ADD82R,0.06306X0.06306*%
%ADD83C,0.06306*%
%ADD84C,0.05124*%
%ADD85R,0.05124X0.05124*%
%ADD86C,0.06400*%
%ADD87C,0.04400*%
%ADD88R,0.04400X0.04400*%
%ADD89R,0.05400X0.05400*%
%ADD90C,0.05400*%
%ADD91R,0.06900X0.06900*%
%ADD92C,0.06900*%
%ADD93C,0.12400*%
%ADD94C,0.14400*%
%ADD95R,0.06400X0.06400*%
%ADD96C,0.07093*%
%ADD97C,0.06699*%
%ADD98R,0.04400X0.04400*%
%ADD99C,0.16148*%
%ADD100R,0.06400X0.06400*%
%ADD101C,0.06600*%
%ADD102R,0.06600X0.06600*%
%ADD103C,0.08800*%
%ADD104C,0.11000*%
%ADD105C,0.12900*%
D30*
X98500Y98500D02*
Y119500D01*
X931500Y98500D02*
Y119500D01*
X98500Y660500D02*
Y681500D01*
Y98500D02*
X119500D01*
X910500D02*
X931500D01*
X98500Y681500D02*
X119500D01*
D78*
X528000Y612000D02*
D03*
X399500Y570500D02*
D03*
D82*
X345000Y551000D02*
D03*
X754000Y280000D02*
D03*
X330000Y269500D02*
D03*
X559000Y179500D02*
D03*
X398500Y535500D02*
D03*
X425000Y176000D02*
D03*
X446000Y186000D02*
D03*
X376000Y665000D02*
D03*
D83*
X345000Y561000D02*
D03*
X754000Y290000D02*
D03*
Y300000D02*
D03*
X330000Y279500D02*
D03*
X518000Y612000D02*
D03*
X508000D02*
D03*
X559000Y189500D02*
D03*
X398500Y555500D02*
D03*
Y545500D02*
D03*
X389500Y570500D02*
D03*
X425000Y186000D02*
D03*
Y196000D02*
D03*
X446000D02*
D03*
X376000Y645000D02*
D03*
Y655000D02*
D03*
D84*
X423500Y540000D02*
D03*
X433500Y550000D02*
D03*
D85*
Y530000D02*
D03*
D86*
X559500Y117000D02*
D03*
X574500D02*
D03*
X817047Y113500D02*
D03*
X502000Y502000D02*
D03*
X492000D02*
D03*
X482000Y443000D02*
D03*
X502000D02*
D03*
Y597500D02*
D03*
X492000D02*
D03*
X482000Y538500D02*
D03*
X502000D02*
D03*
X123500Y343500D02*
D03*
X113500Y333500D02*
D03*
X123500D02*
D03*
X113500Y323500D02*
D03*
X123500D02*
D03*
Y313500D02*
D03*
X113500D02*
D03*
Y303500D02*
D03*
X123500D02*
D03*
Y293500D02*
D03*
X113500D02*
D03*
Y283500D02*
D03*
X123500D02*
D03*
Y273500D02*
D03*
X113500D02*
D03*
Y263500D02*
D03*
X123500D02*
D03*
Y253500D02*
D03*
X113500D02*
D03*
Y243500D02*
D03*
X123500D02*
D03*
Y233500D02*
D03*
X113500D02*
D03*
Y223500D02*
D03*
X123500D02*
D03*
Y213500D02*
D03*
X113500D02*
D03*
Y203500D02*
D03*
X123500D02*
D03*
Y193500D02*
D03*
X113500D02*
D03*
Y183500D02*
D03*
X123500D02*
D03*
Y173500D02*
D03*
X113500D02*
D03*
Y163500D02*
D03*
X123500D02*
D03*
X113500Y153500D02*
D03*
X123500D02*
D03*
X590000Y669500D02*
D03*
X600000D02*
D03*
X610000D02*
D03*
X620000D02*
D03*
X630000D02*
D03*
X640000D02*
D03*
X650000D02*
D03*
X660000D02*
D03*
X670000D02*
D03*
X680000D02*
D03*
X690000D02*
D03*
X700000D02*
D03*
X710000D02*
D03*
X720000D02*
D03*
X730000D02*
D03*
X179000Y649000D02*
D03*
Y659000D02*
D03*
X169000Y354000D02*
D03*
D87*
X284000Y669000D02*
D03*
Y639000D02*
D03*
X254000D02*
D03*
X248500Y366000D02*
D03*
Y356000D02*
D03*
Y346000D02*
D03*
Y336000D02*
D03*
Y326000D02*
D03*
Y316000D02*
D03*
Y306000D02*
D03*
Y296000D02*
D03*
Y286000D02*
D03*
Y276000D02*
D03*
Y266000D02*
D03*
Y256000D02*
D03*
Y246000D02*
D03*
Y236000D02*
D03*
Y226000D02*
D03*
X308500D02*
D03*
Y236000D02*
D03*
Y246000D02*
D03*
Y256000D02*
D03*
Y266000D02*
D03*
Y276000D02*
D03*
Y286000D02*
D03*
Y296000D02*
D03*
Y306000D02*
D03*
Y316000D02*
D03*
Y326000D02*
D03*
Y336000D02*
D03*
Y346000D02*
D03*
Y356000D02*
D03*
Y366000D02*
D03*
Y376000D02*
D03*
X376500D02*
D03*
Y366000D02*
D03*
Y356000D02*
D03*
Y346000D02*
D03*
Y336000D02*
D03*
Y326000D02*
D03*
Y316000D02*
D03*
Y306000D02*
D03*
Y296000D02*
D03*
Y286000D02*
D03*
Y276000D02*
D03*
Y266000D02*
D03*
Y256000D02*
D03*
Y246000D02*
D03*
Y236000D02*
D03*
Y226000D02*
D03*
X346500D02*
D03*
Y236000D02*
D03*
Y246000D02*
D03*
Y256000D02*
D03*
Y266000D02*
D03*
Y276000D02*
D03*
Y286000D02*
D03*
Y296000D02*
D03*
Y306000D02*
D03*
Y316000D02*
D03*
Y326000D02*
D03*
Y336000D02*
D03*
Y346000D02*
D03*
Y356000D02*
D03*
Y366000D02*
D03*
X305000Y584000D02*
D03*
X315000D02*
D03*
X325000D02*
D03*
X335000D02*
D03*
X345000D02*
D03*
X355000D02*
D03*
X365000D02*
D03*
X375000D02*
D03*
X385000D02*
D03*
Y614000D02*
D03*
X375000D02*
D03*
X365000D02*
D03*
X355000D02*
D03*
X345000D02*
D03*
X335000D02*
D03*
X325000D02*
D03*
X315000D02*
D03*
X305000D02*
D03*
X295000D02*
D03*
X160000Y161500D02*
D03*
X170000D02*
D03*
X180000D02*
D03*
X190000D02*
D03*
X200000D02*
D03*
X210000D02*
D03*
X220000D02*
D03*
Y191500D02*
D03*
X210000D02*
D03*
X200000D02*
D03*
X190000D02*
D03*
X180000D02*
D03*
X170000D02*
D03*
X160000D02*
D03*
X150000D02*
D03*
X254500Y161500D02*
D03*
X264500D02*
D03*
X274500D02*
D03*
X284500D02*
D03*
X294500D02*
D03*
X304500D02*
D03*
X314500D02*
D03*
Y191500D02*
D03*
X304500D02*
D03*
X294500D02*
D03*
X284500D02*
D03*
X274500D02*
D03*
X264500D02*
D03*
X254500D02*
D03*
X244500D02*
D03*
X349500Y161500D02*
D03*
X359500D02*
D03*
X369500D02*
D03*
X379500D02*
D03*
X389500D02*
D03*
X399500D02*
D03*
X409500D02*
D03*
Y191500D02*
D03*
X399500D02*
D03*
X389500D02*
D03*
X379500D02*
D03*
X369500D02*
D03*
X359500D02*
D03*
X349500D02*
D03*
X339500D02*
D03*
D88*
X254000Y669000D02*
D03*
X248500Y376000D02*
D03*
X346500D02*
D03*
D89*
X779000Y315500D02*
D03*
D90*
X839000D02*
D03*
Y345500D02*
D03*
X779000D02*
D03*
X624000Y233000D02*
D03*
Y243000D02*
D03*
Y253000D02*
D03*
Y263000D02*
D03*
Y273000D02*
D03*
Y283000D02*
D03*
Y293000D02*
D03*
Y303000D02*
D03*
Y313000D02*
D03*
Y323000D02*
D03*
Y333000D02*
D03*
Y343000D02*
D03*
X634000Y233000D02*
D03*
Y243000D02*
D03*
Y253000D02*
D03*
Y263000D02*
D03*
Y273000D02*
D03*
Y283000D02*
D03*
Y293000D02*
D03*
Y303000D02*
D03*
Y313000D02*
D03*
Y323000D02*
D03*
Y333000D02*
D03*
Y343000D02*
D03*
X644000Y233000D02*
D03*
Y243000D02*
D03*
Y253000D02*
D03*
Y263000D02*
D03*
Y273000D02*
D03*
Y283000D02*
D03*
Y293000D02*
D03*
Y303000D02*
D03*
Y313000D02*
D03*
Y323000D02*
D03*
Y333000D02*
D03*
Y343000D02*
D03*
X654000Y233000D02*
D03*
Y243000D02*
D03*
Y253000D02*
D03*
Y263000D02*
D03*
Y273000D02*
D03*
Y283000D02*
D03*
Y293000D02*
D03*
Y303000D02*
D03*
Y313000D02*
D03*
Y323000D02*
D03*
Y333000D02*
D03*
Y343000D02*
D03*
X664000Y233000D02*
D03*
Y243000D02*
D03*
Y253000D02*
D03*
Y263000D02*
D03*
Y273000D02*
D03*
Y283000D02*
D03*
Y293000D02*
D03*
Y303000D02*
D03*
Y313000D02*
D03*
Y323000D02*
D03*
Y333000D02*
D03*
Y343000D02*
D03*
X674000Y233000D02*
D03*
Y243000D02*
D03*
Y253000D02*
D03*
Y263000D02*
D03*
Y273000D02*
D03*
Y283000D02*
D03*
Y293000D02*
D03*
Y303000D02*
D03*
Y313000D02*
D03*
Y323000D02*
D03*
Y333000D02*
D03*
Y343000D02*
D03*
X684000Y233000D02*
D03*
Y243000D02*
D03*
Y253000D02*
D03*
Y263000D02*
D03*
Y273000D02*
D03*
Y283000D02*
D03*
Y293000D02*
D03*
Y303000D02*
D03*
Y313000D02*
D03*
Y323000D02*
D03*
Y333000D02*
D03*
Y343000D02*
D03*
X694000Y233000D02*
D03*
Y243000D02*
D03*
Y253000D02*
D03*
Y263000D02*
D03*
Y273000D02*
D03*
Y283000D02*
D03*
Y293000D02*
D03*
Y303000D02*
D03*
Y313000D02*
D03*
Y323000D02*
D03*
Y333000D02*
D03*
Y343000D02*
D03*
X704000Y233000D02*
D03*
Y243000D02*
D03*
Y253000D02*
D03*
Y263000D02*
D03*
Y273000D02*
D03*
Y283000D02*
D03*
Y293000D02*
D03*
Y303000D02*
D03*
Y313000D02*
D03*
Y323000D02*
D03*
Y333000D02*
D03*
Y343000D02*
D03*
X714000Y233000D02*
D03*
Y243000D02*
D03*
Y253000D02*
D03*
Y263000D02*
D03*
Y273000D02*
D03*
Y283000D02*
D03*
Y293000D02*
D03*
Y303000D02*
D03*
Y313000D02*
D03*
Y323000D02*
D03*
Y333000D02*
D03*
Y343000D02*
D03*
X724000Y233000D02*
D03*
Y243000D02*
D03*
Y253000D02*
D03*
Y263000D02*
D03*
Y273000D02*
D03*
Y283000D02*
D03*
Y293000D02*
D03*
Y303000D02*
D03*
Y313000D02*
D03*
Y323000D02*
D03*
Y333000D02*
D03*
Y343000D02*
D03*
X734000Y233000D02*
D03*
Y243000D02*
D03*
Y253000D02*
D03*
Y263000D02*
D03*
Y273000D02*
D03*
Y283000D02*
D03*
Y293000D02*
D03*
Y303000D02*
D03*
Y313000D02*
D03*
Y323000D02*
D03*
Y333000D02*
D03*
Y343000D02*
D03*
X296500Y508000D02*
D03*
X306500D02*
D03*
X296500Y498000D02*
D03*
Y488000D02*
D03*
X306500D02*
D03*
X296500Y478000D02*
D03*
X306500D02*
D03*
X296500Y468000D02*
D03*
X306500D02*
D03*
X296500Y458000D02*
D03*
X306500D02*
D03*
X296500Y448000D02*
D03*
X306500D02*
D03*
X296500Y438000D02*
D03*
X306500D02*
D03*
X296500Y428000D02*
D03*
X306500Y418000D02*
D03*
Y428000D02*
D03*
X316500Y418000D02*
D03*
Y428000D02*
D03*
X326500Y418000D02*
D03*
Y428000D02*
D03*
X336500Y418000D02*
D03*
Y428000D02*
D03*
X346500Y418000D02*
D03*
Y428000D02*
D03*
X356500Y418000D02*
D03*
Y428000D02*
D03*
X366500Y418000D02*
D03*
Y428000D02*
D03*
X376500Y418000D02*
D03*
Y428000D02*
D03*
X386500Y418000D02*
D03*
Y428000D02*
D03*
X396500D02*
D03*
Y438000D02*
D03*
X386500D02*
D03*
X396500Y448000D02*
D03*
X386500D02*
D03*
X396500Y458000D02*
D03*
X386500D02*
D03*
X396500Y468000D02*
D03*
X386500D02*
D03*
X396500Y478000D02*
D03*
X386500D02*
D03*
X396500Y488000D02*
D03*
X386500D02*
D03*
X396500Y498000D02*
D03*
X386500D02*
D03*
X396500Y508000D02*
D03*
X386500Y518000D02*
D03*
Y508000D02*
D03*
X376500Y518000D02*
D03*
Y508000D02*
D03*
X366500Y518000D02*
D03*
Y508000D02*
D03*
X356500Y518000D02*
D03*
Y508000D02*
D03*
X346500Y518000D02*
D03*
Y508000D02*
D03*
X336500Y518000D02*
D03*
Y508000D02*
D03*
X326500Y518000D02*
D03*
Y508000D02*
D03*
X316500Y518000D02*
D03*
Y508000D02*
D03*
X306500Y518000D02*
D03*
Y498000D02*
D03*
X502500Y240000D02*
D03*
X492500Y250000D02*
D03*
Y240000D02*
D03*
X482500Y250000D02*
D03*
Y240000D02*
D03*
X472500Y250000D02*
D03*
X462500Y240000D02*
D03*
X472500D02*
D03*
X462500Y230000D02*
D03*
X472500D02*
D03*
X462500Y220000D02*
D03*
X472500D02*
D03*
X462500Y210000D02*
D03*
X472500D02*
D03*
X462500Y200000D02*
D03*
X472500D02*
D03*
X462500Y190000D02*
D03*
X472500Y180000D02*
D03*
Y190000D02*
D03*
X482500Y180000D02*
D03*
Y190000D02*
D03*
X492500Y180000D02*
D03*
Y190000D02*
D03*
X502500Y180000D02*
D03*
Y190000D02*
D03*
X512500Y180000D02*
D03*
Y190000D02*
D03*
X522500Y180000D02*
D03*
X532500Y190000D02*
D03*
X522500D02*
D03*
X532500Y200000D02*
D03*
X522500D02*
D03*
X532500Y210000D02*
D03*
X522500D02*
D03*
X532500Y220000D02*
D03*
X522500D02*
D03*
X532500Y230000D02*
D03*
X522500D02*
D03*
X532500Y240000D02*
D03*
X522500Y250000D02*
D03*
Y240000D02*
D03*
X512500Y250000D02*
D03*
Y240000D02*
D03*
X502500Y250000D02*
D03*
X152000Y649000D02*
D03*
Y659000D02*
D03*
X903000Y165000D02*
D03*
X913000D02*
D03*
X883000D02*
D03*
X873000D02*
D03*
X734000Y223000D02*
D03*
X724000D02*
D03*
X674000D02*
D03*
X684000D02*
D03*
X664000D02*
D03*
X704000D02*
D03*
X714000D02*
D03*
X694000D02*
D03*
X644000D02*
D03*
X654000D02*
D03*
X634000D02*
D03*
X624000D02*
D03*
X734000Y353000D02*
D03*
X724000D02*
D03*
X704000D02*
D03*
X714000D02*
D03*
X694000D02*
D03*
X654000D02*
D03*
X664000D02*
D03*
X644000D02*
D03*
X684000D02*
D03*
X674000D02*
D03*
X634000D02*
D03*
X624000D02*
D03*
X880000Y257500D02*
D03*
X919000Y173000D02*
D03*
X896500Y241500D02*
D03*
X906927Y184073D02*
D03*
X864515Y208077D02*
D03*
X859500Y205000D02*
D03*
X863675Y200500D02*
D03*
X862000Y222000D02*
D03*
X856000Y217000D02*
D03*
X576000Y217500D02*
D03*
X263000Y462000D02*
D03*
X612000Y339500D02*
D03*
X746000Y358000D02*
D03*
Y343000D02*
D03*
X820000Y339500D02*
D03*
X780500Y269500D02*
D03*
X780000Y235500D02*
D03*
X792500Y270500D02*
D03*
X556000Y593500D02*
D03*
X298000Y629000D02*
D03*
X409000Y605250D02*
D03*
X584500Y650000D02*
D03*
X159500Y288500D02*
D03*
X160000Y282500D02*
D03*
X214000Y281500D02*
D03*
X158500Y272000D02*
D03*
X193500Y268000D02*
D03*
X150500Y343500D02*
D03*
X218010Y298010D02*
D03*
X218500Y290000D02*
D03*
X774500Y202000D02*
D03*
X355500Y264500D02*
D03*
X409500Y584000D02*
D03*
X424500Y587000D02*
D03*
X421500Y230500D02*
D03*
X161500Y538000D02*
D03*
X128000Y403000D02*
D03*
X149500Y130500D02*
D03*
X167000Y126500D02*
D03*
X230500Y216000D02*
D03*
X200792Y459000D02*
D03*
X478500Y365500D02*
D03*
X459000Y357500D02*
D03*
X214000Y275500D02*
D03*
X348500Y471500D02*
D03*
X328000Y465500D02*
D03*
X331500Y458500D02*
D03*
X321000Y446500D02*
D03*
X495500Y426000D02*
D03*
X490953Y397453D02*
D03*
X543300Y302500D02*
D03*
X551000Y320500D02*
D03*
X573500Y384700D02*
D03*
X548000Y400000D02*
D03*
X547000Y309500D02*
D03*
X548000Y286000D02*
D03*
X514500Y412500D02*
D03*
X500500Y392000D02*
D03*
X510500Y379500D02*
D03*
X502500Y361000D02*
D03*
X511000Y362500D02*
D03*
X465454Y345954D02*
D03*
X425500Y322000D02*
D03*
X438500Y260000D02*
D03*
X382500Y220000D02*
D03*
X366500Y197500D02*
D03*
X386000Y198500D02*
D03*
X524000Y422000D02*
D03*
X427000Y356500D02*
D03*
X393500Y374000D02*
D03*
X392000Y380000D02*
D03*
X151000Y223500D02*
D03*
X160000Y373000D02*
D03*
X146500Y397000D02*
D03*
X436500Y161000D02*
D03*
X372500Y151000D02*
D03*
X346000Y145000D02*
D03*
X246500D02*
D03*
X439000Y356500D02*
D03*
X359500Y347500D02*
D03*
X380000Y351000D02*
D03*
X445500Y361500D02*
D03*
X482480Y360541D02*
D03*
X486500Y356500D02*
D03*
X384500Y376000D02*
D03*
X453000Y274500D02*
D03*
X473450Y309500D02*
D03*
X484000Y320000D02*
D03*
X574000Y390500D02*
D03*
X590000Y375000D02*
D03*
X593500Y255500D02*
D03*
X623500Y211000D02*
D03*
X245000Y178500D02*
D03*
X284500D02*
D03*
X300000D02*
D03*
X135500Y434000D02*
D03*
X137000Y403000D02*
D03*
X216500Y616000D02*
D03*
X190500Y595000D02*
D03*
X443500Y337000D02*
D03*
X459000Y366000D02*
D03*
X448500Y387500D02*
D03*
X472500Y388000D02*
D03*
X436500Y176500D02*
D03*
X169000Y225500D02*
D03*
X149000Y210000D02*
D03*
X211800Y325300D02*
D03*
X217500Y324000D02*
D03*
X222000Y320000D02*
D03*
X226500Y316000D02*
D03*
X212000Y331000D02*
D03*
X203550Y334800D02*
D03*
X210750Y336719D02*
D03*
X372000Y414200D02*
D03*
X391000Y393500D02*
D03*
X422000Y365500D02*
D03*
X377500Y448500D02*
D03*
X341500Y449000D02*
D03*
X164500Y430500D02*
D03*
Y440000D02*
D03*
X268000Y467500D02*
D03*
X275500Y468000D02*
D03*
X352000Y462500D02*
D03*
X810000Y243500D02*
D03*
X868000Y240000D02*
D03*
X794500Y189500D02*
D03*
X421500Y644500D02*
D03*
X403000Y652000D02*
D03*
X207500Y669000D02*
D03*
Y646500D02*
D03*
X218000Y647500D02*
D03*
X181000Y595500D02*
D03*
X225000Y544500D02*
D03*
X219000Y544000D02*
D03*
X231000Y544500D02*
D03*
X230000Y538500D02*
D03*
X226904Y533111D02*
D03*
X222000Y529000D02*
D03*
X217500Y524500D02*
D03*
X214500Y519000D02*
D03*
X867500Y122000D02*
D03*
X500500Y343500D02*
D03*
X517000Y338000D02*
D03*
Y332000D02*
D03*
X516500Y314000D02*
D03*
Y308000D02*
D03*
X208000Y539000D02*
D03*
X167500Y470500D02*
D03*
X454500Y604000D02*
D03*
X141500Y435500D02*
D03*
X196500Y452000D02*
D03*
X190800Y450832D02*
D03*
X185100D02*
D03*
X179400D02*
D03*
X186640Y442100D02*
D03*
X181185Y444706D02*
D03*
X175000Y446500D02*
D03*
X170500Y442000D02*
D03*
X846500Y189500D02*
D03*
X888500Y205000D02*
D03*
X851957Y186896D02*
D03*
X186500Y485000D02*
D03*
X192200Y485232D02*
D03*
X198000Y485000D02*
D03*
X202000Y480500D02*
D03*
X322500Y159000D02*
D03*
X199500Y378500D02*
D03*
X319000Y501000D02*
D03*
X418200Y429200D02*
D03*
X420505Y421800D02*
D03*
X327000Y553000D02*
D03*
X331000Y548500D02*
D03*
X179000Y611000D02*
D03*
X335000Y553000D02*
D03*
X465000Y407500D02*
D03*
X523500Y355000D02*
D03*
X594000Y202000D02*
D03*
Y132000D02*
D03*
X506500Y343500D02*
D03*
X517000Y320000D02*
D03*
Y326000D02*
D03*
X510500Y305000D02*
D03*
X522500Y407000D02*
D03*
X453000Y366000D02*
D03*
X527500Y396000D02*
D03*
X516739Y406471D02*
D03*
X429000Y434000D02*
D03*
X408800Y445909D02*
D03*
X527230Y403669D02*
D03*
X428700Y439700D02*
D03*
X408800Y451609D02*
D03*
X157000Y622000D02*
D03*
X147000D02*
D03*
X376500Y216000D02*
D03*
Y206000D02*
D03*
X230000Y205500D02*
D03*
X259500Y210000D02*
D03*
X276500Y235500D02*
D03*
Y256500D02*
D03*
Y276500D02*
D03*
X267000Y210000D02*
D03*
X280500Y231000D02*
D03*
X270800Y256950D02*
D03*
X190500Y237500D02*
D03*
Y243500D02*
D03*
X189241Y395168D02*
D03*
X233400Y226833D02*
D03*
X259000Y199000D02*
D03*
X273000Y209500D02*
D03*
X283761Y235800D02*
D03*
X282200Y256950D02*
D03*
Y276800D02*
D03*
X282000Y328000D02*
D03*
Y342500D02*
D03*
X264755Y197290D02*
D03*
X279000Y209500D02*
D03*
X288000Y231500D02*
D03*
Y256500D02*
D03*
Y276500D02*
D03*
X268500D02*
D03*
X285500Y209500D02*
D03*
X290761Y226200D02*
D03*
X294000Y254000D02*
D03*
Y276000D02*
D03*
X286000Y291000D02*
D03*
X269000D02*
D03*
X270800Y196835D02*
D03*
X280500Y199000D02*
D03*
X291200Y210300D02*
D03*
X319190Y232800D02*
D03*
X331000Y354500D02*
D03*
X302500Y210000D02*
D03*
X319500Y226500D02*
D03*
X308200Y210300D02*
D03*
X325500Y228500D02*
D03*
X314500Y210000D02*
D03*
X330000Y232500D02*
D03*
X339500Y219000D02*
D03*
X366000Y230500D02*
D03*
X367500Y247500D02*
D03*
X365500Y269500D02*
D03*
X353500Y202000D02*
D03*
X380500Y201500D02*
D03*
X388500Y326500D02*
D03*
X414500Y140500D02*
D03*
Y199000D02*
D03*
X424500Y208500D02*
D03*
X422500Y244000D02*
D03*
X391500Y266000D02*
D03*
X405500Y261000D02*
D03*
X411500Y260500D02*
D03*
X393500Y198000D02*
D03*
X392500Y245000D02*
D03*
X416500Y399000D02*
D03*
X339500Y531000D02*
D03*
X250500Y529000D02*
D03*
X254500Y523500D02*
D03*
X497500Y587000D02*
D03*
X256200Y529200D02*
D03*
X262000Y526500D02*
D03*
X245500Y512500D02*
D03*
X232500Y520000D02*
D03*
X224500Y465500D02*
D03*
X311500Y660000D02*
D03*
X173500Y398500D02*
D03*
X350000Y434500D02*
D03*
X364500Y434000D02*
D03*
X249500Y467500D02*
D03*
X256000Y473500D02*
D03*
X326000Y476500D02*
D03*
X360500Y478500D02*
D03*
X352000Y538500D02*
D03*
X363000D02*
D03*
X388000Y538000D02*
D03*
X424000Y605250D02*
D03*
X405000Y470500D02*
D03*
X408500Y458500D02*
D03*
X437500Y426000D02*
D03*
X449500Y332000D02*
D03*
X396477Y513790D02*
D03*
X329000Y631000D02*
D03*
X399000Y647000D02*
D03*
X463000Y639500D02*
D03*
X471500Y593500D02*
D03*
X560500Y422500D02*
D03*
X552000Y416500D02*
D03*
X400000Y403000D02*
D03*
X378000Y410500D02*
D03*
X164500Y395500D02*
D03*
X138500Y392500D02*
D03*
X132800Y391700D02*
D03*
X393500Y283000D02*
D03*
X373500Y281000D02*
D03*
X457000Y389000D02*
D03*
X444000Y424500D02*
D03*
X468302Y612900D02*
D03*
X448000Y612500D02*
D03*
X891500Y318500D02*
D03*
X897500D02*
D03*
X901500Y307500D02*
D03*
X892500D02*
D03*
X816500Y305000D02*
D03*
X840000D02*
D03*
X877500D02*
D03*
X903500Y318500D02*
D03*
X534500Y312500D02*
D03*
X480500Y302000D02*
D03*
X849500Y288000D02*
D03*
X844500Y261500D02*
D03*
X862000Y240500D02*
D03*
X880500Y207000D02*
D03*
X915000Y308000D02*
D03*
X896000Y267000D02*
D03*
X880500Y215500D02*
D03*
X883500Y227000D02*
D03*
X907000Y201000D02*
D03*
X910500Y211500D02*
D03*
X906800Y220800D02*
D03*
X907616Y226884D02*
D03*
X817000Y167000D02*
D03*
X819000Y237500D02*
D03*
X870000Y267000D02*
D03*
X845000Y323000D02*
D03*
X833500D02*
D03*
X788490Y301610D02*
D03*
X898500Y289500D02*
D03*
X870500Y258500D02*
D03*
X825500Y250000D02*
D03*
X788500Y287500D02*
D03*
X804500Y314500D02*
D03*
X470500Y158000D02*
D03*
X202500Y340500D02*
D03*
X205500Y323000D02*
D03*
X851000Y212500D02*
D03*
X453000Y286500D02*
D03*
X219000Y416500D02*
D03*
X234500Y406000D02*
D03*
X245500Y415000D02*
D03*
Y427500D02*
D03*
Y421500D02*
D03*
X239500Y423000D02*
D03*
X234833Y414000D02*
D03*
X231000Y418500D02*
D03*
X216000Y428000D02*
D03*
X220000Y439500D02*
D03*
X235000Y505000D02*
D03*
X235500Y499000D02*
D03*
Y493000D02*
D03*
X234000Y487000D02*
D03*
X145600Y346661D02*
D03*
X140000Y306000D02*
D03*
X135500Y302000D02*
D03*
Y296000D02*
D03*
X141200Y294900D02*
D03*
X135500Y288500D02*
D03*
X140000Y284500D02*
D03*
X135500Y280500D02*
D03*
Y274500D02*
D03*
X132000Y230000D02*
D03*
Y224000D02*
D03*
X130500Y379500D02*
D03*
X118500Y360500D02*
D03*
X114500Y369000D02*
D03*
X118500Y239000D02*
D03*
X160000Y249000D02*
D03*
X135550Y241500D02*
D03*
X139500Y264500D02*
D03*
X134500Y322500D02*
D03*
X134400Y346500D02*
D03*
X186360Y121500D02*
D03*
X917000Y262500D02*
D03*
X915000Y234000D02*
D03*
D91*
X778232Y135000D02*
D03*
D92*
X786500D02*
D03*
Y144843D02*
D03*
X759728D02*
D03*
Y135000D02*
D03*
X767996D02*
D03*
D93*
X773114Y120039D02*
D03*
X468000Y472500D02*
D03*
X516000D02*
D03*
X468000Y568000D02*
D03*
X516000D02*
D03*
D94*
X818500Y565500D02*
D03*
Y214500D02*
D03*
X211500Y565500D02*
D03*
Y214500D02*
D03*
D95*
X482000Y502000D02*
D03*
Y597500D02*
D03*
X113500Y343500D02*
D03*
D96*
X873000Y389000D02*
D03*
X892685D02*
D03*
Y408685D02*
D03*
X873000D02*
D03*
X811500Y389000D02*
D03*
X831185D02*
D03*
Y408685D02*
D03*
X811500D02*
D03*
X750000Y389000D02*
D03*
X769685D02*
D03*
Y408685D02*
D03*
X750000D02*
D03*
X688000Y389000D02*
D03*
X707685D02*
D03*
Y408685D02*
D03*
X688000D02*
D03*
X627000Y389000D02*
D03*
X646685D02*
D03*
Y408685D02*
D03*
X627000D02*
D03*
X565000Y389000D02*
D03*
X584685D02*
D03*
Y408685D02*
D03*
X565000D02*
D03*
D97*
X891500Y136657D02*
D03*
Y116972D02*
D03*
Y107130D02*
D03*
X911185Y146500D02*
D03*
Y107130D02*
D03*
X921028Y146500D02*
D03*
Y107130D02*
D03*
X911185Y126815D02*
D03*
X891500D02*
D03*
Y146500D02*
D03*
D98*
X295000Y584000D02*
D03*
X150000Y161500D02*
D03*
X244500D02*
D03*
X339500D02*
D03*
D99*
X550472Y452965D02*
D03*
X916614D02*
D03*
Y669500D02*
D03*
X550472D02*
D03*
D100*
X580000D02*
D03*
D101*
X441500Y116500D02*
D03*
X431500D02*
D03*
X421500D02*
D03*
X411500D02*
D03*
X401500D02*
D03*
X391500D02*
D03*
X381500D02*
D03*
X371500D02*
D03*
X361500D02*
D03*
X351500D02*
D03*
X341500D02*
D03*
X331500D02*
D03*
X321500D02*
D03*
X311500D02*
D03*
X301500D02*
D03*
X291500D02*
D03*
X281500D02*
D03*
X271500D02*
D03*
X261500D02*
D03*
X251500D02*
D03*
X241500D02*
D03*
X231500D02*
D03*
X221500D02*
D03*
X211500D02*
D03*
X201500D02*
D03*
X191500D02*
D03*
X181500D02*
D03*
X171500D02*
D03*
X161500D02*
D03*
D102*
X151500D02*
D03*
X122000Y518500D02*
D03*
X132000D02*
D03*
X142000D02*
D03*
D103*
X114000Y116500D02*
D03*
D104*
X479000D02*
D03*
D105*
X132000Y588500D02*
D03*
M02*
