%FSLAX25Y25*%
%MOIN*%
G70*
G01*
G75*
%ADD10R,0.04331X0.05512*%
%ADD11R,0.08071X0.01772*%
%ADD12R,0.08071X0.01772*%
%ADD13R,0.05512X0.04331*%
%ADD14O,0.08000X0.01600*%
%ADD15O,0.01575X0.07480*%
%ADD16R,0.05118X0.03937*%
%ADD17R,0.03937X0.05118*%
%ADD18O,0.07480X0.01575*%
%ADD19R,0.07480X0.07087*%
%ADD20R,0.05315X0.01575*%
%ADD21R,0.06299X0.08268*%
%ADD22R,0.07480X0.07480*%
%ADD23O,0.02559X0.06693*%
%ADD24R,0.04000X0.02600*%
%ADD25R,0.05512X0.03937*%
%ADD26R,0.05906X0.05906*%
%ADD27O,0.07087X0.01575*%
%ADD28R,0.03500X0.05000*%
%ADD29R,0.05000X0.05000*%
%ADD30C,0.03000*%
%ADD31C,0.00700*%
%ADD32C,0.00800*%
%ADD33C,0.01000*%
%ADD34R,0.05906X0.05906*%
%ADD35C,0.05906*%
%ADD36C,0.04724*%
%ADD37R,0.04724X0.04724*%
%ADD38C,0.06000*%
%ADD39C,0.04000*%
%ADD40R,0.04000X0.04000*%
%ADD41R,0.05000X0.05000*%
%ADD42C,0.05000*%
%ADD43R,0.06500X0.06500*%
%ADD44C,0.06500*%
%ADD45C,0.12000*%
%ADD46C,0.14000*%
%ADD47R,0.06000X0.06000*%
%ADD48C,0.06693*%
%ADD49C,0.06299*%
%ADD50R,0.04000X0.04000*%
%ADD51C,0.15748*%
%ADD52R,0.06000X0.06000*%
%ADD53C,0.06200*%
%ADD54R,0.06200X0.06200*%
%ADD55C,0.08400*%
%ADD56C,0.10600*%
%ADD57C,0.12500*%
D10*
X878047Y185000D02*
D03*
X883953D02*
D03*
X205047Y421500D02*
D03*
X210953D02*
D03*
X233047Y513000D02*
D03*
X238953D02*
D03*
X306547Y629000D02*
D03*
X312453D02*
D03*
X352453Y531500D02*
D03*
X346547D02*
D03*
X167453Y603000D02*
D03*
X161547D02*
D03*
X167453Y583000D02*
D03*
X161547D02*
D03*
X184547Y349500D02*
D03*
X190453D02*
D03*
X346953Y202000D02*
D03*
X341047D02*
D03*
X378953Y387500D02*
D03*
X373047D02*
D03*
X143547Y140000D02*
D03*
X149453D02*
D03*
X461453Y139500D02*
D03*
X455547D02*
D03*
X913047Y203000D02*
D03*
X918953D02*
D03*
X910547Y243500D02*
D03*
X916453D02*
D03*
X896953Y249000D02*
D03*
X891047D02*
D03*
X875047D02*
D03*
X880953D02*
D03*
X848000Y205500D02*
D03*
X842094D02*
D03*
X556453Y217000D02*
D03*
X550547D02*
D03*
X137953Y354500D02*
D03*
X132047D02*
D03*
X522047Y430500D02*
D03*
X527953D02*
D03*
X455547Y149000D02*
D03*
X461453D02*
D03*
X822953Y122000D02*
D03*
X817047D02*
D03*
X822953Y159000D02*
D03*
X817047D02*
D03*
X822953Y140500D02*
D03*
X817047D02*
D03*
X440453Y388000D02*
D03*
X434547D02*
D03*
X894047Y185000D02*
D03*
X899953D02*
D03*
X281453Y388500D02*
D03*
X275547D02*
D03*
X334547Y404000D02*
D03*
X340453D02*
D03*
X149453Y149500D02*
D03*
X143547D02*
D03*
X489453Y339500D02*
D03*
X483547D02*
D03*
X157953Y203000D02*
D03*
X152047D02*
D03*
X490953Y388000D02*
D03*
X485047D02*
D03*
X246143Y203500D02*
D03*
X252049D02*
D03*
D11*
X871909Y232134D02*
D03*
D12*
Y229575D02*
D03*
Y227016D02*
D03*
Y224457D02*
D03*
Y221898D02*
D03*
Y219339D02*
D03*
Y216780D02*
D03*
Y214220D02*
D03*
Y211661D02*
D03*
Y209102D02*
D03*
Y206543D02*
D03*
Y203984D02*
D03*
Y201425D02*
D03*
Y198866D02*
D03*
X898091Y232134D02*
D03*
Y229575D02*
D03*
Y227016D02*
D03*
Y224457D02*
D03*
Y221898D02*
D03*
Y219339D02*
D03*
Y216780D02*
D03*
Y214220D02*
D03*
Y211661D02*
D03*
Y209102D02*
D03*
Y206543D02*
D03*
Y203984D02*
D03*
Y201425D02*
D03*
Y198866D02*
D03*
D13*
X531500Y593453D02*
D03*
Y587547D02*
D03*
X235000Y654547D02*
D03*
Y660453D02*
D03*
X399500Y601453D02*
D03*
Y595547D02*
D03*
X444500Y220547D02*
D03*
Y226453D02*
D03*
X451000Y574047D02*
D03*
Y579953D02*
D03*
X924000Y290453D02*
D03*
Y284547D02*
D03*
X878000Y284047D02*
D03*
Y289953D02*
D03*
X836000Y241547D02*
D03*
Y247453D02*
D03*
X165000Y485047D02*
D03*
Y490953D02*
D03*
X144000Y250547D02*
D03*
Y256453D02*
D03*
X162000Y410453D02*
D03*
Y404547D02*
D03*
Y451453D02*
D03*
Y445547D02*
D03*
X394500Y661453D02*
D03*
Y655547D02*
D03*
X206500Y275047D02*
D03*
Y280953D02*
D03*
D14*
X150000Y289000D02*
D03*
Y286500D02*
D03*
Y284000D02*
D03*
Y281500D02*
D03*
Y279000D02*
D03*
Y276500D02*
D03*
Y274000D02*
D03*
Y271500D02*
D03*
Y339000D02*
D03*
X186000D02*
D03*
Y271500D02*
D03*
X150000Y291500D02*
D03*
Y294000D02*
D03*
Y296500D02*
D03*
Y299000D02*
D03*
Y301500D02*
D03*
Y304000D02*
D03*
Y306500D02*
D03*
Y309000D02*
D03*
Y311500D02*
D03*
Y314000D02*
D03*
Y316500D02*
D03*
Y319000D02*
D03*
Y321500D02*
D03*
Y324000D02*
D03*
Y326500D02*
D03*
Y329000D02*
D03*
Y331500D02*
D03*
Y334000D02*
D03*
Y336500D02*
D03*
X186000D02*
D03*
Y334000D02*
D03*
Y331500D02*
D03*
Y329000D02*
D03*
Y326500D02*
D03*
Y324000D02*
D03*
Y321500D02*
D03*
Y319000D02*
D03*
Y316500D02*
D03*
Y314000D02*
D03*
Y311500D02*
D03*
Y309000D02*
D03*
Y306500D02*
D03*
Y304000D02*
D03*
Y301500D02*
D03*
Y299000D02*
D03*
Y296500D02*
D03*
Y294000D02*
D03*
Y291500D02*
D03*
Y289000D02*
D03*
Y286500D02*
D03*
Y284000D02*
D03*
Y281500D02*
D03*
Y279000D02*
D03*
Y276500D02*
D03*
Y274000D02*
D03*
D15*
X171059Y260862D02*
D03*
X173618D02*
D03*
X176177D02*
D03*
X178736D02*
D03*
X183854Y233500D02*
D03*
X181295D02*
D03*
X178736D02*
D03*
X176177D02*
D03*
X173618D02*
D03*
X168500D02*
D03*
X171059D02*
D03*
X183854Y260862D02*
D03*
X181295D02*
D03*
X186413D02*
D03*
X168500D02*
D03*
X186413Y233500D02*
D03*
X272441Y570138D02*
D03*
X269882D02*
D03*
X267323D02*
D03*
X264764D02*
D03*
X259646Y597500D02*
D03*
X262205D02*
D03*
X264764D02*
D03*
X267323D02*
D03*
X269882D02*
D03*
X275000D02*
D03*
X272441D02*
D03*
X259646Y570138D02*
D03*
X262205D02*
D03*
X257087D02*
D03*
X275000D02*
D03*
X257087Y597500D02*
D03*
X275941Y515138D02*
D03*
X273382D02*
D03*
X270823D02*
D03*
X268264D02*
D03*
X263146Y542500D02*
D03*
X265705D02*
D03*
X268264D02*
D03*
X270823D02*
D03*
X273382D02*
D03*
X278500D02*
D03*
X275941D02*
D03*
X263146Y515138D02*
D03*
X265705D02*
D03*
X260587D02*
D03*
X278500D02*
D03*
X260587Y542500D02*
D03*
X170000Y457862D02*
D03*
X177677D02*
D03*
X175118D02*
D03*
X172559D02*
D03*
X193032D02*
D03*
Y430500D02*
D03*
X190472D02*
D03*
X172559D02*
D03*
X170000D02*
D03*
X175118D02*
D03*
X177677D02*
D03*
X180236D02*
D03*
X182795D02*
D03*
X185354D02*
D03*
X187913D02*
D03*
X190472Y457862D02*
D03*
X187913D02*
D03*
X185354D02*
D03*
X182795D02*
D03*
X180236D02*
D03*
X172500Y497862D02*
D03*
X180177D02*
D03*
X177618D02*
D03*
X175059D02*
D03*
X195532D02*
D03*
Y470500D02*
D03*
X192972D02*
D03*
X175059D02*
D03*
X172500D02*
D03*
X177618D02*
D03*
X180177D02*
D03*
X182736D02*
D03*
X185295D02*
D03*
X187854D02*
D03*
X190413D02*
D03*
X192972Y497862D02*
D03*
X190413D02*
D03*
X187854D02*
D03*
X185295D02*
D03*
X182736D02*
D03*
X193000Y388138D02*
D03*
X185323D02*
D03*
X187882D02*
D03*
X190441D02*
D03*
X169969D02*
D03*
Y415500D02*
D03*
X172528D02*
D03*
X190441D02*
D03*
X193000D02*
D03*
X187882D02*
D03*
X185323D02*
D03*
X182764D02*
D03*
X180205D02*
D03*
X177646D02*
D03*
X175087D02*
D03*
X172528Y388138D02*
D03*
X175087D02*
D03*
X177646D02*
D03*
X180205D02*
D03*
X182764D02*
D03*
D16*
X360665Y655150D02*
D03*
Y648850D02*
D03*
X350665Y655150D02*
D03*
Y648850D02*
D03*
X340665D02*
D03*
Y655150D02*
D03*
X330665Y648850D02*
D03*
Y655150D02*
D03*
X320665Y648850D02*
D03*
Y655150D02*
D03*
X208000Y660650D02*
D03*
Y654350D02*
D03*
X218000D02*
D03*
Y660650D02*
D03*
X391500Y360850D02*
D03*
Y367150D02*
D03*
X166500Y524850D02*
D03*
Y531150D02*
D03*
X177000Y524850D02*
D03*
Y531150D02*
D03*
X794000Y243650D02*
D03*
Y237350D02*
D03*
X763000Y332650D02*
D03*
Y326350D02*
D03*
X303000Y655150D02*
D03*
Y648850D02*
D03*
D17*
X588650Y142000D02*
D03*
X582350D02*
D03*
X588650Y152000D02*
D03*
X582350D02*
D03*
X588650Y182000D02*
D03*
X582350D02*
D03*
X588650Y172000D02*
D03*
X582350D02*
D03*
X588650Y162500D02*
D03*
X582350D02*
D03*
X588650Y192000D02*
D03*
X582350D02*
D03*
X459850Y397500D02*
D03*
X466150D02*
D03*
X435850Y205500D02*
D03*
X442150D02*
D03*
X274150Y426000D02*
D03*
X267850D02*
D03*
X215650Y471500D02*
D03*
X209350D02*
D03*
X804350Y179500D02*
D03*
X810650D02*
D03*
X804350Y189500D02*
D03*
X810650D02*
D03*
X847350Y122000D02*
D03*
X853650D02*
D03*
X847350Y159000D02*
D03*
X853650D02*
D03*
X847350Y140500D02*
D03*
X853650D02*
D03*
X141650Y444500D02*
D03*
X135350D02*
D03*
X244650Y600000D02*
D03*
X238350D02*
D03*
Y611500D02*
D03*
X244650D02*
D03*
X815150Y298000D02*
D03*
X808850D02*
D03*
X439850Y596000D02*
D03*
X446150D02*
D03*
X520850Y157000D02*
D03*
X527150D02*
D03*
X141150Y467500D02*
D03*
X134850D02*
D03*
X588650Y202000D02*
D03*
X582350D02*
D03*
X588650Y132000D02*
D03*
X582350D02*
D03*
X450850Y260500D02*
D03*
X457150D02*
D03*
X588650Y212000D02*
D03*
X582350D02*
D03*
X815150Y289500D02*
D03*
X808850D02*
D03*
X455350Y158500D02*
D03*
X461650D02*
D03*
X588650Y222000D02*
D03*
X582350D02*
D03*
X171850Y140000D02*
D03*
X178150D02*
D03*
X421850D02*
D03*
X428150D02*
D03*
X361850D02*
D03*
X368150D02*
D03*
D18*
X602362Y298441D02*
D03*
Y295882D02*
D03*
Y293323D02*
D03*
Y290764D02*
D03*
X575000Y285646D02*
D03*
Y288205D02*
D03*
Y290764D02*
D03*
Y293323D02*
D03*
Y295882D02*
D03*
Y301000D02*
D03*
Y298441D02*
D03*
X602362Y285646D02*
D03*
Y288205D02*
D03*
Y283087D02*
D03*
Y301000D02*
D03*
X575000Y283087D02*
D03*
X466638Y309000D02*
D03*
Y316677D02*
D03*
Y314118D02*
D03*
Y311559D02*
D03*
Y332032D02*
D03*
X494000D02*
D03*
Y329472D02*
D03*
Y311559D02*
D03*
Y309000D02*
D03*
Y314118D02*
D03*
Y316677D02*
D03*
Y319236D02*
D03*
Y321795D02*
D03*
Y324354D02*
D03*
Y326913D02*
D03*
X466638Y329472D02*
D03*
Y326913D02*
D03*
Y324354D02*
D03*
Y321795D02*
D03*
Y319236D02*
D03*
X534362Y412764D02*
D03*
Y410205D02*
D03*
Y407646D02*
D03*
Y405087D02*
D03*
Y402528D02*
D03*
X507000Y405087D02*
D03*
Y407646D02*
D03*
Y410205D02*
D03*
Y412764D02*
D03*
Y415323D02*
D03*
Y417882D02*
D03*
Y423000D02*
D03*
Y420441D02*
D03*
Y402528D02*
D03*
Y399969D02*
D03*
X534362D02*
D03*
Y420441D02*
D03*
Y417882D02*
D03*
Y415323D02*
D03*
Y423000D02*
D03*
X230138Y432000D02*
D03*
Y439677D02*
D03*
Y437118D02*
D03*
Y434559D02*
D03*
Y455032D02*
D03*
X257500D02*
D03*
Y452472D02*
D03*
Y434559D02*
D03*
Y432000D02*
D03*
Y437118D02*
D03*
Y439677D02*
D03*
Y442236D02*
D03*
Y444795D02*
D03*
Y447354D02*
D03*
Y449913D02*
D03*
X230138Y452472D02*
D03*
Y449913D02*
D03*
Y447354D02*
D03*
Y444795D02*
D03*
Y442236D02*
D03*
X222638Y481500D02*
D03*
Y489177D02*
D03*
Y486618D02*
D03*
Y484059D02*
D03*
Y504532D02*
D03*
X250000D02*
D03*
Y501972D02*
D03*
Y484059D02*
D03*
Y481500D02*
D03*
Y486618D02*
D03*
Y489177D02*
D03*
Y491736D02*
D03*
Y494295D02*
D03*
Y496854D02*
D03*
Y499413D02*
D03*
X222638Y501972D02*
D03*
Y499413D02*
D03*
Y496854D02*
D03*
Y494295D02*
D03*
Y491736D02*
D03*
X493862Y380000D02*
D03*
Y372323D02*
D03*
Y374882D02*
D03*
Y377441D02*
D03*
Y356969D02*
D03*
X466500D02*
D03*
Y359528D02*
D03*
Y377441D02*
D03*
Y380000D02*
D03*
Y374882D02*
D03*
Y372323D02*
D03*
Y369764D02*
D03*
Y367205D02*
D03*
Y364646D02*
D03*
Y362087D02*
D03*
X493862Y359528D02*
D03*
Y362087D02*
D03*
Y364646D02*
D03*
Y367205D02*
D03*
Y369764D02*
D03*
D19*
X106240Y668957D02*
D03*
Y639035D02*
D03*
D20*
X116772Y651437D02*
D03*
Y648878D02*
D03*
Y653996D02*
D03*
Y656555D02*
D03*
Y659114D02*
D03*
D21*
X116280Y641791D02*
D03*
Y666201D02*
D03*
D22*
X106240Y649272D02*
D03*
Y658720D02*
D03*
D23*
X839720Y276346D02*
D03*
X844720D02*
D03*
X849720D02*
D03*
X869720D02*
D03*
X864720D02*
D03*
X859720D02*
D03*
X854720D02*
D03*
Y298394D02*
D03*
X859720D02*
D03*
X864720D02*
D03*
X869720D02*
D03*
X849720D02*
D03*
X844720D02*
D03*
X839720D02*
D03*
X886220Y276346D02*
D03*
X891220D02*
D03*
X896220D02*
D03*
X916220D02*
D03*
X911220D02*
D03*
X906220D02*
D03*
X901220D02*
D03*
Y298394D02*
D03*
X906220D02*
D03*
X911220D02*
D03*
X916220D02*
D03*
X896220D02*
D03*
X891220D02*
D03*
X886220D02*
D03*
D24*
X439000Y578500D02*
D03*
Y571000D02*
D03*
Y574750D02*
D03*
X428800Y578500D02*
D03*
Y574750D02*
D03*
Y571000D02*
D03*
D25*
X439756Y630472D02*
D03*
Y658032D02*
D03*
X469744Y658028D02*
D03*
Y630469D02*
D03*
D26*
X223390Y600000D02*
D03*
X209610D02*
D03*
X223390Y611500D02*
D03*
X209610D02*
D03*
X528000Y612000D02*
D03*
X399500Y570500D02*
D03*
D27*
X427602Y396500D02*
D03*
X446500D02*
D03*
X427602Y404177D02*
D03*
Y401618D02*
D03*
Y399059D02*
D03*
X446500Y404177D02*
D03*
Y401618D02*
D03*
Y399059D02*
D03*
D28*
X405500Y632000D02*
D03*
X413000D02*
D03*
X405500Y642000D02*
D03*
D29*
X412500D02*
D03*
D30*
X98500Y98500D02*
Y119500D01*
X931500Y98500D02*
Y119500D01*
X98500Y660500D02*
Y681500D01*
Y98500D02*
X119500D01*
X910500D02*
X931500D01*
X98500Y681500D02*
X119500D01*
D34*
X345000Y551000D02*
D03*
X754000Y280000D02*
D03*
X330000Y269500D02*
D03*
X559000Y179500D02*
D03*
X398500Y535500D02*
D03*
X425000Y176000D02*
D03*
X446000Y186000D02*
D03*
X376000Y665000D02*
D03*
D35*
X345000Y561000D02*
D03*
X754000Y290000D02*
D03*
Y300000D02*
D03*
X330000Y279500D02*
D03*
X518000Y612000D02*
D03*
X508000D02*
D03*
X559000Y189500D02*
D03*
X398500Y555500D02*
D03*
Y545500D02*
D03*
X389500Y570500D02*
D03*
X425000Y186000D02*
D03*
Y196000D02*
D03*
X446000D02*
D03*
X376000Y645000D02*
D03*
Y655000D02*
D03*
D36*
X423500Y540000D02*
D03*
X433500Y550000D02*
D03*
D37*
Y530000D02*
D03*
D38*
X559500Y117000D02*
D03*
X574500D02*
D03*
X817047Y113500D02*
D03*
X502000Y502000D02*
D03*
X492000D02*
D03*
X482000Y443000D02*
D03*
X502000D02*
D03*
Y597500D02*
D03*
X492000D02*
D03*
X482000Y538500D02*
D03*
X502000D02*
D03*
X123500Y343500D02*
D03*
X113500Y333500D02*
D03*
X123500D02*
D03*
X113500Y323500D02*
D03*
X123500D02*
D03*
Y313500D02*
D03*
X113500D02*
D03*
Y303500D02*
D03*
X123500D02*
D03*
Y293500D02*
D03*
X113500D02*
D03*
Y283500D02*
D03*
X123500D02*
D03*
Y273500D02*
D03*
X113500D02*
D03*
Y263500D02*
D03*
X123500D02*
D03*
Y253500D02*
D03*
X113500D02*
D03*
Y243500D02*
D03*
X123500D02*
D03*
Y233500D02*
D03*
X113500D02*
D03*
Y223500D02*
D03*
X123500D02*
D03*
Y213500D02*
D03*
X113500D02*
D03*
Y203500D02*
D03*
X123500D02*
D03*
Y193500D02*
D03*
X113500D02*
D03*
Y183500D02*
D03*
X123500D02*
D03*
Y173500D02*
D03*
X113500D02*
D03*
Y163500D02*
D03*
X123500D02*
D03*
X113500Y153500D02*
D03*
X123500D02*
D03*
X590000Y669500D02*
D03*
X600000D02*
D03*
X610000D02*
D03*
X620000D02*
D03*
X630000D02*
D03*
X640000D02*
D03*
X650000D02*
D03*
X660000D02*
D03*
X670000D02*
D03*
X680000D02*
D03*
X690000D02*
D03*
X700000D02*
D03*
X710000D02*
D03*
X720000D02*
D03*
X730000D02*
D03*
X179000Y649000D02*
D03*
Y659000D02*
D03*
X169000Y354000D02*
D03*
D39*
X284000Y669000D02*
D03*
Y639000D02*
D03*
X254000D02*
D03*
X248500Y366000D02*
D03*
Y356000D02*
D03*
Y346000D02*
D03*
Y336000D02*
D03*
Y326000D02*
D03*
Y316000D02*
D03*
Y306000D02*
D03*
Y296000D02*
D03*
Y286000D02*
D03*
Y276000D02*
D03*
Y266000D02*
D03*
Y256000D02*
D03*
Y246000D02*
D03*
Y236000D02*
D03*
Y226000D02*
D03*
X308500D02*
D03*
Y236000D02*
D03*
Y246000D02*
D03*
Y256000D02*
D03*
Y266000D02*
D03*
Y276000D02*
D03*
Y286000D02*
D03*
Y296000D02*
D03*
Y306000D02*
D03*
Y316000D02*
D03*
Y326000D02*
D03*
Y336000D02*
D03*
Y346000D02*
D03*
Y356000D02*
D03*
Y366000D02*
D03*
Y376000D02*
D03*
X376500D02*
D03*
Y366000D02*
D03*
Y356000D02*
D03*
Y346000D02*
D03*
Y336000D02*
D03*
Y326000D02*
D03*
Y316000D02*
D03*
Y306000D02*
D03*
Y296000D02*
D03*
Y286000D02*
D03*
Y276000D02*
D03*
Y266000D02*
D03*
Y256000D02*
D03*
Y246000D02*
D03*
Y236000D02*
D03*
Y226000D02*
D03*
X346500D02*
D03*
Y236000D02*
D03*
Y246000D02*
D03*
Y256000D02*
D03*
Y266000D02*
D03*
Y276000D02*
D03*
Y286000D02*
D03*
Y296000D02*
D03*
Y306000D02*
D03*
Y316000D02*
D03*
Y326000D02*
D03*
Y336000D02*
D03*
Y346000D02*
D03*
Y356000D02*
D03*
Y366000D02*
D03*
X305000Y584000D02*
D03*
X315000D02*
D03*
X325000D02*
D03*
X335000D02*
D03*
X345000D02*
D03*
X355000D02*
D03*
X365000D02*
D03*
X375000D02*
D03*
X385000D02*
D03*
Y614000D02*
D03*
X375000D02*
D03*
X365000D02*
D03*
X355000D02*
D03*
X345000D02*
D03*
X335000D02*
D03*
X325000D02*
D03*
X315000D02*
D03*
X305000D02*
D03*
X295000D02*
D03*
X160000Y161500D02*
D03*
X170000D02*
D03*
X180000D02*
D03*
X190000D02*
D03*
X200000D02*
D03*
X210000D02*
D03*
X220000D02*
D03*
Y191500D02*
D03*
X210000D02*
D03*
X200000D02*
D03*
X190000D02*
D03*
X180000D02*
D03*
X170000D02*
D03*
X160000D02*
D03*
X150000D02*
D03*
X254500Y161500D02*
D03*
X264500D02*
D03*
X274500D02*
D03*
X284500D02*
D03*
X294500D02*
D03*
X304500D02*
D03*
X314500D02*
D03*
Y191500D02*
D03*
X304500D02*
D03*
X294500D02*
D03*
X284500D02*
D03*
X274500D02*
D03*
X264500D02*
D03*
X254500D02*
D03*
X244500D02*
D03*
X349500Y161500D02*
D03*
X359500D02*
D03*
X369500D02*
D03*
X379500D02*
D03*
X389500D02*
D03*
X399500D02*
D03*
X409500D02*
D03*
Y191500D02*
D03*
X399500D02*
D03*
X389500D02*
D03*
X379500D02*
D03*
X369500D02*
D03*
X359500D02*
D03*
X349500D02*
D03*
X339500D02*
D03*
D40*
X254000Y669000D02*
D03*
X248500Y376000D02*
D03*
X346500D02*
D03*
D41*
X779000Y315500D02*
D03*
D42*
X839000D02*
D03*
Y345500D02*
D03*
X779000D02*
D03*
X624000Y233000D02*
D03*
Y243000D02*
D03*
Y253000D02*
D03*
Y263000D02*
D03*
Y273000D02*
D03*
Y283000D02*
D03*
Y293000D02*
D03*
Y303000D02*
D03*
Y313000D02*
D03*
Y323000D02*
D03*
Y333000D02*
D03*
Y343000D02*
D03*
X634000Y233000D02*
D03*
Y243000D02*
D03*
Y253000D02*
D03*
Y263000D02*
D03*
Y273000D02*
D03*
Y283000D02*
D03*
Y293000D02*
D03*
Y303000D02*
D03*
Y313000D02*
D03*
Y323000D02*
D03*
Y333000D02*
D03*
Y343000D02*
D03*
X644000Y233000D02*
D03*
Y243000D02*
D03*
Y253000D02*
D03*
Y263000D02*
D03*
Y273000D02*
D03*
Y283000D02*
D03*
Y293000D02*
D03*
Y303000D02*
D03*
Y313000D02*
D03*
Y323000D02*
D03*
Y333000D02*
D03*
Y343000D02*
D03*
X654000Y233000D02*
D03*
Y243000D02*
D03*
Y253000D02*
D03*
Y263000D02*
D03*
Y273000D02*
D03*
Y283000D02*
D03*
Y293000D02*
D03*
Y303000D02*
D03*
Y313000D02*
D03*
Y323000D02*
D03*
Y333000D02*
D03*
Y343000D02*
D03*
X664000Y233000D02*
D03*
Y243000D02*
D03*
Y253000D02*
D03*
Y263000D02*
D03*
Y273000D02*
D03*
Y283000D02*
D03*
Y293000D02*
D03*
Y303000D02*
D03*
Y313000D02*
D03*
Y323000D02*
D03*
Y333000D02*
D03*
Y343000D02*
D03*
X674000Y233000D02*
D03*
Y243000D02*
D03*
Y253000D02*
D03*
Y263000D02*
D03*
Y273000D02*
D03*
Y283000D02*
D03*
Y293000D02*
D03*
Y303000D02*
D03*
Y313000D02*
D03*
Y323000D02*
D03*
Y333000D02*
D03*
Y343000D02*
D03*
X684000Y233000D02*
D03*
Y243000D02*
D03*
Y253000D02*
D03*
Y263000D02*
D03*
Y273000D02*
D03*
Y283000D02*
D03*
Y293000D02*
D03*
Y303000D02*
D03*
Y313000D02*
D03*
Y323000D02*
D03*
Y333000D02*
D03*
Y343000D02*
D03*
X694000Y233000D02*
D03*
Y243000D02*
D03*
Y253000D02*
D03*
Y263000D02*
D03*
Y273000D02*
D03*
Y283000D02*
D03*
Y293000D02*
D03*
Y303000D02*
D03*
Y313000D02*
D03*
Y323000D02*
D03*
Y333000D02*
D03*
Y343000D02*
D03*
X704000Y233000D02*
D03*
Y243000D02*
D03*
Y253000D02*
D03*
Y263000D02*
D03*
Y273000D02*
D03*
Y283000D02*
D03*
Y293000D02*
D03*
Y303000D02*
D03*
Y313000D02*
D03*
Y323000D02*
D03*
Y333000D02*
D03*
Y343000D02*
D03*
X714000Y233000D02*
D03*
Y243000D02*
D03*
Y253000D02*
D03*
Y263000D02*
D03*
Y273000D02*
D03*
Y283000D02*
D03*
Y293000D02*
D03*
Y303000D02*
D03*
Y313000D02*
D03*
Y323000D02*
D03*
Y333000D02*
D03*
Y343000D02*
D03*
X724000Y233000D02*
D03*
Y243000D02*
D03*
Y253000D02*
D03*
Y263000D02*
D03*
Y273000D02*
D03*
Y283000D02*
D03*
Y293000D02*
D03*
Y303000D02*
D03*
Y313000D02*
D03*
Y323000D02*
D03*
Y333000D02*
D03*
Y343000D02*
D03*
X734000Y233000D02*
D03*
Y243000D02*
D03*
Y253000D02*
D03*
Y263000D02*
D03*
Y273000D02*
D03*
Y283000D02*
D03*
Y293000D02*
D03*
Y303000D02*
D03*
Y313000D02*
D03*
Y323000D02*
D03*
Y333000D02*
D03*
Y343000D02*
D03*
X296500Y508000D02*
D03*
X306500D02*
D03*
X296500Y498000D02*
D03*
Y488000D02*
D03*
X306500D02*
D03*
X296500Y478000D02*
D03*
X306500D02*
D03*
X296500Y468000D02*
D03*
X306500D02*
D03*
X296500Y458000D02*
D03*
X306500D02*
D03*
X296500Y448000D02*
D03*
X306500D02*
D03*
X296500Y438000D02*
D03*
X306500D02*
D03*
X296500Y428000D02*
D03*
X306500Y418000D02*
D03*
Y428000D02*
D03*
X316500Y418000D02*
D03*
Y428000D02*
D03*
X326500Y418000D02*
D03*
Y428000D02*
D03*
X336500Y418000D02*
D03*
Y428000D02*
D03*
X346500Y418000D02*
D03*
Y428000D02*
D03*
X356500Y418000D02*
D03*
Y428000D02*
D03*
X366500Y418000D02*
D03*
Y428000D02*
D03*
X376500Y418000D02*
D03*
Y428000D02*
D03*
X386500Y418000D02*
D03*
Y428000D02*
D03*
X396500D02*
D03*
Y438000D02*
D03*
X386500D02*
D03*
X396500Y448000D02*
D03*
X386500D02*
D03*
X396500Y458000D02*
D03*
X386500D02*
D03*
X396500Y468000D02*
D03*
X386500D02*
D03*
X396500Y478000D02*
D03*
X386500D02*
D03*
X396500Y488000D02*
D03*
X386500D02*
D03*
X396500Y498000D02*
D03*
X386500D02*
D03*
X396500Y508000D02*
D03*
X386500Y518000D02*
D03*
Y508000D02*
D03*
X376500Y518000D02*
D03*
Y508000D02*
D03*
X366500Y518000D02*
D03*
Y508000D02*
D03*
X356500Y518000D02*
D03*
Y508000D02*
D03*
X346500Y518000D02*
D03*
Y508000D02*
D03*
X336500Y518000D02*
D03*
Y508000D02*
D03*
X326500Y518000D02*
D03*
Y508000D02*
D03*
X316500Y518000D02*
D03*
Y508000D02*
D03*
X306500Y518000D02*
D03*
Y498000D02*
D03*
X502500Y240000D02*
D03*
X492500Y250000D02*
D03*
Y240000D02*
D03*
X482500Y250000D02*
D03*
Y240000D02*
D03*
X472500Y250000D02*
D03*
X462500Y240000D02*
D03*
X472500D02*
D03*
X462500Y230000D02*
D03*
X472500D02*
D03*
X462500Y220000D02*
D03*
X472500D02*
D03*
X462500Y210000D02*
D03*
X472500D02*
D03*
X462500Y200000D02*
D03*
X472500D02*
D03*
X462500Y190000D02*
D03*
X472500Y180000D02*
D03*
Y190000D02*
D03*
X482500Y180000D02*
D03*
Y190000D02*
D03*
X492500Y180000D02*
D03*
Y190000D02*
D03*
X502500Y180000D02*
D03*
Y190000D02*
D03*
X512500Y180000D02*
D03*
Y190000D02*
D03*
X522500Y180000D02*
D03*
X532500Y190000D02*
D03*
X522500D02*
D03*
X532500Y200000D02*
D03*
X522500D02*
D03*
X532500Y210000D02*
D03*
X522500D02*
D03*
X532500Y220000D02*
D03*
X522500D02*
D03*
X532500Y230000D02*
D03*
X522500D02*
D03*
X532500Y240000D02*
D03*
X522500Y250000D02*
D03*
Y240000D02*
D03*
X512500Y250000D02*
D03*
Y240000D02*
D03*
X502500Y250000D02*
D03*
X152000Y649000D02*
D03*
Y659000D02*
D03*
X903000Y165000D02*
D03*
X913000D02*
D03*
X883000D02*
D03*
X873000D02*
D03*
X734000Y223000D02*
D03*
X724000D02*
D03*
X674000D02*
D03*
X684000D02*
D03*
X664000D02*
D03*
X704000D02*
D03*
X714000D02*
D03*
X694000D02*
D03*
X644000D02*
D03*
X654000D02*
D03*
X634000D02*
D03*
X624000D02*
D03*
X734000Y353000D02*
D03*
X724000D02*
D03*
X704000D02*
D03*
X714000D02*
D03*
X694000D02*
D03*
X654000D02*
D03*
X664000D02*
D03*
X644000D02*
D03*
X684000D02*
D03*
X674000D02*
D03*
X634000D02*
D03*
X624000D02*
D03*
D43*
X778232Y135000D02*
D03*
D44*
X786500D02*
D03*
Y144843D02*
D03*
X759728D02*
D03*
Y135000D02*
D03*
X767996D02*
D03*
D45*
X773114Y120039D02*
D03*
X468000Y472500D02*
D03*
X516000D02*
D03*
X468000Y568000D02*
D03*
X516000D02*
D03*
D46*
X818500Y565500D02*
D03*
Y214500D02*
D03*
X211500Y565500D02*
D03*
Y214500D02*
D03*
D47*
X482000Y502000D02*
D03*
Y597500D02*
D03*
X113500Y343500D02*
D03*
D48*
X873000Y389000D02*
D03*
X892685D02*
D03*
Y408685D02*
D03*
X873000D02*
D03*
X811500Y389000D02*
D03*
X831185D02*
D03*
Y408685D02*
D03*
X811500D02*
D03*
X750000Y389000D02*
D03*
X769685D02*
D03*
Y408685D02*
D03*
X750000D02*
D03*
X688000Y389000D02*
D03*
X707685D02*
D03*
Y408685D02*
D03*
X688000D02*
D03*
X627000Y389000D02*
D03*
X646685D02*
D03*
Y408685D02*
D03*
X627000D02*
D03*
X565000Y389000D02*
D03*
X584685D02*
D03*
Y408685D02*
D03*
X565000D02*
D03*
D49*
X891500Y136657D02*
D03*
Y116972D02*
D03*
Y107130D02*
D03*
X911185Y146500D02*
D03*
Y107130D02*
D03*
X921028Y146500D02*
D03*
Y107130D02*
D03*
X911185Y126815D02*
D03*
X891500D02*
D03*
Y146500D02*
D03*
D50*
X295000Y584000D02*
D03*
X150000Y161500D02*
D03*
X244500D02*
D03*
X339500D02*
D03*
D51*
X550472Y452965D02*
D03*
X916614D02*
D03*
Y669500D02*
D03*
X550472D02*
D03*
D52*
X580000D02*
D03*
D53*
X441500Y116500D02*
D03*
X431500D02*
D03*
X421500D02*
D03*
X411500D02*
D03*
X401500D02*
D03*
X391500D02*
D03*
X381500D02*
D03*
X371500D02*
D03*
X361500D02*
D03*
X351500D02*
D03*
X341500D02*
D03*
X331500D02*
D03*
X321500D02*
D03*
X311500D02*
D03*
X301500D02*
D03*
X291500D02*
D03*
X281500D02*
D03*
X271500D02*
D03*
X261500D02*
D03*
X251500D02*
D03*
X241500D02*
D03*
X231500D02*
D03*
X221500D02*
D03*
X211500D02*
D03*
X201500D02*
D03*
X191500D02*
D03*
X181500D02*
D03*
X171500D02*
D03*
X161500D02*
D03*
D54*
X151500D02*
D03*
X122000Y518500D02*
D03*
X132000D02*
D03*
X142000D02*
D03*
D55*
X114000Y116500D02*
D03*
D56*
X479000D02*
D03*
D57*
X132000Y588500D02*
D03*
M02*
