%FSLAX25Y25*%
%MOIN*%
G70*
G01*
G75*
G04 Layer_Color=8421504*
%ADD10R,0.04331X0.05512*%
%ADD11R,0.08071X0.01772*%
%ADD12R,0.08071X0.01772*%
%ADD13R,0.05512X0.04331*%
%ADD14O,0.08000X0.01600*%
%ADD15O,0.01575X0.07480*%
%ADD16R,0.05118X0.03937*%
%ADD17R,0.03937X0.05118*%
%ADD18O,0.07480X0.01575*%
%ADD19R,0.07480X0.07087*%
%ADD20R,0.05315X0.01575*%
%ADD21R,0.06299X0.08268*%
%ADD22R,0.07480X0.07480*%
%ADD23O,0.02559X0.06693*%
%ADD24R,0.04000X0.02600*%
%ADD25R,0.05512X0.03937*%
%ADD26R,0.05906X0.05906*%
%ADD27O,0.07087X0.01575*%
%ADD28R,0.03500X0.05000*%
%ADD29R,0.05000X0.05000*%
%ADD30C,0.03000*%
%ADD31C,0.00700*%
%ADD32C,0.00800*%
%ADD33C,0.01000*%
%ADD34R,0.05906X0.05906*%
%ADD35C,0.05906*%
%ADD36C,0.04724*%
%ADD37R,0.04724X0.04724*%
%ADD38C,0.06000*%
%ADD39C,0.04000*%
%ADD40R,0.04000X0.04000*%
%ADD41R,0.05000X0.05000*%
%ADD42C,0.05000*%
%ADD43R,0.06500X0.06500*%
%ADD44C,0.06500*%
%ADD45C,0.12000*%
%ADD46C,0.14000*%
%ADD47R,0.06000X0.06000*%
%ADD48C,0.06693*%
%ADD49C,0.06299*%
%ADD50R,0.04000X0.04000*%
%ADD51C,0.15748*%
%ADD52R,0.06000X0.06000*%
%ADD53C,0.06200*%
%ADD54R,0.06200X0.06200*%
%ADD55C,0.08400*%
%ADD56C,0.10600*%
%ADD57C,0.12500*%
%ADD58C,0.00984*%
%ADD59C,0.00787*%
%ADD60C,0.01200*%
%ADD61C,0.00600*%
D10*
X878047Y185000D02*
D03*
X883953D02*
D03*
X205047Y421500D02*
D03*
X210953D02*
D03*
X233047Y513000D02*
D03*
X238953D02*
D03*
X306547Y629000D02*
D03*
X312453D02*
D03*
X352453Y531500D02*
D03*
X346547D02*
D03*
X167453Y603000D02*
D03*
X161547D02*
D03*
X167453Y583000D02*
D03*
X161547D02*
D03*
X184547Y349500D02*
D03*
X190453D02*
D03*
X346953Y202000D02*
D03*
X341047D02*
D03*
X378953Y387500D02*
D03*
X373047D02*
D03*
X143547Y140000D02*
D03*
X149453D02*
D03*
X461453Y139500D02*
D03*
X455547D02*
D03*
X913047Y203000D02*
D03*
X918953D02*
D03*
X910547Y243500D02*
D03*
X916453D02*
D03*
X896953Y249000D02*
D03*
X891047D02*
D03*
X875047D02*
D03*
X880953D02*
D03*
X848000Y205500D02*
D03*
X842094D02*
D03*
X556453Y217000D02*
D03*
X550547D02*
D03*
X137953Y354500D02*
D03*
X132047D02*
D03*
X522047Y430500D02*
D03*
X527953D02*
D03*
X455547Y149000D02*
D03*
X461453D02*
D03*
X822953Y122000D02*
D03*
X817047D02*
D03*
X822953Y159000D02*
D03*
X817047D02*
D03*
X822953Y140500D02*
D03*
X817047D02*
D03*
X440453Y388000D02*
D03*
X434547D02*
D03*
X894047Y185000D02*
D03*
X899953D02*
D03*
X281453Y388500D02*
D03*
X275547D02*
D03*
X334547Y404000D02*
D03*
X340453D02*
D03*
X149453Y149500D02*
D03*
X143547D02*
D03*
X489453Y339500D02*
D03*
X483547D02*
D03*
X157953Y203000D02*
D03*
X152047D02*
D03*
X490953Y388000D02*
D03*
X485047D02*
D03*
X246143Y203500D02*
D03*
X252049D02*
D03*
D11*
X871909Y232134D02*
D03*
D12*
Y229575D02*
D03*
Y227016D02*
D03*
Y224457D02*
D03*
Y221898D02*
D03*
Y219339D02*
D03*
Y216780D02*
D03*
Y214220D02*
D03*
Y211661D02*
D03*
Y209102D02*
D03*
Y206543D02*
D03*
Y203984D02*
D03*
Y201425D02*
D03*
Y198866D02*
D03*
X898091Y232134D02*
D03*
Y229575D02*
D03*
Y227016D02*
D03*
Y224457D02*
D03*
Y221898D02*
D03*
Y219339D02*
D03*
Y216780D02*
D03*
Y214220D02*
D03*
Y211661D02*
D03*
Y209102D02*
D03*
Y206543D02*
D03*
Y203984D02*
D03*
Y201425D02*
D03*
Y198866D02*
D03*
D13*
X531500Y593453D02*
D03*
Y587547D02*
D03*
X235000Y654547D02*
D03*
Y660453D02*
D03*
X399500Y601453D02*
D03*
Y595547D02*
D03*
X444500Y220547D02*
D03*
Y226453D02*
D03*
X451000Y574047D02*
D03*
Y579953D02*
D03*
X924000Y290453D02*
D03*
Y284547D02*
D03*
X878000Y284047D02*
D03*
Y289953D02*
D03*
X836000Y241547D02*
D03*
Y247453D02*
D03*
X165000Y485047D02*
D03*
Y490953D02*
D03*
X144000Y250547D02*
D03*
Y256453D02*
D03*
X162000Y410453D02*
D03*
Y404547D02*
D03*
Y451453D02*
D03*
Y445547D02*
D03*
X394500Y661453D02*
D03*
Y655547D02*
D03*
X206500Y275047D02*
D03*
Y280953D02*
D03*
D14*
X150000Y289000D02*
D03*
Y286500D02*
D03*
Y284000D02*
D03*
Y281500D02*
D03*
Y279000D02*
D03*
Y276500D02*
D03*
Y274000D02*
D03*
Y271500D02*
D03*
Y339000D02*
D03*
X186000D02*
D03*
Y271500D02*
D03*
X150000Y291500D02*
D03*
Y294000D02*
D03*
Y296500D02*
D03*
Y299000D02*
D03*
Y301500D02*
D03*
Y304000D02*
D03*
Y306500D02*
D03*
Y309000D02*
D03*
Y311500D02*
D03*
Y314000D02*
D03*
Y316500D02*
D03*
Y319000D02*
D03*
Y321500D02*
D03*
Y324000D02*
D03*
Y326500D02*
D03*
Y329000D02*
D03*
Y331500D02*
D03*
Y334000D02*
D03*
Y336500D02*
D03*
X186000D02*
D03*
Y334000D02*
D03*
Y331500D02*
D03*
Y329000D02*
D03*
Y326500D02*
D03*
Y324000D02*
D03*
Y321500D02*
D03*
Y319000D02*
D03*
Y316500D02*
D03*
Y314000D02*
D03*
Y311500D02*
D03*
Y309000D02*
D03*
Y306500D02*
D03*
Y304000D02*
D03*
Y301500D02*
D03*
Y299000D02*
D03*
Y296500D02*
D03*
Y294000D02*
D03*
Y291500D02*
D03*
Y289000D02*
D03*
Y286500D02*
D03*
Y284000D02*
D03*
Y281500D02*
D03*
Y279000D02*
D03*
Y276500D02*
D03*
Y274000D02*
D03*
D15*
X171059Y260862D02*
D03*
X173618D02*
D03*
X176177D02*
D03*
X178736D02*
D03*
X183854Y233500D02*
D03*
X181295D02*
D03*
X178736D02*
D03*
X176177D02*
D03*
X173618D02*
D03*
X168500D02*
D03*
X171059D02*
D03*
X183854Y260862D02*
D03*
X181295D02*
D03*
X186413D02*
D03*
X168500D02*
D03*
X186413Y233500D02*
D03*
X272441Y570138D02*
D03*
X269882D02*
D03*
X267323D02*
D03*
X264764D02*
D03*
X259646Y597500D02*
D03*
X262205D02*
D03*
X264764D02*
D03*
X267323D02*
D03*
X269882D02*
D03*
X275000D02*
D03*
X272441D02*
D03*
X259646Y570138D02*
D03*
X262205D02*
D03*
X257087D02*
D03*
X275000D02*
D03*
X257087Y597500D02*
D03*
X275941Y515138D02*
D03*
X273382D02*
D03*
X270823D02*
D03*
X268264D02*
D03*
X263146Y542500D02*
D03*
X265705D02*
D03*
X268264D02*
D03*
X270823D02*
D03*
X273382D02*
D03*
X278500D02*
D03*
X275941D02*
D03*
X263146Y515138D02*
D03*
X265705D02*
D03*
X260587D02*
D03*
X278500D02*
D03*
X260587Y542500D02*
D03*
X170000Y457862D02*
D03*
X177677D02*
D03*
X175118D02*
D03*
X172559D02*
D03*
X193032D02*
D03*
Y430500D02*
D03*
X190472D02*
D03*
X172559D02*
D03*
X170000D02*
D03*
X175118D02*
D03*
X177677D02*
D03*
X180236D02*
D03*
X182795D02*
D03*
X185354D02*
D03*
X187913D02*
D03*
X190472Y457862D02*
D03*
X187913D02*
D03*
X185354D02*
D03*
X182795D02*
D03*
X180236D02*
D03*
X172500Y497862D02*
D03*
X180177D02*
D03*
X177618D02*
D03*
X175059D02*
D03*
X195532D02*
D03*
Y470500D02*
D03*
X192972D02*
D03*
X175059D02*
D03*
X172500D02*
D03*
X177618D02*
D03*
X180177D02*
D03*
X182736D02*
D03*
X185295D02*
D03*
X187854D02*
D03*
X190413D02*
D03*
X192972Y497862D02*
D03*
X190413D02*
D03*
X187854D02*
D03*
X185295D02*
D03*
X182736D02*
D03*
X193000Y388138D02*
D03*
X185323D02*
D03*
X187882D02*
D03*
X190441D02*
D03*
X169969D02*
D03*
Y415500D02*
D03*
X172528D02*
D03*
X190441D02*
D03*
X193000D02*
D03*
X187882D02*
D03*
X185323D02*
D03*
X182764D02*
D03*
X180205D02*
D03*
X177646D02*
D03*
X175087D02*
D03*
X172528Y388138D02*
D03*
X175087D02*
D03*
X177646D02*
D03*
X180205D02*
D03*
X182764D02*
D03*
D16*
X360665Y655150D02*
D03*
Y648850D02*
D03*
X350665Y655150D02*
D03*
Y648850D02*
D03*
X340665D02*
D03*
Y655150D02*
D03*
X330665Y648850D02*
D03*
Y655150D02*
D03*
X320665Y648850D02*
D03*
Y655150D02*
D03*
X208000Y660650D02*
D03*
Y654350D02*
D03*
X218000D02*
D03*
Y660650D02*
D03*
X391500Y360850D02*
D03*
Y367150D02*
D03*
X166500Y524850D02*
D03*
Y531150D02*
D03*
X177000Y524850D02*
D03*
Y531150D02*
D03*
X794000Y243650D02*
D03*
Y237350D02*
D03*
X763000Y332650D02*
D03*
Y326350D02*
D03*
X303000Y655150D02*
D03*
Y648850D02*
D03*
D17*
X588650Y142000D02*
D03*
X582350D02*
D03*
X588650Y152000D02*
D03*
X582350D02*
D03*
X588650Y182000D02*
D03*
X582350D02*
D03*
X588650Y172000D02*
D03*
X582350D02*
D03*
X588650Y162500D02*
D03*
X582350D02*
D03*
X588650Y192000D02*
D03*
X582350D02*
D03*
X459850Y397500D02*
D03*
X466150D02*
D03*
X435850Y205500D02*
D03*
X442150D02*
D03*
X274150Y426000D02*
D03*
X267850D02*
D03*
X215650Y471500D02*
D03*
X209350D02*
D03*
X804350Y179500D02*
D03*
X810650D02*
D03*
X804350Y189500D02*
D03*
X810650D02*
D03*
X847350Y122000D02*
D03*
X853650D02*
D03*
X847350Y159000D02*
D03*
X853650D02*
D03*
X847350Y140500D02*
D03*
X853650D02*
D03*
X141650Y444500D02*
D03*
X135350D02*
D03*
X244650Y600000D02*
D03*
X238350D02*
D03*
Y611500D02*
D03*
X244650D02*
D03*
X815150Y298000D02*
D03*
X808850D02*
D03*
X439850Y596000D02*
D03*
X446150D02*
D03*
X520850Y157000D02*
D03*
X527150D02*
D03*
X141150Y467500D02*
D03*
X134850D02*
D03*
X588650Y202000D02*
D03*
X582350D02*
D03*
X588650Y132000D02*
D03*
X582350D02*
D03*
X450850Y260500D02*
D03*
X457150D02*
D03*
X588650Y212000D02*
D03*
X582350D02*
D03*
X815150Y289500D02*
D03*
X808850D02*
D03*
X455350Y158500D02*
D03*
X461650D02*
D03*
X588650Y222000D02*
D03*
X582350D02*
D03*
X171850Y140000D02*
D03*
X178150D02*
D03*
X421850D02*
D03*
X428150D02*
D03*
X361850D02*
D03*
X368150D02*
D03*
D18*
X602362Y298441D02*
D03*
Y295882D02*
D03*
Y293323D02*
D03*
Y290764D02*
D03*
X575000Y285646D02*
D03*
Y288205D02*
D03*
Y290764D02*
D03*
Y293323D02*
D03*
Y295882D02*
D03*
Y301000D02*
D03*
Y298441D02*
D03*
X602362Y285646D02*
D03*
Y288205D02*
D03*
Y283087D02*
D03*
Y301000D02*
D03*
X575000Y283087D02*
D03*
X466638Y309000D02*
D03*
Y316677D02*
D03*
Y314118D02*
D03*
Y311559D02*
D03*
Y332032D02*
D03*
X494000D02*
D03*
Y329472D02*
D03*
Y311559D02*
D03*
Y309000D02*
D03*
Y314118D02*
D03*
Y316677D02*
D03*
Y319236D02*
D03*
Y321795D02*
D03*
Y324354D02*
D03*
Y326913D02*
D03*
X466638Y329472D02*
D03*
Y326913D02*
D03*
Y324354D02*
D03*
Y321795D02*
D03*
Y319236D02*
D03*
X534362Y412764D02*
D03*
Y410205D02*
D03*
Y407646D02*
D03*
Y405087D02*
D03*
Y402528D02*
D03*
X507000Y405087D02*
D03*
Y407646D02*
D03*
Y410205D02*
D03*
Y412764D02*
D03*
Y415323D02*
D03*
Y417882D02*
D03*
Y423000D02*
D03*
Y420441D02*
D03*
Y402528D02*
D03*
Y399969D02*
D03*
X534362D02*
D03*
Y420441D02*
D03*
Y417882D02*
D03*
Y415323D02*
D03*
Y423000D02*
D03*
X230138Y432000D02*
D03*
Y439677D02*
D03*
Y437118D02*
D03*
Y434559D02*
D03*
Y455032D02*
D03*
X257500D02*
D03*
Y452472D02*
D03*
Y434559D02*
D03*
Y432000D02*
D03*
Y437118D02*
D03*
Y439677D02*
D03*
Y442236D02*
D03*
Y444795D02*
D03*
Y447354D02*
D03*
Y449913D02*
D03*
X230138Y452472D02*
D03*
Y449913D02*
D03*
Y447354D02*
D03*
Y444795D02*
D03*
Y442236D02*
D03*
X222638Y481500D02*
D03*
Y489177D02*
D03*
Y486618D02*
D03*
Y484059D02*
D03*
Y504532D02*
D03*
X250000D02*
D03*
Y501972D02*
D03*
Y484059D02*
D03*
Y481500D02*
D03*
Y486618D02*
D03*
Y489177D02*
D03*
Y491736D02*
D03*
Y494295D02*
D03*
Y496854D02*
D03*
Y499413D02*
D03*
X222638Y501972D02*
D03*
Y499413D02*
D03*
Y496854D02*
D03*
Y494295D02*
D03*
Y491736D02*
D03*
X493862Y380000D02*
D03*
Y372323D02*
D03*
Y374882D02*
D03*
Y377441D02*
D03*
Y356969D02*
D03*
X466500D02*
D03*
Y359528D02*
D03*
Y377441D02*
D03*
Y380000D02*
D03*
Y374882D02*
D03*
Y372323D02*
D03*
Y369764D02*
D03*
Y367205D02*
D03*
Y364646D02*
D03*
Y362087D02*
D03*
X493862Y359528D02*
D03*
Y362087D02*
D03*
Y364646D02*
D03*
Y367205D02*
D03*
Y369764D02*
D03*
D19*
X106240Y668957D02*
D03*
Y639035D02*
D03*
D20*
X116772Y651437D02*
D03*
Y648878D02*
D03*
Y653996D02*
D03*
Y656555D02*
D03*
Y659114D02*
D03*
D21*
X116280Y641791D02*
D03*
Y666201D02*
D03*
D22*
X106240Y649272D02*
D03*
Y658720D02*
D03*
D23*
X839720Y276346D02*
D03*
X844720D02*
D03*
X849720D02*
D03*
X869720D02*
D03*
X864720D02*
D03*
X859720D02*
D03*
X854720D02*
D03*
Y298394D02*
D03*
X859720D02*
D03*
X864720D02*
D03*
X869720D02*
D03*
X849720D02*
D03*
X844720D02*
D03*
X839720D02*
D03*
X886220Y276346D02*
D03*
X891220D02*
D03*
X896220D02*
D03*
X916220D02*
D03*
X911220D02*
D03*
X906220D02*
D03*
X901220D02*
D03*
Y298394D02*
D03*
X906220D02*
D03*
X911220D02*
D03*
X916220D02*
D03*
X896220D02*
D03*
X891220D02*
D03*
X886220D02*
D03*
D24*
X439000Y578500D02*
D03*
Y571000D02*
D03*
Y574750D02*
D03*
X428800Y578500D02*
D03*
Y574750D02*
D03*
Y571000D02*
D03*
D25*
X439756Y630472D02*
D03*
Y658032D02*
D03*
X469744Y658028D02*
D03*
Y630469D02*
D03*
D26*
X223390Y600000D02*
D03*
X209610D02*
D03*
X223390Y611500D02*
D03*
X209610D02*
D03*
D27*
X427602Y396500D02*
D03*
X446500D02*
D03*
X427602Y404177D02*
D03*
Y401618D02*
D03*
Y399059D02*
D03*
X446500Y404177D02*
D03*
Y401618D02*
D03*
Y399059D02*
D03*
D28*
X405500Y632000D02*
D03*
X413000D02*
D03*
X405500Y642000D02*
D03*
D29*
X412500D02*
D03*
D30*
X98500Y98500D02*
Y119500D01*
X931500Y98500D02*
Y119500D01*
X98500Y660500D02*
Y681500D01*
Y98500D02*
X119500D01*
X910500D02*
X931500D01*
X98500Y681500D02*
X119500D01*
M02*
