%FSLAX25Y25*%
%MOIN*%
G70*
G01*
G75*
%ADD10R,0.04331X0.05512*%
%ADD11R,0.08071X0.01772*%
%ADD12R,0.08071X0.01772*%
%ADD13R,0.05512X0.04331*%
%ADD14O,0.08000X0.01600*%
%ADD15O,0.01575X0.07480*%
%ADD16R,0.05118X0.03937*%
%ADD17R,0.03937X0.05118*%
%ADD18O,0.07480X0.01575*%
%ADD19R,0.07480X0.07087*%
%ADD20R,0.05315X0.01575*%
%ADD21R,0.06299X0.08268*%
%ADD22R,0.07480X0.07480*%
%ADD23O,0.02559X0.06693*%
%ADD24R,0.04000X0.02600*%
%ADD25R,0.05512X0.03937*%
%ADD26R,0.05906X0.05906*%
%ADD27O,0.07087X0.01575*%
%ADD28R,0.03500X0.05000*%
%ADD29R,0.05000X0.05000*%
%ADD30C,0.03000*%
%ADD31C,0.00700*%
%ADD32C,0.00800*%
%ADD33C,0.01000*%
%ADD34R,0.05906X0.05906*%
%ADD35C,0.05906*%
%ADD36C,0.04724*%
%ADD37R,0.04724X0.04724*%
%ADD38C,0.06000*%
%ADD39C,0.04000*%
%ADD40R,0.04000X0.04000*%
%ADD41R,0.05000X0.05000*%
%ADD42C,0.05000*%
%ADD43R,0.06500X0.06500*%
%ADD44C,0.06500*%
%ADD45C,0.12000*%
%ADD46C,0.14000*%
%ADD47R,0.06000X0.06000*%
%ADD48C,0.06693*%
%ADD49C,0.06299*%
%ADD50R,0.04000X0.04000*%
%ADD51C,0.15748*%
%ADD52R,0.06000X0.06000*%
%ADD53C,0.06200*%
%ADD54R,0.06200X0.06200*%
%ADD55C,0.08400*%
%ADD56C,0.10600*%
%ADD57C,0.12500*%
%ADD58C,0.00984*%
%ADD59C,0.00787*%
%ADD60C,0.01200*%
%ADD61C,0.00600*%
D30*
X98500Y98500D02*
Y119500D01*
X931500Y98500D02*
Y119500D01*
X98500Y660500D02*
Y681500D01*
Y98500D02*
X119500D01*
X910500D02*
X931500D01*
X98500Y681500D02*
X119500D01*
D31*
X351500Y548500D02*
Y552499D01*
X353499D01*
X354166Y551832D01*
Y550499D01*
X353499Y549833D01*
X351500D01*
X355499Y552499D02*
Y548500D01*
X358165D01*
X359497Y552499D02*
Y548500D01*
X361497D01*
X362163Y549166D01*
Y551832D01*
X361497Y552499D01*
X359497D01*
X363496Y547834D02*
X366162D01*
X370161Y551832D02*
X369494Y552499D01*
X368161D01*
X367495Y551832D01*
Y551166D01*
X368161Y550499D01*
X369494D01*
X370161Y549833D01*
Y549166D01*
X369494Y548500D01*
X368161D01*
X367495Y549166D01*
X371494Y548500D02*
Y552499D01*
X373493D01*
X374159Y551832D01*
Y550499D01*
X373493Y549833D01*
X371494D01*
X372827D02*
X374159Y548500D01*
X375492Y552499D02*
Y548500D01*
X377492D01*
X378158Y549166D01*
Y551832D01*
X377492Y552499D01*
X375492D01*
X379491D02*
Y551832D01*
X380824Y550499D01*
X382157Y551832D01*
Y552499D01*
X380824Y550499D02*
Y548500D01*
X354166Y562332D02*
X353499Y562999D01*
X352166D01*
X351500Y562332D01*
Y561666D01*
X352166Y560999D01*
X353499D01*
X354166Y560333D01*
Y559666D01*
X353499Y559000D01*
X352166D01*
X351500Y559666D01*
X355499Y559000D02*
Y562999D01*
X357498D01*
X358165Y562332D01*
Y560999D01*
X357498Y560333D01*
X355499D01*
X356832D02*
X358165Y559000D01*
X359497Y562999D02*
Y559000D01*
X361497D01*
X362163Y559666D01*
Y562332D01*
X361497Y562999D01*
X359497D01*
X363496D02*
Y562332D01*
X364829Y560999D01*
X366162Y562332D01*
Y562999D01*
X364829Y560999D02*
Y559000D01*
X359500Y568500D02*
Y572499D01*
X361499D01*
X362166Y571832D01*
Y570499D01*
X361499Y569833D01*
X359500D01*
X365498Y572499D02*
X364165D01*
X363499Y571832D01*
Y569166D01*
X364165Y568500D01*
X365498D01*
X366164Y569166D01*
Y571832D01*
X365498Y572499D01*
X367497D02*
X370163D01*
X368830D01*
Y568500D01*
X371496Y567834D02*
X374162D01*
X378161Y571832D02*
X377494Y572499D01*
X376161D01*
X375495Y571832D01*
Y569166D01*
X376161Y568500D01*
X377494D01*
X378161Y569166D01*
X382159Y571832D02*
X381493Y572499D01*
X380160D01*
X379494Y571832D01*
Y571166D01*
X380160Y570499D01*
X381493D01*
X382159Y569833D01*
Y569166D01*
X381493Y568500D01*
X380160D01*
X379494Y569166D01*
D32*
X169500Y269000D02*
G03*
X166500Y269000I-1500J0D01*
G01*
X438527Y394531D02*
G03*
X435575Y394531I-1476J0D01*
G01*
X155000Y341500D02*
X181000D01*
X155000Y269000D02*
X166500D01*
X169500D02*
X181000D01*
X155000D02*
Y341500D01*
X181000Y269000D02*
Y341500D01*
X291500Y518000D02*
X296500Y523000D01*
X401500Y413000D02*
Y523000D01*
X291500Y417000D02*
Y518000D01*
Y413000D02*
Y417000D01*
X296500Y523000D02*
X401500D01*
X291500Y413000D02*
X401500D01*
X457500Y250000D02*
X462500Y255000D01*
X537500Y175000D02*
Y255000D01*
X457500Y175000D02*
Y250000D01*
X462500Y255000D02*
X537500D01*
X457500Y175000D02*
X537500D01*
X438528Y394532D02*
X441973D01*
X432130Y406736D02*
X441973D01*
X432130Y394532D02*
X435575D01*
X441973D02*
Y406736D01*
X432130Y394532D02*
Y406736D01*
X760500Y281999D02*
X763166Y278000D01*
Y281999D02*
X760500Y278000D01*
X764499Y281999D02*
Y278000D01*
X766498D01*
X767165Y278666D01*
Y281332D01*
X766498Y281999D01*
X764499D01*
X771163Y281332D02*
X770497Y281999D01*
X769164D01*
X768497Y281332D01*
Y278666D01*
X769164Y278000D01*
X770497D01*
X771163Y278666D01*
X775162Y281332D02*
X774496Y281999D01*
X773163D01*
X772496Y281332D01*
Y280666D01*
X773163Y279999D01*
X774496D01*
X775162Y279333D01*
Y278666D01*
X774496Y278000D01*
X773163D01*
X772496Y278666D01*
X763166Y291332D02*
X762499Y291999D01*
X761166D01*
X760500Y291332D01*
Y288666D01*
X761166Y288000D01*
X762499D01*
X763166Y288666D01*
X764499Y291999D02*
Y288000D01*
X767165D01*
X768497Y291999D02*
Y288000D01*
Y289333D01*
X771163Y291999D01*
X769164Y289999D01*
X771163Y288000D01*
X760500Y301999D02*
X763166Y298000D01*
Y301999D02*
X760500Y298000D01*
X767165Y301332D02*
X766498Y301999D01*
X765165D01*
X764499Y301332D01*
Y298666D01*
X765165Y298000D01*
X766498D01*
X767165Y298666D01*
X771163Y301332D02*
X770497Y301999D01*
X769164D01*
X768497Y301332D01*
Y300666D01*
X769164Y299999D01*
X770497D01*
X771163Y299333D01*
Y298666D01*
X770497Y298000D01*
X769164D01*
X768497Y298666D01*
X316700Y268000D02*
Y270666D01*
X318033Y271999D01*
X319366Y270666D01*
Y268000D01*
Y269999D01*
X316700D01*
X320699Y271332D02*
X321365Y271999D01*
X322698D01*
X323364Y271332D01*
Y268666D01*
X322698Y268000D01*
X321365D01*
X320699Y268666D01*
Y271332D01*
X316700Y281499D02*
Y277500D01*
X318699D01*
X319366Y278166D01*
Y280832D01*
X318699Y281499D01*
X316700D01*
X320699Y280832D02*
X321365Y281499D01*
X322698D01*
X323364Y280832D01*
Y278166D01*
X322698Y277500D01*
X321365D01*
X320699Y278166D01*
Y280832D01*
X511500Y605499D02*
Y601500D01*
X513499D01*
X514166Y602166D01*
Y604832D01*
X513499Y605499D01*
X511500D01*
X515499D02*
X516832D01*
X516165D01*
Y601500D01*
X515499D01*
X516832D01*
X521497Y604832D02*
X520830Y605499D01*
X519497D01*
X518831Y604832D01*
Y604166D01*
X519497Y603499D01*
X520830D01*
X521497Y602833D01*
Y602166D01*
X520830Y601500D01*
X519497D01*
X518831Y602166D01*
X522830Y601500D02*
Y605499D01*
X524829D01*
X525495Y604832D01*
Y603499D01*
X524829Y602833D01*
X522830D01*
X526501Y621666D02*
Y619000D01*
X530500D01*
Y621666D01*
X528501Y619000D02*
Y620333D01*
X520500Y619000D02*
X516501D01*
Y620999D01*
X517168Y621666D01*
X518501D01*
X519167Y620999D01*
Y619000D01*
Y620333D02*
X520500Y621666D01*
X516501Y622999D02*
X520500D01*
X519167Y624332D01*
X520500Y625665D01*
X516501D01*
X507168Y621666D02*
X506501Y620999D01*
Y619666D01*
X507168Y619000D01*
X509834D01*
X510500Y619666D01*
Y620999D01*
X509834Y621666D01*
X507168Y625665D02*
X506501Y624998D01*
Y623665D01*
X507168Y622999D01*
X507834D01*
X508501Y623665D01*
Y624998D01*
X509167Y625665D01*
X509834D01*
X510500Y624998D01*
Y623665D01*
X509834Y622999D01*
X552499Y184500D02*
X548500D01*
Y182501D01*
X549166Y181834D01*
X551832D01*
X552499Y182501D01*
Y184500D01*
Y180501D02*
Y179168D01*
Y179835D01*
X548500D01*
Y180501D01*
Y179168D01*
X552499Y175170D02*
Y176503D01*
X551832Y177169D01*
X549166D01*
X548500Y176503D01*
Y175170D01*
X549166Y174503D01*
X551832D01*
X552499Y175170D01*
Y173170D02*
X548500D01*
X549833Y171837D01*
X548500Y170504D01*
X552499D01*
X569499Y198000D02*
X565500D01*
Y196001D01*
X566166Y195334D01*
X568832D01*
X569499Y196001D01*
Y198000D01*
Y194001D02*
Y192668D01*
Y193335D01*
X565500D01*
Y194001D01*
Y192668D01*
X569499Y188670D02*
Y190003D01*
X568832Y190669D01*
X566166D01*
X565500Y190003D01*
Y188670D01*
X566166Y188003D01*
X568832D01*
X569499Y188670D01*
X565500Y186670D02*
X569499D01*
Y184671D01*
X568832Y184004D01*
X567499D01*
X566833Y184671D01*
Y186670D01*
Y185337D02*
X565500Y184004D01*
X435000Y169500D02*
X431001D01*
X432334Y170833D01*
X431001Y172166D01*
X435000D01*
X431001Y173499D02*
X434334D01*
X435000Y174165D01*
Y175498D01*
X434334Y176164D01*
X431001D01*
Y177497D02*
X435000Y180163D01*
X431001D02*
X435000Y177497D01*
X431001Y182500D02*
X435000D01*
X433667Y183833D01*
X435000Y185166D01*
X431001D01*
Y189164D02*
Y186499D01*
X435000D01*
Y189164D01*
X433001Y186499D02*
Y187832D01*
X435000Y191500D02*
X431001D01*
Y193499D01*
X431668Y194166D01*
X433001D01*
X433667Y193499D01*
Y191500D01*
Y192833D02*
X435000Y194166D01*
Y195499D02*
X432334D01*
X431001Y196832D01*
X432334Y198164D01*
X435000D01*
X433001D01*
Y195499D01*
X431668Y202163D02*
X431001Y201497D01*
Y200164D01*
X431668Y199497D01*
X432334D01*
X433001Y200164D01*
Y201497D01*
X433667Y202163D01*
X434334D01*
X435000Y201497D01*
Y200164D01*
X434334Y199497D01*
X436668Y181166D02*
X436001Y180499D01*
Y179166D01*
X436668Y178500D01*
X439334D01*
X440000Y179166D01*
Y180499D01*
X439334Y181166D01*
X436668Y185164D02*
X436001Y184498D01*
Y183165D01*
X436668Y182499D01*
X437334D01*
X438001Y183165D01*
Y184498D01*
X438667Y185164D01*
X439334D01*
X440000Y184498D01*
Y183165D01*
X439334Y182499D01*
X436668Y186497D02*
X436001Y187164D01*
Y188497D01*
X436668Y189163D01*
X439334D01*
X440000Y188497D01*
Y187164D01*
X439334Y186497D01*
X436668D01*
Y194166D02*
X436001Y193499D01*
Y192166D01*
X436668Y191500D01*
X439334D01*
X440000Y192166D01*
Y193499D01*
X439334Y194166D01*
X440000Y195499D02*
X437334D01*
X436001Y196832D01*
X437334Y198164D01*
X440000D01*
X438001D01*
Y195499D01*
X436668Y202163D02*
X436001Y201497D01*
Y200164D01*
X436668Y199497D01*
X437334D01*
X438001Y200164D01*
Y201497D01*
X438667Y202163D01*
X439334D01*
X440000Y201497D01*
Y200164D01*
X439334Y199497D01*
X406500Y572499D02*
Y569166D01*
X407166Y568500D01*
X408499D01*
X409166Y569166D01*
Y572499D01*
X410499D02*
Y568500D01*
X412498D01*
X413165Y569166D01*
Y571832D01*
X412498Y572499D01*
X410499D01*
D33*
X172092Y242555D02*
G03*
X172092Y242555I-1623J0D01*
G01*
X266500Y674000D02*
G03*
X271500Y674000I2500J0D01*
G01*
X774000Y328000D02*
G03*
X774000Y333000I0J2500D01*
G01*
X274655Y588445D02*
G03*
X274655Y588445I-1623J0D01*
G01*
X585678Y299031D02*
G03*
X585678Y299031I-1623J0D01*
G01*
X278155Y533445D02*
G03*
X278155Y533445I-1623J0D01*
G01*
X276000Y381000D02*
G03*
X281000Y381000I2500J0D01*
G01*
X841902Y284221D02*
G03*
X841902Y284221I-1414J0D01*
G01*
X486568Y310968D02*
G03*
X486568Y310968I-1623J0D01*
G01*
X173592Y439555D02*
G03*
X173592Y439555I-1623J0D01*
G01*
X176092Y479555D02*
G03*
X176092Y479555I-1623J0D01*
G01*
X192655Y406445D02*
G03*
X192655Y406445I-1623J0D01*
G01*
X162000Y654000D02*
G03*
X162000Y654000I-10000J0D01*
G01*
X918000Y165000D02*
G03*
X918000Y165000I-10000J0D01*
G01*
X888000D02*
G03*
X888000Y165000I-10000J0D01*
G01*
X517678Y421032D02*
G03*
X517678Y421032I-1623J0D01*
G01*
X359000Y381000D02*
G03*
X364000Y381000I2500J0D01*
G01*
X250068Y433968D02*
G03*
X250068Y433968I-1623J0D01*
G01*
X888402Y284221D02*
G03*
X888402Y284221I-1414J0D01*
G01*
X290000Y596500D02*
G03*
X290000Y601500I0J2500D01*
G01*
X242568Y483468D02*
G03*
X242568Y483468I-1623J0D01*
G01*
X477178Y378031D02*
G03*
X477178Y378031I-1623J0D01*
G01*
X145000Y174000D02*
G03*
X145000Y179000I0J2500D01*
G01*
X239500Y174000D02*
G03*
X239500Y179000I0J2500D01*
G01*
X334500Y174000D02*
G03*
X334500Y179000I0J2500D01*
G01*
X166925Y255744D02*
X187988D01*
X166925Y238815D02*
X187988D01*
X166925D02*
Y255744D01*
X187988Y238815D02*
Y255744D01*
X249000Y674000D02*
X266500D01*
X271500D02*
X289000D01*
X249000Y634000D02*
X289000D01*
Y674000D01*
X249000Y634000D02*
Y674000D01*
X774000Y320500D02*
Y328000D01*
Y333000D02*
Y340500D01*
X844000Y320500D02*
Y340500D01*
X774000D02*
X844000D01*
X774000Y320500D02*
X844000D01*
X745555Y150748D02*
X800673D01*
X745555Y101536D02*
X800673D01*
Y150748D01*
X745555Y101536D02*
Y150748D01*
X719000Y218000D02*
X739000D01*
Y228000D01*
X719000D02*
X739000D01*
X719000Y358000D02*
X739000D01*
Y348000D02*
Y358000D01*
X719000Y348000D02*
X739000D01*
X719000D02*
Y358000D01*
X619000Y348000D02*
Y358000D01*
Y348000D02*
X719000D01*
X619000Y358000D02*
X719000D01*
Y218000D02*
Y228000D01*
X619000Y218000D02*
Y228000D01*
X719000D01*
X619000Y218000D02*
X719000D01*
X255512Y575256D02*
X276575D01*
X255512Y592185D02*
X276575D01*
Y575256D02*
Y592185D01*
X255512Y575256D02*
Y592185D01*
X597244Y281512D02*
Y302575D01*
X580315Y281512D02*
Y302575D01*
X597244D01*
X580315Y281512D02*
X597244D01*
X259012Y520256D02*
X280075D01*
X259012Y537185D02*
X280075D01*
Y520256D02*
Y537185D01*
X259012Y520256D02*
Y537185D01*
X100532Y635492D02*
Y672500D01*
X243500Y221000D02*
Y381000D01*
X313500Y221000D02*
Y381000D01*
X243500Y221000D02*
X313500D01*
X281000Y381000D02*
X313500D01*
X243500D02*
X276000D01*
X872299Y280874D02*
Y293866D01*
X837142Y280874D02*
X872299D01*
X837142D02*
Y293866D01*
X872299D01*
X466500Y447000D02*
Y498000D01*
X517500Y447000D02*
Y498000D01*
X466500D02*
X517500D01*
X466500Y447000D02*
X517500D01*
X857252Y373252D02*
X908433D01*
Y424433D01*
X857252D02*
X908433D01*
X857252Y373252D02*
Y424433D01*
X795752Y373252D02*
X846933D01*
Y424433D01*
X795752D02*
X846933D01*
X795752Y373252D02*
Y424433D01*
X734252Y373252D02*
X785433D01*
Y424433D01*
X734252D02*
X785433D01*
X734252Y373252D02*
Y424433D01*
X672252Y373252D02*
X723433D01*
Y424433D01*
X672252D02*
X723433D01*
X672252Y373252D02*
Y424433D01*
X466500Y542500D02*
Y593500D01*
X517500Y542500D02*
Y593500D01*
X466500D02*
X517500D01*
X466500Y542500D02*
X517500D01*
X611252Y373252D02*
X662433D01*
Y424433D01*
X611252D02*
X662433D01*
X611252Y373252D02*
Y424433D01*
X471756Y334000D02*
X488685D01*
X471756Y307425D02*
X488685D01*
Y334000D01*
X471756Y307425D02*
Y334000D01*
X549252Y373252D02*
X600433D01*
Y424433D01*
X549252D02*
X600433D01*
X549252Y373252D02*
Y424433D01*
X195000Y435815D02*
Y452744D01*
X168425Y435815D02*
Y452744D01*
Y435815D02*
X195000D01*
X168425Y452744D02*
X195000D01*
X197500Y475815D02*
Y492744D01*
X170925Y475815D02*
Y492744D01*
Y475815D02*
X197500D01*
X170925Y492744D02*
X197500D01*
X168000Y393256D02*
Y410185D01*
X194575Y393256D02*
Y410185D01*
X168000D02*
X194575D01*
X168000Y393256D02*
X194575D01*
X432276Y632441D02*
X434638D01*
X432276Y656063D02*
X434638D01*
X432276Y632441D02*
Y656063D01*
X444874D02*
X447236D01*
X444874Y632441D02*
X447236D01*
Y656063D01*
X474862Y656059D02*
X477224D01*
X474862Y632437D02*
X477224D01*
Y656059D01*
X462264Y632437D02*
X464626D01*
X462264Y656059D02*
X464626D01*
X462264Y632437D02*
Y656059D01*
X529244Y398000D02*
Y424575D01*
X512315Y398000D02*
Y424575D01*
X529244D01*
X512315Y398000D02*
X529244D01*
X341500Y221000D02*
Y381000D01*
X381500Y221000D02*
Y381000D01*
X341500Y221000D02*
X381500D01*
X341500Y381000D02*
X359000D01*
X364000D02*
X381500D01*
X108500Y338500D02*
X118500D01*
X108500Y348500D02*
X128500D01*
X108500Y148500D02*
X128500D01*
Y348500D01*
X108500Y148500D02*
Y348500D01*
X118500Y338500D02*
Y348500D01*
X235256Y457000D02*
X252185D01*
X235256Y430425D02*
X252185D01*
Y457000D01*
X235256Y430425D02*
Y457000D01*
X918799Y280874D02*
Y293866D01*
X883642Y280874D02*
X918799D01*
X883642D02*
Y293866D01*
X918799D01*
X290000Y579000D02*
X390000D01*
X290000Y619000D02*
X390000D01*
Y579000D02*
Y619000D01*
X290000Y601500D02*
Y619000D01*
Y579000D02*
Y596500D01*
X928425Y441153D02*
Y679343D01*
X540630Y441153D02*
X928425D01*
X540630D02*
Y679343D01*
X928425D01*
X227756Y506500D02*
X244685D01*
X227756Y479925D02*
X244685D01*
Y506500D01*
X227756Y479925D02*
Y506500D01*
X471815Y355000D02*
X488744D01*
X471815Y381575D02*
X488744D01*
X471815Y355000D02*
Y381575D01*
X488744Y355000D02*
Y381575D01*
X145000Y156500D02*
X225000D01*
X145000Y196500D02*
X225000D01*
Y156500D02*
Y196500D01*
X145000Y179000D02*
Y196500D01*
Y156500D02*
Y174000D01*
X239500Y156500D02*
X319500D01*
X239500Y196500D02*
X319500D01*
Y156500D02*
Y196500D01*
X239500Y179000D02*
Y196500D01*
Y156500D02*
Y174000D01*
X334500Y156500D02*
X414500D01*
X334500Y196500D02*
X414500D01*
Y156500D02*
Y196500D01*
X334500Y179000D02*
Y196500D01*
Y156500D02*
Y174000D01*
X863499Y186998D02*
X862499Y187998D01*
X860500D01*
X859500Y186998D01*
Y183000D01*
X860500Y182000D01*
X862499D01*
X863499Y183000D01*
X868497Y182000D02*
Y187998D01*
X865498Y184999D01*
X869497D01*
X871496Y182000D02*
X873495D01*
X872496D01*
Y187998D01*
X871496Y186998D01*
X877000Y244498D02*
Y239500D01*
X878000Y238500D01*
X879999D01*
X880999Y239500D01*
Y244498D01*
X886997Y238500D02*
X882998D01*
X886997Y242499D01*
Y243498D01*
X885997Y244498D01*
X883998D01*
X882998Y243498D01*
X891995Y238500D02*
Y244498D01*
X888996Y241499D01*
X892995D01*
X207249Y432848D02*
X206249Y433848D01*
X204250D01*
X203250Y432848D01*
Y428850D01*
X204250Y427850D01*
X206249D01*
X207249Y428850D01*
X209248Y432848D02*
X210248Y433848D01*
X212247D01*
X213247Y432848D01*
Y431849D01*
X212247Y430849D01*
X213247Y429849D01*
Y428850D01*
X212247Y427850D01*
X210248D01*
X209248Y428850D01*
Y429849D01*
X210248Y430849D01*
X209248Y431849D01*
Y432848D01*
X210248Y430849D02*
X212247D01*
X239999Y522998D02*
X238999Y523998D01*
X237000D01*
X236000Y522998D01*
Y519000D01*
X237000Y518000D01*
X238999D01*
X239999Y519000D01*
X245997Y518000D02*
X241998D01*
X245997Y521999D01*
Y522998D01*
X244997Y523998D01*
X242998D01*
X241998Y522998D01*
X247996Y518000D02*
X249995D01*
X248996D01*
Y523998D01*
X247996Y522998D01*
X524499Y579998D02*
X523499Y580998D01*
X521500D01*
X520500Y579998D01*
Y576000D01*
X521500Y575000D01*
X523499D01*
X524499Y576000D01*
X530497Y575000D02*
X526498D01*
X530497Y578999D01*
Y579998D01*
X529497Y580998D01*
X527498D01*
X526498Y579998D01*
X536495Y580998D02*
X534495Y579998D01*
X532496Y577999D01*
Y576000D01*
X533496Y575000D01*
X535495D01*
X536495Y576000D01*
Y576999D01*
X535495Y577999D01*
X532496D01*
X308799Y640298D02*
X307799Y641298D01*
X305800D01*
X304800Y640298D01*
Y636300D01*
X305800Y635300D01*
X307799D01*
X308799Y636300D01*
X314797Y641298D02*
X310798D01*
Y638299D01*
X312797Y639299D01*
X313797D01*
X314797Y638299D01*
Y636300D01*
X313797Y635300D01*
X311798D01*
X310798Y636300D01*
X340650Y569350D02*
Y575348D01*
X343649D01*
X344649Y574348D01*
Y572349D01*
X343649Y571349D01*
X340650D01*
X346648Y570350D02*
X347648Y569350D01*
X349647D01*
X350647Y570350D01*
Y574348D01*
X349647Y575348D01*
X347648D01*
X346648Y574348D01*
Y573349D01*
X347648Y572349D01*
X350647D01*
X749650Y308350D02*
Y314348D01*
X752649D01*
X753649Y313348D01*
Y311349D01*
X752649Y310349D01*
X749650D01*
X755648Y313348D02*
X756648Y314348D01*
X758647D01*
X759647Y313348D01*
Y312349D01*
X758647Y311349D01*
X759647Y310349D01*
Y309350D01*
X758647Y308350D01*
X756648D01*
X755648Y309350D01*
Y310349D01*
X756648Y311349D01*
X755648Y312349D01*
Y313348D01*
X756648Y311349D02*
X758647D01*
X325650Y287850D02*
Y293848D01*
X328649D01*
X329649Y292848D01*
Y290849D01*
X328649Y289849D01*
X325650D01*
X331648Y293848D02*
X335647D01*
Y292848D01*
X331648Y288850D01*
Y287850D01*
X490500Y609000D02*
Y614998D01*
X493499D01*
X494499Y613998D01*
Y611999D01*
X493499Y610999D01*
X490500D01*
X500497Y614998D02*
X498497Y613998D01*
X496498Y611999D01*
Y610000D01*
X497498Y609000D01*
X499497D01*
X500497Y610000D01*
Y610999D01*
X499497Y611999D01*
X496498D01*
X392500Y577000D02*
Y582998D01*
X395499D01*
X396499Y581998D01*
Y579999D01*
X395499Y578999D01*
X392500D01*
X402497Y582998D02*
X398498D01*
Y579999D01*
X400497Y580999D01*
X401497D01*
X402497Y579999D01*
Y578000D01*
X401497Y577000D01*
X399498D01*
X398498Y578000D01*
X420500Y162500D02*
Y168498D01*
X423499D01*
X424499Y167498D01*
Y165499D01*
X423499Y164499D01*
X420500D01*
X429497Y162500D02*
Y168498D01*
X426498Y165499D01*
X430497D01*
X553500Y198000D02*
Y203998D01*
X556499D01*
X557499Y202998D01*
Y200999D01*
X556499Y199999D01*
X553500D01*
X563497Y198000D02*
X559498D01*
X563497Y201999D01*
Y202998D01*
X562497Y203998D01*
X560498D01*
X559498Y202998D01*
X442500Y172500D02*
Y178498D01*
X445499D01*
X446499Y177498D01*
Y175499D01*
X445499Y174499D01*
X442500D01*
X448498Y172500D02*
X450497D01*
X449498D01*
Y178498D01*
X448498Y177498D01*
X106000Y143998D02*
Y139000D01*
X107000Y138000D01*
X108999D01*
X109999Y139000D01*
Y143998D01*
X111998Y138000D02*
X113997D01*
X112998D01*
Y143998D01*
X111998Y142998D01*
X272000Y615998D02*
Y611000D01*
X273000Y610000D01*
X274999D01*
X275999Y611000D01*
Y615998D01*
X281997Y610000D02*
X277998D01*
X281997Y613999D01*
Y614998D01*
X280997Y615998D01*
X278998D01*
X277998Y614998D01*
X283996Y615998D02*
X287995D01*
Y614998D01*
X283996Y611000D01*
Y610000D01*
X357665Y676500D02*
X363663D01*
Y673501D01*
X362664Y672501D01*
X360664D01*
X359665Y673501D01*
Y676500D01*
Y674501D02*
X357665Y672501D01*
X363663Y666503D02*
X362664Y668503D01*
X360664Y670502D01*
X358665D01*
X357665Y669502D01*
Y667503D01*
X358665Y666503D01*
X359665D01*
X360664Y667503D01*
Y670502D01*
X357665Y661505D02*
X363663D01*
X360664Y664504D01*
Y660505D01*
X347665Y676500D02*
X353663D01*
Y673501D01*
X352664Y672501D01*
X350664D01*
X349665Y673501D01*
Y676500D01*
Y674501D02*
X347665Y672501D01*
X353663Y666503D02*
X352664Y668503D01*
X350664Y670502D01*
X348665D01*
X347665Y669502D01*
Y667503D01*
X348665Y666503D01*
X349665D01*
X350664Y667503D01*
Y670502D01*
X352664Y664504D02*
X353663Y663504D01*
Y661505D01*
X352664Y660505D01*
X351664D01*
X350664Y661505D01*
Y662504D01*
Y661505D01*
X349665Y660505D01*
X348665D01*
X347665Y661505D01*
Y663504D01*
X348665Y664504D01*
X337665Y676500D02*
X343663D01*
Y673501D01*
X342664Y672501D01*
X340664D01*
X339665Y673501D01*
Y676500D01*
Y674501D02*
X337665Y672501D01*
X343663Y666503D02*
X342664Y668503D01*
X340664Y670502D01*
X338665D01*
X337665Y669502D01*
Y667503D01*
X338665Y666503D01*
X339665D01*
X340664Y667503D01*
Y670502D01*
X337665Y660505D02*
Y664504D01*
X341664Y660505D01*
X342664D01*
X343663Y661505D01*
Y663504D01*
X342664Y664504D01*
X327665Y676500D02*
X333663D01*
Y673501D01*
X332664Y672501D01*
X330664D01*
X329665Y673501D01*
Y676500D01*
Y674501D02*
X327665Y672501D01*
X333663Y666503D02*
X332664Y668503D01*
X330664Y670502D01*
X328665D01*
X327665Y669502D01*
Y667503D01*
X328665Y666503D01*
X329665D01*
X330664Y667503D01*
Y670502D01*
X327665Y664504D02*
Y662504D01*
Y663504D01*
X333663D01*
X332664Y664504D01*
X317665Y676500D02*
X323663D01*
Y673501D01*
X322664Y672501D01*
X320664D01*
X319665Y673501D01*
Y676500D01*
Y674501D02*
X317665Y672501D01*
X323663Y666503D02*
X322664Y668503D01*
X320664Y670502D01*
X318665D01*
X317665Y669502D01*
Y667503D01*
X318665Y666503D01*
X319665D01*
X320664Y667503D01*
Y670502D01*
X322664Y664504D02*
X323663Y663504D01*
Y661505D01*
X322664Y660505D01*
X318665D01*
X317665Y661505D01*
Y663504D01*
X318665Y664504D01*
X322664D01*
X595000Y189500D02*
Y195498D01*
X597999D01*
X598999Y194498D01*
Y192499D01*
X597999Y191499D01*
X595000D01*
X596999D02*
X598999Y189500D01*
X604997Y195498D02*
X600998D01*
Y192499D01*
X602997Y193499D01*
X603997D01*
X604997Y192499D01*
Y190500D01*
X603997Y189500D01*
X601998D01*
X600998Y190500D01*
X610995Y195498D02*
X606996D01*
Y192499D01*
X608995Y193499D01*
X609995D01*
X610995Y192499D01*
Y190500D01*
X609995Y189500D01*
X607996D01*
X606996Y190500D01*
X595000Y149500D02*
Y155498D01*
X597999D01*
X598999Y154498D01*
Y152499D01*
X597999Y151499D01*
X595000D01*
X596999D02*
X598999Y149500D01*
X603997D02*
Y155498D01*
X600998Y152499D01*
X604997D01*
X606996Y154498D02*
X607996Y155498D01*
X609995D01*
X610995Y154498D01*
Y153499D01*
X609995Y152499D01*
X610995Y151499D01*
Y150500D01*
X609995Y149500D01*
X607996D01*
X606996Y150500D01*
Y151499D01*
X607996Y152499D01*
X606996Y153499D01*
Y154498D01*
X607996Y152499D02*
X609995D01*
X595000Y179500D02*
Y185498D01*
X597999D01*
X598999Y184498D01*
Y182499D01*
X597999Y181499D01*
X595000D01*
X596999D02*
X598999Y179500D01*
X600998Y184498D02*
X601998Y185498D01*
X603997D01*
X604997Y184498D01*
Y183499D01*
X603997Y182499D01*
X602997D01*
X603997D01*
X604997Y181499D01*
Y180500D01*
X603997Y179500D01*
X601998D01*
X600998Y180500D01*
X610995Y179500D02*
X606996D01*
X610995Y183499D01*
Y184498D01*
X609995Y185498D01*
X607996D01*
X606996Y184498D01*
X595000Y140000D02*
Y145998D01*
X597999D01*
X598999Y144998D01*
Y142999D01*
X597999Y141999D01*
X595000D01*
X596999D02*
X598999Y140000D01*
X600998Y144998D02*
X601998Y145998D01*
X603997D01*
X604997Y144998D01*
Y143999D01*
X603997Y142999D01*
X602997D01*
X603997D01*
X604997Y141999D01*
Y141000D01*
X603997Y140000D01*
X601998D01*
X600998Y141000D01*
X606996Y140000D02*
X608995D01*
X607996D01*
Y145998D01*
X606996Y144998D01*
X595000Y160000D02*
Y165998D01*
X597999D01*
X598999Y164998D01*
Y162999D01*
X597999Y161999D01*
X595000D01*
X596999D02*
X598999Y160000D01*
X604997D02*
X600998D01*
X604997Y163999D01*
Y164998D01*
X603997Y165998D01*
X601998D01*
X600998Y164998D01*
X606996Y161000D02*
X607996Y160000D01*
X609995D01*
X610995Y161000D01*
Y164998D01*
X609995Y165998D01*
X607996D01*
X606996Y164998D01*
Y163999D01*
X607996Y162999D01*
X610995D01*
X595000Y169500D02*
Y175498D01*
X597999D01*
X598999Y174498D01*
Y172499D01*
X597999Y171499D01*
X595000D01*
X596999D02*
X598999Y169500D01*
X604997D02*
X600998D01*
X604997Y173499D01*
Y174498D01*
X603997Y175498D01*
X601998D01*
X600998Y174498D01*
X606996D02*
X607996Y175498D01*
X609995D01*
X610995Y174498D01*
Y173499D01*
X609995Y172499D01*
X610995Y171499D01*
Y170500D01*
X609995Y169500D01*
X607996D01*
X606996Y170500D01*
Y171499D01*
X607996Y172499D01*
X606996Y173499D01*
Y174498D01*
X607996Y172499D02*
X609995D01*
X400499Y590498D02*
X399499Y591498D01*
X397500D01*
X396500Y590498D01*
Y586500D01*
X397500Y585500D01*
X399499D01*
X400499Y586500D01*
X405497Y585500D02*
Y591498D01*
X402498Y588499D01*
X406497D01*
X408496Y590498D02*
X409496Y591498D01*
X411495D01*
X412495Y590498D01*
Y586500D01*
X411495Y585500D01*
X409496D01*
X408496Y586500D01*
Y590498D01*
X103500Y620000D02*
Y625998D01*
X105499Y623999D01*
X107499Y625998D01*
Y620000D01*
X109498D02*
X111497D01*
X110498D01*
Y623999D01*
X109498D01*
X118495D02*
X115496D01*
X114496Y622999D01*
Y621000D01*
X115496Y620000D01*
X118495D01*
X120494Y623999D02*
Y620000D01*
Y621999D01*
X121494Y622999D01*
X122494Y623999D01*
X123494D01*
X127492Y620000D02*
X129492D01*
X130491Y621000D01*
Y622999D01*
X129492Y623999D01*
X127492D01*
X126493Y622999D01*
Y621000D01*
X127492Y620000D01*
X132491Y625998D02*
Y620000D01*
X135490D01*
X136489Y621000D01*
Y621999D01*
X135490Y622999D01*
X132491D01*
X135490D01*
X136489Y623999D01*
Y624998D01*
X135490Y625998D01*
X132491D01*
X138999Y672498D02*
X137999Y673498D01*
X136000D01*
X135000Y672498D01*
Y668500D01*
X136000Y667500D01*
X137999D01*
X138999Y668500D01*
X140998Y672498D02*
X141998Y673498D01*
X143997D01*
X144997Y672498D01*
Y668500D01*
X143997Y667500D01*
X141998D01*
X140998Y668500D01*
Y672498D01*
X134499Y142498D02*
X133499Y143498D01*
X131500D01*
X130500Y142498D01*
Y138500D01*
X131500Y137500D01*
X133499D01*
X134499Y138500D01*
X136498Y137500D02*
X138497D01*
X137498D01*
Y143498D01*
X136498Y142498D01*
X469999Y141498D02*
X468999Y142498D01*
X467000D01*
X466000Y141498D01*
Y137500D01*
X467000Y136500D01*
X468999D01*
X469999Y137500D01*
X471998Y141498D02*
X472998Y142498D01*
X474997D01*
X475997Y141498D01*
Y140499D01*
X474997Y139499D01*
X473997D01*
X474997D01*
X475997Y138499D01*
Y137500D01*
X474997Y136500D01*
X472998D01*
X471998Y137500D01*
X469999Y150998D02*
X468999Y151998D01*
X467000D01*
X466000Y150998D01*
Y147000D01*
X467000Y146000D01*
X468999D01*
X469999Y147000D01*
X474997Y146000D02*
Y151998D01*
X471998Y148999D01*
X475997D01*
X436999Y381998D02*
X435999Y382998D01*
X434000D01*
X433000Y381998D01*
Y378000D01*
X434000Y377000D01*
X435999D01*
X436999Y378000D01*
X442997Y382998D02*
X440997Y381998D01*
X438998Y379999D01*
Y378000D01*
X439998Y377000D01*
X441997D01*
X442997Y378000D01*
Y378999D01*
X441997Y379999D01*
X438998D01*
X524999Y440998D02*
X523999Y441998D01*
X522000D01*
X521000Y440998D01*
Y437000D01*
X522000Y436000D01*
X523999D01*
X524999Y437000D01*
X526998Y436000D02*
X528997D01*
X527998D01*
Y441998D01*
X526998Y440998D01*
X531996Y436000D02*
X533996D01*
X532996D01*
Y441998D01*
X531996Y440998D01*
X156999Y214498D02*
X155999Y215498D01*
X154000D01*
X153000Y214498D01*
Y210500D01*
X154000Y209500D01*
X155999D01*
X156999Y210500D01*
X158998Y209500D02*
X160997D01*
X159998D01*
Y215498D01*
X158998Y214498D01*
X167995Y209500D02*
X163996D01*
X167995Y213499D01*
Y214498D01*
X166996Y215498D01*
X164996D01*
X163996Y214498D01*
X336499Y541498D02*
X335499Y542498D01*
X333500D01*
X332500Y541498D01*
Y537500D01*
X333500Y536500D01*
X335499D01*
X336499Y537500D01*
X338498Y536500D02*
X340497D01*
X339498D01*
Y542498D01*
X338498Y541498D01*
X343496D02*
X344496Y542498D01*
X346496D01*
X347495Y541498D01*
Y540499D01*
X346496Y539499D01*
X345496D01*
X346496D01*
X347495Y538499D01*
Y537500D01*
X346496Y536500D01*
X344496D01*
X343496Y537500D01*
X186799Y360798D02*
X185799Y361798D01*
X183800D01*
X182800Y360798D01*
Y356800D01*
X183800Y355800D01*
X185799D01*
X186799Y356800D01*
X188798Y355800D02*
X190797D01*
X189798D01*
Y361798D01*
X188798Y360798D01*
X197795Y361798D02*
X193796D01*
Y358799D01*
X195796Y359799D01*
X196795D01*
X197795Y358799D01*
Y356800D01*
X196795Y355800D01*
X194796D01*
X193796Y356800D01*
X343299Y213298D02*
X342299Y214298D01*
X340300D01*
X339300Y213298D01*
Y209300D01*
X340300Y208300D01*
X342299D01*
X343299Y209300D01*
X345298Y208300D02*
X347297D01*
X346298D01*
Y214298D01*
X345298Y213298D01*
X350296Y214298D02*
X354295D01*
Y213298D01*
X350296Y209300D01*
Y208300D01*
X375299Y398798D02*
X374299Y399798D01*
X372300D01*
X371300Y398798D01*
Y394800D01*
X372300Y393800D01*
X374299D01*
X375299Y394800D01*
X377298Y393800D02*
X379297D01*
X378298D01*
Y399798D01*
X377298Y398798D01*
X382296D02*
X383296Y399798D01*
X385296D01*
X386295Y398798D01*
Y397799D01*
X385296Y396799D01*
X386295Y395799D01*
Y394800D01*
X385296Y393800D01*
X383296D01*
X382296Y394800D01*
Y395799D01*
X383296Y396799D01*
X382296Y397799D01*
Y398798D01*
X383296Y396799D02*
X385296D01*
X497999Y339998D02*
X496999Y340998D01*
X495000D01*
X494000Y339998D01*
Y336000D01*
X495000Y335000D01*
X496999D01*
X497999Y336000D01*
X499998Y335000D02*
X501997D01*
X500998D01*
Y340998D01*
X499998Y339998D01*
X504996Y336000D02*
X505996Y335000D01*
X507996D01*
X508995Y336000D01*
Y339998D01*
X507996Y340998D01*
X505996D01*
X504996Y339998D01*
Y338999D01*
X505996Y337999D01*
X508995D01*
X162502Y499499D02*
X161502Y498499D01*
Y496500D01*
X162502Y495500D01*
X166500D01*
X167500Y496500D01*
Y498499D01*
X166500Y499499D01*
X167500Y505497D02*
Y501498D01*
X163501Y505497D01*
X162502D01*
X161502Y504497D01*
Y502498D01*
X162502Y501498D01*
Y507496D02*
X161502Y508496D01*
Y510495D01*
X162502Y511495D01*
X166500D01*
X167500Y510495D01*
Y508496D01*
X166500Y507496D01*
X162502D01*
X452699Y590698D02*
X451699Y591698D01*
X449700D01*
X448700Y590698D01*
Y586700D01*
X449700Y585700D01*
X451699D01*
X452699Y586700D01*
X458697Y585700D02*
X454698D01*
X458697Y589699D01*
Y590698D01*
X457697Y591698D01*
X455698D01*
X454698Y590698D01*
X464695Y585700D02*
X460696D01*
X464695Y589699D01*
Y590698D01*
X463695Y591698D01*
X461696D01*
X460696Y590698D01*
X147999Y264998D02*
X146999Y265998D01*
X145000D01*
X144000Y264998D01*
Y261000D01*
X145000Y260000D01*
X146999D01*
X147999Y261000D01*
X153997Y260000D02*
X149998D01*
X153997Y263999D01*
Y264998D01*
X152997Y265998D01*
X150998D01*
X149998Y264998D01*
X155996D02*
X156996Y265998D01*
X158995D01*
X159995Y264998D01*
Y263999D01*
X158995Y262999D01*
X157995D01*
X158995D01*
X159995Y261999D01*
Y261000D01*
X158995Y260000D01*
X156996D01*
X155996Y261000D01*
X152002Y403999D02*
X151002Y402999D01*
Y401000D01*
X152002Y400000D01*
X156000D01*
X157000Y401000D01*
Y402999D01*
X156000Y403999D01*
X157000Y409997D02*
Y405998D01*
X153001Y409997D01*
X152002D01*
X151002Y408997D01*
Y406998D01*
X152002Y405998D01*
X157000Y414995D02*
X151002D01*
X154001Y411996D01*
Y415995D01*
X156002Y428499D02*
X155002Y427499D01*
Y425500D01*
X156002Y424500D01*
X160000D01*
X161000Y425500D01*
Y427499D01*
X160000Y428499D01*
X161000Y434497D02*
Y430498D01*
X157001Y434497D01*
X156002D01*
X155002Y433497D01*
Y431498D01*
X156002Y430498D01*
X155002Y440495D02*
Y436496D01*
X158001D01*
X157001Y438495D01*
Y439495D01*
X158001Y440495D01*
X160000D01*
X161000Y439495D01*
Y437496D01*
X160000Y436496D01*
X134499Y364498D02*
X133499Y365498D01*
X131500D01*
X130500Y364498D01*
Y360500D01*
X131500Y359500D01*
X133499D01*
X134499Y360500D01*
X140497Y359500D02*
X136498D01*
X140497Y363499D01*
Y364498D01*
X139497Y365498D01*
X137498D01*
X136498Y364498D01*
X142496Y365498D02*
X146495D01*
Y364498D01*
X142496Y360500D01*
Y359500D01*
X203499Y269498D02*
X202499Y270498D01*
X200500D01*
X199500Y269498D01*
Y265500D01*
X200500Y264500D01*
X202499D01*
X203499Y265500D01*
X209497Y264500D02*
X205498D01*
X209497Y268499D01*
Y269498D01*
X208497Y270498D01*
X206498D01*
X205498Y269498D01*
X211496D02*
X212496Y270498D01*
X214495D01*
X215495Y269498D01*
Y268499D01*
X214495Y267499D01*
X215495Y266499D01*
Y265500D01*
X214495Y264500D01*
X212496D01*
X211496Y265500D01*
Y266499D01*
X212496Y267499D01*
X211496Y268499D01*
Y269498D01*
X212496Y267499D02*
X214495D01*
X236998Y642001D02*
X237998Y643001D01*
Y645000D01*
X236998Y646000D01*
X233000D01*
X232000Y645000D01*
Y643001D01*
X233000Y642001D01*
X232000Y636003D02*
Y640002D01*
X235999Y636003D01*
X236998D01*
X237998Y637003D01*
Y639002D01*
X236998Y640002D01*
X233000Y634004D02*
X232000Y633004D01*
Y631005D01*
X233000Y630005D01*
X236998D01*
X237998Y631005D01*
Y633004D01*
X236998Y634004D01*
X235999D01*
X234999Y633004D01*
Y630005D01*
X551499Y228998D02*
X550499Y229998D01*
X548500D01*
X547500Y228998D01*
Y225000D01*
X548500Y224000D01*
X550499D01*
X551499Y225000D01*
X553498Y228998D02*
X554498Y229998D01*
X556497D01*
X557497Y228998D01*
Y227999D01*
X556497Y226999D01*
X555497D01*
X556497D01*
X557497Y225999D01*
Y225000D01*
X556497Y224000D01*
X554498D01*
X553498Y225000D01*
X559496Y228998D02*
X560496Y229998D01*
X562495D01*
X563495Y228998D01*
Y225000D01*
X562495Y224000D01*
X560496D01*
X559496Y225000D01*
Y228998D01*
X446199Y237198D02*
X445199Y238198D01*
X443200D01*
X442200Y237198D01*
Y233200D01*
X443200Y232200D01*
X445199D01*
X446199Y233200D01*
X448198Y237198D02*
X449198Y238198D01*
X451197D01*
X452197Y237198D01*
Y236199D01*
X451197Y235199D01*
X450197D01*
X451197D01*
X452197Y234199D01*
Y233200D01*
X451197Y232200D01*
X449198D01*
X448198Y233200D01*
X454196Y232200D02*
X456195D01*
X455196D01*
Y238198D01*
X454196Y237198D01*
X844999Y246498D02*
X843999Y247498D01*
X842000D01*
X841000Y246498D01*
Y242500D01*
X842000Y241500D01*
X843999D01*
X844999Y242500D01*
X846998Y246498D02*
X847998Y247498D01*
X849997D01*
X850997Y246498D01*
Y245499D01*
X849997Y244499D01*
X848997D01*
X849997D01*
X850997Y243499D01*
Y242500D01*
X849997Y241500D01*
X847998D01*
X846998Y242500D01*
X856995Y241500D02*
X852996D01*
X856995Y245499D01*
Y246498D01*
X855995Y247498D01*
X853996D01*
X852996Y246498D01*
X926498Y307001D02*
X927498Y308001D01*
Y310000D01*
X926498Y311000D01*
X922500D01*
X921500Y310000D01*
Y308001D01*
X922500Y307001D01*
X926498Y305002D02*
X927498Y304002D01*
Y302003D01*
X926498Y301003D01*
X925499D01*
X924499Y302003D01*
Y303003D01*
Y302003D01*
X923499Y301003D01*
X922500D01*
X921500Y302003D01*
Y304002D01*
X922500Y305002D01*
X926498Y299004D02*
X927498Y298004D01*
Y296005D01*
X926498Y295005D01*
X925499D01*
X924499Y296005D01*
Y297005D01*
Y296005D01*
X923499Y295005D01*
X922500D01*
X921500Y296005D01*
Y298004D01*
X922500Y299004D01*
X879998Y275001D02*
X880998Y276001D01*
Y278000D01*
X879998Y279000D01*
X876000D01*
X875000Y278000D01*
Y276001D01*
X876000Y275001D01*
X879998Y273002D02*
X880998Y272002D01*
Y270003D01*
X879998Y269003D01*
X878999D01*
X877999Y270003D01*
Y271003D01*
Y270003D01*
X876999Y269003D01*
X876000D01*
X875000Y270003D01*
Y272002D01*
X876000Y273002D01*
X875000Y264005D02*
X880998D01*
X877999Y267004D01*
Y263005D01*
X890241Y258498D02*
X889241Y259498D01*
X887241D01*
X886242Y258498D01*
Y254500D01*
X887241Y253500D01*
X889241D01*
X890241Y254500D01*
X892240Y258498D02*
X893240Y259498D01*
X895239D01*
X896239Y258498D01*
Y257499D01*
X895239Y256499D01*
X894239D01*
X895239D01*
X896239Y255499D01*
Y254500D01*
X895239Y253500D01*
X893240D01*
X892240Y254500D01*
X902237Y259498D02*
X898238D01*
Y256499D01*
X900237Y257499D01*
X901237D01*
X902237Y256499D01*
Y254500D01*
X901237Y253500D01*
X899238D01*
X898238Y254500D01*
X858999Y254498D02*
X857999Y255498D01*
X856000D01*
X855000Y254498D01*
Y250500D01*
X856000Y249500D01*
X857999D01*
X858999Y250500D01*
X860998Y254498D02*
X861998Y255498D01*
X863997D01*
X864997Y254498D01*
Y253499D01*
X863997Y252499D01*
X862997D01*
X863997D01*
X864997Y251499D01*
Y250500D01*
X863997Y249500D01*
X861998D01*
X860998Y250500D01*
X870995Y255498D02*
X868995Y254498D01*
X866996Y252499D01*
Y250500D01*
X867996Y249500D01*
X869995D01*
X870995Y250500D01*
Y251499D01*
X869995Y252499D01*
X866996D01*
X916999Y212498D02*
X915999Y213498D01*
X914000D01*
X913000Y212498D01*
Y208500D01*
X914000Y207500D01*
X915999D01*
X916999Y208500D01*
X918998Y212498D02*
X919998Y213498D01*
X921997D01*
X922997Y212498D01*
Y211499D01*
X921997Y210499D01*
X920997D01*
X921997D01*
X922997Y209499D01*
Y208500D01*
X921997Y207500D01*
X919998D01*
X918998Y208500D01*
X924996Y213498D02*
X928995D01*
Y212498D01*
X924996Y208500D01*
Y207500D01*
X841046Y199498D02*
X840046Y200498D01*
X838047D01*
X837047Y199498D01*
Y195500D01*
X838047Y194500D01*
X840046D01*
X841046Y195500D01*
X843045Y199498D02*
X844045Y200498D01*
X846044D01*
X847044Y199498D01*
Y198499D01*
X846044Y197499D01*
X845045D01*
X846044D01*
X847044Y196499D01*
Y195500D01*
X846044Y194500D01*
X844045D01*
X843045Y195500D01*
X849043D02*
X850043Y194500D01*
X852042D01*
X853042Y195500D01*
Y199498D01*
X852042Y200498D01*
X850043D01*
X849043Y199498D01*
Y198499D01*
X850043Y197499D01*
X853042D01*
X890499Y178998D02*
X889499Y179998D01*
X887500D01*
X886500Y178998D01*
Y175000D01*
X887500Y174000D01*
X889499D01*
X890499Y175000D01*
X895497Y174000D02*
Y179998D01*
X892498Y176999D01*
X896497D01*
X901495Y174000D02*
Y179998D01*
X898496Y176999D01*
X902495D01*
X858499Y178998D02*
X857499Y179998D01*
X855500D01*
X854500Y178998D01*
Y175000D01*
X855500Y174000D01*
X857499D01*
X858499Y175000D01*
X863497Y174000D02*
Y179998D01*
X860498Y176999D01*
X864497D01*
X870495Y179998D02*
X866496D01*
Y176999D01*
X868495Y177999D01*
X869495D01*
X870495Y176999D01*
Y175000D01*
X869495Y174000D01*
X867496D01*
X866496Y175000D01*
X909999Y252998D02*
X908999Y253998D01*
X907000D01*
X906000Y252998D01*
Y249000D01*
X907000Y248000D01*
X908999D01*
X909999Y249000D01*
X914997Y248000D02*
Y253998D01*
X911998Y250999D01*
X915997D01*
X921995Y253998D02*
X919995Y252998D01*
X917996Y250999D01*
Y249000D01*
X918996Y248000D01*
X920995D01*
X921995Y249000D01*
Y249999D01*
X920995Y250999D01*
X917996D01*
X819299Y133298D02*
X818299Y134298D01*
X816300D01*
X815300Y133298D01*
Y129300D01*
X816300Y128300D01*
X818299D01*
X819299Y129300D01*
X824297Y128300D02*
Y134298D01*
X821298Y131299D01*
X825297D01*
X827296Y134298D02*
X831295D01*
Y133298D01*
X827296Y129300D01*
Y128300D01*
X819299Y170298D02*
X818299Y171298D01*
X816300D01*
X815300Y170298D01*
Y166300D01*
X816300Y165300D01*
X818299D01*
X819299Y166300D01*
X824297Y165300D02*
Y171298D01*
X821298Y168299D01*
X825297D01*
X827296Y170298D02*
X828296Y171298D01*
X830295D01*
X831295Y170298D01*
Y169299D01*
X830295Y168299D01*
X831295Y167299D01*
Y166300D01*
X830295Y165300D01*
X828296D01*
X827296Y166300D01*
Y167299D01*
X828296Y168299D01*
X827296Y169299D01*
Y170298D01*
X828296Y168299D02*
X830295D01*
X819299Y151798D02*
X818299Y152798D01*
X816300D01*
X815300Y151798D01*
Y147800D01*
X816300Y146800D01*
X818299D01*
X819299Y147800D01*
X824297Y146800D02*
Y152798D01*
X821298Y149799D01*
X825297D01*
X827296Y147800D02*
X828296Y146800D01*
X830295D01*
X831295Y147800D01*
Y151798D01*
X830295Y152798D01*
X828296D01*
X827296Y151798D01*
Y150799D01*
X828296Y149799D01*
X831295D01*
X163799Y614298D02*
X162799Y615298D01*
X160800D01*
X159800Y614298D01*
Y610300D01*
X160800Y609300D01*
X162799D01*
X163799Y610300D01*
X169797Y615298D02*
X165798D01*
Y612299D01*
X167797Y613299D01*
X168797D01*
X169797Y612299D01*
Y610300D01*
X168797Y609300D01*
X166798D01*
X165798Y610300D01*
X171796Y614298D02*
X172796Y615298D01*
X174795D01*
X175795Y614298D01*
Y610300D01*
X174795Y609300D01*
X172796D01*
X171796Y610300D01*
Y614298D01*
X163799Y594298D02*
X162799Y595298D01*
X160800D01*
X159800Y594298D01*
Y590300D01*
X160800Y589300D01*
X162799D01*
X163799Y590300D01*
X169797Y595298D02*
X165798D01*
Y592299D01*
X167797Y593299D01*
X168797D01*
X169797Y592299D01*
Y590300D01*
X168797Y589300D01*
X166798D01*
X165798Y590300D01*
X171796Y589300D02*
X173795D01*
X172796D01*
Y595298D01*
X171796Y594298D01*
X874499Y146498D02*
X872499D01*
X873499D01*
Y141500D01*
X872499Y140500D01*
X871500D01*
X870500Y141500D01*
X880497Y140500D02*
X876498D01*
X880497Y144499D01*
Y145498D01*
X879497Y146498D01*
X877498D01*
X876498Y145498D01*
X372999Y637498D02*
X370999D01*
X371999D01*
Y632500D01*
X370999Y631500D01*
X370000D01*
X369000Y632500D01*
X374998Y631500D02*
Y637498D01*
X377997D01*
X378997Y636498D01*
Y634499D01*
X377997Y633499D01*
X374998D01*
X380996Y631500D02*
X382996D01*
X381996D01*
Y637498D01*
X380996Y636498D01*
X908500Y438498D02*
Y432500D01*
X912499D01*
X918497Y437498D02*
X917497Y438498D01*
X915498D01*
X914498Y437498D01*
Y433500D01*
X915498Y432500D01*
X917497D01*
X918497Y433500D01*
X920496Y438498D02*
Y432500D01*
X923495D01*
X924495Y433500D01*
Y437498D01*
X923495Y438498D01*
X920496D01*
X926494Y432500D02*
X928493D01*
X927494D01*
Y438498D01*
X926494Y437498D01*
X549750Y427950D02*
Y433948D01*
X552749D01*
X553749Y432948D01*
Y430949D01*
X552749Y429949D01*
X549750D01*
X555748Y433948D02*
Y427950D01*
X558747D01*
X559747Y428950D01*
Y429949D01*
X558747Y430949D01*
X555748D01*
X558747D01*
X559747Y431949D01*
Y432948D01*
X558747Y433948D01*
X555748D01*
X561746Y427950D02*
X563745D01*
X562746D01*
Y433948D01*
X561746Y432948D01*
X611750Y427950D02*
Y433948D01*
X614749D01*
X615749Y432948D01*
Y430949D01*
X614749Y429949D01*
X611750D01*
X617748Y433948D02*
Y427950D01*
X620747D01*
X621747Y428950D01*
Y429949D01*
X620747Y430949D01*
X617748D01*
X620747D01*
X621747Y431949D01*
Y432948D01*
X620747Y433948D01*
X617748D01*
X627745Y427950D02*
X623746D01*
X627745Y431949D01*
Y432948D01*
X626745Y433948D01*
X624746D01*
X623746Y432948D01*
X672750Y427950D02*
Y433948D01*
X675749D01*
X676749Y432948D01*
Y430949D01*
X675749Y429949D01*
X672750D01*
X678748Y433948D02*
Y427950D01*
X681747D01*
X682747Y428950D01*
Y429949D01*
X681747Y430949D01*
X678748D01*
X681747D01*
X682747Y431949D01*
Y432948D01*
X681747Y433948D01*
X678748D01*
X684746Y432948D02*
X685746Y433948D01*
X687745D01*
X688745Y432948D01*
Y431949D01*
X687745Y430949D01*
X686746D01*
X687745D01*
X688745Y429949D01*
Y428950D01*
X687745Y427950D01*
X685746D01*
X684746Y428950D01*
X734750Y427950D02*
Y433948D01*
X737749D01*
X738749Y432948D01*
Y430949D01*
X737749Y429949D01*
X734750D01*
X740748Y433948D02*
Y427950D01*
X743747D01*
X744747Y428950D01*
Y429949D01*
X743747Y430949D01*
X740748D01*
X743747D01*
X744747Y431949D01*
Y432948D01*
X743747Y433948D01*
X740748D01*
X749745Y427950D02*
Y433948D01*
X746746Y430949D01*
X750745D01*
X796250Y427950D02*
Y433948D01*
X799249D01*
X800249Y432948D01*
Y430949D01*
X799249Y429949D01*
X796250D01*
X802248Y433948D02*
Y427950D01*
X805247D01*
X806247Y428950D01*
Y429949D01*
X805247Y430949D01*
X802248D01*
X805247D01*
X806247Y431949D01*
Y432948D01*
X805247Y433948D01*
X802248D01*
X812245D02*
X808246D01*
Y430949D01*
X810246Y431949D01*
X811245D01*
X812245Y430949D01*
Y428950D01*
X811245Y427950D01*
X809246D01*
X808246Y428950D01*
X857750Y427950D02*
Y433948D01*
X860749D01*
X861749Y432948D01*
Y430949D01*
X860749Y429949D01*
X857750D01*
X863748Y433948D02*
Y427950D01*
X866747D01*
X867747Y428950D01*
Y429949D01*
X866747Y430949D01*
X863748D01*
X866747D01*
X867747Y431949D01*
Y432948D01*
X866747Y433948D01*
X863748D01*
X873745D02*
X871745Y432948D01*
X869746Y430949D01*
Y428950D01*
X870746Y427950D01*
X872745D01*
X873745Y428950D01*
Y429949D01*
X872745Y430949D01*
X869746D01*
X460000Y637500D02*
X454002D01*
Y640499D01*
X455002Y641499D01*
X457001D01*
X458001Y640499D01*
Y637500D01*
X454002Y643498D02*
X460000D01*
Y646497D01*
X459000Y647497D01*
X458001D01*
X457001Y646497D01*
Y643498D01*
Y646497D01*
X456001Y647497D01*
X455002D01*
X454002Y646497D01*
Y643498D01*
Y649496D02*
Y653495D01*
X455002D01*
X459000Y649496D01*
X460000D01*
X429500Y638000D02*
X423502D01*
Y640999D01*
X424502Y641999D01*
X426501D01*
X427501Y640999D01*
Y638000D01*
X423502Y643998D02*
X429500D01*
Y646997D01*
X428500Y647997D01*
X427501D01*
X426501Y646997D01*
Y643998D01*
Y646997D01*
X425501Y647997D01*
X424502D01*
X423502Y646997D01*
Y643998D01*
X424502Y649996D02*
X423502Y650996D01*
Y652995D01*
X424502Y653995D01*
X425501D01*
X426501Y652995D01*
X427501Y653995D01*
X428500D01*
X429500Y652995D01*
Y650996D01*
X428500Y649996D01*
X427501D01*
X426501Y650996D01*
X425501Y649996D01*
X424502D01*
X426501Y650996D02*
Y652995D01*
X204429Y642500D02*
X210427D01*
Y639501D01*
X209427Y638501D01*
X207428D01*
X206428Y639501D01*
Y642500D01*
Y640501D02*
X204429Y638501D01*
Y636502D02*
Y634503D01*
Y635502D01*
X210427D01*
X209427Y636502D01*
X451000Y407000D02*
Y412998D01*
X453999D01*
X454999Y411998D01*
Y409999D01*
X453999Y408999D01*
X451000D01*
X452999D02*
X454999Y407000D01*
X460997D02*
X456998D01*
X460997Y410999D01*
Y411998D01*
X459997Y412998D01*
X457998D01*
X456998Y411998D01*
X433500Y210500D02*
Y216498D01*
X436499D01*
X437499Y215498D01*
Y213499D01*
X436499Y212499D01*
X433500D01*
X435499D02*
X437499Y210500D01*
X443497Y216498D02*
X439498D01*
Y213499D01*
X441497Y214499D01*
X442497D01*
X443497Y213499D01*
Y211500D01*
X442497Y210500D01*
X440498D01*
X439498Y211500D01*
X215000Y642500D02*
X220998D01*
Y639501D01*
X219998Y638501D01*
X217999D01*
X216999Y639501D01*
Y642500D01*
Y640501D02*
X215000Y638501D01*
X219998Y636502D02*
X220998Y635502D01*
Y633503D01*
X219998Y632503D01*
X218999D01*
X217999Y633503D01*
X216999Y632503D01*
X216000D01*
X215000Y633503D01*
Y635502D01*
X216000Y636502D01*
X216999D01*
X217999Y635502D01*
X218999Y636502D01*
X219998D01*
X217999Y635502D02*
Y633503D01*
X263500Y414500D02*
Y420498D01*
X266499D01*
X267499Y419498D01*
Y417499D01*
X266499Y416499D01*
X263500D01*
X265499D02*
X267499Y414500D01*
X269498D02*
X271497D01*
X270498D01*
Y420498D01*
X269498Y419498D01*
X274496Y414500D02*
X276496D01*
X275496D01*
Y420498D01*
X274496Y419498D01*
X114000Y441500D02*
Y447498D01*
X116999D01*
X117999Y446498D01*
Y444499D01*
X116999Y443499D01*
X114000D01*
X115999D02*
X117999Y441500D01*
X119998Y446498D02*
X120998Y447498D01*
X122997D01*
X123997Y446498D01*
Y445499D01*
X122997Y444499D01*
X121997D01*
X122997D01*
X123997Y443499D01*
Y442500D01*
X122997Y441500D01*
X120998D01*
X119998Y442500D01*
X125996Y446498D02*
X126996Y447498D01*
X128995D01*
X129995Y446498D01*
Y442500D01*
X128995Y441500D01*
X126996D01*
X125996Y442500D01*
Y446498D01*
X394500Y336500D02*
X388502D01*
Y339499D01*
X389502Y340499D01*
X391501D01*
X392501Y339499D01*
Y336500D01*
Y338499D02*
X394500Y340499D01*
X389502Y342498D02*
X388502Y343498D01*
Y345497D01*
X389502Y346497D01*
X390501D01*
X391501Y345497D01*
Y344497D01*
Y345497D01*
X392501Y346497D01*
X393500D01*
X394500Y345497D01*
Y343498D01*
X393500Y342498D01*
X388502Y352495D02*
Y348496D01*
X391501D01*
X390501Y350496D01*
Y351495D01*
X391501Y352495D01*
X393500D01*
X394500Y351495D01*
Y349496D01*
X393500Y348496D01*
X199000Y461500D02*
Y467498D01*
X201999D01*
X202999Y466498D01*
Y464499D01*
X201999Y463499D01*
X199000D01*
X200999D02*
X202999Y461500D01*
X207997D02*
Y467498D01*
X204998Y464499D01*
X208997D01*
X210996Y466498D02*
X211996Y467498D01*
X213995D01*
X214995Y466498D01*
Y465499D01*
X213995Y464499D01*
X212996D01*
X213995D01*
X214995Y463499D01*
Y462500D01*
X213995Y461500D01*
X211996D01*
X210996Y462500D01*
X817000Y186000D02*
Y191998D01*
X819999D01*
X820999Y190998D01*
Y188999D01*
X819999Y187999D01*
X817000D01*
X818999D02*
X820999Y186000D01*
X825997D02*
Y191998D01*
X822998Y188999D01*
X826997D01*
X828996Y187000D02*
X829996Y186000D01*
X831995D01*
X832995Y187000D01*
Y190998D01*
X831995Y191998D01*
X829996D01*
X828996Y190998D01*
Y189999D01*
X829996Y188999D01*
X832995D01*
X817000Y176000D02*
Y181998D01*
X819999D01*
X820999Y180998D01*
Y178999D01*
X819999Y177999D01*
X817000D01*
X818999D02*
X820999Y176000D01*
X822998D02*
X824997D01*
X823998D01*
Y181998D01*
X822998Y180998D01*
X831995Y176000D02*
X827996D01*
X831995Y179999D01*
Y180998D01*
X830995Y181998D01*
X828996D01*
X827996Y180998D01*
X844000Y126500D02*
Y132498D01*
X846999D01*
X847999Y131498D01*
Y129499D01*
X846999Y128499D01*
X844000D01*
X845999D02*
X847999Y126500D01*
X853997Y132498D02*
X849998D01*
Y129499D01*
X851997Y130499D01*
X852997D01*
X853997Y129499D01*
Y127500D01*
X852997Y126500D01*
X850998D01*
X849998Y127500D01*
X855996Y126500D02*
X857996D01*
X856996D01*
Y132498D01*
X855996Y131498D01*
X843000Y163500D02*
Y169498D01*
X845999D01*
X846999Y168498D01*
Y166499D01*
X845999Y165499D01*
X843000D01*
X844999D02*
X846999Y163500D01*
X852997Y169498D02*
X848998D01*
Y166499D01*
X850997Y167499D01*
X851997D01*
X852997Y166499D01*
Y164500D01*
X851997Y163500D01*
X849998D01*
X848998Y164500D01*
X858995Y163500D02*
X854996D01*
X858995Y167499D01*
Y168498D01*
X857995Y169498D01*
X855996D01*
X854996Y168498D01*
X843000Y144500D02*
Y150498D01*
X845999D01*
X846999Y149498D01*
Y147499D01*
X845999Y146499D01*
X843000D01*
X844999D02*
X846999Y144500D01*
X852997Y150498D02*
X848998D01*
Y147499D01*
X850997Y148499D01*
X851997D01*
X852997Y147499D01*
Y145500D01*
X851997Y144500D01*
X849998D01*
X848998Y145500D01*
X854996Y149498D02*
X855996Y150498D01*
X857995D01*
X858995Y149498D01*
Y148499D01*
X857995Y147499D01*
X856995D01*
X857995D01*
X858995Y146499D01*
Y145500D01*
X857995Y144500D01*
X855996D01*
X854996Y145500D01*
X190500Y519000D02*
X184502D01*
Y521999D01*
X185502Y522999D01*
X187501D01*
X188501Y521999D01*
Y519000D01*
Y520999D02*
X190500Y522999D01*
X184502Y528997D02*
Y524998D01*
X187501D01*
X186501Y526997D01*
Y527997D01*
X187501Y528997D01*
X189500D01*
X190500Y527997D01*
Y525998D01*
X189500Y524998D01*
X190500Y533995D02*
X184502D01*
X187501Y530996D01*
Y534995D01*
X770000Y238500D02*
Y244498D01*
X772999D01*
X773999Y243498D01*
Y241499D01*
X772999Y240499D01*
X770000D01*
X771999D02*
X773999Y238500D01*
X779997Y244498D02*
X775998D01*
Y241499D01*
X777997Y242499D01*
X778997D01*
X779997Y241499D01*
Y239500D01*
X778997Y238500D01*
X776998D01*
X775998Y239500D01*
X785995Y244498D02*
X783995Y243498D01*
X781996Y241499D01*
Y239500D01*
X782996Y238500D01*
X784995D01*
X785995Y239500D01*
Y240499D01*
X784995Y241499D01*
X781996D01*
X462850Y603750D02*
Y609748D01*
X465849D01*
X466849Y608748D01*
Y606749D01*
X465849Y605749D01*
X462850D01*
X464849D02*
X466849Y603750D01*
X472847Y609748D02*
X468848D01*
Y603750D01*
X472847D01*
X468848Y606749D02*
X470847D01*
X474846Y603750D02*
X476846D01*
X475846D01*
Y609748D01*
X474846Y608748D01*
X462850Y508250D02*
Y514248D01*
X465849D01*
X466849Y513248D01*
Y511249D01*
X465849Y510249D01*
X462850D01*
X464849D02*
X466849Y508250D01*
X472847Y514248D02*
X468848D01*
Y508250D01*
X472847D01*
X468848Y511249D02*
X470847D01*
X478845Y508250D02*
X474846D01*
X478845Y512249D01*
Y513248D01*
X477845Y514248D01*
X475846D01*
X474846Y513248D01*
X207498Y453000D02*
X202500D01*
X201500Y452000D01*
Y450001D01*
X202500Y449001D01*
X207498D01*
X201500Y443003D02*
Y447002D01*
X205499Y443003D01*
X206498D01*
X207498Y444003D01*
Y446002D01*
X206498Y447002D01*
X459750Y270648D02*
Y265650D01*
X460750Y264650D01*
X462749D01*
X463749Y265650D01*
Y270648D01*
X465748Y269648D02*
X466748Y270648D01*
X468747D01*
X469747Y269648D01*
Y268649D01*
X468747Y267649D01*
X467747D01*
X468747D01*
X469747Y266649D01*
Y265650D01*
X468747Y264650D01*
X466748D01*
X465748Y265650D01*
X207998Y409500D02*
X203000D01*
X202000Y408500D01*
Y406501D01*
X203000Y405501D01*
X207998D01*
X202000Y400503D02*
X207998D01*
X204999Y403502D01*
Y399503D01*
X424500Y418998D02*
Y414000D01*
X425500Y413000D01*
X427499D01*
X428499Y414000D01*
Y418998D01*
X434497D02*
X432497Y417998D01*
X430498Y415999D01*
Y414000D01*
X431498Y413000D01*
X433497D01*
X434497Y414000D01*
Y414999D01*
X433497Y415999D01*
X430498D01*
X407500Y653498D02*
Y648500D01*
X408500Y647500D01*
X410499D01*
X411499Y648500D01*
Y653498D01*
X413498D02*
X417497D01*
Y652498D01*
X413498Y648500D01*
Y647500D01*
X263000Y437498D02*
Y432500D01*
X264000Y431500D01*
X265999D01*
X266999Y432500D01*
Y437498D01*
X268998Y436498D02*
X269998Y437498D01*
X271997D01*
X272997Y436498D01*
Y435499D01*
X271997Y434499D01*
X272997Y433499D01*
Y432500D01*
X271997Y431500D01*
X269998D01*
X268998Y432500D01*
Y433499D01*
X269998Y434499D01*
X268998Y435499D01*
Y436498D01*
X269998Y434499D02*
X271997D01*
X292150Y532448D02*
Y527450D01*
X293150Y526450D01*
X295149D01*
X296149Y527450D01*
Y532448D01*
X298148Y527450D02*
X299148Y526450D01*
X301147D01*
X302147Y527450D01*
Y531448D01*
X301147Y532448D01*
X299148D01*
X298148Y531448D01*
Y530449D01*
X299148Y529449D01*
X302147D01*
X446000Y376498D02*
Y371500D01*
X447000Y370500D01*
X448999D01*
X449999Y371500D01*
Y376498D01*
X451998Y370500D02*
X453997D01*
X452998D01*
Y376498D01*
X451998Y375498D01*
X456996D02*
X457996Y376498D01*
X459996D01*
X460995Y375498D01*
Y371500D01*
X459996Y370500D01*
X457996D01*
X456996Y371500D01*
Y375498D01*
X133502Y170500D02*
X138500D01*
X139500Y171500D01*
Y173499D01*
X138500Y174499D01*
X133502D01*
X139500Y176498D02*
Y178497D01*
Y177498D01*
X133502D01*
X134502Y176498D01*
X139500Y185495D02*
Y181496D01*
X135501Y185495D01*
X134502D01*
X133502Y184495D01*
Y182496D01*
X134502Y181496D01*
X243950Y390448D02*
Y385450D01*
X244950Y384450D01*
X246949D01*
X247949Y385450D01*
Y390448D01*
X249948Y384450D02*
X251947D01*
X250948D01*
Y390448D01*
X249948Y389448D01*
X257945Y384450D02*
Y390448D01*
X254946Y387449D01*
X258945D01*
X228002Y171000D02*
X233000D01*
X234000Y172000D01*
Y173999D01*
X233000Y174999D01*
X228002D01*
X234000Y176998D02*
Y178997D01*
Y177998D01*
X228002D01*
X229002Y176998D01*
X228002Y185995D02*
X229002Y183996D01*
X231001Y181996D01*
X233000D01*
X234000Y182996D01*
Y184995D01*
X233000Y185995D01*
X232001D01*
X231001Y184995D01*
Y181996D01*
X322502Y171500D02*
X327500D01*
X328500Y172500D01*
Y174499D01*
X327500Y175499D01*
X322502D01*
X328500Y177498D02*
Y179497D01*
Y178498D01*
X322502D01*
X323502Y177498D01*
X322502Y182496D02*
Y186495D01*
X323502D01*
X327500Y182496D01*
X328500D01*
X344750Y390448D02*
Y385450D01*
X345750Y384450D01*
X347749D01*
X348749Y385450D01*
Y390448D01*
X350748Y384450D02*
X352747D01*
X351748D01*
Y390448D01*
X350748Y389448D01*
X355746D02*
X356746Y390448D01*
X358746D01*
X359745Y389448D01*
Y388449D01*
X358746Y387449D01*
X359745Y386449D01*
Y385450D01*
X358746Y384450D01*
X356746D01*
X355746Y385450D01*
Y386449D01*
X356746Y387449D01*
X355746Y388449D01*
Y389448D01*
X356746Y387449D02*
X358746D01*
X463700Y343498D02*
Y338500D01*
X464700Y337500D01*
X466699D01*
X467699Y338500D01*
Y343498D01*
X469698Y337500D02*
X471697D01*
X470698D01*
Y343498D01*
X469698Y342498D01*
X474696Y338500D02*
X475696Y337500D01*
X477696D01*
X478695Y338500D01*
Y342498D01*
X477696Y343498D01*
X475696D01*
X474696Y342498D01*
Y341499D01*
X475696Y340499D01*
X478695D01*
X209498Y492500D02*
X204500D01*
X203500Y491500D01*
Y489501D01*
X204500Y488501D01*
X209498D01*
X203500Y482503D02*
Y486502D01*
X207499Y482503D01*
X208498D01*
X209498Y483503D01*
Y485502D01*
X208498Y486502D01*
Y480504D02*
X209498Y479504D01*
Y477505D01*
X208498Y476505D01*
X204500D01*
X203500Y477505D01*
Y479504D01*
X204500Y480504D01*
X208498D01*
X427600Y588998D02*
Y584000D01*
X428600Y583000D01*
X430599D01*
X431599Y584000D01*
Y588998D01*
X437597Y583000D02*
X433598D01*
X437597Y586999D01*
Y587998D01*
X436597Y588998D01*
X434598D01*
X433598Y587998D01*
X443595Y583000D02*
X439596D01*
X443595Y586999D01*
Y587998D01*
X442595Y588998D01*
X440596D01*
X439596Y587998D01*
X884000Y315998D02*
Y311000D01*
X885000Y310000D01*
X886999D01*
X887999Y311000D01*
Y315998D01*
X893997Y310000D02*
X889998D01*
X893997Y313999D01*
Y314998D01*
X892997Y315998D01*
X890998D01*
X889998Y314998D01*
X895996D02*
X896996Y315998D01*
X898995D01*
X899995Y314998D01*
Y313999D01*
X898995Y312999D01*
X897995D01*
X898995D01*
X899995Y311999D01*
Y311000D01*
X898995Y310000D01*
X896996D01*
X895996Y311000D01*
X837600Y310898D02*
Y305900D01*
X838600Y304900D01*
X840599D01*
X841599Y305900D01*
Y310898D01*
X847597Y304900D02*
X843598D01*
X847597Y308899D01*
Y309898D01*
X846597Y310898D01*
X844598D01*
X843598Y309898D01*
X853595Y310898D02*
X849596D01*
Y307899D01*
X851595Y308899D01*
X852595D01*
X853595Y307899D01*
Y305900D01*
X852595Y304900D01*
X850596D01*
X849596Y305900D01*
X417000Y144500D02*
Y150498D01*
X419999D01*
X420999Y149498D01*
Y147499D01*
X419999Y146499D01*
X417000D01*
X418999D02*
X420999Y144500D01*
X426997Y150498D02*
X422998D01*
Y147499D01*
X424997Y148499D01*
X425997D01*
X426997Y147499D01*
Y145500D01*
X425997Y144500D01*
X423998D01*
X422998Y145500D01*
X428996Y150498D02*
X432995D01*
Y149498D01*
X428996Y145500D01*
Y144500D01*
X167000Y146500D02*
Y152498D01*
X169999D01*
X170999Y151498D01*
Y149499D01*
X169999Y148499D01*
X167000D01*
X168999D02*
X170999Y146500D01*
X176997Y152498D02*
X172998D01*
Y149499D01*
X174997Y150499D01*
X175997D01*
X176997Y149499D01*
Y147500D01*
X175997Y146500D01*
X173998D01*
X172998Y147500D01*
X178996Y151498D02*
X179996Y152498D01*
X181995D01*
X182995Y151498D01*
Y150499D01*
X181995Y149499D01*
X182995Y148499D01*
Y147500D01*
X181995Y146500D01*
X179996D01*
X178996Y147500D01*
Y148499D01*
X179996Y149499D01*
X178996Y150499D01*
Y151498D01*
X179996Y149499D02*
X181995D01*
X352000Y144500D02*
Y150498D01*
X354999D01*
X355999Y149498D01*
Y147499D01*
X354999Y146499D01*
X352000D01*
X353999D02*
X355999Y144500D01*
X361997Y150498D02*
X357998D01*
Y147499D01*
X359997Y148499D01*
X360997D01*
X361997Y147499D01*
Y145500D01*
X360997Y144500D01*
X358998D01*
X357998Y145500D01*
X363996D02*
X364996Y144500D01*
X366995D01*
X367995Y145500D01*
Y149498D01*
X366995Y150498D01*
X364996D01*
X363996Y149498D01*
Y148499D01*
X364996Y147499D01*
X367995D01*
X238500Y575000D02*
Y580998D01*
X241499D01*
X242499Y579998D01*
Y577999D01*
X241499Y576999D01*
X238500D01*
X240499D02*
X242499Y575000D01*
X244498D02*
Y580998D01*
X247497D01*
X248497Y579998D01*
Y577999D01*
X247497Y576999D01*
X244498D01*
X250496Y575000D02*
X252496D01*
X251496D01*
Y580998D01*
X250496Y579998D01*
X147500Y239000D02*
Y244998D01*
X150499D01*
X151499Y243998D01*
Y241999D01*
X150499Y240999D01*
X147500D01*
X149499D02*
X151499Y239000D01*
X153498D02*
Y244998D01*
X156497D01*
X157497Y243998D01*
Y241999D01*
X156497Y240999D01*
X153498D01*
X159496Y243998D02*
X160496Y244998D01*
X162495D01*
X163495Y243998D01*
Y242999D01*
X162495Y241999D01*
X161495D01*
X162495D01*
X163495Y240999D01*
Y240000D01*
X162495Y239000D01*
X160496D01*
X159496Y240000D01*
X259000Y551500D02*
Y557498D01*
X261999D01*
X262999Y556498D01*
Y554499D01*
X261999Y553499D01*
X259000D01*
X260999D02*
X262999Y551500D01*
X264998D02*
Y557498D01*
X267997D01*
X268997Y556498D01*
Y554499D01*
X267997Y553499D01*
X264998D01*
X273995Y551500D02*
Y557498D01*
X270996Y554499D01*
X274995D01*
X572100Y306100D02*
Y312098D01*
X575099D01*
X576099Y311098D01*
Y309099D01*
X575099Y308099D01*
X572100D01*
X574099D02*
X576099Y306100D01*
X578098D02*
Y312098D01*
X581097D01*
X582097Y311098D01*
Y309099D01*
X581097Y308099D01*
X578098D01*
X588095Y312098D02*
X584096D01*
Y309099D01*
X586096Y310099D01*
X587095D01*
X588095Y309099D01*
Y307100D01*
X587095Y306100D01*
X585096D01*
X584096Y307100D01*
X206000Y592998D02*
Y587000D01*
X209999D01*
X215997Y592998D02*
X211998D01*
Y587000D01*
X215997D01*
X211998Y589999D02*
X213997D01*
X217996Y592998D02*
Y587000D01*
X220995D01*
X221995Y588000D01*
Y591998D01*
X220995Y592998D01*
X217996D01*
X223994Y587000D02*
X225993D01*
X224994D01*
Y592998D01*
X223994Y591998D01*
X206000Y624498D02*
Y618500D01*
X209999D01*
X215997Y624498D02*
X211998D01*
Y618500D01*
X215997D01*
X211998Y621499D02*
X213997D01*
X217996Y624498D02*
Y618500D01*
X220995D01*
X221995Y619500D01*
Y623498D01*
X220995Y624498D01*
X217996D01*
X227993Y618500D02*
X223994D01*
X227993Y622499D01*
Y623498D01*
X226993Y624498D01*
X224994D01*
X223994Y623498D01*
X233500Y585500D02*
Y591498D01*
X236499D01*
X237499Y590498D01*
Y588499D01*
X236499Y587499D01*
X233500D01*
X235499D02*
X237499Y585500D01*
X242497D02*
Y591498D01*
X239498Y588499D01*
X243497D01*
X245496Y590498D02*
X246496Y591498D01*
X248495D01*
X249495Y590498D01*
Y586500D01*
X248495Y585500D01*
X246496D01*
X245496Y586500D01*
Y590498D01*
X233500Y620500D02*
Y626498D01*
X236499D01*
X237499Y625498D01*
Y623499D01*
X236499Y622499D01*
X233500D01*
X235499D02*
X237499Y620500D01*
X242497D02*
Y626498D01*
X239498Y623499D01*
X243497D01*
X245496Y620500D02*
X247496D01*
X246496D01*
Y626498D01*
X245496Y625498D01*
X761499Y159498D02*
X759499D01*
X760499D01*
Y154500D01*
X759499Y153500D01*
X758500D01*
X757500Y154500D01*
X766497Y153500D02*
Y159498D01*
X763498Y156499D01*
X767497D01*
X112500Y611498D02*
Y606500D01*
X113500Y605500D01*
X115499D01*
X116499Y606500D01*
Y611498D01*
X122497Y605500D02*
X118498D01*
X122497Y609499D01*
Y610498D01*
X121497Y611498D01*
X119498D01*
X118498Y610498D01*
X128495Y611498D02*
X126496Y610498D01*
X124496Y608499D01*
Y606500D01*
X125496Y605500D01*
X127495D01*
X128495Y606500D01*
Y607499D01*
X127495Y608499D01*
X124496D01*
X160500Y520000D02*
X154502D01*
Y522999D01*
X155502Y523999D01*
X157501D01*
X158501Y522999D01*
Y520000D01*
Y521999D02*
X160500Y523999D01*
Y528997D02*
X154502D01*
X157501Y525998D01*
Y529997D01*
X154502Y535995D02*
Y531996D01*
X157501D01*
X156501Y533995D01*
Y534995D01*
X157501Y535995D01*
X159500D01*
X160500Y534995D01*
Y532996D01*
X159500Y531996D01*
X293000Y640998D02*
X296999Y635000D01*
Y640998D02*
X293000Y635000D01*
X298998D02*
X300997D01*
X299998D01*
Y640998D01*
X298998Y639998D01*
X847000Y331498D02*
X850999Y325500D01*
Y331498D02*
X847000Y325500D01*
X856997D02*
X852998D01*
X856997Y329499D01*
Y330498D01*
X855997Y331498D01*
X853998D01*
X852998Y330498D01*
X504100Y434098D02*
Y429100D01*
X505100Y428100D01*
X507099D01*
X508099Y429100D01*
Y434098D01*
X510098Y428100D02*
X512097D01*
X511098D01*
Y434098D01*
X510098Y433098D01*
X515096Y428100D02*
X517096D01*
X516096D01*
Y434098D01*
X515096Y433098D01*
X788500Y295500D02*
Y301498D01*
X791499D01*
X792499Y300498D01*
Y298499D01*
X791499Y297499D01*
X788500D01*
X790499D02*
X792499Y295500D01*
X798497Y301498D02*
X794498D01*
Y298499D01*
X796497Y299499D01*
X797497D01*
X798497Y298499D01*
Y296500D01*
X797497Y295500D01*
X795498D01*
X794498Y296500D01*
X800496Y300498D02*
X801496Y301498D01*
X803495D01*
X804495Y300498D01*
Y296500D01*
X803495Y295500D01*
X801496D01*
X800496Y296500D01*
Y300498D01*
X753500Y338000D02*
Y343998D01*
X756499D01*
X757499Y342998D01*
Y340999D01*
X756499Y339999D01*
X753500D01*
X755499D02*
X757499Y338000D01*
X762497D02*
Y343998D01*
X759498Y340999D01*
X763497D01*
X765496Y343998D02*
X769495D01*
Y342998D01*
X765496Y339000D01*
Y338000D01*
X300000Y676500D02*
X305998D01*
Y673501D01*
X304998Y672501D01*
X302999D01*
X301999Y673501D01*
Y676500D01*
Y674501D02*
X300000Y672501D01*
Y667503D02*
X305998D01*
X302999Y670502D01*
Y666503D01*
X305998Y660505D02*
X304998Y662504D01*
X302999Y664504D01*
X301000D01*
X300000Y663504D01*
Y661505D01*
X301000Y660505D01*
X301999D01*
X302999Y661505D01*
Y664504D01*
X425000Y507500D02*
Y513498D01*
X427999D01*
X428999Y512498D01*
Y510499D01*
X427999Y509499D01*
X425000D01*
X426999D02*
X428999Y507500D01*
X433997D02*
Y513498D01*
X430998Y510499D01*
X434997D01*
X439995Y507500D02*
Y513498D01*
X436996Y510499D01*
X440995D01*
X417000Y593000D02*
Y598998D01*
X419999D01*
X420999Y597998D01*
Y595999D01*
X419999Y594999D01*
X417000D01*
X418999D02*
X420999Y593000D01*
X426997D02*
X422998D01*
X426997Y596999D01*
Y597998D01*
X425997Y598998D01*
X423998D01*
X422998Y597998D01*
X432995Y598998D02*
X430996Y597998D01*
X428996Y595999D01*
Y594000D01*
X429996Y593000D01*
X431995D01*
X432995Y594000D01*
Y594999D01*
X431995Y595999D01*
X428996D01*
X498000Y153500D02*
Y159498D01*
X500999D01*
X501999Y158498D01*
Y156499D01*
X500999Y155499D01*
X498000D01*
X499999D02*
X501999Y153500D01*
X507997D02*
X503998D01*
X507997Y157499D01*
Y158498D01*
X506997Y159498D01*
X504998D01*
X503998Y158498D01*
X512995Y153500D02*
Y159498D01*
X509996Y156499D01*
X513995D01*
X114500Y464500D02*
Y470498D01*
X117499D01*
X118499Y469498D01*
Y467499D01*
X117499Y466499D01*
X114500D01*
X116499D02*
X118499Y464500D01*
X124497D02*
X120498D01*
X124497Y468499D01*
Y469498D01*
X123497Y470498D01*
X121498D01*
X120498Y469498D01*
X126496D02*
X127496Y470498D01*
X129495D01*
X130495Y469498D01*
Y468499D01*
X129495Y467499D01*
X128496D01*
X129495D01*
X130495Y466499D01*
Y465500D01*
X129495Y464500D01*
X127496D01*
X126496Y465500D01*
X595000Y200000D02*
Y205998D01*
X597999D01*
X598999Y204998D01*
Y202999D01*
X597999Y201999D01*
X595000D01*
X596999D02*
X598999Y200000D01*
X600998D02*
X602997D01*
X601998D01*
Y205998D01*
X600998Y204998D01*
X605996Y201000D02*
X606996Y200000D01*
X608995D01*
X609995Y201000D01*
Y204998D01*
X608995Y205998D01*
X606996D01*
X605996Y204998D01*
Y203999D01*
X606996Y202999D01*
X609995D01*
X595000Y130000D02*
Y135998D01*
X597999D01*
X598999Y134998D01*
Y132999D01*
X597999Y131999D01*
X595000D01*
X596999D02*
X598999Y130000D01*
X600998D02*
X602997D01*
X601998D01*
Y135998D01*
X600998Y134998D01*
X605996Y135998D02*
X609995D01*
Y134998D01*
X605996Y131000D01*
Y130000D01*
X437500Y265500D02*
Y271498D01*
X440499D01*
X441499Y270498D01*
Y268499D01*
X440499Y267499D01*
X437500D01*
X439499D02*
X441499Y265500D01*
X443498D02*
X445497D01*
X444498D01*
Y271498D01*
X443498Y270498D01*
X452495Y271498D02*
X448496D01*
Y268499D01*
X450496Y269499D01*
X451496D01*
X452495Y268499D01*
Y266500D01*
X451496Y265500D01*
X449496D01*
X448496Y266500D01*
X595000Y209500D02*
Y215498D01*
X597999D01*
X598999Y214498D01*
Y212499D01*
X597999Y211499D01*
X595000D01*
X596999D02*
X598999Y209500D01*
X600998D02*
X602997D01*
X601998D01*
Y215498D01*
X600998Y214498D01*
X608995Y209500D02*
Y215498D01*
X605996Y212499D01*
X609995D01*
X788500Y286500D02*
Y292498D01*
X791499D01*
X792499Y291498D01*
Y289499D01*
X791499Y288499D01*
X788500D01*
X790499D02*
X792499Y286500D01*
X794498D02*
X796497D01*
X795498D01*
Y292498D01*
X794498Y291498D01*
X799496D02*
X800496Y292498D01*
X802495D01*
X803495Y291498D01*
Y290499D01*
X802495Y289499D01*
X801496D01*
X802495D01*
X803495Y288499D01*
Y287500D01*
X802495Y286500D01*
X800496D01*
X799496Y287500D01*
X381500Y556000D02*
Y561998D01*
X384499D01*
X385499Y560998D01*
Y558999D01*
X384499Y557999D01*
X381500D01*
X387498Y560998D02*
X388498Y561998D01*
X390497D01*
X391497Y560998D01*
Y559999D01*
X390497Y558999D01*
X389497D01*
X390497D01*
X391497Y557999D01*
Y557000D01*
X390497Y556000D01*
X388498D01*
X387498Y557000D01*
X907499Y191998D02*
X906499Y192998D01*
X904500D01*
X903500Y191998D01*
Y188000D01*
X904500Y187000D01*
X906499D01*
X907499Y188000D01*
X909498Y191998D02*
X910498Y192998D01*
X912497D01*
X913497Y191998D01*
Y190999D01*
X912497Y189999D01*
X911497D01*
X912497D01*
X913497Y188999D01*
Y188000D01*
X912497Y187000D01*
X910498D01*
X909498Y188000D01*
X915496Y191998D02*
X916496Y192998D01*
X918495D01*
X919495Y191998D01*
Y190999D01*
X918495Y189999D01*
X919495Y188999D01*
Y188000D01*
X918495Y187000D01*
X916496D01*
X915496Y188000D01*
Y188999D01*
X916496Y189999D01*
X915496Y190999D01*
Y191998D01*
X916496Y189999D02*
X918495D01*
X277799Y399798D02*
X276799Y400798D01*
X274800D01*
X273800Y399798D01*
Y395800D01*
X274800Y394800D01*
X276799D01*
X277799Y395800D01*
X279798Y394800D02*
X281797D01*
X280798D01*
Y400798D01*
X279798Y399798D01*
X287795Y394800D02*
Y400798D01*
X284796Y397799D01*
X288795D01*
X476999Y397498D02*
X475999Y398498D01*
X474000D01*
X473000Y397498D01*
Y393500D01*
X474000Y392500D01*
X475999D01*
X476999Y393500D01*
X478998Y392500D02*
X480997D01*
X479998D01*
Y398498D01*
X478998Y397498D01*
X483996D02*
X484996Y398498D01*
X486996D01*
X487995Y397498D01*
Y393500D01*
X486996Y392500D01*
X484996D01*
X483996Y393500D01*
Y397498D01*
X332999D02*
X331999Y398498D01*
X330000D01*
X329000Y397498D01*
Y393500D01*
X330000Y392500D01*
X331999D01*
X332999Y393500D01*
X334998D02*
X335998Y392500D01*
X337997D01*
X338997Y393500D01*
Y397498D01*
X337997Y398498D01*
X335998D01*
X334998Y397498D01*
Y396499D01*
X335998Y395499D01*
X338997D01*
X394499Y671998D02*
X393499Y672998D01*
X391500D01*
X390500Y671998D01*
Y668000D01*
X391500Y667000D01*
X393499D01*
X394499Y668000D01*
X396498Y672998D02*
X400497D01*
Y671998D01*
X396498Y668000D01*
Y667000D01*
X133999Y151998D02*
X132999Y152998D01*
X131000D01*
X130000Y151998D01*
Y148000D01*
X131000Y147000D01*
X132999D01*
X133999Y148000D01*
X139997Y147000D02*
X135998D01*
X139997Y150999D01*
Y151998D01*
X138997Y152998D01*
X136998D01*
X135998Y151998D01*
X453750Y164650D02*
Y170648D01*
X456749D01*
X457749Y169648D01*
Y167649D01*
X456749Y166649D01*
X453750D01*
X455749D02*
X457749Y164650D01*
X459748Y169648D02*
X460748Y170648D01*
X462747D01*
X463747Y169648D01*
Y168649D01*
X462747Y167649D01*
X461747D01*
X462747D01*
X463747Y166649D01*
Y165650D01*
X462747Y164650D01*
X460748D01*
X459748Y165650D01*
X149500Y352998D02*
Y348000D01*
X150500Y347000D01*
X152499D01*
X153499Y348000D01*
Y352998D01*
X155498Y347000D02*
X157497D01*
X156498D01*
Y352998D01*
X155498Y351998D01*
X164495Y352998D02*
X160496D01*
Y349999D01*
X162496Y350999D01*
X163496D01*
X164495Y349999D01*
Y348000D01*
X163496Y347000D01*
X161496D01*
X160496Y348000D01*
X112999Y357998D02*
X110999D01*
X111999D01*
Y353000D01*
X110999Y352000D01*
X110000D01*
X109000Y353000D01*
X114998Y352000D02*
X116997D01*
X115998D01*
Y357998D01*
X114998Y356998D01*
X244999Y213498D02*
X243999Y214498D01*
X242000D01*
X241000Y213498D01*
Y209500D01*
X242000Y208500D01*
X243999D01*
X244999Y209500D01*
X246998Y208500D02*
X248997D01*
X247998D01*
Y214498D01*
X246998Y213498D01*
X255995Y214498D02*
X253996Y213498D01*
X251996Y211499D01*
Y209500D01*
X252996Y208500D01*
X254995D01*
X255995Y209500D01*
Y210499D01*
X254995Y211499D01*
X251996D01*
X595000Y219500D02*
Y225498D01*
X597999D01*
X598999Y224498D01*
Y222499D01*
X597999Y221499D01*
X595000D01*
X596999D02*
X598999Y219500D01*
X600998D02*
X602997D01*
X601998D01*
Y225498D01*
X600998Y224498D01*
X609995Y225498D02*
X607996Y224498D01*
X605996Y222499D01*
Y220500D01*
X606996Y219500D01*
X608995D01*
X609995Y220500D01*
Y221499D01*
X608995Y222499D01*
X605996D01*
X220000Y517998D02*
Y513000D01*
X221000Y512000D01*
X222999D01*
X223999Y513000D01*
Y517998D01*
X229997Y512000D02*
X225998D01*
X229997Y515999D01*
Y516998D01*
X228997Y517998D01*
X226998D01*
X225998Y516998D01*
X231996Y512000D02*
X233996D01*
X232996D01*
Y517998D01*
X231996Y516998D01*
X806500Y104000D02*
Y107999D01*
X808499Y109998D01*
X810499Y107999D01*
Y104000D01*
Y106999D01*
X806500D01*
X816497Y108998D02*
X815497Y109998D01*
X813498D01*
X812498Y108998D01*
Y105000D01*
X813498Y104000D01*
X815497D01*
X816497Y105000D01*
Y106999D01*
X814497D01*
X818496Y104000D02*
Y109998D01*
X822495Y104000D01*
Y109998D01*
X824494D02*
Y104000D01*
X827493D01*
X828493Y105000D01*
Y108998D01*
X827493Y109998D01*
X824494D01*
X849000Y115998D02*
Y111999D01*
X850999Y110000D01*
X852999Y111999D01*
Y115998D01*
X854998Y114998D02*
X855998Y115998D01*
X857997D01*
X858997Y114998D01*
Y113999D01*
X857997Y112999D01*
X856997D01*
X857997D01*
X858997Y111999D01*
Y111000D01*
X857997Y110000D01*
X855998D01*
X854998Y111000D01*
X860996Y110000D02*
Y111000D01*
X861996D01*
Y110000D01*
X860996D01*
X865994Y114998D02*
X866994Y115998D01*
X868993D01*
X869993Y114998D01*
Y113999D01*
X868993Y112999D01*
X867994D01*
X868993D01*
X869993Y111999D01*
Y111000D01*
X868993Y110000D01*
X866994D01*
X865994Y111000D01*
X570499Y125998D02*
X569499Y126998D01*
X567500D01*
X566500Y125998D01*
Y122000D01*
X567500Y121000D01*
X569499D01*
X570499Y122000D01*
Y123999D01*
X568499D01*
X572498Y121000D02*
Y126998D01*
X576497Y121000D01*
Y126998D01*
X578496D02*
Y121000D01*
X581495D01*
X582495Y122000D01*
Y125998D01*
X581495Y126998D01*
X578496D01*
X551500Y112998D02*
Y108999D01*
X553499Y107000D01*
X555499Y108999D01*
Y112998D01*
X561497Y111998D02*
X560497Y112998D01*
X558498D01*
X557498Y111998D01*
Y108000D01*
X558498Y107000D01*
X560497D01*
X561497Y108000D01*
X567495Y111998D02*
X566495Y112998D01*
X564496D01*
X563496Y111998D01*
Y108000D01*
X564496Y107000D01*
X566495D01*
X567495Y108000D01*
X619500Y366498D02*
Y362499D01*
X621499Y360500D01*
X623499Y362499D01*
Y366498D01*
X629497Y365498D02*
X628497Y366498D01*
X626498D01*
X625498Y365498D01*
Y361500D01*
X626498Y360500D01*
X628497D01*
X629497Y361500D01*
X635495Y365498D02*
X634495Y366498D01*
X632496D01*
X631496Y365498D01*
Y361500D01*
X632496Y360500D01*
X634495D01*
X635495Y361500D01*
X719000Y366498D02*
Y362499D01*
X720999Y360500D01*
X722999Y362499D01*
Y366498D01*
X724998Y365498D02*
X725998Y366498D01*
X727997D01*
X728997Y365498D01*
Y364499D01*
X727997Y363499D01*
X726997D01*
X727997D01*
X728997Y362499D01*
Y361500D01*
X727997Y360500D01*
X725998D01*
X724998Y361500D01*
X730996Y360500D02*
Y361500D01*
X731996D01*
Y360500D01*
X730996D01*
X735994Y365498D02*
X736994Y366498D01*
X738994D01*
X739993Y365498D01*
Y364499D01*
X738994Y363499D01*
X737994D01*
X738994D01*
X739993Y362499D01*
Y361500D01*
X738994Y360500D01*
X736994D01*
X735994Y361500D01*
X719000Y210000D02*
Y213999D01*
X720999Y215998D01*
X722999Y213999D01*
Y210000D01*
Y212999D01*
X719000D01*
X728997Y214998D02*
X727997Y215998D01*
X725998D01*
X724998Y214998D01*
Y211000D01*
X725998Y210000D01*
X727997D01*
X728997Y211000D01*
Y212999D01*
X726997D01*
X730996Y210000D02*
Y215998D01*
X734995Y210000D01*
Y215998D01*
X736994D02*
Y210000D01*
X739993D01*
X740993Y211000D01*
Y214998D01*
X739993Y215998D01*
X736994D01*
X622999Y214498D02*
X621999Y215498D01*
X620000D01*
X619000Y214498D01*
Y210500D01*
X620000Y209500D01*
X621999D01*
X622999Y210500D01*
Y212499D01*
X620999D01*
X624998Y209500D02*
Y215498D01*
X628997Y209500D01*
Y215498D01*
X630996D02*
Y209500D01*
X633995D01*
X634995Y210500D01*
Y214498D01*
X633995Y215498D01*
X630996D01*
X458500Y669498D02*
X462499D01*
X460499D01*
Y663500D01*
X464498D02*
Y669498D01*
X467497D01*
X468497Y668498D01*
Y666499D01*
X467497Y665499D01*
X464498D01*
X466497D02*
X468497Y663500D01*
X470496D02*
Y667499D01*
X472496Y669498D01*
X474495Y667499D01*
Y663500D01*
Y666499D01*
X470496D01*
X476494Y663500D02*
Y669498D01*
X479493D01*
X480493Y668498D01*
Y666499D01*
X479493Y665499D01*
X476494D01*
X425500Y663500D02*
Y669498D01*
X428499D01*
X429499Y668498D01*
Y666499D01*
X428499Y665499D01*
X425500D01*
X427499D02*
X429499Y663500D01*
X435497Y669498D02*
X431498D01*
Y663500D01*
X435497D01*
X431498Y666499D02*
X433497D01*
X441495Y668498D02*
X440495Y669498D01*
X438496D01*
X437496Y668498D01*
Y667499D01*
X438496Y666499D01*
X440495D01*
X441495Y665499D01*
Y664500D01*
X440495Y663500D01*
X438496D01*
X437496Y664500D01*
X447493Y669498D02*
X443494D01*
Y663500D01*
X447493D01*
X443494Y666499D02*
X445494D01*
X449492Y669498D02*
X453491D01*
X451492D01*
Y663500D01*
X259499Y623500D02*
X255500D01*
X259499Y627499D01*
Y628498D01*
X258499Y629498D01*
X256500D01*
X255500Y628498D01*
X264497Y623500D02*
Y629498D01*
X261498Y626499D01*
X265497D01*
X267496Y623500D02*
Y629498D01*
X269496Y627499D01*
X271495Y629498D01*
Y623500D01*
X273494Y629498D02*
Y623500D01*
Y626499D01*
X277493D01*
Y629498D01*
Y623500D01*
X279492Y627499D02*
X283491D01*
X279492Y623500D01*
X283491D01*
X846500Y368998D02*
X850499D01*
X848499D01*
Y363000D01*
X852498D02*
X854497D01*
X853498D01*
Y366999D01*
X852498D01*
X857496Y363000D02*
Y366999D01*
X858496D01*
X859496Y365999D01*
Y363000D01*
Y365999D01*
X860495Y366999D01*
X861495Y365999D01*
Y363000D01*
X869493D02*
Y368998D01*
X871492Y366999D01*
X873491Y368998D01*
Y363000D01*
X878490D02*
X876490D01*
X875491Y364000D01*
Y365999D01*
X876490Y366999D01*
X878490D01*
X879489Y365999D01*
Y364999D01*
X875491D01*
X881489Y363000D02*
Y366999D01*
X884488D01*
X885487Y365999D01*
Y363000D01*
X887487D02*
Y366999D01*
X890486D01*
X891485Y365999D01*
Y363000D01*
X893485D02*
X895484D01*
X894485D01*
Y366999D01*
X893485D01*
X898483Y363000D02*
Y366999D01*
X901482D01*
X902482Y365999D01*
Y363000D01*
X906481Y361001D02*
X907480D01*
X908480Y362000D01*
Y366999D01*
X905481D01*
X904481Y365999D01*
Y364000D01*
X905481Y363000D01*
X908480D01*
X913478D02*
X911479D01*
X910479Y364000D01*
Y365999D01*
X911479Y366999D01*
X913478D01*
X914478Y365999D01*
Y364999D01*
X910479D01*
X916477Y366999D02*
Y363000D01*
Y364999D01*
X917477Y365999D01*
X918477Y366999D01*
X919476D01*
X836499Y358998D02*
X834499D01*
X835499D01*
Y354000D01*
X834499Y353000D01*
X833500D01*
X832500Y354000D01*
X838498Y356999D02*
Y354000D01*
X839498Y353000D01*
X842497D01*
Y356999D01*
X844496Y353000D02*
Y358998D01*
Y354999D02*
X847495Y356999D01*
X844496Y354999D02*
X847495Y353000D01*
X853493D02*
X851494D01*
X850494Y354000D01*
Y355999D01*
X851494Y356999D01*
X853493D01*
X854493Y355999D01*
Y354999D01*
X850494D01*
X856492Y358998D02*
Y353000D01*
X859491D01*
X860491Y354000D01*
Y354999D01*
Y355999D01*
X859491Y356999D01*
X856492D01*
X863490Y353000D02*
X865489D01*
X866489Y354000D01*
Y355999D01*
X865489Y356999D01*
X863490D01*
X862490Y355999D01*
Y354000D01*
X863490Y353000D01*
X868488Y356999D02*
X872487Y353000D01*
X870488Y354999D01*
X872487Y356999D01*
X868488Y353000D01*
X880484Y357998D02*
X881484Y358998D01*
X883484D01*
X884483Y357998D01*
Y354000D01*
X883484Y353000D01*
X881484D01*
X880484Y354000D01*
Y357998D01*
X886483D02*
X887482Y358998D01*
X889482D01*
X890481Y357998D01*
Y356999D01*
X889482Y355999D01*
X888482D01*
X889482D01*
X890481Y354999D01*
Y354000D01*
X889482Y353000D01*
X887482D01*
X886483Y354000D01*
X892481Y353000D02*
X896479Y356999D01*
X902477Y353000D02*
X898479D01*
X902477Y356999D01*
Y357998D01*
X901478Y358998D01*
X899478D01*
X898479Y357998D01*
X904477D02*
X905476Y358998D01*
X907476D01*
X908475Y357998D01*
Y354000D01*
X907476Y353000D01*
X905476D01*
X904477Y354000D01*
Y357998D01*
X910475Y353000D02*
X912474D01*
X911475D01*
Y358998D01*
X910475Y357998D01*
X919472Y358998D02*
X917472Y357998D01*
X915473Y355999D01*
Y354000D01*
X916473Y353000D01*
X918472D01*
X919472Y354000D01*
Y354999D01*
X918472Y355999D01*
X915473D01*
X772999Y350500D02*
X769000D01*
X772999Y354499D01*
Y355498D01*
X771999Y356498D01*
X770000D01*
X769000Y355498D01*
X777997Y350500D02*
Y356498D01*
X774998Y353499D01*
X778997D01*
X780996Y350500D02*
Y351500D01*
X781996D01*
Y350500D01*
X780996D01*
X789993Y356498D02*
X785994D01*
Y353499D01*
X787994Y354499D01*
X788994D01*
X789993Y353499D01*
Y351500D01*
X788994Y350500D01*
X786994D01*
X785994Y351500D01*
X791993Y356498D02*
X795991D01*
Y355498D01*
X791993Y351500D01*
Y350500D01*
X801989Y356498D02*
X799990Y355498D01*
X797991Y353499D01*
Y351500D01*
X798990Y350500D01*
X800990D01*
X801989Y351500D01*
Y352499D01*
X800990Y353499D01*
X797991D01*
X803989Y350500D02*
Y356498D01*
X805988Y354499D01*
X807987Y356498D01*
Y350500D01*
X809987Y356498D02*
Y350500D01*
Y353499D01*
X813986D01*
Y356498D01*
Y350500D01*
X815985Y354499D02*
X819983D01*
X815985Y350500D01*
X819983D01*
X855500Y343000D02*
Y348998D01*
X858499D01*
X859499Y347998D01*
Y345999D01*
X858499Y344999D01*
X855500D01*
X857499D02*
X859499Y343000D01*
X864497D02*
X862498D01*
X861498Y344000D01*
Y345999D01*
X862498Y346999D01*
X864497D01*
X865497Y345999D01*
Y344999D01*
X861498D01*
X867496Y346999D02*
X869495Y343000D01*
X871495Y346999D01*
X873494Y343000D02*
X875494D01*
X874494D01*
Y346999D01*
X873494D01*
X878493Y343000D02*
X881492D01*
X882491Y344000D01*
X881492Y344999D01*
X879492D01*
X878493Y345999D01*
X879492Y346999D01*
X882491D01*
X884491Y343000D02*
X886490D01*
X885490D01*
Y346999D01*
X884491D01*
X890489Y343000D02*
X892488D01*
X893488Y344000D01*
Y345999D01*
X892488Y346999D01*
X890489D01*
X889489Y345999D01*
Y344000D01*
X890489Y343000D01*
X895487D02*
Y346999D01*
X898486D01*
X899486Y345999D01*
Y343000D01*
X907483D02*
X909482D01*
X908483D01*
Y348998D01*
X907483Y347998D01*
X912482Y343000D02*
Y344000D01*
X913481D01*
Y343000D01*
X912482D01*
X917480D02*
X919479D01*
X918480D01*
Y348998D01*
X917480Y347998D01*
X181500Y613498D02*
X182500Y614498D01*
X184499D01*
X185499Y613498D01*
Y612499D01*
X184499Y611499D01*
X183499D01*
X184499D01*
X185499Y610499D01*
Y609500D01*
X184499Y608500D01*
X182500D01*
X181500Y609500D01*
X187498Y608500D02*
Y609500D01*
X188498D01*
Y608500D01*
X187498D01*
X192496Y613498D02*
X193496Y614498D01*
X195495D01*
X196495Y613498D01*
Y612499D01*
X195495Y611499D01*
X194496D01*
X195495D01*
X196495Y610499D01*
Y609500D01*
X195495Y608500D01*
X193496D01*
X192496Y609500D01*
X198495Y614498D02*
Y610499D01*
X200494Y608500D01*
X202493Y610499D01*
Y614498D01*
X196499Y602998D02*
X192500D01*
Y599999D01*
X194499Y600999D01*
X195499D01*
X196499Y599999D01*
Y598000D01*
X195499Y597000D01*
X193500D01*
X192500Y598000D01*
X198498Y602998D02*
Y598999D01*
X200497Y597000D01*
X202497Y598999D01*
Y602998D01*
X152501Y666000D02*
Y670665D01*
X150169Y668333D02*
X154834D01*
X920000Y164499D02*
X924665D01*
X922333Y166831D02*
Y162166D01*
X890000Y164499D02*
X894665D01*
X892333Y166831D02*
Y162166D01*
X174999Y643998D02*
X173999Y644998D01*
X172000D01*
X171000Y643998D01*
Y640000D01*
X172000Y639000D01*
X173999D01*
X174999Y640000D01*
Y641999D01*
X172999D01*
X176998Y639000D02*
Y644998D01*
X180997Y639000D01*
Y644998D01*
X182996D02*
Y639000D01*
X185995D01*
X186995Y640000D01*
Y643998D01*
X185995Y644998D01*
X182996D01*
X171000Y669498D02*
Y665499D01*
X172999Y663500D01*
X174999Y665499D01*
Y669498D01*
X180997Y668498D02*
X179997Y669498D01*
X177998D01*
X176998Y668498D01*
Y664500D01*
X177998Y663500D01*
X179997D01*
X180997Y664500D01*
X186995Y668498D02*
X185995Y669498D01*
X183996D01*
X182996Y668498D01*
Y664500D01*
X183996Y663500D01*
X185995D01*
X186995Y664500D01*
X131999Y375498D02*
X130999Y376498D01*
X129000D01*
X128000Y375498D01*
Y371500D01*
X129000Y370500D01*
X130999D01*
X131999Y371500D01*
Y373499D01*
X129999D01*
X133998Y370500D02*
Y376498D01*
X137997Y370500D01*
Y376498D01*
X139996D02*
Y370500D01*
X142995D01*
X143995Y371500D01*
Y375498D01*
X142995Y376498D01*
X139996D01*
D58*
X872402Y235185D02*
G03*
X872402Y235185I-492J0D01*
G01*
D59*
X882507Y235972D02*
G03*
X887493Y235972I2493J0D01*
G01*
X877520Y235972D02*
X882507D01*
X887493D02*
X892480D01*
X877520Y195028D02*
X892480D01*
X877520D02*
Y235972D01*
X892480Y195028D02*
Y235972D01*
X340000Y566000D02*
X350000D01*
Y546000D02*
Y566000D01*
X340000Y546000D02*
X350000D01*
X340000D02*
Y566000D01*
X759000Y275000D02*
Y305000D01*
X749000D02*
X759000D01*
X749000Y275000D02*
Y305000D01*
Y275000D02*
X759000D01*
X325000Y284500D02*
X335000D01*
Y264500D02*
Y284500D01*
X325000Y264500D02*
X335000D01*
X325000D02*
Y284500D01*
X503000Y617000D02*
X533000D01*
X503000Y607000D02*
Y617000D01*
Y607000D02*
X533000D01*
Y617000D01*
X554000Y194500D02*
X564000D01*
Y174500D02*
Y194500D01*
X554000Y174500D02*
X564000D01*
X554000D02*
Y194500D01*
X453500Y520000D02*
Y560000D01*
X408500D02*
X453500D01*
X408500Y550000D02*
Y560000D01*
Y550000D02*
X413500D01*
Y520000D02*
Y550000D01*
Y520000D02*
X453500D01*
X393500Y530500D02*
X403500D01*
X393500D02*
Y560500D01*
X403500D01*
Y530500D02*
Y560500D01*
X384500Y565500D02*
Y575500D01*
X404500D01*
Y565500D02*
Y575500D01*
X384500Y565500D02*
X404500D01*
X430000Y171000D02*
Y201000D01*
X420000D02*
X430000D01*
X420000Y171000D02*
Y201000D01*
Y171000D02*
X430000D01*
X441000Y201000D02*
X451000D01*
Y181000D02*
Y201000D01*
X441000Y181000D02*
X451000D01*
X441000D02*
Y201000D01*
X358500Y652000D02*
X362831D01*
X348500D02*
X352831D01*
X338500D02*
X342831D01*
X328500D02*
X332831D01*
X318500D02*
X322831D01*
X585500Y139835D02*
Y144165D01*
Y149835D02*
Y154165D01*
Y179835D02*
Y184165D01*
Y169835D02*
Y174165D01*
Y160335D02*
Y164665D01*
Y189835D02*
Y194165D01*
X205083Y595472D02*
X212563D01*
X205083Y604528D02*
X212563D01*
X205083Y595472D02*
Y604528D01*
X229098Y597047D02*
Y602953D01*
X220437Y595472D02*
X227130D01*
Y604528D02*
X229098Y602953D01*
X227130Y595472D02*
X229098Y597047D01*
X220437Y604528D02*
X227130D01*
X205083Y606972D02*
X212563D01*
X205083Y616028D02*
X212563D01*
X205083Y606972D02*
Y616028D01*
X229098Y608547D02*
Y614453D01*
X220437Y606972D02*
X227130D01*
Y616028D02*
X229098Y614453D01*
X227130Y606972D02*
X229098Y608547D01*
X220437Y616028D02*
X227130D01*
X205835Y657500D02*
X210165D01*
X463000Y395335D02*
Y399665D01*
X439000Y203335D02*
Y207665D01*
X215835Y657500D02*
X220165D01*
X271000Y423835D02*
Y428165D01*
X212500Y469335D02*
Y473665D01*
X807500Y177335D02*
Y181665D01*
Y187335D02*
Y191665D01*
X850500Y119835D02*
Y124165D01*
Y156835D02*
Y161165D01*
Y138335D02*
Y142665D01*
X138500Y442335D02*
Y446665D01*
X389335Y364000D02*
X393665D01*
X241500Y597835D02*
Y602165D01*
X164335Y528000D02*
X168665D01*
X174835D02*
X179165D01*
X791835Y240500D02*
X796165D01*
X241500Y609335D02*
Y613665D01*
X812000Y295835D02*
Y300165D01*
X760835Y329500D02*
X765165D01*
X300834Y652000D02*
X305165D01*
X443000Y593835D02*
Y598165D01*
X524000Y154835D02*
Y159165D01*
X138000Y465335D02*
Y469665D01*
X585500Y199835D02*
Y204165D01*
Y129835D02*
Y134165D01*
X454000Y258335D02*
Y262665D01*
X585500Y209835D02*
Y214165D01*
X812000Y287335D02*
Y291665D01*
X458500Y156335D02*
Y160665D01*
X585500Y219835D02*
Y224165D01*
X175000Y137835D02*
Y142165D01*
X425000Y137835D02*
Y142165D01*
X365000Y137835D02*
Y142165D01*
D60*
X928902Y103193D02*
Y150437D01*
X883626Y103193D02*
Y150437D01*
Y103193D02*
X928902D01*
X883626Y150437D02*
X928902D01*
X106000Y101500D02*
X486500D01*
X106000Y131500D02*
X486500D01*
Y101500D02*
Y131500D01*
X106000Y101500D02*
Y131500D01*
X152000Y593500D02*
Y598500D01*
X147000Y583500D02*
Y593500D01*
X152000Y538500D02*
Y583500D01*
X112000Y538500D02*
Y583500D01*
X117000D02*
Y593500D01*
X112000D02*
Y598500D01*
X122000Y524500D02*
Y538500D01*
X132000Y524500D02*
Y538500D01*
X142000Y524500D02*
Y538500D01*
X112000Y598500D02*
X152000D01*
X147000Y593500D02*
X152000D01*
X147000Y583500D02*
X152000D01*
X112000Y538500D02*
X152000D01*
X112000Y583500D02*
X117000D01*
X112000Y593500D02*
X117000D01*
D61*
X156500Y638500D02*
Y641499D01*
X155000Y639999D01*
X156999D01*
X157999Y641499D02*
X159998D01*
Y640999D01*
X157999Y639000D01*
Y638500D01*
X160998Y640499D02*
Y639000D01*
X161498Y638500D01*
X162997D01*
Y640499D01*
X165996Y641499D02*
X163997D01*
Y639999D01*
X164997D01*
X163997D01*
Y638500D01*
X888499Y157999D02*
X886500D01*
Y156500D01*
X887500Y156999D01*
X888000D01*
X888499Y156500D01*
Y155500D01*
X888000Y155000D01*
X887000D01*
X886500Y155500D01*
X889499Y157499D02*
X889999Y157999D01*
X890999D01*
X891498Y157499D01*
Y155500D01*
X890999Y155000D01*
X889999D01*
X889499Y155500D01*
Y157499D01*
X892498Y156999D02*
Y155500D01*
X892998Y155000D01*
X894497D01*
Y156999D01*
X897496Y157999D02*
X895497D01*
Y156500D01*
X896497D01*
X895497D01*
Y155000D01*
X153500Y138000D02*
X154500D01*
X154000D01*
Y140999D01*
X153500Y140499D01*
X155999Y139999D02*
Y138500D01*
X156499Y138000D01*
X157999D01*
Y139999D01*
X160998Y140999D02*
X158998D01*
Y139499D01*
X159998D01*
X158998D01*
Y138000D01*
X918499Y157999D02*
X916500D01*
Y156500D01*
X917500Y156999D01*
X917999D01*
X918499Y156500D01*
Y155500D01*
X917999Y155000D01*
X917000D01*
X916500Y155500D01*
X919499Y157499D02*
X919999Y157999D01*
X920999D01*
X921498Y157499D01*
Y155500D01*
X920999Y155000D01*
X919999D01*
X919499Y155500D01*
Y157499D01*
X922498Y156999D02*
Y155500D01*
X922998Y155000D01*
X924497D01*
Y156999D01*
X927496Y157999D02*
X925497D01*
Y156500D01*
X926497D01*
X925497D01*
Y155000D01*
X444000Y137500D02*
X445000D01*
X444500D01*
Y140499D01*
X444000Y139999D01*
X446499Y139499D02*
Y138000D01*
X446999Y137500D01*
X448498D01*
Y139499D01*
X451498Y140499D02*
X449498D01*
Y138999D01*
X450498D01*
X449498D01*
Y137500D01*
X441500Y147000D02*
X442500D01*
X442000D01*
Y149999D01*
X441500Y149499D01*
X443999D02*
X444499Y149999D01*
X445499D01*
X445998Y149499D01*
Y147500D01*
X445499Y147000D01*
X444499D01*
X443999Y147500D01*
Y149499D01*
X446998Y147000D02*
Y148999D01*
X448498D01*
X448998Y148500D01*
Y147000D01*
X451997Y149999D02*
X449997D01*
Y148500D01*
X450997D01*
X449997D01*
Y147000D01*
X153500Y148000D02*
X154500D01*
X154000D01*
Y150999D01*
X153500Y150499D01*
X155999D02*
X156499Y150999D01*
X157499D01*
X157999Y150499D01*
Y148500D01*
X157499Y148000D01*
X156499D01*
X155999Y148500D01*
Y150499D01*
X158998Y148000D02*
Y149999D01*
X160498D01*
X160998Y149499D01*
Y148000D01*
X163997Y150999D02*
X161997D01*
Y149499D01*
X162997D01*
X161997D01*
Y148000D01*
X803000Y120500D02*
X804000D01*
X803500D01*
Y123499D01*
X803000Y122999D01*
X805499D02*
X805999Y123499D01*
X806999D01*
X807498Y122999D01*
Y121000D01*
X806999Y120500D01*
X805999D01*
X805499Y121000D01*
Y122999D01*
X808498Y120500D02*
Y122499D01*
X809998D01*
X810498Y122000D01*
Y120500D01*
X813497Y123499D02*
X811497D01*
Y122000D01*
X812497D01*
X811497D01*
Y120500D01*
X803000Y138500D02*
X804000D01*
X803500D01*
Y141499D01*
X803000Y140999D01*
X805499D02*
X805999Y141499D01*
X806999D01*
X807498Y140999D01*
Y139000D01*
X806999Y138500D01*
X805999D01*
X805499Y139000D01*
Y140999D01*
X808498Y138500D02*
Y140499D01*
X809998D01*
X810498Y139999D01*
Y138500D01*
X813497Y141499D02*
X811497D01*
Y139999D01*
X812497D01*
X811497D01*
Y138500D01*
X803000Y157500D02*
X804000D01*
X803500D01*
Y160499D01*
X803000Y159999D01*
X805499D02*
X805999Y160499D01*
X806999D01*
X807498Y159999D01*
Y158000D01*
X806999Y157500D01*
X805999D01*
X805499Y158000D01*
Y159999D01*
X808498Y157500D02*
Y159499D01*
X809998D01*
X810498Y159000D01*
Y157500D01*
X813497Y160499D02*
X811497D01*
Y159000D01*
X812497D01*
X811497D01*
Y157500D01*
X171500Y602000D02*
X172500D01*
X172000D01*
Y604999D01*
X171500Y604499D01*
X173999D02*
X174499Y604999D01*
X175499D01*
X175998Y604499D01*
Y602500D01*
X175499Y602000D01*
X174499D01*
X173999Y602500D01*
Y604499D01*
X176998Y603999D02*
Y602500D01*
X177498Y602000D01*
X178998D01*
Y603999D01*
X181997Y604999D02*
X179997D01*
Y603500D01*
X180997D01*
X179997D01*
Y602000D01*
X171500Y581500D02*
X172500D01*
X172000D01*
Y584499D01*
X171500Y583999D01*
X173999D02*
X174499Y584499D01*
X175499D01*
X175998Y583999D01*
Y582000D01*
X175499Y581500D01*
X174499D01*
X173999Y582000D01*
Y583999D01*
X176998Y583499D02*
Y582000D01*
X177498Y581500D01*
X178998D01*
Y583499D01*
X181997Y584499D02*
X179997D01*
Y583000D01*
X180997D01*
X179997D01*
Y581500D01*
X291500Y409499D02*
X292000Y409999D01*
X293000D01*
X293499Y409499D01*
Y408999D01*
X293000Y408499D01*
X293499Y408000D01*
Y407500D01*
X293000Y407000D01*
X292000D01*
X291500Y407500D01*
Y408000D01*
X292000Y408499D01*
X291500Y408999D01*
Y409499D01*
X292000Y408499D02*
X293000D01*
X294499Y409499D02*
X294999Y409999D01*
X295999D01*
X296498Y409499D01*
Y407500D01*
X295999Y407000D01*
X294999D01*
X294499Y407500D01*
Y409499D01*
X299497D02*
X298998Y409999D01*
X297998D01*
X297498Y409499D01*
Y407500D01*
X297998Y407000D01*
X298998D01*
X299497Y407500D01*
X300497Y407000D02*
X301497D01*
X300997D01*
Y409999D01*
X300497Y409499D01*
X302996D02*
X303496Y409999D01*
X304496D01*
X304996Y409499D01*
Y408999D01*
X304496Y408499D01*
X304996Y408000D01*
Y407500D01*
X304496Y407000D01*
X303496D01*
X302996Y407500D01*
Y408000D01*
X303496Y408499D01*
X302996Y408999D01*
Y409499D01*
X303496Y408499D02*
X304496D01*
X305995Y409499D02*
X306495Y409999D01*
X307495D01*
X307995Y409499D01*
Y408999D01*
X307495Y408499D01*
X307995Y408000D01*
Y407500D01*
X307495Y407000D01*
X306495D01*
X305995Y407500D01*
Y408000D01*
X306495Y408499D01*
X305995Y408999D01*
Y409499D01*
X306495Y408499D02*
X307495D01*
X308994Y409999D02*
X310994Y407000D01*
Y409999D02*
X308994Y407000D01*
X311993Y409999D02*
Y407000D01*
X313993D01*
X141001Y166500D02*
Y168499D01*
X141501D01*
X143500Y166500D01*
X144000D01*
Y170999D02*
X141001D01*
X142500Y169499D01*
Y171498D01*
X141001Y172498D02*
X144000D01*
Y174497D01*
X141501Y177496D02*
X141001Y176997D01*
Y175997D01*
X141501Y175497D01*
X142001D01*
X142500Y175997D01*
Y176997D01*
X143000Y177496D01*
X143500D01*
X144000Y176997D01*
Y175997D01*
X143500Y175497D01*
X144000Y178496D02*
Y179496D01*
Y178996D01*
X141001D01*
X141501Y178496D01*
X141001Y182995D02*
Y180995D01*
X142500D01*
X142001Y181995D01*
Y182495D01*
X142500Y182995D01*
X143500D01*
X144000Y182495D01*
Y181495D01*
X143500Y180995D01*
X141501Y183994D02*
X141001Y184494D01*
Y185494D01*
X141501Y185994D01*
X142001D01*
X142500Y185494D01*
X143000Y185994D01*
X143500D01*
X144000Y185494D01*
Y184494D01*
X143500Y183994D01*
X143000D01*
X142500Y184494D01*
X142001Y183994D01*
X141501D01*
X142500Y184494D02*
Y185494D01*
X235501Y167000D02*
Y168999D01*
X236001D01*
X238000Y167000D01*
X238500D01*
Y171499D02*
X235501D01*
X237000Y169999D01*
Y171998D01*
X235501Y172998D02*
X238500D01*
Y174997D01*
X236001Y177996D02*
X235501Y177497D01*
Y176497D01*
X236001Y175997D01*
X236501D01*
X237000Y176497D01*
Y177497D01*
X237500Y177996D01*
X238000D01*
X238500Y177497D01*
Y176497D01*
X238000Y175997D01*
X238500Y178996D02*
Y179996D01*
Y179496D01*
X235501D01*
X236001Y178996D01*
X235501Y183495D02*
Y181495D01*
X237000D01*
X236501Y182495D01*
Y182995D01*
X237000Y183495D01*
X238000D01*
X238500Y182995D01*
Y181995D01*
X238000Y181495D01*
X236001Y184494D02*
X235501Y184994D01*
Y185994D01*
X236001Y186494D01*
X236501D01*
X237000Y185994D01*
X237500Y186494D01*
X238000D01*
X238500Y185994D01*
Y184994D01*
X238000Y184494D01*
X237500D01*
X237000Y184994D01*
X236501Y184494D01*
X236001D01*
X237000Y184994D02*
Y185994D01*
X330501Y167000D02*
Y168999D01*
X331001D01*
X333000Y167000D01*
X333500D01*
Y171499D02*
X330501D01*
X332000Y169999D01*
Y171998D01*
X330501Y172998D02*
X333500D01*
Y174997D01*
X331001Y177996D02*
X330501Y177497D01*
Y176497D01*
X331001Y175997D01*
X331501D01*
X332000Y176497D01*
Y177497D01*
X332500Y177996D01*
X333000D01*
X333500Y177497D01*
Y176497D01*
X333000Y175997D01*
X333500Y178996D02*
Y179996D01*
Y179496D01*
X330501D01*
X331001Y178996D01*
X330501Y183495D02*
Y181495D01*
X332000D01*
X331501Y182495D01*
Y182995D01*
X332000Y183495D01*
X333000D01*
X333500Y182995D01*
Y181995D01*
X333000Y181495D01*
X331001Y184494D02*
X330501Y184994D01*
Y185994D01*
X331001Y186494D01*
X331501D01*
X332000Y185994D01*
X332500Y186494D01*
X333000D01*
X333500Y185994D01*
Y184994D01*
X333000Y184494D01*
X332500D01*
X332000Y184994D01*
X331501Y184494D01*
X331001D01*
X332000Y184994D02*
Y185994D01*
X219500Y428999D02*
X221499D01*
Y428499D01*
X219500Y426500D01*
Y426000D01*
X223998D02*
Y428999D01*
X222499Y427499D01*
X224498D01*
X225498Y426000D02*
Y427999D01*
X226498Y428999D01*
X227497Y427999D01*
Y426000D01*
Y427499D01*
X225498D01*
X228497Y428999D02*
Y426000D01*
X230496D01*
X233495Y428499D02*
X232996Y428999D01*
X231996D01*
X231496Y428499D01*
Y427999D01*
X231996Y427499D01*
X232996D01*
X233495Y427000D01*
Y426500D01*
X232996Y426000D01*
X231996D01*
X231496Y426500D01*
X236494Y426000D02*
X234495D01*
X236494Y427999D01*
Y428499D01*
X235995Y428999D01*
X234995D01*
X234495Y428499D01*
X238994Y426000D02*
Y428999D01*
X237494Y427499D01*
X239493D01*
X242493Y428999D02*
X240493D01*
Y427499D01*
X241493Y427999D01*
X241993D01*
X242493Y427499D01*
Y426500D01*
X241993Y426000D01*
X240993D01*
X240493Y426500D01*
X199499Y448500D02*
Y446501D01*
X198999D01*
X197000Y448500D01*
X196500D01*
Y444001D02*
X199499D01*
X198000Y445501D01*
Y443502D01*
X196500Y442502D02*
X198499D01*
X199499Y441502D01*
X198499Y440503D01*
X196500D01*
X198000D01*
Y442502D01*
X199499Y439503D02*
X196500D01*
Y437504D01*
X198999Y434505D02*
X199499Y435004D01*
Y436004D01*
X198999Y436504D01*
X198499D01*
X198000Y436004D01*
Y435004D01*
X197500Y434505D01*
X197000D01*
X196500Y435004D01*
Y436004D01*
X197000Y436504D01*
X196500Y431505D02*
Y433505D01*
X198499Y431505D01*
X198999D01*
X199499Y432005D01*
Y433005D01*
X198999Y433505D01*
X196500Y429006D02*
X199499D01*
X198000Y430506D01*
Y428507D01*
X199499Y425507D02*
Y427507D01*
X198000D01*
X198499Y426507D01*
Y426007D01*
X198000Y425507D01*
X197000D01*
X196500Y426007D01*
Y427007D01*
X197000Y427507D01*
X199499Y410000D02*
Y408001D01*
X198999D01*
X197000Y410000D01*
X196500D01*
Y405502D02*
X199499D01*
X198000Y407001D01*
Y405002D01*
X196500Y404002D02*
X198499D01*
X199499Y403002D01*
X198499Y402003D01*
X196500D01*
X198000D01*
Y404002D01*
X199499Y401003D02*
X196500D01*
Y399004D01*
X198999Y396005D02*
X199499Y396504D01*
Y397504D01*
X198999Y398004D01*
X198499D01*
X198000Y397504D01*
Y396504D01*
X197500Y396005D01*
X197000D01*
X196500Y396504D01*
Y397504D01*
X197000Y398004D01*
X199499Y393005D02*
Y395005D01*
X198000D01*
X198499Y394005D01*
Y393505D01*
X198000Y393005D01*
X197000D01*
X196500Y393505D01*
Y394505D01*
X197000Y395005D01*
X199499Y392006D02*
Y390006D01*
X198999D01*
X197000Y392006D01*
X196500D01*
X198999Y389007D02*
X199499Y388507D01*
Y387507D01*
X198999Y387007D01*
X198499D01*
X198000Y387507D01*
Y388007D01*
Y387507D01*
X197500Y387007D01*
X197000D01*
X196500Y387507D01*
Y388507D01*
X197000Y389007D01*
X469500Y353499D02*
X471499D01*
Y352999D01*
X469500Y351000D01*
Y350500D01*
X473998D02*
Y353499D01*
X472499Y351999D01*
X474498D01*
X475498Y350500D02*
Y352499D01*
X476498Y353499D01*
X477497Y352499D01*
Y350500D01*
Y351999D01*
X475498D01*
X478497Y353499D02*
Y350500D01*
X480496D01*
X483496Y352999D02*
X482996Y353499D01*
X481996D01*
X481496Y352999D01*
Y352499D01*
X481996Y351999D01*
X482996D01*
X483496Y351500D01*
Y351000D01*
X482996Y350500D01*
X481996D01*
X481496Y351000D01*
X486494Y353499D02*
X484495D01*
Y351999D01*
X485495Y352499D01*
X485995D01*
X486494Y351999D01*
Y351000D01*
X485995Y350500D01*
X484995D01*
X484495Y351000D01*
X487494Y353499D02*
X489494D01*
Y352999D01*
X487494Y351000D01*
Y350500D01*
X490493Y352999D02*
X490993Y353499D01*
X491993D01*
X492493Y352999D01*
Y352499D01*
X491993Y351999D01*
X491493D01*
X491993D01*
X492493Y351500D01*
Y351000D01*
X491993Y350500D01*
X490993D01*
X490493Y351000D01*
X512500Y392999D02*
X514499D01*
Y392499D01*
X512500Y390500D01*
Y390000D01*
X516998D02*
Y392999D01*
X515499Y391499D01*
X517498D01*
X518498Y392999D02*
Y390000D01*
Y391499D01*
X520497D01*
Y392999D01*
Y390000D01*
X523496Y392499D02*
X522997Y392999D01*
X521997D01*
X521497Y392499D01*
Y390500D01*
X521997Y390000D01*
X522997D01*
X523496Y390500D01*
X524496Y392999D02*
X526496D01*
X525496D01*
Y390000D01*
X529494D02*
X527495D01*
X529494Y391999D01*
Y392499D01*
X528995Y392999D01*
X527995D01*
X527495Y392499D01*
X531994Y390000D02*
Y392999D01*
X530494Y391499D01*
X532493D01*
X534993Y390000D02*
Y392999D01*
X533493Y391499D01*
X535493D01*
X884000Y271499D02*
X885999D01*
Y270999D01*
X884000Y269000D01*
Y268500D01*
X888499D02*
Y271499D01*
X886999Y270000D01*
X888998D01*
X889998Y271499D02*
Y268500D01*
X891997D01*
X894996Y270999D02*
X894497Y271499D01*
X893497D01*
X892997Y270999D01*
Y269000D01*
X893497Y268500D01*
X894497D01*
X894996Y269000D01*
X895996Y271499D02*
X897995Y268500D01*
Y271499D02*
X895996Y268500D01*
X898995D02*
X899995D01*
X899495D01*
Y271499D01*
X898995Y270999D01*
X903494Y268500D02*
X901494D01*
X903494Y270499D01*
Y270999D01*
X902994Y271499D01*
X901994D01*
X901494Y270999D01*
X906493Y271499D02*
X904493D01*
Y270000D01*
X905493Y270499D01*
X905993D01*
X906493Y270000D01*
Y269000D01*
X905993Y268500D01*
X904993D01*
X904493Y269000D01*
X837000Y271499D02*
X838999D01*
Y270999D01*
X837000Y269000D01*
Y268500D01*
X841499D02*
Y271499D01*
X839999Y270000D01*
X841998D01*
X842998Y271499D02*
Y268500D01*
X844997D01*
X847996Y270999D02*
X847497Y271499D01*
X846497D01*
X845997Y270999D01*
Y269000D01*
X846497Y268500D01*
X847497D01*
X847996Y269000D01*
X848996Y271499D02*
X850996Y268500D01*
Y271499D02*
X848996Y268500D01*
X851995D02*
X852995D01*
X852495D01*
Y271499D01*
X851995Y270999D01*
X856494Y268500D02*
X854494D01*
X856494Y270499D01*
Y270999D01*
X855994Y271499D01*
X854994D01*
X854494Y270999D01*
X859493Y271499D02*
X857493D01*
Y270000D01*
X858493Y270499D01*
X858993D01*
X859493Y270000D01*
Y269000D01*
X858993Y268500D01*
X857993D01*
X857493Y269000D01*
X107499Y133000D02*
X105500D01*
X107499Y134999D01*
Y135499D01*
X107000Y135999D01*
X106000D01*
X105500Y135499D01*
X110498Y135999D02*
X108499D01*
Y134500D01*
X109499Y134999D01*
X109999D01*
X110498Y134500D01*
Y133500D01*
X109999Y133000D01*
X108999D01*
X108499Y133500D01*
X113497Y135999D02*
X112498Y135499D01*
X111498Y134500D01*
Y133500D01*
X111998Y133000D01*
X112998D01*
X113497Y133500D01*
Y134000D01*
X112998Y134500D01*
X111498D01*
X114497Y135999D02*
Y133000D01*
Y134000D01*
X116496Y135999D01*
X114997Y134500D01*
X116496Y133000D01*
X120495Y134999D02*
X122494Y133000D01*
X121495Y134000D01*
X122494Y134999D01*
X120495Y133000D01*
X126493Y135499D02*
X126993Y135999D01*
X127993D01*
X128493Y135499D01*
Y134999D01*
X127993Y134500D01*
X128493Y134000D01*
Y133500D01*
X127993Y133000D01*
X126993D01*
X126493Y133500D01*
Y134000D01*
X126993Y134500D01*
X126493Y134999D01*
Y135499D01*
X126993Y134500D02*
X127993D01*
X507000Y260499D02*
X508000D01*
X507500D01*
Y257500D01*
X507000D01*
X508000D01*
X511498Y259999D02*
X510999Y260499D01*
X509999D01*
X509499Y259999D01*
Y259499D01*
X509999Y258999D01*
X510999D01*
X511498Y258500D01*
Y258000D01*
X510999Y257500D01*
X509999D01*
X509499Y258000D01*
X512498Y257500D02*
Y260499D01*
X513998D01*
X514498Y259999D01*
Y258999D01*
X513998Y258500D01*
X512498D01*
X515497Y260499D02*
Y257500D01*
X517497D01*
X520496Y259999D02*
X519996Y260499D01*
X518996D01*
X518496Y259999D01*
Y259499D01*
X518996Y258999D01*
X519996D01*
X520496Y258500D01*
Y258000D01*
X519996Y257500D01*
X518996D01*
X518496Y258000D01*
X521495Y260499D02*
X522495D01*
X521995D01*
Y257500D01*
X521495D01*
X522495D01*
X523994D02*
X524994D01*
X524494D01*
Y260499D01*
X523994Y259999D01*
X526494D02*
X526994Y260499D01*
X527993D01*
X528493Y259999D01*
Y258000D01*
X527993Y257500D01*
X526994D01*
X526494Y258000D01*
Y259999D01*
X529493Y257500D02*
X530492D01*
X529993D01*
Y260499D01*
X529493Y259999D01*
X533991Y260499D02*
X532992Y259999D01*
X531992Y258999D01*
Y258000D01*
X532492Y257500D01*
X533491D01*
X533991Y258000D01*
Y258500D01*
X533491Y258999D01*
X531992D01*
X536990Y260499D02*
X534991D01*
Y257500D01*
X536990D01*
X534991Y258999D02*
X535991D01*
X371999Y623999D02*
X371499Y624499D01*
X370500D01*
X370000Y623999D01*
Y622000D01*
X370500Y621500D01*
X371499D01*
X371999Y622000D01*
Y622999D01*
X371000D01*
X372999Y621500D02*
Y623499D01*
X373999Y624499D01*
X374998Y623499D01*
Y621500D01*
Y622999D01*
X372999D01*
X375998Y624499D02*
Y621500D01*
X377997D01*
X378997D02*
X379997D01*
X379497D01*
Y624499D01*
X378997Y623999D01*
X383496Y624499D02*
X382496Y623999D01*
X381496Y622999D01*
Y622000D01*
X381996Y621500D01*
X382996D01*
X383496Y622000D01*
Y622500D01*
X382996Y622999D01*
X381496D01*
X384495Y624499D02*
Y622500D01*
X385495Y621500D01*
X386495Y622500D01*
Y624499D01*
X387494Y623999D02*
X387994Y624499D01*
X388994D01*
X389494Y623999D01*
Y623499D01*
X388994Y622999D01*
X389494Y622500D01*
Y622000D01*
X388994Y621500D01*
X387994D01*
X387494Y622000D01*
Y622500D01*
X387994Y622999D01*
X387494Y623499D01*
Y623999D01*
X387994Y622999D02*
X388994D01*
X243500Y216000D02*
Y217999D01*
X244500Y218999D01*
X245499Y217999D01*
Y216000D01*
Y217499D01*
X243500D01*
X246499Y216000D02*
Y218999D01*
X247499Y217999D01*
X248498Y218999D01*
Y216000D01*
X251497D02*
X249498D01*
X251497Y217999D01*
Y218499D01*
X250998Y218999D01*
X249998D01*
X249498Y218499D01*
X252497D02*
X252997Y218999D01*
X253997D01*
X254496Y218499D01*
Y217999D01*
X253997Y217499D01*
X254496Y217000D01*
Y216500D01*
X253997Y216000D01*
X252997D01*
X252497Y216500D01*
Y217000D01*
X252997Y217499D01*
X252497Y217999D01*
Y218499D01*
X252997Y217499D02*
X253997D01*
X257495Y218999D02*
X255496D01*
Y217499D01*
X256496D01*
X255496D01*
Y216000D01*
X258495Y218499D02*
X258995Y218999D01*
X259995D01*
X260494Y218499D01*
Y216500D01*
X259995Y216000D01*
X258995D01*
X258495Y216500D01*
Y218499D01*
X263493Y216000D02*
X261494D01*
X263493Y217999D01*
Y218499D01*
X262994Y218999D01*
X261994D01*
X261494Y218499D01*
X264493D02*
X264993Y218999D01*
X265993D01*
X266493Y218499D01*
Y216500D01*
X265993Y216000D01*
X264993D01*
X264493Y216500D01*
Y218499D01*
X267492Y217499D02*
X269492D01*
X272491Y216000D02*
X270491D01*
X272491Y217999D01*
Y218499D01*
X271991Y218999D01*
X270991D01*
X270491Y218499D01*
X273490D02*
X273990Y218999D01*
X274990D01*
X275490Y218499D01*
Y216500D01*
X274990Y216000D01*
X273990D01*
X273490Y216500D01*
Y218499D01*
X276489D02*
X276989Y218999D01*
X277989D01*
X278489Y218499D01*
Y216500D01*
X277989Y216000D01*
X276989D01*
X276489Y216500D01*
Y218499D01*
X279488Y216000D02*
Y218999D01*
X280988D01*
X281488Y218499D01*
Y217499D01*
X280988Y217000D01*
X279488D01*
X284487Y218499D02*
X283987Y218999D01*
X282987D01*
X282487Y218499D01*
Y216500D01*
X282987Y216000D01*
X283987D01*
X284487Y216500D01*
X342000Y218499D02*
Y215500D01*
Y217000D01*
X343999D01*
Y218499D01*
Y215500D01*
X344999D02*
Y218499D01*
X345999Y217499D01*
X346998Y218499D01*
Y215500D01*
X349997Y218499D02*
X348998Y217999D01*
X347998Y217000D01*
Y216000D01*
X348498Y215500D01*
X349498D01*
X349997Y216000D01*
Y216500D01*
X349498Y217000D01*
X347998D01*
X352996Y215500D02*
X350997D01*
X352996Y217499D01*
Y217999D01*
X352497Y218499D01*
X351497D01*
X350997Y217999D01*
X353996D02*
X354496Y218499D01*
X355496D01*
X355995Y217999D01*
Y217499D01*
X355496Y217000D01*
X355995Y216500D01*
Y216000D01*
X355496Y215500D01*
X354496D01*
X353996Y216000D01*
Y216500D01*
X354496Y217000D01*
X353996Y217499D01*
Y217999D01*
X354496Y217000D02*
X355496D01*
X356995Y215500D02*
X357995D01*
X357495D01*
Y218499D01*
X356995Y217999D01*
X361494Y215500D02*
X359494D01*
X361494Y217499D01*
Y217999D01*
X360994Y218499D01*
X359994D01*
X359494Y217999D01*
X362493D02*
X362993Y218499D01*
X363993D01*
X364493Y217999D01*
Y217499D01*
X363993Y217000D01*
X364493Y216500D01*
Y216000D01*
X363993Y215500D01*
X362993D01*
X362493Y216000D01*
Y216500D01*
X362993Y217000D01*
X362493Y217499D01*
Y217999D01*
X362993Y217000D02*
X363993D01*
X365492Y218499D02*
Y215500D01*
X366992D01*
X367492Y216000D01*
Y216500D01*
X366992Y217000D01*
X365492D01*
X366992D01*
X367492Y217499D01*
Y217999D01*
X366992Y218499D01*
X365492D01*
X155500Y345499D02*
X157499D01*
Y344999D01*
X155500Y343000D01*
Y342500D01*
X159999D02*
Y345499D01*
X158499Y344000D01*
X160498D01*
X163497Y345499D02*
X161498D01*
Y344000D01*
X162498D01*
X161498D01*
Y342500D01*
X166496Y344999D02*
X165997Y345499D01*
X164997D01*
X164497Y344999D01*
Y343000D01*
X164997Y342500D01*
X165997D01*
X166496Y343000D01*
X167496Y345499D02*
X169495D01*
X168496D01*
Y342500D01*
X170495D02*
X171495D01*
X170995D01*
Y345499D01*
X170495Y344999D01*
X174994Y345499D02*
X173994Y344999D01*
X172994Y344000D01*
Y343000D01*
X173494Y342500D01*
X174494D01*
X174994Y343000D01*
Y343500D01*
X174494Y344000D01*
X172994D01*
X177993Y342500D02*
X175993D01*
X177993Y344499D01*
Y344999D01*
X177493Y345499D01*
X176493D01*
X175993Y344999D01*
X180992Y345499D02*
X179992Y344999D01*
X178992Y344000D01*
Y343000D01*
X179492Y342500D01*
X180492D01*
X180992Y343000D01*
Y343500D01*
X180492Y344000D01*
X178992D01*
X183491Y342500D02*
Y345499D01*
X181991Y344000D01*
X183991D01*
X186990Y345499D02*
X185990Y344999D01*
X184991Y344000D01*
Y343000D01*
X185490Y342500D01*
X186490D01*
X186990Y343000D01*
Y343500D01*
X186490Y344000D01*
X184991D01*
X877500Y192999D02*
Y191000D01*
X878500Y190000D01*
X879499Y191000D01*
Y192999D01*
X882498Y192499D02*
X881999Y192999D01*
X880999D01*
X880499Y192499D01*
Y191999D01*
X880999Y191499D01*
X881999D01*
X882498Y191000D01*
Y190500D01*
X881999Y190000D01*
X880999D01*
X880499Y190500D01*
X883498Y190000D02*
X884498D01*
X883998D01*
Y192999D01*
X883498Y192499D01*
X885997D02*
X886497Y192999D01*
X887497D01*
X887997Y192499D01*
Y190500D01*
X887497Y190000D01*
X886497D01*
X885997Y190500D01*
Y192499D01*
X888996Y190000D02*
X889996D01*
X889496D01*
Y192999D01*
X888996Y192499D01*
X891496Y190000D02*
X892495D01*
X891995D01*
Y192999D01*
X891496Y192499D01*
X895994Y192999D02*
X893995D01*
Y190000D01*
X895994D01*
X893995Y191499D02*
X894994D01*
X427000Y564500D02*
Y567499D01*
X428000Y566499D01*
X428999Y567499D01*
Y564500D01*
X431998Y566999D02*
X431498Y567499D01*
X430499D01*
X429999Y566999D01*
Y565000D01*
X430499Y564500D01*
X431498D01*
X431998Y565000D01*
X432998Y564500D02*
Y567499D01*
X434498D01*
X434997Y566999D01*
Y566000D01*
X434498Y565500D01*
X432998D01*
X437497Y564500D02*
Y567499D01*
X435997Y566000D01*
X437996D01*
X438996Y566999D02*
X439496Y567499D01*
X440496D01*
X440996Y566999D01*
Y565000D01*
X440496Y564500D01*
X439496D01*
X438996Y565000D01*
Y566999D01*
X441995Y564500D02*
X442995D01*
X442495D01*
Y567499D01*
X441995Y566999D01*
X444494D02*
X444994Y567499D01*
X445994D01*
X446494Y566999D01*
Y566499D01*
X445994Y566000D01*
X445494D01*
X445994D01*
X446494Y565500D01*
Y565000D01*
X445994Y564500D01*
X444994D01*
X444494Y565000D01*
X201999Y511000D02*
Y509001D01*
X201499D01*
X199500Y511000D01*
X199000D01*
Y506501D02*
X201999D01*
X200500Y508001D01*
Y506002D01*
X199000Y505002D02*
X200999D01*
X201999Y504002D01*
X200999Y503003D01*
X199000D01*
X200500D01*
Y505002D01*
X201999Y502003D02*
X199000D01*
Y500004D01*
X201499Y497005D02*
X201999Y497504D01*
Y498504D01*
X201499Y499004D01*
X200999D01*
X200500Y498504D01*
Y497504D01*
X200000Y497005D01*
X199500D01*
X199000Y497504D01*
Y498504D01*
X199500Y499004D01*
X199000Y494005D02*
Y496005D01*
X200999Y494005D01*
X201499D01*
X201999Y494505D01*
Y495505D01*
X201499Y496005D01*
X199000Y491506D02*
X201999D01*
X200500Y493006D01*
Y491007D01*
X201999Y488007D02*
Y490007D01*
X200500D01*
X200999Y489007D01*
Y488507D01*
X200500Y488007D01*
X199500D01*
X199000Y488507D01*
Y489507D01*
X199500Y490007D01*
X212500Y510499D02*
X214499D01*
Y509999D01*
X212500Y508000D01*
Y507500D01*
X216999D02*
Y510499D01*
X215499Y508999D01*
X217498D01*
X218498Y507500D02*
Y509499D01*
X219498Y510499D01*
X220497Y509499D01*
Y507500D01*
Y508999D01*
X218498D01*
X221497Y510499D02*
Y507500D01*
X223496D01*
X226496Y509999D02*
X225996Y510499D01*
X224996D01*
X224496Y509999D01*
Y509499D01*
X224996Y508999D01*
X225996D01*
X226496Y508500D01*
Y508000D01*
X225996Y507500D01*
X224996D01*
X224496Y508000D01*
X229495Y507500D02*
X227495D01*
X229495Y509499D01*
Y509999D01*
X228995Y510499D01*
X227995D01*
X227495Y509999D01*
X231994Y507500D02*
Y510499D01*
X230494Y508999D01*
X232493D01*
X235493Y510499D02*
X233493D01*
Y508999D01*
X234493Y509499D01*
X234993D01*
X235493Y508999D01*
Y508000D01*
X234993Y507500D01*
X233993D01*
X233493Y508000D01*
X112500Y603499D02*
Y600500D01*
X114499D01*
X115499D02*
Y603499D01*
X116499Y602499D01*
X117498Y603499D01*
Y600500D01*
X118498D02*
X119498D01*
X118998D01*
Y603499D01*
X118498Y602999D01*
X120997D02*
X121497Y603499D01*
X122497D01*
X122997Y602999D01*
Y601000D01*
X122497Y600500D01*
X121497D01*
X120997Y601000D01*
Y602999D01*
X123996D02*
X124496Y603499D01*
X125496D01*
X125996Y602999D01*
Y602499D01*
X125496Y602000D01*
X125996Y601500D01*
Y601000D01*
X125496Y600500D01*
X124496D01*
X123996Y601000D01*
Y601500D01*
X124496Y602000D01*
X123996Y602499D01*
Y602999D01*
X124496Y602000D02*
X125496D01*
X128995Y603499D02*
X127995Y602999D01*
X126995Y602000D01*
Y601000D01*
X127495Y600500D01*
X128495D01*
X128995Y601000D01*
Y601500D01*
X128495Y602000D01*
X126995D01*
X472000Y303000D02*
Y305999D01*
X473000Y304999D01*
X473999Y305999D01*
Y303000D01*
X474999D02*
Y304999D01*
X475999Y305999D01*
X476998Y304999D01*
Y303000D01*
Y304500D01*
X474999D01*
X477998Y305999D02*
X479997Y303000D01*
Y305999D02*
X477998Y303000D01*
X482996Y305999D02*
X481997Y305499D01*
X480997Y304500D01*
Y303500D01*
X481497Y303000D01*
X482497D01*
X482996Y303500D01*
Y304000D01*
X482497Y304500D01*
X480997D01*
X483996Y305499D02*
X484496Y305999D01*
X485496D01*
X485995Y305499D01*
Y304999D01*
X485496Y304500D01*
X485995Y304000D01*
Y303500D01*
X485496Y303000D01*
X484496D01*
X483996Y303500D01*
Y304000D01*
X484496Y304500D01*
X483996Y304999D01*
Y305499D01*
X484496Y304500D02*
X485496D01*
X486995Y303000D02*
X487995D01*
X487495D01*
Y305999D01*
X486995Y305499D01*
X489494D02*
X489994Y305999D01*
X490994D01*
X491494Y305499D01*
Y304999D01*
X490994Y304500D01*
X491494Y304000D01*
Y303500D01*
X490994Y303000D01*
X489994D01*
X489494Y303500D01*
Y304000D01*
X489994Y304500D01*
X489494Y304999D01*
Y305499D01*
X489994Y304500D02*
X490994D01*
X404000Y624500D02*
Y627499D01*
X405000Y626499D01*
X405999Y627499D01*
Y624500D01*
X406999D02*
Y626499D01*
X407999Y627499D01*
X408998Y626499D01*
Y624500D01*
Y625999D01*
X406999D01*
X409998Y627499D02*
X411997Y624500D01*
Y627499D02*
X409998Y624500D01*
X414996Y627499D02*
X413997Y626999D01*
X412997Y625999D01*
Y625000D01*
X413497Y624500D01*
X414497D01*
X414996Y625000D01*
Y625500D01*
X414497Y625999D01*
X412997D01*
X415996Y626999D02*
X416496Y627499D01*
X417496D01*
X417996Y626999D01*
Y626499D01*
X417496Y625999D01*
X417996Y625500D01*
Y625000D01*
X417496Y624500D01*
X416496D01*
X415996Y625000D01*
Y625500D01*
X416496Y625999D01*
X415996Y626499D01*
Y626999D01*
X416496Y625999D02*
X417496D01*
X418995Y624500D02*
X419995D01*
X419495D01*
Y627499D01*
X418995Y626999D01*
X423494Y627499D02*
X422494Y626999D01*
X421494Y625999D01*
Y625000D01*
X421994Y624500D01*
X422994D01*
X423494Y625000D01*
Y625500D01*
X422994Y625999D01*
X421494D01*
X424500Y408000D02*
Y410999D01*
X425500Y409999D01*
X426499Y410999D01*
Y408000D01*
X427499D02*
Y409999D01*
X428499Y410999D01*
X429498Y409999D01*
Y408000D01*
Y409500D01*
X427499D01*
X430498Y410999D02*
X432497Y408000D01*
Y410999D02*
X430498Y408000D01*
X433497Y410999D02*
X435496D01*
Y410499D01*
X433497Y408500D01*
Y408000D01*
X436496Y410499D02*
X436996Y410999D01*
X437996D01*
X438495Y410499D01*
Y408500D01*
X437996Y408000D01*
X436996D01*
X436496Y408500D01*
Y410499D01*
X439495Y408500D02*
X439995Y408000D01*
X440995D01*
X441495Y408500D01*
Y410499D01*
X440995Y410999D01*
X439995D01*
X439495Y410499D01*
Y409999D01*
X439995Y409500D01*
X441495D01*
X201000Y662500D02*
Y661500D01*
Y662000D01*
X203999D01*
X203499Y662500D01*
X203999Y660001D02*
X201000D01*
X202000D01*
X203999Y658002D01*
X202500Y659501D01*
X201000Y658002D01*
X457500Y401500D02*
X458500D01*
X458000D01*
Y404499D01*
X457500Y403999D01*
X459999Y404499D02*
Y401500D01*
Y402500D01*
X461999Y404499D01*
X460499Y402999D01*
X461999Y401500D01*
X802500Y193500D02*
X803500D01*
X803000D01*
Y196499D01*
X802500Y195999D01*
X804999D02*
X805499Y196499D01*
X806499D01*
X806999Y195999D01*
Y194000D01*
X806499Y193500D01*
X805499D01*
X804999Y194000D01*
Y195999D01*
X807998D02*
X808498Y196499D01*
X809498D01*
X809998Y195999D01*
Y194000D01*
X809498Y193500D01*
X808498D01*
X807998Y194000D01*
Y195999D01*
X810997Y196499D02*
Y193500D01*
Y194500D01*
X812997Y196499D01*
X811497Y195000D01*
X812997Y193500D01*
X802000Y172500D02*
X803000D01*
X802500D01*
Y175499D01*
X802000Y174999D01*
X804499D02*
X804999Y175499D01*
X805999D01*
X806499Y174999D01*
Y173000D01*
X805999Y172500D01*
X804999D01*
X804499Y173000D01*
Y174999D01*
X807498D02*
X807998Y175499D01*
X808998D01*
X809498Y174999D01*
Y173000D01*
X808998Y172500D01*
X807998D01*
X807498Y173000D01*
Y174999D01*
X810497Y175499D02*
Y172500D01*
Y173500D01*
X812497Y175499D01*
X810997Y174000D01*
X812497Y172500D01*
X178500Y535000D02*
Y536000D01*
Y535500D01*
X175501D01*
X176001Y535000D01*
X178500Y539499D02*
Y537499D01*
X176501Y539499D01*
X176001D01*
X175501Y538999D01*
Y537999D01*
X176001Y537499D01*
X178500Y540498D02*
Y541498D01*
Y540998D01*
X175501D01*
X176001Y540498D01*
X178500Y542997D02*
X175501D01*
Y544497D01*
X176001Y544997D01*
X177000D01*
X177500Y544497D01*
Y542997D01*
Y543997D02*
X178500Y544997D01*
X168000Y536999D02*
Y535000D01*
X166001Y536999D01*
X165501D01*
X165001Y536500D01*
Y535500D01*
X165501Y535000D01*
Y537999D02*
X165001Y538499D01*
Y539499D01*
X165501Y539998D01*
X167500D01*
X168000Y539499D01*
Y538499D01*
X167500Y537999D01*
X165501D01*
Y540998D02*
X165001Y541498D01*
Y542498D01*
X165501Y542997D01*
X167500D01*
X168000Y542498D01*
Y541498D01*
X167500Y540998D01*
X165501D01*
X168000Y543997D02*
X165001D01*
Y545497D01*
X165501Y545996D01*
X166500D01*
X167000Y545497D01*
Y543997D01*
Y544997D02*
X168000Y545996D01*
X836499Y120000D02*
X834500D01*
X836499Y121999D01*
Y122499D01*
X835999Y122999D01*
X835000D01*
X834500Y122499D01*
X837499D02*
X837999Y122999D01*
X838999D01*
X839498Y122499D01*
Y120500D01*
X838999Y120000D01*
X837999D01*
X837499Y120500D01*
Y122499D01*
X840498Y120000D02*
Y122999D01*
X841998D01*
X842497Y122499D01*
Y121500D01*
X841998Y121000D01*
X840498D01*
X841498D02*
X842497Y120000D01*
X836499Y139000D02*
X834500D01*
X836499Y140999D01*
Y141499D01*
X835999Y141999D01*
X835000D01*
X834500Y141499D01*
X837499D02*
X837999Y141999D01*
X838999D01*
X839498Y141499D01*
Y139500D01*
X838999Y139000D01*
X837999D01*
X837499Y139500D01*
Y141499D01*
X840498Y139000D02*
Y141999D01*
X841998D01*
X842497Y141499D01*
Y140499D01*
X841998Y140000D01*
X840498D01*
X841498D02*
X842497Y139000D01*
X836499Y157500D02*
X834500D01*
X836499Y159499D01*
Y159999D01*
X835999Y160499D01*
X835000D01*
X834500Y159999D01*
X837499D02*
X837999Y160499D01*
X838999D01*
X839498Y159999D01*
Y158000D01*
X838999Y157500D01*
X837999D01*
X837499Y158000D01*
Y159999D01*
X840498Y157500D02*
Y160499D01*
X841998D01*
X842497Y159999D01*
Y159000D01*
X841998Y158500D01*
X840498D01*
X841498D02*
X842497Y157500D01*
X236000Y616000D02*
X237000D01*
X236500D01*
Y618999D01*
X236000Y618499D01*
X240498Y618999D02*
X238499D01*
Y617499D01*
X239499Y617999D01*
X239999D01*
X240498Y617499D01*
Y616500D01*
X239999Y616000D01*
X238999D01*
X238499Y616500D01*
X241498Y618499D02*
X241998Y618999D01*
X242998D01*
X243498Y618499D01*
Y616500D01*
X242998Y616000D01*
X241998D01*
X241498Y616500D01*
Y618499D01*
X244497Y616000D02*
Y618999D01*
X245997D01*
X246497Y618499D01*
Y617499D01*
X245997Y617000D01*
X244497D01*
X245497D02*
X246497Y616000D01*
X236000Y593000D02*
X237000D01*
X236500D01*
Y595999D01*
X236000Y595499D01*
X240498Y595999D02*
X238499D01*
Y594499D01*
X239499Y594999D01*
X239999D01*
X240498Y594499D01*
Y593500D01*
X239999Y593000D01*
X238999D01*
X238499Y593500D01*
X241498Y595499D02*
X241998Y595999D01*
X242998D01*
X243498Y595499D01*
Y593500D01*
X242998Y593000D01*
X241998D01*
X241498Y593500D01*
Y595499D01*
X244497Y593000D02*
Y595999D01*
X245997D01*
X246497Y595499D01*
Y594499D01*
X245997Y594000D01*
X244497D01*
X245497D02*
X246497Y593000D01*
X791500Y249999D02*
X792000Y250499D01*
X793000D01*
X793499Y249999D01*
Y248000D01*
X793000Y247500D01*
X792000D01*
X791500Y248000D01*
Y249999D01*
X794499Y250499D02*
Y247500D01*
Y248500D01*
X796498Y250499D01*
X794999Y249000D01*
X796498Y247500D01*
X425500Y515500D02*
X426500D01*
X426000D01*
Y518499D01*
X425500Y517999D01*
X427999D02*
X428499Y518499D01*
X429499D01*
X429998Y517999D01*
Y516000D01*
X429499Y515500D01*
X428499D01*
X427999Y516000D01*
Y517999D01*
X430998Y518499D02*
Y515500D01*
Y516500D01*
X432998Y518499D01*
X431498Y516999D01*
X432998Y515500D01*
M02*
