%FSLAX25Y25*%
%MOIN*%
G70*
G01*
G75*
G04 Layer_Color=16711935*
%ADD10R,0.04331X0.05512*%
%ADD11R,0.08071X0.01772*%
%ADD12R,0.08071X0.01772*%
%ADD13R,0.05512X0.04331*%
%ADD14O,0.08000X0.01600*%
%ADD15O,0.01575X0.07480*%
%ADD16R,0.05118X0.03937*%
%ADD17R,0.03937X0.05118*%
%ADD18O,0.07480X0.01575*%
%ADD19R,0.07480X0.07087*%
%ADD20R,0.05315X0.01575*%
%ADD21R,0.06299X0.08268*%
%ADD22R,0.07480X0.07480*%
%ADD23O,0.02559X0.06693*%
%ADD24R,0.04000X0.02600*%
%ADD25R,0.05512X0.03937*%
%ADD26R,0.05906X0.05906*%
%ADD27O,0.07087X0.01575*%
%ADD28R,0.03500X0.05000*%
%ADD29R,0.05000X0.05000*%
%ADD30C,0.03000*%
%ADD31C,0.00700*%
%ADD32C,0.00800*%
%ADD33C,0.01000*%
%ADD34R,0.05906X0.05906*%
%ADD35C,0.05906*%
%ADD36C,0.04724*%
%ADD37R,0.04724X0.04724*%
%ADD38C,0.06000*%
%ADD39C,0.04000*%
%ADD40R,0.04000X0.04000*%
%ADD41R,0.05000X0.05000*%
%ADD42C,0.05000*%
%ADD43R,0.06500X0.06500*%
%ADD44C,0.06500*%
%ADD45C,0.12000*%
%ADD46C,0.14000*%
%ADD47R,0.06000X0.06000*%
%ADD48C,0.06693*%
%ADD49C,0.06299*%
%ADD50R,0.04000X0.04000*%
%ADD51C,0.15748*%
%ADD52R,0.06000X0.06000*%
%ADD53C,0.06200*%
%ADD54R,0.06200X0.06200*%
%ADD55C,0.08400*%
%ADD56C,0.10600*%
%ADD57C,0.12500*%
%ADD58C,0.00984*%
%ADD59C,0.00787*%
%ADD60C,0.01200*%
%ADD61C,0.00600*%
%ADD62R,0.04731X0.05912*%
%ADD63R,0.08471X0.02172*%
%ADD64R,0.08471X0.02172*%
%ADD65R,0.05912X0.04731*%
%ADD66O,0.08400X0.02000*%
%ADD67O,0.01975X0.07880*%
%ADD68R,0.05518X0.04337*%
%ADD69R,0.04337X0.05518*%
%ADD70O,0.07880X0.01975*%
%ADD71R,0.07880X0.07487*%
%ADD72R,0.05715X0.01975*%
%ADD73R,0.06699X0.08668*%
%ADD74R,0.07880X0.07880*%
%ADD75O,0.02959X0.07093*%
%ADD76R,0.04400X0.03000*%
%ADD77R,0.05912X0.04337*%
%ADD78R,0.06306X0.06306*%
%ADD79O,0.07487X0.01975*%
%ADD80R,0.03900X0.05400*%
%ADD81R,0.05400X0.05400*%
%ADD82R,0.06306X0.06306*%
%ADD83C,0.06306*%
%ADD84C,0.05124*%
%ADD85R,0.05124X0.05124*%
%ADD86C,0.06400*%
%ADD87C,0.04400*%
%ADD88R,0.04400X0.04400*%
%ADD89R,0.05400X0.05400*%
%ADD90C,0.05400*%
%ADD91R,0.06900X0.06900*%
%ADD92C,0.06900*%
%ADD93C,0.12400*%
%ADD94C,0.14400*%
%ADD95R,0.06400X0.06400*%
%ADD96C,0.07093*%
%ADD97C,0.06699*%
%ADD98R,0.04400X0.04400*%
%ADD99C,0.16148*%
%ADD100R,0.06400X0.06400*%
%ADD101C,0.06600*%
%ADD102R,0.06600X0.06600*%
%ADD103C,0.08800*%
%ADD104C,0.11000*%
%ADD105C,0.12900*%
%ADD106C,0.00394*%
D30*
X98500Y98500D02*
Y119500D01*
X931500Y98500D02*
Y119500D01*
X98500Y660500D02*
Y681500D01*
Y98500D02*
X119500D01*
X910500D02*
X931500D01*
X98500Y681500D02*
X119500D01*
D33*
X923313Y721771D02*
X930000Y724000D01*
X923313Y726229D02*
X930000Y724000D01*
X100000Y82500D02*
X106687Y84729D01*
X100000Y82500D02*
X106687Y80271D01*
X483313Y84729D02*
X490000Y82500D01*
X483313Y80271D02*
X490000Y82500D01*
Y73500D02*
X496687Y75729D01*
X490000Y73500D02*
X496687Y71271D01*
X533313Y75729D02*
X540000Y73500D01*
X533313Y71271D02*
X540000Y73500D01*
X515000Y145000D02*
X517229Y138313D01*
X512771D02*
X515000Y145000D01*
Y100000D02*
X517229Y106687D01*
X512771D02*
X515000Y100000D01*
X941771Y106687D02*
X944500Y100000D01*
X947229Y106687D01*
X941771Y673313D02*
X944500Y680000D01*
X947229Y673313D01*
X100000Y724000D02*
X106687Y726229D01*
X100000Y724000D02*
X106687Y721771D01*
X100000Y692500D02*
X106687Y694729D01*
X100000Y692500D02*
X106687Y690271D01*
X483313Y694729D02*
X490000Y692500D01*
X483313Y690271D02*
X490000Y692500D01*
Y701500D02*
X496687Y703729D01*
X490000Y701500D02*
X496687Y699271D01*
X533313Y703729D02*
X540000Y701500D01*
X533313Y699271D02*
X540000Y701500D01*
X100000Y80000D02*
Y85000D01*
X540000Y71000D02*
Y76000D01*
X515000Y100340D02*
Y145000D01*
X944500Y100000D02*
Y345161D01*
Y415339D02*
Y680000D01*
X930000Y720500D02*
Y727500D01*
X100000Y720500D02*
Y727500D01*
X490000Y68000D02*
Y88000D01*
X100000Y690000D02*
Y695000D01*
X540000Y699000D02*
Y704000D01*
X490000Y688000D02*
Y706000D01*
X512500Y145000D02*
X517500D01*
X511500Y100000D02*
X518500D01*
X490000Y73500D02*
X540000D01*
X100000Y82500D02*
X255661D01*
X940000Y680000D02*
X949000D01*
X940000Y100000D02*
X949000D01*
X557000Y724000D02*
X930000D01*
X100000D02*
X487000D01*
X327839Y82500D02*
X490000D01*
Y701500D02*
X540000D01*
X100000Y692500D02*
X255661D01*
X327839D02*
X490000D01*
X512771Y673313D02*
X515000Y680000D01*
X517229Y673313D01*
X515000Y635000D02*
Y680000D01*
X511500D02*
X518500D01*
X491161Y728987D02*
X492827Y730653D01*
X496160D01*
X497826Y728987D01*
Y727321D01*
X496160Y725655D01*
X497826Y723989D01*
Y722322D01*
X496160Y720656D01*
X492827D01*
X491161Y722322D01*
Y723989D01*
X492827Y725655D01*
X491161Y727321D01*
Y728987D01*
X492827Y725655D02*
X496160D01*
X501158Y728987D02*
X502824Y730653D01*
X506156D01*
X507823Y728987D01*
Y727321D01*
X506156Y725655D01*
X504490D01*
X506156D01*
X507823Y723989D01*
Y722322D01*
X506156Y720656D01*
X502824D01*
X501158Y722322D01*
X511155Y728987D02*
X512821Y730653D01*
X516153D01*
X517819Y728987D01*
Y722322D01*
X516153Y720656D01*
X512821D01*
X511155Y722322D01*
Y728987D01*
X521152D02*
X522818Y730653D01*
X526150D01*
X527816Y728987D01*
Y722322D01*
X526150Y720656D01*
X522818D01*
X521152Y722322D01*
Y728987D01*
X531148Y720656D02*
Y727321D01*
X532815D01*
X534481Y725655D01*
Y720656D01*
Y725655D01*
X536147Y727321D01*
X537813Y725655D01*
Y720656D01*
X541145D02*
X544477D01*
X542811D01*
Y727321D01*
X541145D01*
X549476Y720656D02*
X552808D01*
X551142D01*
Y730653D01*
X549476D01*
X503156Y135341D02*
X509154D01*
X506155Y138340D01*
Y134341D01*
X509154Y128343D02*
Y132342D01*
X506155D01*
X507155Y130342D01*
Y129342D01*
X506155Y128343D01*
X504156D01*
X503156Y129342D01*
Y131342D01*
X504156Y132342D01*
X508155Y126344D02*
X509154Y125344D01*
Y123345D01*
X508155Y122345D01*
X504156D01*
X503156Y123345D01*
Y125344D01*
X504156Y126344D01*
X508155D01*
X503156Y120345D02*
X507155D01*
Y119346D01*
X506155Y118346D01*
X503156D01*
X506155D01*
X507155Y117346D01*
X506155Y116347D01*
X503156D01*
Y114347D02*
Y112348D01*
Y113348D01*
X507155D01*
Y114347D01*
X503156Y109349D02*
Y107350D01*
Y108349D01*
X509154D01*
Y109349D01*
X503159Y83654D02*
X499160D01*
Y80655D01*
X501160Y81655D01*
X502159D01*
X503159Y80655D01*
Y78656D01*
X502159Y77656D01*
X500160D01*
X499160Y78656D01*
X505158Y82655D02*
X506158Y83654D01*
X508157D01*
X509157Y82655D01*
Y78656D01*
X508157Y77656D01*
X506158D01*
X505158Y78656D01*
Y82655D01*
X511157D02*
X512156Y83654D01*
X514155D01*
X515155Y82655D01*
Y78656D01*
X514155Y77656D01*
X512156D01*
X511157Y78656D01*
Y82655D01*
X517155Y77656D02*
Y81655D01*
X518154D01*
X519154Y80655D01*
Y77656D01*
Y80655D01*
X520154Y81655D01*
X521153Y80655D01*
Y77656D01*
X523153D02*
X525152D01*
X524152D01*
Y81655D01*
X523153D01*
X528151Y77656D02*
X530150D01*
X529151D01*
Y83654D01*
X528151D01*
X261161Y87487D02*
X262827Y89153D01*
X266160D01*
X267826Y87487D01*
Y85821D01*
X266160Y84155D01*
X264494D01*
X266160D01*
X267826Y82489D01*
Y80822D01*
X266160Y79156D01*
X262827D01*
X261161Y80822D01*
X271158D02*
X272824Y79156D01*
X276156D01*
X277823Y80822D01*
Y87487D01*
X276156Y89153D01*
X272824D01*
X271158Y87487D01*
Y85821D01*
X272824Y84155D01*
X277823D01*
X281155Y87487D02*
X282821Y89153D01*
X286153D01*
X287819Y87487D01*
Y80822D01*
X286153Y79156D01*
X282821D01*
X281155Y80822D01*
Y87487D01*
X291152D02*
X292818Y89153D01*
X296150D01*
X297816Y87487D01*
Y80822D01*
X296150Y79156D01*
X292818D01*
X291152Y80822D01*
Y87487D01*
X301148Y79156D02*
Y85821D01*
X302815D01*
X304481Y84155D01*
Y79156D01*
Y84155D01*
X306147Y85821D01*
X307813Y84155D01*
Y79156D01*
X311145D02*
X314477D01*
X312811D01*
Y85821D01*
X311145D01*
X319476Y79156D02*
X322808D01*
X321142D01*
Y89153D01*
X319476D01*
X951153Y404674D02*
Y411339D01*
X946155D01*
X947821Y408006D01*
Y406340D01*
X946155Y404674D01*
X942822D01*
X941156Y406340D01*
Y409673D01*
X942822Y411339D01*
X949487Y401342D02*
X951153Y399676D01*
Y396344D01*
X949487Y394677D01*
X947821D01*
X946155Y396344D01*
X944489Y394677D01*
X942822D01*
X941156Y396344D01*
Y399676D01*
X942822Y401342D01*
X944489D01*
X946155Y399676D01*
X947821Y401342D01*
X949487D01*
X946155Y399676D02*
Y396344D01*
X949487Y391345D02*
X951153Y389679D01*
Y386347D01*
X949487Y384681D01*
X942822D01*
X941156Y386347D01*
Y389679D01*
X942822Y391345D01*
X949487D01*
Y381348D02*
X951153Y379682D01*
Y376350D01*
X949487Y374684D01*
X942822D01*
X941156Y376350D01*
Y379682D01*
X942822Y381348D01*
X949487D01*
X941156Y371352D02*
X947821D01*
Y369686D01*
X946155Y368019D01*
X941156D01*
X946155D01*
X947821Y366353D01*
X946155Y364687D01*
X941156D01*
Y361355D02*
Y358023D01*
Y359689D01*
X947821D01*
Y361355D01*
X941156Y353024D02*
Y349692D01*
Y351358D01*
X951153D01*
Y353024D01*
X503159Y711654D02*
X499160D01*
Y708655D01*
X501160Y709655D01*
X502159D01*
X503159Y708655D01*
Y706656D01*
X502159Y705656D01*
X500160D01*
X499160Y706656D01*
X505158Y710655D02*
X506158Y711654D01*
X508157D01*
X509157Y710655D01*
Y706656D01*
X508157Y705656D01*
X506158D01*
X505158Y706656D01*
Y710655D01*
X511157D02*
X512156Y711654D01*
X514155D01*
X515155Y710655D01*
Y706656D01*
X514155Y705656D01*
X512156D01*
X511157Y706656D01*
Y710655D01*
X517155Y705656D02*
Y709655D01*
X518154D01*
X519154Y708655D01*
Y705656D01*
Y708655D01*
X520154Y709655D01*
X521153Y708655D01*
Y705656D01*
X523153D02*
X525152D01*
X524152D01*
Y709655D01*
X523153D01*
X528151Y705656D02*
X530150D01*
X529151D01*
Y711654D01*
X528151D01*
X261161Y697487D02*
X262827Y699153D01*
X266160D01*
X267826Y697487D01*
Y695821D01*
X266160Y694155D01*
X264494D01*
X266160D01*
X267826Y692489D01*
Y690822D01*
X266160Y689156D01*
X262827D01*
X261161Y690822D01*
X271158D02*
X272824Y689156D01*
X276156D01*
X277823Y690822D01*
Y697487D01*
X276156Y699153D01*
X272824D01*
X271158Y697487D01*
Y695821D01*
X272824Y694155D01*
X277823D01*
X281155Y697487D02*
X282821Y699153D01*
X286153D01*
X287819Y697487D01*
Y690822D01*
X286153Y689156D01*
X282821D01*
X281155Y690822D01*
Y697487D01*
X291152D02*
X292818Y699153D01*
X296150D01*
X297816Y697487D01*
Y690822D01*
X296150Y689156D01*
X292818D01*
X291152Y690822D01*
Y697487D01*
X301148Y689156D02*
Y695821D01*
X302815D01*
X304481Y694155D01*
Y689156D01*
Y694155D01*
X306147Y695821D01*
X307813Y694155D01*
Y689156D01*
X311145D02*
X314477D01*
X312811D01*
Y695821D01*
X311145D01*
X319476Y689156D02*
X322808D01*
X321142D01*
Y699153D01*
X319476D01*
D60*
X938744Y115004D02*
Y138626D01*
X928902D02*
X938744D01*
X928902Y115004D02*
X938744D01*
D106*
X215713Y600000D02*
X217287D01*
X216500Y599213D02*
Y600787D01*
X215713Y611500D02*
X217287D01*
X216500Y610713D02*
Y612287D01*
M02*
