%FSLAX25Y25*%
%MOIN*%
G70*
G01*
G75*
G04 Layer_Physical_Order=2*
G04 Layer_Color=16711680*
%ADD10R,0.04331X0.05512*%
%ADD11R,0.08071X0.01772*%
%ADD12R,0.08071X0.01772*%
%ADD13R,0.05512X0.04331*%
%ADD14O,0.08000X0.01600*%
%ADD15O,0.01575X0.07480*%
%ADD16R,0.05118X0.03937*%
%ADD17R,0.03937X0.05118*%
%ADD18O,0.07480X0.01575*%
%ADD19R,0.07480X0.07087*%
%ADD20R,0.05315X0.01575*%
%ADD21R,0.06299X0.08268*%
%ADD22R,0.07480X0.07480*%
%ADD23O,0.02559X0.06693*%
%ADD24R,0.04000X0.02600*%
%ADD25R,0.05512X0.03937*%
%ADD26R,0.05906X0.05906*%
%ADD27O,0.07087X0.01575*%
%ADD28R,0.03500X0.05000*%
%ADD29R,0.05000X0.05000*%
%ADD30C,0.03000*%
%ADD31C,0.00700*%
%ADD32C,0.00800*%
%ADD33C,0.01000*%
%ADD34R,0.05906X0.05906*%
%ADD35C,0.05906*%
%ADD36C,0.04724*%
%ADD37R,0.04724X0.04724*%
%ADD38C,0.06000*%
%ADD39C,0.04000*%
%ADD40R,0.04000X0.04000*%
%ADD41R,0.05000X0.05000*%
%ADD42C,0.05000*%
%ADD43R,0.06500X0.06500*%
%ADD44C,0.06500*%
%ADD45C,0.12000*%
%ADD46C,0.14000*%
%ADD47R,0.06000X0.06000*%
%ADD48C,0.06693*%
%ADD49C,0.06299*%
%ADD50R,0.04000X0.04000*%
%ADD51C,0.15748*%
%ADD52R,0.06000X0.06000*%
%ADD53C,0.06200*%
%ADD54R,0.06200X0.06200*%
%ADD55C,0.08400*%
%ADD56C,0.10600*%
%ADD57C,0.12500*%
D26*
X528000Y612000D02*
D03*
X399500Y570500D02*
D03*
D30*
X870500Y267000D02*
X880000Y257500D01*
X870000Y267000D02*
X870500D01*
X889247Y151940D02*
Y166394D01*
X906927Y184073D01*
X919000Y162500D02*
Y173000D01*
X908440Y151940D02*
X919000Y162500D01*
X896500Y241500D02*
Y242000D01*
X917000Y262500D01*
X907616Y226884D02*
X915000Y234267D01*
X864485Y208077D02*
X864515D01*
X862700Y209861D02*
X864485Y208077D01*
X497290Y170790D02*
Y185210D01*
X448390Y121890D02*
X497290Y170790D01*
X615318Y223000D02*
X624000D01*
X598200Y240118D02*
X615318Y223000D01*
X598200Y240118D02*
Y257447D01*
X595447Y260200D02*
X598200Y257447D01*
X591553Y260200D02*
X595447D01*
X588800Y257447D02*
X591553Y260200D01*
X588800Y230300D02*
Y257447D01*
X576000Y217500D02*
X588800Y230300D01*
X761000Y363500D02*
X779000Y345500D01*
X724500Y363500D02*
X761000D01*
X714000Y353000D02*
X724500Y363500D01*
X612000Y341000D02*
X624000Y353000D01*
X612000Y339500D02*
Y341000D01*
X820000Y339490D02*
X891561D01*
X780500Y269500D02*
Y293620D01*
X889247Y151940D02*
X908440D01*
X561000Y108000D02*
X875677D01*
X881677Y114000D01*
X543500Y152000D02*
X550000Y145500D01*
X454500Y107000D02*
X477866Y130366D01*
X151500Y116500D02*
X157000Y111000D01*
X436000D01*
X441500Y116500D01*
X107300Y480800D02*
X132000Y505500D01*
Y518500D01*
X556000Y593500D02*
X643500D01*
X719500Y669500D01*
X492500Y190000D02*
X497290Y185210D01*
X479809Y437710D02*
X508290D01*
X476710Y440809D02*
X479809Y437710D01*
X508290D02*
X524000Y422000D01*
X295000Y614000D02*
Y626000D01*
X298000Y629000D01*
X881677Y144370D02*
X889247Y151940D01*
X881677Y114000D02*
Y144370D01*
X150226Y654000D02*
X164500D01*
X184200Y673700D01*
X383757Y670243D02*
X398300Y655700D01*
Y647700D02*
X399000Y647000D01*
X398300Y647700D02*
Y655700D01*
X248500Y226000D02*
Y229933D01*
X259067Y240500D02*
X296513D01*
X248500Y229933D02*
X259067Y240500D01*
X432500Y116500D02*
X437890Y121890D01*
X431500Y116500D02*
X432500D01*
X409000Y605250D02*
X424000D01*
X579500Y655000D02*
Y669500D01*
Y655000D02*
X584500Y650000D01*
X380500Y545500D02*
X388000Y538000D01*
X380500Y545500D02*
Y579500D01*
X385000Y584000D01*
X433500Y530000D02*
Y540696D01*
X438152Y545348D01*
Y551927D01*
X424500Y565579D02*
X438152Y551927D01*
X424500Y565579D02*
Y587000D01*
X422144Y550000D02*
X433500D01*
X402401Y530257D02*
X422144Y550000D01*
X213800Y288500D02*
Y292147D01*
Y281700D02*
Y288500D01*
X159500D02*
X213800D01*
X160000Y282500D02*
X167000Y275500D01*
X213800Y292147D02*
X218010Y296357D01*
Y298010D01*
X213800Y281700D02*
X214000Y281500D01*
X167000Y275500D02*
X214000D01*
X393257Y531599D02*
Y532743D01*
Y531599D02*
X394599Y530257D01*
X402401D01*
X147390Y523890D02*
X161500Y538000D01*
X147390Y514452D02*
Y523890D01*
X128000Y495061D02*
X147390Y514452D01*
X128000Y403000D02*
Y495061D01*
X149500Y130500D02*
X153500Y126500D01*
X167000D01*
X478000Y365000D02*
X478500Y365500D01*
X467051Y365000D02*
X478000D01*
X459551Y357500D02*
X467051Y365000D01*
X459000Y357500D02*
X459551D01*
X311500Y660000D02*
X321743Y670243D01*
X383757D01*
X348500Y471500D02*
Y500420D01*
X351290Y503210D01*
X328000Y465500D02*
X330300Y463200D01*
X333447D01*
X336200Y460447D01*
Y456553D02*
Y460447D01*
X333447Y453800D02*
X336200Y456553D01*
X328300Y453800D02*
X333447D01*
X321000Y446500D02*
X328300Y453800D01*
X490953Y421453D02*
X495500Y426000D01*
X490953Y397453D02*
Y421453D01*
X433500Y523580D02*
Y530000D01*
Y523580D02*
X476710Y480370D01*
Y440809D02*
Y480370D01*
X434300Y356500D02*
Y358927D01*
Y354553D02*
Y356500D01*
X427000D02*
X434300D01*
X156500Y217500D02*
X164500Y225500D01*
X149000Y210000D02*
X156500Y217500D01*
Y218000D01*
X151000Y223500D02*
X156500Y218000D01*
X148450Y384550D02*
Y395050D01*
X146500Y397000D02*
X148450Y395050D01*
X436500Y161000D02*
Y176500D01*
X366500Y145000D02*
X372500Y151000D01*
X346000Y145000D02*
X366500D01*
X246500D02*
Y153920D01*
X452200Y351800D02*
X484000Y320000D01*
X437053Y351800D02*
X452200D01*
X434300Y354553D02*
X437053Y351800D01*
X434300Y358927D02*
X448300Y372927D01*
Y387300D01*
X448500Y387500D01*
X473500Y309500D02*
X484000Y320000D01*
X473450Y309500D02*
X473500D01*
X244500Y169738D02*
Y191500D01*
X284500Y178500D02*
X300000D01*
X135500Y434000D02*
X136000Y433500D01*
Y404000D02*
Y433500D01*
Y404000D02*
X137000Y403000D01*
X216500Y634710D02*
X274290D01*
X206986D02*
X216500D01*
Y616000D02*
Y634710D01*
X179000Y601500D02*
X184000D01*
X190500Y595000D01*
X448500Y387500D02*
X451853D01*
X455053Y384300D01*
X468800D01*
X472500Y388000D01*
X246500Y153920D02*
X249290Y156710D01*
Y164948D01*
X244500Y169738D02*
X249290Y164948D01*
X164500Y225500D02*
X169000D01*
X275500Y468000D02*
X296500D01*
X321200Y473200D02*
X324500Y476500D01*
X891561Y339490D02*
X910300Y320751D01*
X784632Y199368D02*
X794500Y189500D01*
X784632Y199368D02*
Y220400D01*
X801733Y237500D01*
X819000D01*
X815800Y256800D02*
X846447D01*
X780932Y221932D02*
X815800Y256800D01*
X780932Y181500D02*
Y221932D01*
X152000Y649000D02*
X197929D01*
X205429Y641500D01*
X251500D01*
X254000Y639000D01*
X142000Y556500D02*
X181000Y595500D01*
X142000Y518500D02*
Y556500D01*
X132000Y518500D02*
Y554500D01*
X839156Y408685D02*
X873000D01*
X833520Y414322D02*
X839156Y408685D01*
X830678Y414322D02*
X833520D01*
X830500Y414500D02*
X830678Y414322D01*
X817315Y414500D02*
X830500D01*
X811500Y408685D02*
X817315Y414500D01*
X777656Y408685D02*
X811500D01*
X772020Y414322D02*
X777656Y408685D01*
X755637Y414322D02*
X772020D01*
X750000Y408685D02*
X755637Y414322D01*
X715656Y408685D02*
X750000D01*
X710020Y414322D02*
X715656Y408685D01*
X693637Y414322D02*
X710020D01*
X688000Y408685D02*
X693637Y414322D01*
X654656Y408685D02*
X688000D01*
X649020Y414322D02*
X654656Y408685D01*
X632636Y414322D02*
X649020D01*
X627000Y408685D02*
X632636Y414322D01*
X592656Y408685D02*
X627000D01*
X587020Y414322D02*
X592656Y408685D01*
X570637Y414322D02*
X587020D01*
X565000Y408685D02*
X570637Y414322D01*
X454500Y604000D02*
X485500D01*
X482000Y538500D02*
Y587500D01*
X492000Y597500D01*
X361500Y116500D02*
Y127000D01*
X379500Y145000D01*
Y161500D01*
X389500D02*
Y191500D01*
X231500Y116500D02*
Y127500D01*
X220000Y139000D02*
X231500Y127500D01*
X220000Y139000D02*
Y161500D01*
X202000Y376000D02*
X248500D01*
X199500Y378500D02*
X202000Y376000D01*
X248500D02*
X308500D01*
X482000Y443000D02*
Y468000D01*
X492000Y478000D01*
Y502000D01*
Y517500D01*
X482000Y527500D02*
X492000Y517500D01*
X482000Y527500D02*
Y538500D01*
X132000Y554500D02*
X179000Y601500D01*
Y611000D01*
X594000Y132000D02*
Y202000D01*
X147000Y622000D02*
X157000D01*
X315933Y239500D02*
X333000D01*
X346500Y226000D01*
X310277Y231710D02*
X312790Y234223D01*
Y236357D01*
X315933Y239500D01*
X296513Y240500D02*
X305303Y231710D01*
X310277D01*
X409500Y138500D02*
Y161500D01*
Y138500D02*
X431500Y116500D01*
X492500Y190000D02*
X502500Y200000D01*
Y240000D01*
X377290Y463210D02*
X391710D01*
X396500Y468000D01*
X240000Y512500D02*
X245500D01*
X232500Y520000D02*
X240000Y512500D01*
X245500Y486500D02*
Y512500D01*
X224500Y465500D02*
X245500Y486500D01*
X274290Y634710D02*
X295000Y614000D01*
X147210Y647016D02*
Y650984D01*
X150226Y654000D01*
X184200Y673700D02*
X209447D01*
X222647Y660500D01*
X311000D01*
X311500Y660000D01*
X249500Y467500D02*
X255500Y473500D01*
X256000D01*
X324500Y476500D02*
X326000D01*
X361500Y479500D02*
Y519774D01*
Y477500D02*
X363000D01*
X377290Y463210D01*
X360500Y478500D02*
X361500Y477500D01*
X360500Y478500D02*
X361500Y479500D01*
X352000Y538500D02*
X363000D01*
X388000Y538000D02*
X393257Y532743D01*
X396500Y468000D02*
X402500D01*
X405000Y470500D01*
X399000Y647000D02*
X404182D01*
X411382Y639800D01*
X462700D01*
X463000Y639500D01*
X485500Y604000D02*
X492000Y597500D01*
X827000Y315500D02*
X839000D01*
X816500Y305000D02*
X827000Y315500D01*
X840000Y305000D02*
X877500D01*
X888353D01*
X890553Y302800D01*
X819500Y237000D02*
X849500D01*
X819000Y237500D02*
X819500Y237000D01*
X856647Y267000D02*
X870000D01*
X846447Y256800D02*
X856647Y267000D01*
X780932Y181500D02*
X795432Y167000D01*
X817000D01*
X833500Y323000D02*
X845000D01*
X780500Y293620D02*
X788490Y301610D01*
X890553Y302800D02*
X896700D01*
X436500Y176500D02*
X455000Y158000D01*
X470500D01*
X178947Y342700D02*
X198647Y323000D01*
X205500D01*
X339500Y531000D02*
X350274D01*
X361500Y519774D01*
X346500Y518000D02*
X351290Y513210D01*
Y503210D02*
Y513210D01*
X296500Y468000D02*
X301700Y473200D01*
X321200D01*
X147210Y647016D02*
X152127Y642099D01*
X199597D01*
X206986Y634710D01*
X862700Y209861D02*
Y223800D01*
X849500Y237000D02*
X862700Y223800D01*
X817000Y178500D02*
X851000Y212500D01*
X817000Y167000D02*
Y178500D01*
X453000Y274500D02*
Y286500D01*
X148450Y384550D02*
X160000Y373000D01*
X148000Y203500D02*
X160000Y191500D01*
X123500Y203500D02*
X148000D01*
X123500D02*
Y213500D01*
Y223500D01*
Y233500D01*
Y243500D01*
Y153500D02*
X146500Y130500D01*
X149500D01*
X107300Y146700D02*
X147000Y107000D01*
X107300Y146700D02*
Y480800D01*
X113500Y253500D02*
X123500Y243500D01*
X151000Y258000D02*
X160000Y249000D01*
X151000Y258000D02*
Y275500D01*
X158000Y282500D01*
X160000D01*
X158767Y288500D02*
X159500D01*
X139500Y269233D02*
X158767Y288500D01*
X139500Y264500D02*
Y269233D01*
X178947Y342700D02*
Y343553D01*
X168000Y354000D02*
X168500D01*
X178947Y343553D01*
X134500Y322500D02*
Y346400D01*
X134400Y346500D02*
X134500Y346400D01*
X134400Y346500D02*
X160000Y372100D01*
Y373000D01*
X147000Y107000D02*
X454500D01*
X437890Y121890D02*
X448390D01*
X477866Y130366D02*
Y142866D01*
X487000Y152000D01*
X543500D01*
X550000Y119000D02*
X561000Y108000D01*
X550000Y119000D02*
Y145500D01*
X896700Y302800D02*
X910300Y289200D01*
Y269200D02*
X917000Y262500D01*
X910300Y269200D02*
Y289200D01*
Y320751D01*
X915000Y234000D02*
Y234267D01*
X98500Y98500D02*
Y119500D01*
X931500Y98500D02*
Y119500D01*
X98500Y660500D02*
Y681500D01*
Y98500D02*
X119500D01*
X910500D02*
X931500D01*
X98500Y681500D02*
X119500D01*
D31*
X263000Y462000D02*
X263360Y461640D01*
X211360Y455900D02*
X294400D01*
X211940Y454500D02*
X290000D01*
X212520Y453100D02*
X281400D01*
X213100Y451700D02*
X280800D01*
X252880Y457300D02*
X264450Y468870D01*
X252300Y458700D02*
X263050Y469450D01*
X251720Y460100D02*
X261650Y470030D01*
X220358Y447550D02*
X268950D01*
X263360Y461640D02*
X308008D01*
X735808Y205000D02*
X752450Y221642D01*
X598425Y205000D02*
X735808D01*
X596175Y207250D02*
X598425Y205000D01*
X591825Y207250D02*
X596175D01*
X590575Y206000D02*
X591825Y207250D01*
X536308Y206000D02*
X590575D01*
X535348Y205040D02*
X536308Y206000D01*
X780640Y326640D02*
X888381D01*
X754000Y300000D02*
X780640Y326640D01*
X749907Y295907D02*
X754000Y300000D01*
X749907Y276575D02*
Y295907D01*
Y276575D02*
X752450Y274032D01*
Y221642D02*
Y274032D01*
X530412Y205040D02*
X535348D01*
X799000Y319140D02*
X890860D01*
X407950Y616450D02*
X656450D01*
X389960Y598460D02*
X407950Y616450D01*
X407370Y617850D02*
X647850D01*
X389680Y600160D02*
X407370Y617850D01*
X406790Y619250D02*
X639250D01*
X389400Y601860D02*
X406790Y619250D01*
X406210Y620650D02*
X630650D01*
X389120Y603560D02*
X406210Y620650D01*
X388840Y605260D02*
X405630Y622050D01*
X388561Y606960D02*
X405051Y623450D01*
X388281Y608660D02*
X404471Y624850D01*
X388001Y610360D02*
X403891Y626250D01*
X246950Y527530D02*
X250980Y523500D01*
X254500D01*
X158500Y272000D02*
X159000Y271500D01*
X179500D01*
X187100Y263900D01*
X170912Y339500D02*
X176912Y333500D01*
X150500Y343500D02*
X169316D01*
X177500Y335316D01*
X218500Y289720D02*
Y290000D01*
X422500Y244000D02*
X425050Y241450D01*
Y209050D02*
Y241450D01*
X424500Y208500D02*
X425050Y209050D01*
X230500Y216000D02*
X231000D01*
X240860Y206140D01*
X177862Y454382D02*
X193862D01*
X199500Y452000D02*
X209000Y461500D01*
X197970Y448450D02*
X209620Y460100D01*
X198550Y447050D02*
X210200Y458700D01*
X199130Y445650D02*
X210780Y457300D01*
X199460Y444000D02*
X211360Y455900D01*
X200040Y442600D02*
X211940Y454500D01*
X200620Y441200D02*
X212520Y453100D01*
X201200Y439800D02*
X213100Y451700D01*
X196500Y452000D02*
X199500D01*
X195029Y448450D02*
X197970D01*
X189562Y447050D02*
X198550D01*
X185262Y445650D02*
X199130D01*
X188540Y444000D02*
X199460D01*
X192000Y442600D02*
X200040D01*
X192580Y441200D02*
X200620D01*
X193320Y439800D02*
X201200D01*
X444030Y365050D02*
X446970D01*
X457580Y353400D02*
X475339D01*
X449050Y361930D02*
X457580Y353400D01*
X449050Y361930D02*
Y362970D01*
X446970Y365050D02*
X449050Y362970D01*
X308008Y461640D02*
X311148Y458500D01*
X331500D01*
X308008Y464360D02*
X310140Y466492D01*
X274119Y464360D02*
X308008D01*
X270980Y467500D02*
X274119Y464360D01*
X310140Y469000D02*
X311640Y470500D01*
X310140Y466492D02*
Y469000D01*
X551550Y398550D02*
X557198Y404199D01*
X551550Y398530D02*
Y398550D01*
X549470Y396450D02*
X551550Y398530D01*
X549450Y396450D02*
X549470D01*
X391930Y379550D02*
X392000Y379480D01*
Y380000D01*
X160800Y455441D02*
X162509Y457150D01*
X159400Y456021D02*
X161929Y458550D01*
X158000Y456601D02*
X161349Y459950D01*
X156600Y457180D02*
X160770Y461350D01*
X155200Y457760D02*
X160190Y462750D01*
X153800Y458340D02*
X159610Y464150D01*
X152400Y458920D02*
X159030Y465550D01*
X151000Y459500D02*
X158450Y466950D01*
X439000Y356500D02*
X441950Y359450D01*
X359500Y347500D02*
X362550Y350550D01*
X379550D01*
X380000Y351000D01*
X439829Y337000D02*
X443500D01*
X421000Y355830D02*
X439829Y337000D01*
X421000Y355830D02*
Y364500D01*
X441950Y359450D02*
Y362970D01*
X444030Y365050D01*
X445500Y361500D02*
X447500D01*
X457000Y352000D01*
X475339Y353400D02*
X482480Y360541D01*
X480500Y356500D02*
X486500D01*
X476000Y352000D02*
X480500Y356500D01*
X457000Y352000D02*
X476000D01*
X383030Y379550D02*
X391930D01*
X380950Y377470D02*
X383030Y379550D01*
X380950Y376009D02*
Y377470D01*
X375481Y370540D02*
X380950Y376009D01*
X374620Y370540D02*
X375481D01*
X370079Y366000D02*
X374620Y370540D01*
X346500Y366000D02*
X370079D01*
X421000Y364500D02*
X422000Y365500D01*
X211800Y325300D02*
X215700Y329200D01*
X372000Y411480D02*
Y414200D01*
Y411480D02*
X376530Y406950D01*
X377550D01*
X391000Y393500D01*
X386000Y448500D02*
X386500Y448000D01*
X377500Y448500D02*
X386000D01*
X385648Y454000D02*
X391648Y448000D01*
X360500Y454000D02*
X385648D01*
X352000Y462500D02*
X360500Y454000D01*
X341500Y449000D02*
X344750Y445750D01*
Y432116D02*
Y445750D01*
X340140Y427506D02*
X344750Y432116D01*
X340140Y426492D02*
Y427506D01*
X337698Y424050D02*
X340140Y426492D01*
X292642Y424050D02*
X337698D01*
X288442Y428250D02*
X292642Y424050D01*
X288250Y428250D02*
X288442D01*
X268950Y447550D02*
X288250Y428250D01*
X164500Y440000D02*
X166950Y442450D01*
Y443470D01*
X177862Y454382D01*
X293360Y504360D02*
X298008D01*
X268000Y467500D02*
X270980D01*
X264450Y468970D02*
X277119Y481640D01*
X264450Y468870D02*
Y468970D01*
X263050Y469550D02*
X285140Y491640D01*
X263050Y469450D02*
Y469550D01*
X261650Y470130D02*
X285880Y494360D01*
X261650Y470030D02*
Y470130D01*
X277119Y481640D02*
X298008D01*
X285140Y491640D02*
X298008D01*
X285880Y494360D02*
X298008D01*
X391648Y448000D02*
X396500D01*
X219000Y544000D02*
X223650Y548650D01*
X228350Y573500D02*
X265210Y610360D01*
X346508D01*
X346648Y610500D01*
X353352D01*
X353492Y610360D01*
X230000Y538500D02*
X230445D01*
X234850Y542905D01*
X222000Y529000D02*
X222261Y529261D01*
X228609D01*
X238250Y538901D01*
X217500Y524500D02*
X218150Y525150D01*
X226903D01*
X239950Y538197D01*
X214500Y519000D02*
X216150Y520650D01*
X224807D01*
X241650Y537493D01*
X248500Y256000D02*
Y259720D01*
X557903Y402498D02*
X640498D01*
X646685Y408685D01*
X557198Y404199D02*
X578698D01*
X583185Y408685D01*
X584685D01*
X558607Y400799D02*
X699798D01*
X707685Y408685D01*
X559311Y399098D02*
X760099D01*
X769685Y408685D01*
X560015Y397398D02*
X819899D01*
X831185Y408685D01*
X560719Y395698D02*
X879698D01*
X892685Y408685D01*
X500500Y343500D02*
X501055D01*
X504905Y347350D01*
X502000Y443000D02*
X532100D01*
X167500Y498500D02*
X208000Y539000D01*
X167500Y470500D02*
Y498500D01*
X218500Y289720D02*
X248500Y259720D01*
X301648Y508000D02*
X306500D01*
X298008Y504360D02*
X301648Y508000D01*
Y498000D02*
X306500D01*
X298008Y494360D02*
X301648Y498000D01*
X192648Y450832D02*
X195029Y448450D01*
X190800Y450832D02*
X192648D01*
X301648Y488000D02*
X306500D01*
X298008Y491640D02*
X301648Y488000D01*
X185780Y450832D02*
X189562Y447050D01*
X185100Y450832D02*
X185780D01*
X301648Y478000D02*
X306500D01*
X298008Y481640D02*
X301648Y478000D01*
X180080Y450832D02*
X185262Y445650D01*
X179400Y450832D02*
X180080D01*
X186640Y442100D02*
X188540Y444000D01*
X190190Y440790D02*
X192000Y442600D01*
X190190Y440630D02*
Y440790D01*
X188110Y438550D02*
X190190Y440630D01*
X185169Y438550D02*
X188110D01*
X192580Y441040D02*
Y441200D01*
X188690Y437150D02*
X192580Y441040D01*
X183721Y437150D02*
X188690D01*
X175000Y445871D02*
X183721Y437150D01*
X175000Y445871D02*
Y446500D01*
X296500Y428000D02*
Y432852D01*
X292860Y436492D02*
X296500Y432852D01*
X292860Y436492D02*
Y439640D01*
X189270Y435750D02*
X193320Y439800D01*
X183141Y435750D02*
X189270D01*
X176195Y442695D02*
X183141Y435750D01*
X171195Y442695D02*
X176195D01*
X170500Y442000D02*
X171195Y442695D01*
X171000Y477450D02*
X171050Y477400D01*
X171000Y477450D02*
Y495500D01*
X188000Y512500D01*
X226500D01*
X172400Y478500D02*
X172450Y478450D01*
X172400Y478500D02*
Y494920D01*
X188580Y511100D01*
X224400D01*
X227450Y508050D01*
Y504030D02*
Y508050D01*
X173800Y479130D02*
X173850Y479080D01*
X173800Y479130D02*
Y494340D01*
X189160Y509700D01*
X223820D01*
X226050Y507470D01*
Y500030D02*
Y507470D01*
X175200Y479760D02*
X175250Y479710D01*
X175200Y479760D02*
Y493760D01*
X189740Y508300D01*
X221500D01*
X224650Y505150D01*
Y495330D02*
Y505150D01*
X178050Y471530D02*
X191753Y485232D01*
X192200D01*
X179450Y467462D02*
X196988Y485000D01*
X198000D01*
X504905Y347350D02*
X521542D01*
X506500Y343500D02*
X520096D01*
X517000Y326000D02*
Y326555D01*
X308500Y346000D02*
X310961D01*
X312511Y344450D01*
X343609D01*
X345199Y342860D01*
X347801D01*
X356891Y351950D01*
X364642D01*
X375552Y362860D01*
X377801D01*
X379640Y364699D01*
Y367301D01*
X377801Y369140D02*
X379640Y367301D01*
X375199Y369140D02*
X377801D01*
X373360Y367301D02*
X375199Y369140D01*
X373360Y365052D02*
Y367301D01*
X364308Y356000D02*
X373360Y365052D01*
X346500Y356000D02*
X364308D01*
X376500Y216000D02*
Y226000D01*
X323852Y206000D02*
X376500D01*
X310860Y190264D02*
Y193008D01*
X310000Y189404D02*
X310860Y190264D01*
Y193008D02*
X323852Y206000D01*
X186360Y195140D02*
X190500Y199280D01*
Y237500D01*
X171500Y116500D02*
Y157852D01*
X173640Y159992D01*
Y226140D01*
X190500Y243000D01*
Y243500D01*
X240860Y117140D02*
X241500Y116500D01*
X240860Y117140D02*
Y206140D01*
X233400Y226833D02*
X239333D01*
X248500Y236000D01*
X343500Y162780D02*
X353500Y172780D01*
Y202000D01*
X376500Y246000D02*
X377500Y245000D01*
X358020Y201500D02*
X380500D01*
X354900Y198380D02*
X358020Y201500D01*
X343500Y158500D02*
Y162780D01*
X301500Y116500D02*
X343500Y158500D01*
X341500Y116500D02*
Y154520D01*
X344900Y157920D01*
Y162200D01*
X354900Y172200D01*
Y198380D01*
X414500Y140500D02*
Y199000D01*
X400050Y257450D02*
X406970D01*
X411500Y261980D01*
X391500Y266000D02*
X400050Y257450D01*
X411500Y260500D02*
Y261980D01*
X371500Y116500D02*
X393500Y138500D01*
Y198000D01*
X377500Y245000D02*
X392500D01*
X250500Y529000D02*
Y564000D01*
X278500Y592000D01*
X401000D01*
X246950Y527530D02*
Y562450D01*
X277900Y593400D01*
X346500D01*
X346600Y593500D01*
X400520D01*
X353492Y610360D02*
X388001D01*
X497500Y587000D02*
Y587145D01*
X506140Y595785D01*
Y599215D01*
X277420Y594900D02*
X399940D01*
X245550Y563030D02*
X277420Y594900D01*
X245550Y526950D02*
Y563030D01*
Y526950D02*
X252550Y519950D01*
X255970D01*
X258050Y522030D01*
Y524970D01*
X256200Y526821D02*
X258050Y524970D01*
X256200Y526821D02*
Y529200D01*
X502000Y502000D02*
Y532645D01*
X497860Y536785D02*
X502000Y532645D01*
X497860Y536785D02*
Y582339D01*
X507540Y592020D01*
Y599795D01*
X276840Y596300D02*
X398000D01*
X244150Y563610D02*
X276840Y596300D01*
X244150Y526370D02*
Y563610D01*
Y526370D02*
X251970Y518550D01*
X256550D01*
X259450Y521450D01*
Y523950D01*
X262000Y526500D01*
X268027Y603560D02*
X389120D01*
X236550Y539605D02*
Y572083D01*
X268731Y601860D02*
X389400D01*
X238250Y538901D02*
Y571379D01*
X269435Y600160D02*
X389680D01*
X239950Y538197D02*
Y570675D01*
X265914Y608660D02*
X388281D01*
X230050Y549030D02*
Y572796D01*
X266618Y606960D02*
X388561D01*
X267322Y605260D02*
X388840D01*
X234850Y542905D02*
Y572788D01*
X230050Y572796D02*
X265914Y608660D01*
X231750Y572092D02*
X266618Y606960D01*
X234850Y572788D02*
X267322Y605260D01*
X236550Y572083D02*
X268027Y603560D01*
X238250Y571379D02*
X268731Y601860D01*
X239950Y570675D02*
X269435Y600160D01*
X270500Y598460D02*
X389960D01*
X241650Y537493D02*
Y569610D01*
X270500Y598460D01*
X444000Y402000D02*
X457000Y389000D01*
X444000Y402000D02*
Y424500D01*
X401000Y592000D02*
X406500Y597500D01*
X482000D01*
X400520Y593500D02*
X405920Y598900D01*
X440900D01*
X399940Y594900D02*
X405340Y600300D01*
X440320D01*
X398000Y596300D02*
X403400Y601700D01*
X439740D01*
X442540Y604500D01*
X502835D02*
X507540Y599795D01*
X440320Y600300D02*
X443120Y603100D01*
X502255D02*
X506140Y599215D01*
X440900Y598900D02*
X443700Y601700D01*
X497800D02*
X502000Y597500D01*
X453030Y607550D02*
X455970D01*
X456970Y606550D01*
X486556D01*
X491406Y601700D01*
X497800D01*
X452450Y608950D02*
X456550D01*
X457550Y607950D01*
X487136D01*
X491986Y603100D01*
X451870Y610350D02*
X457130D01*
X458130Y609350D01*
X487716D01*
X492566Y604500D01*
X502835D01*
X491986Y603100D02*
X502255D01*
X442540Y604500D02*
X446020D01*
X451870Y610350D01*
X443120Y603100D02*
X446600D01*
X452450Y608950D01*
X443700Y601700D02*
X447180D01*
X453030Y607550D01*
X448400Y612900D02*
X468302D01*
X448000Y612500D02*
X448400Y612900D01*
X522500Y190000D02*
X528860Y196360D01*
Y201508D01*
X530992Y203640D01*
X536140D01*
X890860Y319140D02*
X891500Y318500D01*
X522500Y200000D02*
X525372D01*
X530412Y205040D01*
X888381Y326640D02*
X896520Y318500D01*
X897500D01*
X502000Y538500D02*
X540500Y500000D01*
X532100Y443000D02*
X539100Y436000D01*
X543400Y387996D02*
X557903Y402498D01*
X544800Y386992D02*
X558607Y400799D01*
X546200Y385987D02*
X559311Y399098D01*
X547600Y384983D02*
X560015Y397398D01*
X542000Y389000D02*
X549450Y396450D01*
X521542Y347350D02*
X539100Y364908D01*
Y436000D01*
X520096Y343500D02*
X540500Y363904D01*
Y500000D01*
X516500Y308000D02*
X549000Y340500D01*
Y383979D01*
X560719Y395698D01*
X516500Y314000D02*
X547600Y345100D01*
X517000Y320000D02*
X546200Y349200D01*
X517000Y326555D02*
X544800Y354355D01*
X517000Y332000D02*
X543400Y358400D01*
X517000Y338000D02*
X542000Y363000D01*
Y389000D01*
X543400Y358400D02*
Y387996D01*
X544800Y354355D02*
Y386992D01*
X546200Y349200D02*
Y385987D01*
X547600Y345100D02*
Y384983D01*
X226500Y316000D02*
Y333909D01*
X198610Y355390D02*
X205019D01*
X222000Y320000D02*
Y336429D01*
X198030Y353990D02*
X204439D01*
X217500Y324000D02*
Y338949D01*
X197450Y352590D02*
X203859D01*
X215700Y329200D02*
Y338769D01*
X196870Y351190D02*
X203279D01*
X196291Y349790D02*
X202699D01*
X205019Y355390D02*
X226500Y333909D01*
X204439Y353990D02*
X222000Y336429D01*
X203859Y352590D02*
X217500Y338949D01*
X203279Y351190D02*
X215700Y338769D01*
X202699Y349790D02*
X214300Y338189D01*
X195131Y346990D02*
X201510D01*
X206050Y342450D01*
X210750Y336719D02*
Y339750D01*
X195711Y348390D02*
X202110D01*
X210750Y339750D01*
X194551Y345590D02*
X200910D01*
X202500Y344000D01*
Y340500D02*
Y344000D01*
X212000Y331000D02*
X214300Y333300D01*
Y338189D01*
X203550Y334800D02*
X206050Y337300D01*
Y342450D01*
X280800Y451700D02*
X292860Y439640D01*
X281400Y453100D02*
X296500Y438000D01*
X290000Y454500D02*
X296500Y448000D01*
X294400Y455900D02*
X296500Y458000D01*
X225000Y544500D02*
X225520D01*
X230050Y549030D01*
X226842Y548650D02*
X228350Y550158D01*
X223650Y548650D02*
X226842D01*
X228350Y550158D02*
Y573500D01*
X231000Y544500D02*
Y545500D01*
X231750Y546250D01*
Y572092D01*
X226904Y533111D02*
X230055D01*
X236550Y539605D01*
X403891Y626250D02*
X596250D01*
X639500Y669500D01*
X404471Y624850D02*
X604850D01*
X649500Y669500D01*
X405051Y623450D02*
X613450D01*
X659500Y669500D01*
X405630Y622050D02*
X622050D01*
X669500Y669500D01*
X630650Y620650D02*
X679500Y669500D01*
X639250Y619250D02*
X689500Y669500D01*
X647850Y617850D02*
X699500Y669500D01*
X656450Y616450D02*
X709500Y669500D01*
X193862Y454382D02*
X198479Y459000D01*
X200792D01*
X181185Y442534D02*
X185169Y438550D01*
X181185Y442534D02*
Y444706D01*
X177000Y475500D02*
X186500Y485000D01*
X176650Y475500D02*
X177000D01*
X158450Y466950D02*
X168971D01*
X171050Y469030D01*
Y477400D01*
X159030Y465550D02*
X169550D01*
X172450Y468450D01*
Y478450D01*
X159610Y464150D02*
X170130D01*
X173850Y467870D01*
Y479080D01*
X160190Y462750D02*
X170710D01*
X175250Y467290D01*
Y479710D01*
X162509Y457150D02*
X173150D01*
X196500Y480500D01*
X202000D01*
X161929Y458550D02*
X172570D01*
X179450Y465430D01*
Y467462D01*
X161349Y459950D02*
X171990D01*
X178050Y466010D01*
X160770Y461350D02*
X171410D01*
X176650Y466590D01*
X178050Y466010D02*
Y471530D01*
X176650Y466590D02*
Y475500D01*
X250500Y461500D02*
X293360Y504360D01*
X209000Y461500D02*
X250500D01*
X209620Y460100D02*
X251720D01*
X210200Y458700D02*
X252300D01*
X210780Y457300D02*
X252880D01*
X164500Y430500D02*
X203308D01*
X220358Y447550D01*
X226500Y512500D02*
X234000Y505000D01*
X235000D01*
X232480Y499000D02*
X235500D01*
X227450Y504030D02*
X232480Y499000D01*
X226050Y500030D02*
X233080Y493000D01*
X235500D01*
X232980Y487000D02*
X234000D01*
X224650Y495330D02*
X232980Y487000D01*
X145600Y343380D02*
Y346661D01*
X160800Y393200D02*
X198610Y355390D01*
X160800Y393200D02*
Y455441D01*
X159400Y392620D02*
Y456021D01*
Y392620D02*
X198030Y353990D01*
X158000Y392040D02*
X197450Y352590D01*
X158000Y392040D02*
Y456601D01*
X156600Y391460D02*
Y457180D01*
Y391460D02*
X196870Y351190D01*
X155200Y390880D02*
X196291Y349790D01*
X155200Y390880D02*
Y457760D01*
X153800Y390301D02*
Y458340D01*
Y390301D02*
X195711Y348390D01*
X152400Y389721D02*
X195131Y346990D01*
X152400Y389721D02*
Y458920D01*
X151000Y389141D02*
Y459500D01*
Y389141D02*
X194551Y345590D01*
X149479Y339500D02*
X170912D01*
X145600Y343380D02*
X149479Y339500D01*
X126640Y319360D02*
X140000Y306000D01*
X121785Y319360D02*
X126640D01*
X119360Y321785D02*
X121785Y319360D01*
X119360Y321785D02*
Y326640D01*
X113500Y332500D02*
X119360Y326640D01*
X113500Y332500D02*
Y333500D01*
Y323500D02*
X119040Y317960D01*
X124895D01*
X127640Y315215D01*
Y309860D02*
Y315215D01*
Y309860D02*
X135500Y302000D01*
X127640Y303860D02*
X135500Y296000D01*
X127640Y303860D02*
Y305215D01*
X123495Y309360D02*
X127640Y305215D01*
X121785Y309360D02*
X123495D01*
X117645Y313500D02*
X121785Y309360D01*
X113500Y313500D02*
X117645D01*
X113500Y303500D02*
X117645D01*
X123505Y297640D01*
X125215D01*
X130405Y292450D01*
X136970D01*
X139420Y294900D01*
X141200D01*
X117640Y289360D02*
X134640D01*
X113500Y293500D02*
X117640Y289360D01*
X134640D02*
X135500Y288500D01*
X113500Y283500D02*
X117640Y287640D01*
X125215D01*
X139550Y284950D02*
X140000Y284500D01*
X125215Y287640D02*
X127905Y284950D01*
X139550D01*
X126355Y280500D02*
X135500D01*
X125215Y279360D02*
X126355Y280500D01*
X119360Y279360D02*
X125215D01*
X113500Y273500D02*
X119360Y279360D01*
X113500Y263500D02*
X118500Y268500D01*
Y275000D01*
X121460Y277960D01*
X132040D01*
X135500Y274500D01*
X113500Y203500D02*
Y207645D01*
X118500Y212645D01*
X114500Y364500D02*
X118500Y360500D01*
X114500Y364500D02*
Y369000D01*
X118500Y212645D02*
Y239000D01*
X186360Y135000D02*
Y195140D01*
D32*
X856000Y210500D02*
X861500Y205000D01*
X856000Y210500D02*
Y217000D01*
X859500Y205000D02*
X861500D01*
X892500Y307500D02*
X901500D01*
X862000Y250000D02*
X870500Y258500D01*
X825500Y250000D02*
X862000D01*
X788500Y287500D02*
Y296528D01*
X804500Y312528D01*
Y314500D01*
D33*
X862500Y200500D02*
X870500Y208500D01*
X862500Y200500D02*
X863675D01*
X579950Y207550D02*
X589933D01*
X567500Y220000D02*
X579950Y207550D01*
X532500Y220000D02*
X567500D01*
X221000Y446000D02*
X268308D01*
X786767Y367500D02*
X818467Y335800D01*
X627300Y367500D02*
X786767D01*
X576000Y316200D02*
X627300Y367500D01*
X746000Y343000D02*
Y358000D01*
X891433Y335800D02*
X907200Y320033D01*
X818467Y335800D02*
X891433D01*
X779998Y328190D02*
X893043D01*
X756051Y304243D02*
X779998Y328190D01*
X752243Y304243D02*
X756051D01*
X748357Y300357D02*
X752243Y304243D01*
X748357Y275933D02*
Y300357D01*
Y275933D02*
X750900Y273390D01*
Y222284D02*
Y273390D01*
X735166Y206550D02*
X750900Y222284D01*
X599067Y206550D02*
X735166D01*
X596817Y208800D02*
X599067Y206550D01*
X591183Y208800D02*
X596817D01*
X589933Y207550D02*
X591183Y208800D01*
X736450Y203450D02*
X754000Y221000D01*
X595533Y205700D02*
X597783Y203450D01*
X736450D01*
X590407Y203640D02*
X592467Y205700D01*
X595533D01*
X759860Y280000D02*
X799000Y319140D01*
X754000Y280000D02*
X759860D01*
X754000Y221000D02*
Y280000D01*
X536140Y203640D02*
X590407D01*
X780000Y235500D02*
Y250500D01*
X792500Y263000D01*
Y270500D01*
X776200Y110700D02*
X782000Y116500D01*
X325000Y614000D02*
X342200Y631200D01*
X358800Y627800D02*
X587800D01*
X345000Y614000D02*
X358800Y627800D01*
X335000Y614000D02*
X350500Y629500D01*
X416200Y441567D02*
X427467Y430300D01*
X446700D01*
X506937Y434467D02*
X520200Y421204D01*
X433765Y434467D02*
X506937D01*
X428700Y439533D02*
X433765Y434467D01*
X506233Y432767D02*
X518500Y420500D01*
X429000Y432767D02*
X506233D01*
X906800Y206433D02*
Y220800D01*
Y206433D02*
X910700Y202533D01*
X290761Y215094D02*
Y226200D01*
X285500Y209833D02*
X290761Y215094D01*
X285500Y209500D02*
Y209833D01*
X226500Y196500D02*
X230000Y200000D01*
X215000Y196500D02*
X226500D01*
X210000Y191500D02*
X215000Y196500D01*
X355853Y241300D02*
X369204D01*
X347863Y249290D02*
X355853Y241300D01*
X356557Y243000D02*
X368500D01*
X348567Y250990D02*
X356557Y243000D01*
X375847Y250000D02*
X444904D01*
X373210Y247363D02*
X375847Y250000D01*
X371510Y251010D02*
X376500Y256000D01*
X309863Y269290D02*
X314318Y264834D01*
Y264410D02*
Y264834D01*
X310567Y270990D02*
X322257Y259300D01*
X311271Y272690D02*
X322961Y261000D01*
X311710Y282710D02*
X316500Y287500D01*
X300930Y282710D02*
X311710D01*
X298040Y285600D02*
X300930Y282710D01*
X312596Y286000D02*
X315796Y289200D01*
X308500Y286000D02*
X312596D01*
X299000Y314500D02*
X305210Y320710D01*
X315490Y233105D02*
X315490Y233105D01*
X315490Y232990D02*
Y233105D01*
X308500Y226000D02*
X315490Y232990D01*
X255678Y244900D02*
X304947D01*
X250996Y240900D02*
X254396Y244300D01*
X255078D02*
X255678Y244900D01*
X254396Y244300D02*
X255078D01*
X248500Y246000D02*
X254373D01*
X254973Y246600D01*
X311221Y241010D02*
X314110Y243900D01*
X306433Y241010D02*
X311221D01*
X304243Y243200D02*
X306433Y241010D01*
X256382Y243200D02*
X304243D01*
X317842Y249290D02*
X318032Y249100D01*
X307137Y249290D02*
X317842D01*
X312802Y247400D02*
X337660D01*
X311402Y246000D02*
X312802Y247400D01*
X315216Y245700D02*
X336956D01*
X315116Y245600D02*
X315216Y245700D01*
X313406Y245600D02*
X315116D01*
X310516Y242710D02*
X313406Y245600D01*
X307137Y242710D02*
X310516D01*
X304947Y244900D02*
X307137Y242710D01*
X308500Y246000D02*
X311402D01*
X254973Y246600D02*
X304447D01*
X193500Y265600D02*
X209113D01*
X193500D02*
Y268000D01*
X181296Y262200D02*
X207704D01*
X182000Y260500D02*
X207000D01*
X187100Y263900D02*
X208408D01*
X222200Y288212D02*
Y299053D01*
X223900Y288916D02*
Y299757D01*
X222200Y288212D02*
X241122Y269290D01*
X223900Y288916D02*
X239158Y273658D01*
X416200Y441567D02*
Y504608D01*
X385804Y532600D02*
X414500Y503904D01*
X386508Y534300D02*
X416200Y504608D01*
X343204Y575200D02*
X382600Y535804D01*
X345000Y575808D02*
X384300Y536508D01*
X345000Y575808D02*
Y584000D01*
X778232Y202000D02*
Y223051D01*
Y135000D02*
Y202000D01*
X774500D02*
X778232D01*
X355000Y264500D02*
X355500D01*
X346500Y256000D02*
X355000Y264500D01*
X409500Y580500D02*
Y584000D01*
X399500Y570500D02*
X409500Y580500D01*
X406446Y595254D02*
X469746D01*
X425000Y196000D02*
X429243Y200243D01*
X450257D01*
X453500Y197000D01*
Y193500D02*
Y197000D01*
Y193500D02*
X461510Y185490D01*
X482370D01*
X487860Y180000D01*
X492500D01*
X425000Y186000D02*
X429500Y190500D01*
X450000D01*
X456710Y183790D01*
X474070D01*
X477860Y180000D01*
X482500D01*
X429200Y180200D02*
X472500D01*
X425000Y176000D02*
X429200Y180200D01*
X472500Y180000D02*
Y180200D01*
X471860Y196000D02*
X477860Y190000D01*
X461140Y196000D02*
X471860D01*
X458710Y198430D02*
X461140Y196000D01*
X392500Y230000D02*
X421000D01*
X421500Y230500D01*
X382500Y220000D02*
X392500Y230000D01*
X565500Y200000D02*
X578500Y187000D01*
X532500Y200000D02*
X565500D01*
X486700Y371200D02*
X522500Y407000D01*
X467028Y371200D02*
X486700D01*
X461828Y366000D02*
X467028Y371200D01*
X459000Y366000D02*
X461828D01*
X487404Y369500D02*
X513404Y395500D01*
X467733Y369500D02*
X487404D01*
X460533Y362300D02*
X467733Y369500D01*
X356500Y508000D02*
Y512500D01*
X350290Y518710D02*
X356500Y512500D01*
X330500Y470500D02*
X346500Y454500D01*
X311640Y470500D02*
X330500D01*
X330290Y473210D02*
X351533Y451967D01*
X332710Y473194D02*
X353233Y452672D01*
X334500Y473808D02*
X354933Y453376D01*
X351533Y438200D02*
Y451967D01*
X353233Y438904D02*
Y452672D01*
X354933Y439608D02*
Y453376D01*
X346500Y436233D02*
Y454500D01*
X532500Y230000D02*
X543300Y240800D01*
Y302500D01*
X551000Y320500D02*
Y321000D01*
X573500Y343500D01*
Y384700D01*
X548000Y412500D02*
X552000Y416500D01*
X548000Y400000D02*
Y412500D01*
X547000Y287000D02*
Y309500D01*
Y287000D02*
X548000Y286000D01*
X514500Y411000D02*
Y412500D01*
X500500Y397000D02*
X514500Y411000D01*
X500500Y392000D02*
Y397000D01*
X520200Y414533D02*
X526200Y408533D01*
X520200Y414533D02*
Y421204D01*
X518500Y408233D02*
Y420500D01*
X516739Y406471D02*
X518500Y408233D01*
X510500Y369000D02*
Y379500D01*
X502500Y361000D02*
X510500Y369000D01*
X494454Y345954D02*
X511000Y362500D01*
X465454Y345954D02*
X494454D01*
X425500Y322000D02*
X438500Y309000D01*
Y260000D02*
Y309000D01*
X363290Y194290D02*
X366500Y197500D01*
X363290Y189930D02*
Y194290D01*
X356450Y183090D02*
X363290Y189930D01*
X356450Y171558D02*
Y183090D01*
X349500Y164608D02*
X356450Y171558D01*
X349500Y161500D02*
Y164608D01*
X384000Y198500D02*
X386000D01*
X378033Y209700D02*
X384933Y202800D01*
X457296D01*
X378737Y211400D02*
X385637Y204500D01*
X458000D01*
X380790Y195290D02*
X384000Y198500D01*
X374967Y209700D02*
X378033D01*
X374263Y211400D02*
X378737D01*
X393500Y374000D02*
X396800Y370700D01*
Y359300D02*
Y370700D01*
X387000Y349500D02*
X396800Y359300D01*
X402500Y355308D02*
Y379541D01*
X389467Y389800D02*
X392241D01*
X400500Y354904D02*
Y379137D01*
X388763Y388100D02*
X391537D01*
X398500Y354500D02*
Y378733D01*
X388059Y386400D02*
X390833D01*
X398500Y378733D01*
X391537Y388100D02*
X400500Y379137D01*
X392241Y389800D02*
X402500Y379541D01*
X475900Y261960D02*
Y281908D01*
X474200Y258300D02*
Y281204D01*
X442637Y332000D02*
X449500D01*
X416200Y358437D02*
X442637Y332000D01*
X416200Y358437D02*
Y391300D01*
X414500Y357733D02*
Y396500D01*
X410500Y356925D02*
X512500Y254925D01*
X410500Y356925D02*
Y408243D01*
X408500Y356521D02*
X508710Y256311D01*
X408500Y356521D02*
Y407414D01*
X406500Y356117D02*
X506290Y256327D01*
X406500Y356117D02*
Y406586D01*
X404500Y355713D02*
Y405757D01*
X402500Y355308D02*
X475900Y281908D01*
X400500Y354904D02*
X474200Y281204D01*
X472500Y250000D02*
Y280500D01*
X398500Y354500D02*
X472500Y280500D01*
X387000Y333233D02*
X392200Y328033D01*
X387000Y333233D02*
Y349500D01*
X392200Y324967D02*
Y328033D01*
X390200Y322967D02*
X392200Y324967D01*
X390200Y288300D02*
Y322967D01*
Y288300D02*
X394500Y284000D01*
X393500Y283000D02*
X394500Y284000D01*
X386500Y423757D02*
X404500Y405757D01*
X390290Y422796D02*
X406500Y406586D01*
X396500Y419414D02*
X408500Y407414D01*
X366500Y414808D02*
X368300Y413008D01*
X366500Y414808D02*
Y418000D01*
X375567Y405400D02*
X376908D01*
X368300Y412667D02*
X375567Y405400D01*
X374863Y403700D02*
X376204D01*
X366600Y411963D02*
X374863Y403700D01*
X364759Y411400D02*
X374159Y402000D01*
X363100Y411400D02*
X364759D01*
X374159Y402000D02*
X375500D01*
X383900Y390559D02*
X388059Y386400D01*
X383900Y390559D02*
Y393600D01*
X375500Y402000D02*
X383900Y393600D01*
X385600Y391263D02*
X388763Y388100D01*
X385600Y391263D02*
Y394304D01*
X376204Y403700D02*
X385600Y394304D01*
X366600Y411963D02*
Y412304D01*
X365804Y413100D02*
X366600Y412304D01*
X387300Y391967D02*
X389467Y389800D01*
X387300Y391967D02*
Y395008D01*
X376908Y405400D02*
X387300Y395008D01*
X368300Y412667D02*
Y413008D01*
X364228Y413100D02*
X365804D01*
X360290Y417038D02*
X364228Y413100D01*
X384500Y284000D02*
Y376000D01*
X574000Y390500D02*
X574500D01*
X590000Y375000D01*
X593500Y241000D02*
Y255500D01*
Y241000D02*
X623500Y211000D01*
X287800Y426700D02*
X292000Y422500D01*
X287608Y426700D02*
X287800D01*
X268308Y446000D02*
X287608Y426700D01*
X292000Y422500D02*
X346360D01*
X350290Y426430D01*
X346300Y428200D02*
Y436033D01*
Y428200D02*
X346500Y428000D01*
X346300Y436033D02*
X346500Y436233D01*
X354933Y439608D02*
X357100Y437441D01*
X334500Y473808D02*
Y496000D01*
X353233Y438904D02*
X355400Y436737D01*
X870500Y208500D02*
Y232000D01*
X862000Y240500D02*
X870500Y232000D01*
X810000Y243500D02*
X810700Y244200D01*
X863533D01*
X867733Y240000D01*
X868000D01*
X822700Y261200D02*
X849500Y288000D01*
X813978Y261200D02*
X822700D01*
X776532Y223755D02*
X813978Y261200D01*
X776532Y215032D02*
Y223755D01*
X767996Y206496D02*
X776532Y215032D01*
X823404Y259500D02*
X825404Y261500D01*
X814682Y259500D02*
X823404D01*
X778232Y223051D02*
X814682Y259500D01*
X410500Y644500D02*
X421500D01*
X403000Y652000D02*
X410500Y644500D01*
X207500Y646500D02*
Y669000D01*
X220500Y645000D02*
X376000D01*
X218000Y647500D02*
X220500Y645000D01*
X307137Y339290D02*
X309863D01*
X313153Y336000D01*
X346500D01*
X309863Y329290D02*
X313153Y326000D01*
X346500D01*
X307137Y319290D02*
X309863D01*
X313153Y316000D01*
X346500D01*
X303847Y306000D02*
X307137Y309290D01*
X309290D01*
X309500Y309500D01*
X309710Y309290D01*
X309863D01*
X313153Y306000D01*
X346500D01*
X307137Y299290D02*
X309863D01*
X313153Y296000D01*
X346500D01*
X303847Y286000D02*
X307137Y289290D01*
X351153Y336000D02*
X376500D01*
X347863Y332710D02*
X351153Y336000D01*
X313614Y332710D02*
X347863D01*
X310324Y336000D02*
X313614Y332710D01*
X308500Y336000D02*
X310324D01*
X351153Y326000D02*
X376500D01*
X347863Y322710D02*
X351153Y326000D01*
X313614Y322710D02*
X347863D01*
X310324Y326000D02*
X313614Y322710D01*
X308500Y326000D02*
X310324D01*
X351153Y316000D02*
X376500D01*
X347863Y312710D02*
X351153Y316000D01*
X313614Y312710D02*
X347863D01*
X310324Y316000D02*
X313614Y312710D01*
X308500Y316000D02*
X310324D01*
X351153Y306000D02*
X376500D01*
X347863Y302710D02*
X351153Y306000D01*
X313614Y302710D02*
X347863D01*
X310324Y306000D02*
X313614Y302710D01*
X308500Y306000D02*
X310324D01*
X351153Y296000D02*
X376500D01*
X347863Y292710D02*
X351153Y296000D01*
X313614Y292710D02*
X347863D01*
X310324Y296000D02*
X313614Y292710D01*
X308500Y296000D02*
X310324D01*
X351153Y286000D02*
X376500D01*
X347863Y282710D02*
X351153Y286000D01*
X305210Y257363D02*
X307137Y259290D01*
X308500Y256000D02*
X310324D01*
X313153Y346000D02*
X346500D01*
X309863Y349290D02*
X313153Y346000D01*
X307137Y352710D02*
X309863D01*
X311653Y354500D01*
X343347D02*
X345137Y352710D01*
X347863D01*
X348653Y353500D01*
X364000D01*
X376500Y366000D01*
X873000Y127500D02*
Y165500D01*
X867500Y122000D02*
X873000Y127500D01*
X356500Y423757D02*
X360290Y419967D01*
X356500Y423757D02*
Y428000D01*
X486290Y246210D02*
X492500Y240000D01*
X486290Y246210D02*
Y251570D01*
X386500Y423757D02*
Y428000D01*
X506290Y246210D02*
X512500Y240000D01*
X390290Y422796D02*
Y429967D01*
X386500Y433757D02*
X390290Y429967D01*
X386500Y433757D02*
Y438000D01*
X516290Y236210D02*
X522500Y230000D01*
X516290Y236210D02*
Y241570D01*
X511650Y246210D02*
X516290Y241570D01*
X510930Y246210D02*
X511650D01*
X508710Y248430D02*
X510930Y246210D01*
X396500Y419414D02*
Y428000D01*
Y433360D02*
Y438000D01*
Y433360D02*
X400290Y429570D01*
Y418453D02*
Y429570D01*
Y418453D02*
X410500Y408243D01*
X522500Y240000D02*
Y244485D01*
X516290Y250695D02*
X522500Y244485D01*
X532500Y220000D02*
Y224640D01*
X528710Y228430D02*
X532500Y224640D01*
X528710Y228430D02*
Y229290D01*
X526290Y231710D02*
X528710Y229290D01*
X526290Y231710D02*
Y251570D01*
X522070Y255790D02*
X526290Y251570D01*
X496500Y341843D02*
Y345157D01*
X851957Y186896D02*
X894396D01*
X477860Y190000D02*
X482500D01*
X467860Y230000D02*
X472500D01*
X467860Y240000D02*
X472500D01*
X464070Y243790D02*
X467860Y240000D01*
X455923Y243790D02*
X464070D01*
X219543Y301710D02*
X222200Y299053D01*
X208702Y301710D02*
X219543D01*
X176912Y333500D02*
X208702Y301710D01*
X477860Y240000D02*
X482500D01*
X472370Y245490D02*
X477860Y240000D01*
X240106Y273658D02*
X242774Y270990D01*
X239158Y273658D02*
X240106D01*
X220247Y303410D02*
X223900Y299757D01*
X209406Y303410D02*
X220247D01*
X177500Y335316D02*
X209406Y303410D01*
X309000Y186000D02*
X314500Y191500D01*
X271500Y116500D02*
X277110Y122110D01*
X298290Y162290D02*
X307300Y171300D01*
Y186704D01*
X310000Y189404D01*
X261500Y116500D02*
Y128000D01*
X279500Y146000D01*
Y186500D01*
X284500Y191500D01*
X251500Y116500D02*
Y125500D01*
X274500Y148500D01*
Y161500D01*
X221500Y116500D02*
Y133682D01*
X216210Y138972D02*
X221500Y133682D01*
X216210Y138972D02*
Y165290D01*
X220000Y169080D01*
Y191500D01*
X211500Y116500D02*
Y140000D01*
X210000Y141500D02*
X211500Y140000D01*
X210000Y141500D02*
Y161500D01*
X191500Y116500D02*
Y157640D01*
X193790Y159930D01*
Y187710D01*
X190000Y191500D02*
X193790Y187710D01*
X181500Y116500D02*
Y119000D01*
X180000Y120500D02*
X181500Y119000D01*
X180000Y120500D02*
Y161500D01*
X146966Y157710D02*
X153034D01*
X156824Y161500D01*
X160000D01*
X322500Y159000D02*
X337000D01*
X339500Y161500D01*
X248500Y366000D02*
X303847D01*
X307137Y369290D01*
X309863D01*
X311790Y367363D01*
Y367210D02*
Y367363D01*
Y367210D02*
X313000Y366000D01*
X346500D01*
X318140Y501000D02*
X319000D01*
X312710Y506430D02*
X318140Y501000D01*
X418200Y424105D02*
Y429200D01*
Y424105D02*
X420505Y421800D01*
X360290Y426710D02*
Y429570D01*
Y426710D02*
X365210Y421790D01*
X368070D01*
X371860Y418000D01*
X376500D01*
X364264Y428000D02*
X366500D01*
X496500Y345157D02*
X506343Y355000D01*
X523500D01*
X510500Y305000D02*
Y327843D01*
X496500Y341843D02*
X510500Y327843D01*
X376500Y276000D02*
X384500Y284000D01*
X453000Y366000D02*
X453767D01*
X457467Y362300D01*
X460533D01*
X513404Y395500D02*
X527000D01*
X527500Y396000D01*
X399769Y445909D02*
X408800D01*
X398070Y444210D02*
X399769Y445909D01*
X390290Y444210D02*
X398070D01*
X386500Y448000D02*
X390290Y444210D01*
X526200Y404698D02*
X527230Y403669D01*
X526200Y404698D02*
Y408533D01*
X428700Y439533D02*
Y439700D01*
X405191Y448000D02*
X408800Y451609D01*
X396500Y448000D02*
X405191D01*
X230000Y200000D02*
Y205500D01*
X458710Y198430D02*
Y201386D01*
X458000Y204500D02*
X462500Y200000D01*
X457296Y202800D02*
X458710Y201386D01*
X318460Y202800D02*
X323210Y207550D01*
X372817D01*
X374967Y209700D01*
X317756Y204500D02*
X322506Y209250D01*
X372113D01*
X374263Y211400D01*
X250500Y204500D02*
X317756D01*
X249796Y202800D02*
X318460D01*
X228000Y224596D02*
X249796Y202800D01*
X228000Y224596D02*
Y239500D01*
X207000Y260500D02*
X228000Y239500D01*
X229700Y225300D02*
Y240204D01*
Y225300D02*
X250500Y204500D01*
X207704Y262200D02*
X229700Y240204D01*
X209113Y265600D02*
X223723Y250990D01*
X251106D01*
X304447Y246600D02*
X307137Y249290D01*
X305210Y252171D02*
Y257363D01*
X208408Y263900D02*
X231408Y240900D01*
X248500Y236000D02*
X252500Y240000D01*
X231408Y240900D02*
X250996D01*
X248500Y266000D02*
X263000Y280500D01*
X295927D01*
X241122Y269290D02*
X249386D01*
X262296Y282200D01*
X296631D01*
X242774Y270990D02*
X248682D01*
X261592Y283900D01*
X297336D01*
X248500Y276000D02*
X251288D01*
X260888Y285600D01*
X298040D01*
X248500Y286000D02*
X258883D01*
X260183Y287300D01*
X298744D01*
X300044Y286000D01*
X303847D01*
X297336Y283900D02*
X305210Y276026D01*
Y274637D02*
Y276026D01*
X296631Y282200D02*
X303510Y275321D01*
X295927Y280500D02*
X301810Y274617D01*
X248500Y346000D02*
X256096D01*
X248500Y336000D02*
X263000Y350500D01*
X256096Y346000D02*
X262296Y352200D01*
X248500Y316000D02*
X249200Y315300D01*
X248500Y306000D02*
X256096D01*
X302831D02*
X303847D01*
X248500Y326000D02*
X260000Y314500D01*
X249200Y315300D02*
X256796D01*
X259296Y312800D01*
X256096Y306000D02*
X261196Y311100D01*
X248500Y296000D02*
X261900Y309400D01*
X260000Y314500D02*
X299000D01*
X297731Y311100D02*
X302831Y306000D01*
X305210Y320710D02*
Y327363D01*
X307137Y329290D01*
X309863D01*
X297027Y309400D02*
X307137Y299290D01*
X259296Y312800D02*
X300647D01*
X307137Y319290D01*
X261196Y311100D02*
X297731D01*
X261900Y309400D02*
X297027D01*
X303039Y250000D02*
X305210Y252171D01*
X252500Y240000D02*
X253182D01*
X256382Y243200D01*
X251106Y250990D02*
X254032Y248063D01*
X254032D01*
X254269Y248300D01*
X248500Y256000D02*
X254500Y250000D01*
X254269Y248300D02*
X303743D01*
X254500Y250000D02*
X303039D01*
X259500Y210000D02*
X276500Y227000D01*
Y235500D01*
Y256500D02*
Y276500D01*
X267000Y210000D02*
X278500Y221500D01*
Y229000D01*
X280500Y231000D01*
X163790Y185290D02*
X170000Y191500D01*
X163790Y159930D02*
Y185290D01*
X155070Y151210D02*
X163790Y159930D01*
X189241Y395168D02*
X223668D01*
X234500Y406000D01*
X254500Y161500D02*
Y186140D01*
X258290Y189930D01*
Y197290D01*
X259000Y198000D01*
Y199000D01*
X273000Y209500D02*
X284200Y220700D01*
Y235361D01*
X283761Y235800D02*
X284200Y235361D01*
X282200Y256950D02*
Y276800D01*
X303847Y356000D02*
X307137Y352710D01*
X295927Y350500D02*
X307137Y339290D01*
X248500Y356000D02*
X303847D01*
X262296Y352200D02*
X296631D01*
X263000Y350500D02*
X295927D01*
X282000Y328000D02*
Y342500D01*
X264500Y161500D02*
Y186140D01*
X260710Y189930D02*
X264500Y186140D01*
X260710Y189930D02*
Y193245D01*
X264755Y197290D01*
X279000Y209500D02*
X286000Y216500D01*
Y229500D01*
X288000Y231500D01*
Y256500D02*
Y276500D01*
X268500Y259250D02*
X270800Y256950D01*
X268500Y259250D02*
Y276500D01*
X294000Y254000D02*
Y276000D01*
X269000Y291000D02*
X286000D01*
X270800Y196835D02*
X276835D01*
X279000Y199000D01*
X280500D01*
X344251Y236000D02*
X346500D01*
X310324Y256000D02*
X313124Y253200D01*
X303743Y248300D02*
X306943Y251500D01*
X339060Y256000D02*
X346500D01*
X336251Y244000D02*
X344251Y236000D01*
X307137Y259290D02*
X309863D01*
X313153Y256000D01*
X306943Y251500D02*
X318036D01*
X318736Y250800D01*
X313124Y253200D02*
X318740D01*
X308500Y266000D02*
X310324D01*
X313614Y262710D01*
X314039D01*
X314318Y264410D02*
X314743D01*
X305210Y274637D02*
X307157Y272690D01*
X311271D01*
X305606Y270990D02*
X310567D01*
X301810Y272382D02*
X304902Y269290D01*
X309863D01*
X313153Y256000D02*
X318344D01*
X303510Y273086D02*
X305606Y270990D01*
X301810Y272382D02*
Y274617D01*
X303510Y273086D02*
Y275321D01*
X322961Y261000D02*
X334443D01*
X322257Y259300D02*
X335147D01*
X314743Y264410D02*
X321553Y257600D01*
X335851D01*
X314039Y262710D02*
X320849Y255900D01*
X336556D01*
X343366Y262710D01*
X318344Y256000D02*
X320144Y254200D01*
X337260D01*
X339060Y256000D01*
X318740Y253200D02*
X319440Y252500D01*
X337964D01*
X338664Y253200D01*
X339072D01*
X339562Y252710D01*
X318736Y250800D02*
X338668D01*
X338858Y250990D01*
X318032Y249100D02*
X338364D01*
X341464Y246000D01*
X346500D01*
X337660Y247400D02*
X342350Y242710D01*
X315920Y244000D02*
X336251D01*
X316624Y242300D02*
X335547D01*
X308500Y236000D02*
X308615D01*
X314815Y242200D01*
X316524D01*
X316624Y242300D01*
X314110Y243900D02*
X315820D01*
X315920Y244000D01*
X335547Y242300D02*
X345137Y232710D01*
X347863D01*
X343210Y224637D02*
Y225472D01*
Y224637D02*
X345137Y222710D01*
X347863D01*
X349790Y224637D01*
X332182Y236500D02*
X343210Y225472D01*
X315490Y233105D02*
Y235239D01*
X316751Y236500D01*
X332182D01*
X335704Y289200D02*
X342194Y282710D01*
X347863D01*
X336408Y290900D02*
X341308Y286000D01*
X346500D01*
X316500Y287500D02*
X335000D01*
X313482Y289290D02*
X315092Y290900D01*
X315796Y289200D02*
X335704D01*
X307137Y289290D02*
X313482D01*
X315092Y290900D02*
X336408D01*
X291200Y210300D02*
X297453D01*
X319190Y232037D01*
Y232800D01*
X311653Y354500D02*
X331000D01*
X343347D01*
X302500Y210000D02*
X319000Y226500D01*
X319500D01*
X308200Y210300D02*
X308533D01*
X324500Y226267D01*
Y227500D01*
X325500Y228500D01*
X314500Y210000D02*
X329200Y224700D01*
Y231700D01*
X330000Y232500D01*
X277110Y122110D02*
Y127514D01*
X281500Y116500D02*
Y129500D01*
X298290Y148694D02*
Y162290D01*
X277110Y127514D02*
X298290Y148694D01*
X304500Y152500D02*
Y161500D01*
X281500Y129500D02*
X304500Y152500D01*
X309000Y151000D02*
Y186000D01*
X291500Y116500D02*
Y133500D01*
X309000Y151000D01*
X349790Y224637D02*
Y232233D01*
X336956Y245700D02*
X341666Y240990D01*
X339562Y252710D02*
X341290D01*
X338858Y250990D02*
X340606D01*
X341290Y252710D02*
X343010Y250990D01*
X348567D01*
X340606D02*
X342306Y249290D01*
X347863D01*
X342350Y242710D02*
X346847D01*
X349957Y239600D01*
X341666Y240990D02*
X346163D01*
X349253Y237900D01*
X349790Y232233D02*
X352057Y234500D01*
X347863Y232710D02*
X351353Y236200D01*
X369908Y239600D02*
X376308Y246000D01*
X376500D01*
X369204Y241300D02*
X373210Y245306D01*
X368500Y243000D02*
X371510Y246010D01*
X349957Y239600D02*
X369908D01*
X349253Y237900D02*
X370613D01*
X351353Y236200D02*
X371317D01*
X339500Y219000D02*
X353000D01*
X364500Y230500D01*
X366000D01*
X374890Y267610D02*
X376500Y266000D01*
X335000Y287500D02*
X346500Y276000D01*
X335851Y257600D02*
X344251Y266000D01*
X346500D01*
X343366Y262710D02*
X347863D01*
X359153Y274000D01*
X373210Y245306D02*
Y247363D01*
X371510Y246010D02*
Y251010D01*
X367500Y247500D02*
Y267500D01*
X365500Y269500D02*
X367500Y267500D01*
X461650Y236210D02*
X467860Y230000D01*
X462300Y240200D02*
X462500Y240000D01*
X457108Y240200D02*
X462300D01*
X456627Y245490D02*
X472370D01*
X474200Y258300D02*
X482500Y250000D01*
X475900Y261960D02*
X486290Y251570D01*
X445608Y251700D02*
X457108Y240200D01*
X447017Y255100D02*
X456627Y245490D01*
X359500Y161500D02*
Y174000D01*
X375710Y190210D01*
Y193070D01*
X377930Y195290D01*
X380790D01*
X388500Y279500D02*
Y326500D01*
X406000Y261000D02*
X406500Y261500D01*
X388500Y279500D02*
X406500Y261500D01*
X377843Y269310D02*
X395453Y251700D01*
X378547Y271010D02*
X396157Y253400D01*
X379251Y272710D02*
X396861Y255100D01*
X405500Y261000D02*
X406000D01*
X395453Y251700D02*
X445608D01*
X396157Y253400D02*
X446313D01*
X396861Y255100D02*
X447017D01*
X409500Y248000D02*
X444500D01*
X462500Y230000D01*
X444904Y250000D02*
X458694Y236210D01*
X371317Y236200D02*
X371817Y236700D01*
X375800D01*
X376500Y236000D01*
X402490Y240990D02*
X409500Y248000D01*
X370613Y237900D02*
X373703Y240990D01*
X402490D01*
X782000Y116500D02*
Y128000D01*
X778232Y131768D02*
X782000Y128000D01*
X778232Y131768D02*
Y135000D01*
X414500Y401000D02*
X416500Y399000D01*
Y398500D02*
Y399000D01*
X414500Y396500D02*
X416500Y398500D01*
X335000Y530267D02*
Y553000D01*
X366500Y508000D02*
X371140D01*
X377350Y501790D01*
X388070D01*
X390290Y499570D01*
Y494210D02*
Y499570D01*
Y494210D02*
X396500Y488000D01*
X173500Y398500D02*
X221000Y446000D01*
X350290Y426430D02*
Y434210D01*
X350000Y434500D02*
X350290Y434210D01*
X334500Y496000D02*
X346500Y508000D01*
X357902Y431790D02*
X358070D01*
X358606Y433490D02*
X358774D01*
X359310Y435190D02*
X359478D01*
X360668Y434000D01*
X364500D01*
X351533Y438200D02*
X353700Y436033D01*
Y435992D02*
Y436033D01*
Y435992D02*
X357902Y431790D01*
X355400Y436696D02*
Y436737D01*
Y436696D02*
X358606Y433490D01*
X357100Y437400D02*
Y437441D01*
Y437400D02*
X359310Y435190D01*
X358070Y431790D02*
X360290Y429570D01*
X358774Y433490D02*
X364264Y428000D01*
X408700Y458700D02*
Y472033D01*
X408500Y458500D02*
X408700Y458700D01*
X429000Y432767D02*
Y434000D01*
X465000Y407500D02*
Y412000D01*
X446700Y430300D02*
X465000Y412000D01*
X420200Y408700D02*
X437500Y426000D01*
X420200Y395300D02*
Y408700D01*
X416200Y391300D02*
X420200Y395300D01*
X386500Y478000D02*
X392710Y484210D01*
X398070D01*
X400290Y486430D01*
Y509977D01*
X396477Y513790D02*
X400290Y509977D01*
X329000Y631000D02*
X331200Y633200D01*
X374500D01*
X383000Y641700D01*
Y648000D01*
X376000Y655000D02*
X383000Y648000D01*
X295000Y584000D02*
X301450Y590450D01*
X401642D01*
X469746Y595254D02*
X471500Y593500D01*
X555500Y417500D02*
X560500Y422500D01*
X553000Y417500D02*
X555500D01*
X552000Y416500D02*
X553000Y417500D01*
X392500Y410500D02*
X400000Y403000D01*
X378000Y410500D02*
X392500D01*
X309000Y390500D02*
X336500Y418000D01*
X169500Y390500D02*
X309000D01*
X164500Y395500D02*
X169500Y390500D01*
X360290Y417038D02*
Y419967D01*
X356500Y418000D02*
X363100Y411400D01*
X368345Y279100D02*
X374735Y272710D01*
X357040Y279100D02*
X368345D01*
X346500Y266000D02*
X347100Y266600D01*
X349349D01*
X335147Y259300D02*
X345137Y269290D01*
X348930Y270990D02*
X357040Y279100D01*
X344433Y270990D02*
X348930D01*
X345137Y269290D02*
X349634D01*
X349349Y266600D02*
X358449Y275700D01*
X349634Y269290D02*
X357744Y277400D01*
X334443Y261000D02*
X344433Y270990D01*
X356536Y281000D02*
X373500D01*
X348246Y272710D02*
X356536Y281000D01*
X343749Y272710D02*
X348246D01*
X333739Y262700D02*
X343749Y272710D01*
X323665Y262700D02*
X333739D01*
X310365Y276000D02*
X323665Y262700D01*
X308500Y276000D02*
X310365D01*
X401642Y590450D02*
X406446Y595254D01*
X893043Y328190D02*
X902733Y318500D01*
X903500D01*
X531750Y240750D02*
X532500Y240000D01*
X531750Y240750D02*
X534500Y243500D01*
Y312500D01*
X480500Y302000D02*
X481200Y301300D01*
X518067D01*
X532967Y316200D01*
X576000D01*
X907200Y316967D02*
Y320033D01*
X901433Y311200D02*
X907200Y316967D01*
X840967Y311200D02*
X901433D01*
X836300Y306533D02*
X840967Y311200D01*
X836300Y301200D02*
Y306533D01*
Y301200D02*
X849500Y288000D01*
X767996Y135000D02*
Y206496D01*
X825404Y261500D02*
X844500D01*
X884200Y200700D02*
X888500Y205000D01*
X884200Y199467D02*
Y200700D01*
X875329Y190596D02*
X884200Y199467D01*
X850424Y190596D02*
X875329D01*
X849328Y189500D02*
X850424Y190596D01*
X846500Y189500D02*
X849328D01*
X880500Y207000D02*
X885267D01*
X886967Y208700D01*
X915000Y308000D02*
X915500D01*
X880500Y215500D02*
X889500Y224500D01*
Y260500D01*
X896000Y267000D01*
X883500Y227000D02*
X887800Y231300D01*
X886967Y208700D02*
Y217467D01*
X910500Y208500D02*
X913000Y206000D01*
Y165000D02*
Y206000D01*
X894396Y186896D02*
X907000Y199500D01*
Y201000D01*
X910500Y208500D02*
Y211500D01*
X887800Y231300D02*
Y275533D01*
X898500Y286233D01*
Y289500D01*
X883000Y165500D02*
X910700Y193200D01*
Y202533D01*
X312710Y506430D02*
Y507290D01*
X306500Y513500D02*
Y518000D01*
Y513500D02*
X312710Y507290D01*
X350290Y518710D02*
Y519570D01*
X342560Y527300D02*
X350290Y519570D01*
X337967Y527300D02*
X342560D01*
X327000Y533459D02*
X330290Y530169D01*
Y473210D02*
Y530169D01*
X327000Y533459D02*
Y553000D01*
X386467Y534300D02*
X386508D01*
X384300Y536467D02*
X386467Y534300D01*
X384300Y536467D02*
Y536508D01*
X382600Y535763D02*
Y535804D01*
Y535763D02*
X385763Y532600D01*
X385804D01*
X412500Y357329D02*
Y503000D01*
X342000Y573500D02*
X364500Y551000D01*
X412500Y503000D01*
X345000Y551000D02*
X364500D01*
X335000Y582904D02*
X342704Y575200D01*
X335000Y582904D02*
Y584000D01*
X342704Y575200D02*
X343204D01*
X414500Y401000D02*
Y503904D01*
X335000Y530267D02*
X337967Y527300D01*
X332710Y473194D02*
Y530153D01*
X331000Y531863D02*
Y548500D01*
Y531863D02*
X332710Y530153D01*
X396500Y478000D02*
X402733D01*
X408700Y472033D01*
X305000Y584000D02*
X315500Y573500D01*
X342000D01*
X571200Y631200D02*
X609500Y669500D01*
X342200Y631200D02*
X571200D01*
X579500Y629500D02*
X619500Y669500D01*
X350500Y629500D02*
X579500D01*
X587800Y627800D02*
X629500Y669500D01*
X458694Y236210D02*
X461650D01*
X446313Y253400D02*
X455923Y243790D01*
X414500Y357733D02*
X516443Y255790D01*
X522070D01*
X512500Y250000D02*
Y254925D01*
X508710Y248430D02*
Y256311D01*
X506290Y246210D02*
Y256327D01*
X404500Y355713D02*
X502500Y257713D01*
Y250000D02*
Y257713D01*
X412500Y357329D02*
X516290Y253539D01*
Y250695D02*
Y253539D01*
X234500Y406000D02*
X236500D01*
X245500Y415000D01*
X243561Y421500D02*
X245500D01*
X234833Y412772D02*
X243561Y421500D01*
X234833Y412772D02*
Y414000D01*
X231500Y427500D02*
X245500D01*
X231000Y418500D02*
X235000D01*
X239500Y423000D01*
X220500Y416500D02*
X231500Y427500D01*
X219000Y416500D02*
X220500D01*
X216000Y428000D02*
Y435500D01*
X220000Y439500D01*
X149096Y230000D02*
X181296Y262200D01*
X132000Y230000D02*
X149096D01*
X146000Y224500D02*
X182000Y260500D01*
X132500Y224500D02*
X146000D01*
X132000Y224000D02*
X132500Y224500D01*
X145790Y151210D02*
X155070D01*
X123500Y173500D02*
X145790Y151210D01*
X126676Y178000D02*
X146966Y157710D01*
X119500Y178000D02*
X126676D01*
X114000Y183500D02*
X119500Y178000D01*
X113500Y183500D02*
X114000D01*
X130500Y379500D02*
X138500Y387500D01*
Y392500D01*
X113500Y343500D02*
X125000Y355000D01*
Y383900D01*
X132800Y391700D01*
X142050Y385050D02*
Y386500D01*
X127790Y370790D02*
X142050Y385050D01*
X127790Y323710D02*
Y370790D01*
Y323710D02*
X144900Y306600D01*
X142050Y386500D02*
X142200Y386650D01*
Y434800D01*
X141500Y435500D02*
X142200Y434800D01*
X135550Y241500D02*
X135800Y241750D01*
Y269567D02*
X144900Y278667D01*
Y306600D01*
X135800Y241750D02*
Y269567D01*
X186360Y121500D02*
Y135000D01*
X578500Y120200D02*
X588000Y110700D01*
X776200D01*
X578500Y120200D02*
Y187000D01*
X886967Y217467D02*
X922500Y253000D01*
Y301000D01*
X915500Y308000D02*
X922500Y301000D01*
X352057Y234500D02*
X373347D01*
X376500Y231347D01*
Y226000D02*
Y231347D01*
X374735Y272710D02*
X379251D01*
X359153Y274000D02*
X366233D01*
X358449Y275700D02*
X366937D01*
X373327Y269310D01*
X357744Y277400D02*
X367641D01*
X374031Y271010D01*
X378547D01*
X373327Y269310D02*
X377843D01*
X366233Y274000D02*
X372623Y267610D01*
X374890D01*
X296631Y352200D02*
X299541Y349290D01*
X309863D01*
D34*
X345000Y551000D02*
D03*
X754000Y280000D02*
D03*
X330000Y269500D02*
D03*
X559000Y179500D02*
D03*
X398500Y535500D02*
D03*
X425000Y176000D02*
D03*
X446000Y186000D02*
D03*
X376000Y665000D02*
D03*
D35*
X345000Y561000D02*
D03*
X754000Y290000D02*
D03*
Y300000D02*
D03*
X330000Y279500D02*
D03*
X518000Y612000D02*
D03*
X508000D02*
D03*
X559000Y189500D02*
D03*
X398500Y555500D02*
D03*
Y545500D02*
D03*
X389500Y570500D02*
D03*
X425000Y186000D02*
D03*
Y196000D02*
D03*
X446000D02*
D03*
X376000Y645000D02*
D03*
Y655000D02*
D03*
D36*
X423500Y540000D02*
D03*
X433500Y550000D02*
D03*
D37*
Y530000D02*
D03*
D38*
X559500Y117000D02*
D03*
X574500D02*
D03*
X817047Y113500D02*
D03*
X502000Y502000D02*
D03*
X492000D02*
D03*
X482000Y443000D02*
D03*
X502000D02*
D03*
Y597500D02*
D03*
X492000D02*
D03*
X482000Y538500D02*
D03*
X502000D02*
D03*
X123500Y343500D02*
D03*
X113500Y333500D02*
D03*
X123500D02*
D03*
X113500Y323500D02*
D03*
X123500D02*
D03*
Y313500D02*
D03*
X113500D02*
D03*
Y303500D02*
D03*
X123500D02*
D03*
Y293500D02*
D03*
X113500D02*
D03*
Y283500D02*
D03*
X123500D02*
D03*
Y273500D02*
D03*
X113500D02*
D03*
Y263500D02*
D03*
X123500D02*
D03*
Y253500D02*
D03*
X113500D02*
D03*
Y243500D02*
D03*
X123500D02*
D03*
Y233500D02*
D03*
X113500D02*
D03*
Y223500D02*
D03*
X123500D02*
D03*
Y213500D02*
D03*
X113500D02*
D03*
Y203500D02*
D03*
X123500D02*
D03*
Y193500D02*
D03*
X113500D02*
D03*
Y183500D02*
D03*
X123500D02*
D03*
Y173500D02*
D03*
X113500D02*
D03*
Y163500D02*
D03*
X123500D02*
D03*
X113500Y153500D02*
D03*
X123500D02*
D03*
X590000Y669500D02*
D03*
X600000D02*
D03*
X610000D02*
D03*
X620000D02*
D03*
X630000D02*
D03*
X640000D02*
D03*
X650000D02*
D03*
X660000D02*
D03*
X670000D02*
D03*
X680000D02*
D03*
X690000D02*
D03*
X700000D02*
D03*
X710000D02*
D03*
X720000D02*
D03*
X730000D02*
D03*
X179000Y649000D02*
D03*
Y659000D02*
D03*
X169000Y354000D02*
D03*
D39*
X284000Y669000D02*
D03*
Y639000D02*
D03*
X254000D02*
D03*
X248500Y366000D02*
D03*
Y356000D02*
D03*
Y346000D02*
D03*
Y336000D02*
D03*
Y326000D02*
D03*
Y316000D02*
D03*
Y306000D02*
D03*
Y296000D02*
D03*
Y286000D02*
D03*
Y276000D02*
D03*
Y266000D02*
D03*
Y256000D02*
D03*
Y246000D02*
D03*
Y236000D02*
D03*
Y226000D02*
D03*
X308500D02*
D03*
Y236000D02*
D03*
Y246000D02*
D03*
Y256000D02*
D03*
Y266000D02*
D03*
Y276000D02*
D03*
Y286000D02*
D03*
Y296000D02*
D03*
Y306000D02*
D03*
Y316000D02*
D03*
Y326000D02*
D03*
Y336000D02*
D03*
Y346000D02*
D03*
Y356000D02*
D03*
Y366000D02*
D03*
Y376000D02*
D03*
X376500D02*
D03*
Y366000D02*
D03*
Y356000D02*
D03*
Y346000D02*
D03*
Y336000D02*
D03*
Y326000D02*
D03*
Y316000D02*
D03*
Y306000D02*
D03*
Y296000D02*
D03*
Y286000D02*
D03*
Y276000D02*
D03*
Y266000D02*
D03*
Y256000D02*
D03*
Y246000D02*
D03*
Y236000D02*
D03*
Y226000D02*
D03*
X346500D02*
D03*
Y236000D02*
D03*
Y246000D02*
D03*
Y256000D02*
D03*
Y266000D02*
D03*
Y276000D02*
D03*
Y286000D02*
D03*
Y296000D02*
D03*
Y306000D02*
D03*
Y316000D02*
D03*
Y326000D02*
D03*
Y336000D02*
D03*
Y346000D02*
D03*
Y356000D02*
D03*
Y366000D02*
D03*
X305000Y584000D02*
D03*
X315000D02*
D03*
X325000D02*
D03*
X335000D02*
D03*
X345000D02*
D03*
X355000D02*
D03*
X365000D02*
D03*
X375000D02*
D03*
X385000D02*
D03*
Y614000D02*
D03*
X375000D02*
D03*
X365000D02*
D03*
X355000D02*
D03*
X345000D02*
D03*
X335000D02*
D03*
X325000D02*
D03*
X315000D02*
D03*
X305000D02*
D03*
X295000D02*
D03*
X160000Y161500D02*
D03*
X170000D02*
D03*
X180000D02*
D03*
X190000D02*
D03*
X200000D02*
D03*
X210000D02*
D03*
X220000D02*
D03*
Y191500D02*
D03*
X210000D02*
D03*
X200000D02*
D03*
X190000D02*
D03*
X180000D02*
D03*
X170000D02*
D03*
X160000D02*
D03*
X150000D02*
D03*
X254500Y161500D02*
D03*
X264500D02*
D03*
X274500D02*
D03*
X284500D02*
D03*
X294500D02*
D03*
X304500D02*
D03*
X314500D02*
D03*
Y191500D02*
D03*
X304500D02*
D03*
X294500D02*
D03*
X284500D02*
D03*
X274500D02*
D03*
X264500D02*
D03*
X254500D02*
D03*
X244500D02*
D03*
X349500Y161500D02*
D03*
X359500D02*
D03*
X369500D02*
D03*
X379500D02*
D03*
X389500D02*
D03*
X399500D02*
D03*
X409500D02*
D03*
Y191500D02*
D03*
X399500D02*
D03*
X389500D02*
D03*
X379500D02*
D03*
X369500D02*
D03*
X359500D02*
D03*
X349500D02*
D03*
X339500D02*
D03*
D40*
X254000Y669000D02*
D03*
X248500Y376000D02*
D03*
X346500D02*
D03*
D41*
X779000Y315500D02*
D03*
D42*
X839000D02*
D03*
Y345500D02*
D03*
X779000D02*
D03*
X624000Y233000D02*
D03*
Y243000D02*
D03*
Y253000D02*
D03*
Y263000D02*
D03*
Y273000D02*
D03*
Y283000D02*
D03*
Y293000D02*
D03*
Y303000D02*
D03*
Y313000D02*
D03*
Y323000D02*
D03*
Y333000D02*
D03*
Y343000D02*
D03*
X634000Y233000D02*
D03*
Y243000D02*
D03*
Y253000D02*
D03*
Y263000D02*
D03*
Y273000D02*
D03*
Y283000D02*
D03*
Y293000D02*
D03*
Y303000D02*
D03*
Y313000D02*
D03*
Y323000D02*
D03*
Y333000D02*
D03*
Y343000D02*
D03*
X644000Y233000D02*
D03*
Y243000D02*
D03*
Y253000D02*
D03*
Y263000D02*
D03*
Y273000D02*
D03*
Y283000D02*
D03*
Y293000D02*
D03*
Y303000D02*
D03*
Y313000D02*
D03*
Y323000D02*
D03*
Y333000D02*
D03*
Y343000D02*
D03*
X654000Y233000D02*
D03*
Y243000D02*
D03*
Y253000D02*
D03*
Y263000D02*
D03*
Y273000D02*
D03*
Y283000D02*
D03*
Y293000D02*
D03*
Y303000D02*
D03*
Y313000D02*
D03*
Y323000D02*
D03*
Y333000D02*
D03*
Y343000D02*
D03*
X664000Y233000D02*
D03*
Y243000D02*
D03*
Y253000D02*
D03*
Y263000D02*
D03*
Y273000D02*
D03*
Y283000D02*
D03*
Y293000D02*
D03*
Y303000D02*
D03*
Y313000D02*
D03*
Y323000D02*
D03*
Y333000D02*
D03*
Y343000D02*
D03*
X674000Y233000D02*
D03*
Y243000D02*
D03*
Y253000D02*
D03*
Y263000D02*
D03*
Y273000D02*
D03*
Y283000D02*
D03*
Y293000D02*
D03*
Y303000D02*
D03*
Y313000D02*
D03*
Y323000D02*
D03*
Y333000D02*
D03*
Y343000D02*
D03*
X684000Y233000D02*
D03*
Y243000D02*
D03*
Y253000D02*
D03*
Y263000D02*
D03*
Y273000D02*
D03*
Y283000D02*
D03*
Y293000D02*
D03*
Y303000D02*
D03*
Y313000D02*
D03*
Y323000D02*
D03*
Y333000D02*
D03*
Y343000D02*
D03*
X694000Y233000D02*
D03*
Y243000D02*
D03*
Y253000D02*
D03*
Y263000D02*
D03*
Y273000D02*
D03*
Y283000D02*
D03*
Y293000D02*
D03*
Y303000D02*
D03*
Y313000D02*
D03*
Y323000D02*
D03*
Y333000D02*
D03*
Y343000D02*
D03*
X704000Y233000D02*
D03*
Y243000D02*
D03*
Y253000D02*
D03*
Y263000D02*
D03*
Y273000D02*
D03*
Y283000D02*
D03*
Y293000D02*
D03*
Y303000D02*
D03*
Y313000D02*
D03*
Y323000D02*
D03*
Y333000D02*
D03*
Y343000D02*
D03*
X714000Y233000D02*
D03*
Y243000D02*
D03*
Y253000D02*
D03*
Y263000D02*
D03*
Y273000D02*
D03*
Y283000D02*
D03*
Y293000D02*
D03*
Y303000D02*
D03*
Y313000D02*
D03*
Y323000D02*
D03*
Y333000D02*
D03*
Y343000D02*
D03*
X724000Y233000D02*
D03*
Y243000D02*
D03*
Y253000D02*
D03*
Y263000D02*
D03*
Y273000D02*
D03*
Y283000D02*
D03*
Y293000D02*
D03*
Y303000D02*
D03*
Y313000D02*
D03*
Y323000D02*
D03*
Y333000D02*
D03*
Y343000D02*
D03*
X734000Y233000D02*
D03*
Y243000D02*
D03*
Y253000D02*
D03*
Y263000D02*
D03*
Y273000D02*
D03*
Y283000D02*
D03*
Y293000D02*
D03*
Y303000D02*
D03*
Y313000D02*
D03*
Y323000D02*
D03*
Y333000D02*
D03*
Y343000D02*
D03*
X296500Y508000D02*
D03*
X306500D02*
D03*
X296500Y498000D02*
D03*
Y488000D02*
D03*
X306500D02*
D03*
X296500Y478000D02*
D03*
X306500D02*
D03*
X296500Y468000D02*
D03*
X306500D02*
D03*
X296500Y458000D02*
D03*
X306500D02*
D03*
X296500Y448000D02*
D03*
X306500D02*
D03*
X296500Y438000D02*
D03*
X306500D02*
D03*
X296500Y428000D02*
D03*
X306500Y418000D02*
D03*
Y428000D02*
D03*
X316500Y418000D02*
D03*
Y428000D02*
D03*
X326500Y418000D02*
D03*
Y428000D02*
D03*
X336500Y418000D02*
D03*
Y428000D02*
D03*
X346500Y418000D02*
D03*
Y428000D02*
D03*
X356500Y418000D02*
D03*
Y428000D02*
D03*
X366500Y418000D02*
D03*
Y428000D02*
D03*
X376500Y418000D02*
D03*
Y428000D02*
D03*
X386500Y418000D02*
D03*
Y428000D02*
D03*
X396500D02*
D03*
Y438000D02*
D03*
X386500D02*
D03*
X396500Y448000D02*
D03*
X386500D02*
D03*
X396500Y458000D02*
D03*
X386500D02*
D03*
X396500Y468000D02*
D03*
X386500D02*
D03*
X396500Y478000D02*
D03*
X386500D02*
D03*
X396500Y488000D02*
D03*
X386500D02*
D03*
X396500Y498000D02*
D03*
X386500D02*
D03*
X396500Y508000D02*
D03*
X386500Y518000D02*
D03*
Y508000D02*
D03*
X376500Y518000D02*
D03*
Y508000D02*
D03*
X366500Y518000D02*
D03*
Y508000D02*
D03*
X356500Y518000D02*
D03*
Y508000D02*
D03*
X346500Y518000D02*
D03*
Y508000D02*
D03*
X336500Y518000D02*
D03*
Y508000D02*
D03*
X326500Y518000D02*
D03*
Y508000D02*
D03*
X316500Y518000D02*
D03*
Y508000D02*
D03*
X306500Y518000D02*
D03*
Y498000D02*
D03*
X502500Y240000D02*
D03*
X492500Y250000D02*
D03*
Y240000D02*
D03*
X482500Y250000D02*
D03*
Y240000D02*
D03*
X472500Y250000D02*
D03*
X462500Y240000D02*
D03*
X472500D02*
D03*
X462500Y230000D02*
D03*
X472500D02*
D03*
X462500Y220000D02*
D03*
X472500D02*
D03*
X462500Y210000D02*
D03*
X472500D02*
D03*
X462500Y200000D02*
D03*
X472500D02*
D03*
X462500Y190000D02*
D03*
X472500Y180000D02*
D03*
Y190000D02*
D03*
X482500Y180000D02*
D03*
Y190000D02*
D03*
X492500Y180000D02*
D03*
Y190000D02*
D03*
X502500Y180000D02*
D03*
Y190000D02*
D03*
X512500Y180000D02*
D03*
Y190000D02*
D03*
X522500Y180000D02*
D03*
X532500Y190000D02*
D03*
X522500D02*
D03*
X532500Y200000D02*
D03*
X522500D02*
D03*
X532500Y210000D02*
D03*
X522500D02*
D03*
X532500Y220000D02*
D03*
X522500D02*
D03*
X532500Y230000D02*
D03*
X522500D02*
D03*
X532500Y240000D02*
D03*
X522500Y250000D02*
D03*
Y240000D02*
D03*
X512500Y250000D02*
D03*
Y240000D02*
D03*
X502500Y250000D02*
D03*
X152000Y649000D02*
D03*
Y659000D02*
D03*
X903000Y165000D02*
D03*
X913000D02*
D03*
X883000D02*
D03*
X873000D02*
D03*
X734000Y223000D02*
D03*
X724000D02*
D03*
X674000D02*
D03*
X684000D02*
D03*
X664000D02*
D03*
X704000D02*
D03*
X714000D02*
D03*
X694000D02*
D03*
X644000D02*
D03*
X654000D02*
D03*
X634000D02*
D03*
X624000D02*
D03*
X734000Y353000D02*
D03*
X724000D02*
D03*
X704000D02*
D03*
X714000D02*
D03*
X694000D02*
D03*
X654000D02*
D03*
X664000D02*
D03*
X644000D02*
D03*
X684000D02*
D03*
X674000D02*
D03*
X634000D02*
D03*
X624000D02*
D03*
X880000Y257500D02*
D03*
X919000Y173000D02*
D03*
X896500Y241500D02*
D03*
X906927Y184073D02*
D03*
X864515Y208077D02*
D03*
X859500Y205000D02*
D03*
X863675Y200500D02*
D03*
X862000Y222000D02*
D03*
X856000Y217000D02*
D03*
X576000Y217500D02*
D03*
X263000Y462000D02*
D03*
X612000Y339500D02*
D03*
X746000Y358000D02*
D03*
Y343000D02*
D03*
X820000Y339500D02*
D03*
X780500Y269500D02*
D03*
X780000Y235500D02*
D03*
X792500Y270500D02*
D03*
X556000Y593500D02*
D03*
X298000Y629000D02*
D03*
X409000Y605250D02*
D03*
X584500Y650000D02*
D03*
X159500Y288500D02*
D03*
X160000Y282500D02*
D03*
X214000Y281500D02*
D03*
X158500Y272000D02*
D03*
X193500Y268000D02*
D03*
X150500Y343500D02*
D03*
X218010Y298010D02*
D03*
X218500Y290000D02*
D03*
X774500Y202000D02*
D03*
X355500Y264500D02*
D03*
X409500Y584000D02*
D03*
X424500Y587000D02*
D03*
X421500Y230500D02*
D03*
X161500Y538000D02*
D03*
X128000Y403000D02*
D03*
X149500Y130500D02*
D03*
X167000Y126500D02*
D03*
X230500Y216000D02*
D03*
X200792Y459000D02*
D03*
X478500Y365500D02*
D03*
X459000Y357500D02*
D03*
X214000Y275500D02*
D03*
X348500Y471500D02*
D03*
X328000Y465500D02*
D03*
X331500Y458500D02*
D03*
X321000Y446500D02*
D03*
X495500Y426000D02*
D03*
X490953Y397453D02*
D03*
X543300Y302500D02*
D03*
X551000Y320500D02*
D03*
X573500Y384700D02*
D03*
X548000Y400000D02*
D03*
X547000Y309500D02*
D03*
X548000Y286000D02*
D03*
X514500Y412500D02*
D03*
X500500Y392000D02*
D03*
X510500Y379500D02*
D03*
X502500Y361000D02*
D03*
X511000Y362500D02*
D03*
X465454Y345954D02*
D03*
X425500Y322000D02*
D03*
X438500Y260000D02*
D03*
X382500Y220000D02*
D03*
X366500Y197500D02*
D03*
X386000Y198500D02*
D03*
X524000Y422000D02*
D03*
X427000Y356500D02*
D03*
X393500Y374000D02*
D03*
X392000Y380000D02*
D03*
X151000Y223500D02*
D03*
X160000Y373000D02*
D03*
X146500Y397000D02*
D03*
X436500Y161000D02*
D03*
X372500Y151000D02*
D03*
X346000Y145000D02*
D03*
X246500D02*
D03*
X439000Y356500D02*
D03*
X359500Y347500D02*
D03*
X380000Y351000D02*
D03*
X445500Y361500D02*
D03*
X482480Y360541D02*
D03*
X486500Y356500D02*
D03*
X384500Y376000D02*
D03*
X453000Y274500D02*
D03*
X473450Y309500D02*
D03*
X484000Y320000D02*
D03*
X574000Y390500D02*
D03*
X590000Y375000D02*
D03*
X593500Y255500D02*
D03*
X623500Y211000D02*
D03*
X245000Y178500D02*
D03*
X284500D02*
D03*
X300000D02*
D03*
X135500Y434000D02*
D03*
X137000Y403000D02*
D03*
X216500Y616000D02*
D03*
X190500Y595000D02*
D03*
X443500Y337000D02*
D03*
X459000Y366000D02*
D03*
X448500Y387500D02*
D03*
X472500Y388000D02*
D03*
X436500Y176500D02*
D03*
X169000Y225500D02*
D03*
X149000Y210000D02*
D03*
X211800Y325300D02*
D03*
X217500Y324000D02*
D03*
X222000Y320000D02*
D03*
X226500Y316000D02*
D03*
X212000Y331000D02*
D03*
X203550Y334800D02*
D03*
X210750Y336719D02*
D03*
X372000Y414200D02*
D03*
X391000Y393500D02*
D03*
X422000Y365500D02*
D03*
X377500Y448500D02*
D03*
X341500Y449000D02*
D03*
X164500Y430500D02*
D03*
Y440000D02*
D03*
X268000Y467500D02*
D03*
X275500Y468000D02*
D03*
X352000Y462500D02*
D03*
X810000Y243500D02*
D03*
X868000Y240000D02*
D03*
X794500Y189500D02*
D03*
X421500Y644500D02*
D03*
X403000Y652000D02*
D03*
X207500Y669000D02*
D03*
Y646500D02*
D03*
X218000Y647500D02*
D03*
X181000Y595500D02*
D03*
X225000Y544500D02*
D03*
X219000Y544000D02*
D03*
X231000Y544500D02*
D03*
X230000Y538500D02*
D03*
X226904Y533111D02*
D03*
X222000Y529000D02*
D03*
X217500Y524500D02*
D03*
X214500Y519000D02*
D03*
X867500Y122000D02*
D03*
X500500Y343500D02*
D03*
X517000Y338000D02*
D03*
Y332000D02*
D03*
X516500Y314000D02*
D03*
Y308000D02*
D03*
X208000Y539000D02*
D03*
X167500Y470500D02*
D03*
X454500Y604000D02*
D03*
X141500Y435500D02*
D03*
X196500Y452000D02*
D03*
X190800Y450832D02*
D03*
X185100D02*
D03*
X179400D02*
D03*
X186640Y442100D02*
D03*
X181185Y444706D02*
D03*
X175000Y446500D02*
D03*
X170500Y442000D02*
D03*
X846500Y189500D02*
D03*
X888500Y205000D02*
D03*
X851957Y186896D02*
D03*
X186500Y485000D02*
D03*
X192200Y485232D02*
D03*
X198000Y485000D02*
D03*
X202000Y480500D02*
D03*
X322500Y159000D02*
D03*
X199500Y378500D02*
D03*
X319000Y501000D02*
D03*
X418200Y429200D02*
D03*
X420505Y421800D02*
D03*
X327000Y553000D02*
D03*
X331000Y548500D02*
D03*
X179000Y611000D02*
D03*
X335000Y553000D02*
D03*
X465000Y407500D02*
D03*
X523500Y355000D02*
D03*
X594000Y202000D02*
D03*
Y132000D02*
D03*
X506500Y343500D02*
D03*
X517000Y320000D02*
D03*
Y326000D02*
D03*
X510500Y305000D02*
D03*
X522500Y407000D02*
D03*
X453000Y366000D02*
D03*
X527500Y396000D02*
D03*
X516739Y406471D02*
D03*
X429000Y434000D02*
D03*
X408800Y445909D02*
D03*
X527230Y403669D02*
D03*
X428700Y439700D02*
D03*
X408800Y451609D02*
D03*
X157000Y622000D02*
D03*
X147000D02*
D03*
X376500Y216000D02*
D03*
Y206000D02*
D03*
X230000Y205500D02*
D03*
X259500Y210000D02*
D03*
X276500Y235500D02*
D03*
Y256500D02*
D03*
Y276500D02*
D03*
X267000Y210000D02*
D03*
X280500Y231000D02*
D03*
X270800Y256950D02*
D03*
X190500Y237500D02*
D03*
Y243500D02*
D03*
X189241Y395168D02*
D03*
X233400Y226833D02*
D03*
X259000Y199000D02*
D03*
X273000Y209500D02*
D03*
X283761Y235800D02*
D03*
X282200Y256950D02*
D03*
Y276800D02*
D03*
X282000Y328000D02*
D03*
Y342500D02*
D03*
X264755Y197290D02*
D03*
X279000Y209500D02*
D03*
X288000Y231500D02*
D03*
Y256500D02*
D03*
Y276500D02*
D03*
X268500D02*
D03*
X285500Y209500D02*
D03*
X290761Y226200D02*
D03*
X294000Y254000D02*
D03*
Y276000D02*
D03*
X286000Y291000D02*
D03*
X269000D02*
D03*
X270800Y196835D02*
D03*
X280500Y199000D02*
D03*
X291200Y210300D02*
D03*
X319190Y232800D02*
D03*
X331000Y354500D02*
D03*
X302500Y210000D02*
D03*
X319500Y226500D02*
D03*
X308200Y210300D02*
D03*
X325500Y228500D02*
D03*
X314500Y210000D02*
D03*
X330000Y232500D02*
D03*
X339500Y219000D02*
D03*
X366000Y230500D02*
D03*
X367500Y247500D02*
D03*
X365500Y269500D02*
D03*
X353500Y202000D02*
D03*
X380500Y201500D02*
D03*
X388500Y326500D02*
D03*
X414500Y140500D02*
D03*
Y199000D02*
D03*
X424500Y208500D02*
D03*
X422500Y244000D02*
D03*
X391500Y266000D02*
D03*
X405500Y261000D02*
D03*
X411500Y260500D02*
D03*
X393500Y198000D02*
D03*
X392500Y245000D02*
D03*
X416500Y399000D02*
D03*
X339500Y531000D02*
D03*
X250500Y529000D02*
D03*
X254500Y523500D02*
D03*
X497500Y587000D02*
D03*
X256200Y529200D02*
D03*
X262000Y526500D02*
D03*
X245500Y512500D02*
D03*
X232500Y520000D02*
D03*
X224500Y465500D02*
D03*
X311500Y660000D02*
D03*
X173500Y398500D02*
D03*
X350000Y434500D02*
D03*
X364500Y434000D02*
D03*
X249500Y467500D02*
D03*
X256000Y473500D02*
D03*
X326000Y476500D02*
D03*
X360500Y478500D02*
D03*
X352000Y538500D02*
D03*
X363000D02*
D03*
X388000Y538000D02*
D03*
X424000Y605250D02*
D03*
X405000Y470500D02*
D03*
X408500Y458500D02*
D03*
X437500Y426000D02*
D03*
X449500Y332000D02*
D03*
X396477Y513790D02*
D03*
X329000Y631000D02*
D03*
X399000Y647000D02*
D03*
X463000Y639500D02*
D03*
X471500Y593500D02*
D03*
X560500Y422500D02*
D03*
X552000Y416500D02*
D03*
X400000Y403000D02*
D03*
X378000Y410500D02*
D03*
X164500Y395500D02*
D03*
X138500Y392500D02*
D03*
X132800Y391700D02*
D03*
X393500Y283000D02*
D03*
X373500Y281000D02*
D03*
X457000Y389000D02*
D03*
X444000Y424500D02*
D03*
X468302Y612900D02*
D03*
X448000Y612500D02*
D03*
X891500Y318500D02*
D03*
X897500D02*
D03*
X901500Y307500D02*
D03*
X892500D02*
D03*
X816500Y305000D02*
D03*
X840000D02*
D03*
X877500D02*
D03*
X903500Y318500D02*
D03*
X534500Y312500D02*
D03*
X480500Y302000D02*
D03*
X849500Y288000D02*
D03*
X844500Y261500D02*
D03*
X862000Y240500D02*
D03*
X880500Y207000D02*
D03*
X915000Y308000D02*
D03*
X896000Y267000D02*
D03*
X880500Y215500D02*
D03*
X883500Y227000D02*
D03*
X907000Y201000D02*
D03*
X910500Y211500D02*
D03*
X906800Y220800D02*
D03*
X907616Y226884D02*
D03*
X817000Y167000D02*
D03*
X819000Y237500D02*
D03*
X870000Y267000D02*
D03*
X845000Y323000D02*
D03*
X833500D02*
D03*
X788490Y301610D02*
D03*
X898500Y289500D02*
D03*
X870500Y258500D02*
D03*
X825500Y250000D02*
D03*
X788500Y287500D02*
D03*
X804500Y314500D02*
D03*
X470500Y158000D02*
D03*
X202500Y340500D02*
D03*
X205500Y323000D02*
D03*
X851000Y212500D02*
D03*
X453000Y286500D02*
D03*
X219000Y416500D02*
D03*
X234500Y406000D02*
D03*
X245500Y415000D02*
D03*
Y427500D02*
D03*
Y421500D02*
D03*
X239500Y423000D02*
D03*
X234833Y414000D02*
D03*
X231000Y418500D02*
D03*
X216000Y428000D02*
D03*
X220000Y439500D02*
D03*
X235000Y505000D02*
D03*
X235500Y499000D02*
D03*
Y493000D02*
D03*
X234000Y487000D02*
D03*
X145600Y346661D02*
D03*
X140000Y306000D02*
D03*
X135500Y302000D02*
D03*
Y296000D02*
D03*
X141200Y294900D02*
D03*
X135500Y288500D02*
D03*
X140000Y284500D02*
D03*
X135500Y280500D02*
D03*
Y274500D02*
D03*
X132000Y230000D02*
D03*
Y224000D02*
D03*
X130500Y379500D02*
D03*
X118500Y360500D02*
D03*
X114500Y369000D02*
D03*
X118500Y239000D02*
D03*
X160000Y249000D02*
D03*
X135550Y241500D02*
D03*
X139500Y264500D02*
D03*
X134500Y322500D02*
D03*
X134400Y346500D02*
D03*
X186360Y121500D02*
D03*
X917000Y262500D02*
D03*
X915000Y234000D02*
D03*
D43*
X778232Y135000D02*
D03*
D44*
X786500D02*
D03*
Y144843D02*
D03*
X759728D02*
D03*
Y135000D02*
D03*
X767996D02*
D03*
D45*
X773114Y120039D02*
D03*
X468000Y472500D02*
D03*
X516000D02*
D03*
X468000Y568000D02*
D03*
X516000D02*
D03*
D46*
X818500Y565500D02*
D03*
Y214500D02*
D03*
X211500Y565500D02*
D03*
Y214500D02*
D03*
D47*
X482000Y502000D02*
D03*
Y597500D02*
D03*
X113500Y343500D02*
D03*
D48*
X873000Y389000D02*
D03*
X892685D02*
D03*
Y408685D02*
D03*
X873000D02*
D03*
X811500Y389000D02*
D03*
X831185D02*
D03*
Y408685D02*
D03*
X811500D02*
D03*
X750000Y389000D02*
D03*
X769685D02*
D03*
Y408685D02*
D03*
X750000D02*
D03*
X688000Y389000D02*
D03*
X707685D02*
D03*
Y408685D02*
D03*
X688000D02*
D03*
X627000Y389000D02*
D03*
X646685D02*
D03*
Y408685D02*
D03*
X627000D02*
D03*
X565000Y389000D02*
D03*
X584685D02*
D03*
Y408685D02*
D03*
X565000D02*
D03*
D49*
X891500Y136657D02*
D03*
Y116972D02*
D03*
Y107130D02*
D03*
X911185Y146500D02*
D03*
Y107130D02*
D03*
X921028Y146500D02*
D03*
Y107130D02*
D03*
X911185Y126815D02*
D03*
X891500D02*
D03*
Y146500D02*
D03*
D50*
X295000Y584000D02*
D03*
X150000Y161500D02*
D03*
X244500D02*
D03*
X339500D02*
D03*
D51*
X550472Y452965D02*
D03*
X916614D02*
D03*
Y669500D02*
D03*
X550472D02*
D03*
D52*
X580000D02*
D03*
D53*
X441500Y116500D02*
D03*
X431500D02*
D03*
X421500D02*
D03*
X411500D02*
D03*
X401500D02*
D03*
X391500D02*
D03*
X381500D02*
D03*
X371500D02*
D03*
X361500D02*
D03*
X351500D02*
D03*
X341500D02*
D03*
X331500D02*
D03*
X321500D02*
D03*
X311500D02*
D03*
X301500D02*
D03*
X291500D02*
D03*
X281500D02*
D03*
X271500D02*
D03*
X261500D02*
D03*
X251500D02*
D03*
X241500D02*
D03*
X231500D02*
D03*
X221500D02*
D03*
X211500D02*
D03*
X201500D02*
D03*
X191500D02*
D03*
X181500D02*
D03*
X171500D02*
D03*
X161500D02*
D03*
D54*
X151500D02*
D03*
X122000Y518500D02*
D03*
X132000D02*
D03*
X142000D02*
D03*
D55*
X114000Y116500D02*
D03*
D56*
X479000D02*
D03*
D57*
X132000Y588500D02*
D03*
M02*
