%FSLAX25Y25*%
%MOIN*%
G70*
G01*
G75*
G04 Layer_Color=255*
%ADD10R,0.04331X0.05512*%
%ADD11R,0.08071X0.01772*%
%ADD12R,0.08071X0.01772*%
%ADD13R,0.05512X0.04331*%
%ADD14O,0.08000X0.01600*%
%ADD15O,0.01575X0.07480*%
%ADD16R,0.05118X0.03937*%
%ADD17R,0.03937X0.05118*%
%ADD18O,0.07480X0.01575*%
%ADD19R,0.07480X0.07087*%
%ADD20R,0.05315X0.01575*%
%ADD21R,0.06299X0.08268*%
%ADD22R,0.07480X0.07480*%
%ADD23O,0.02559X0.06693*%
%ADD24R,0.04000X0.02600*%
%ADD25R,0.05512X0.03937*%
%ADD26R,0.05906X0.05906*%
%ADD27O,0.07087X0.01575*%
%ADD28R,0.03500X0.05000*%
%ADD29R,0.05000X0.05000*%
%ADD30C,0.03000*%
%ADD31C,0.00700*%
%ADD32C,0.00800*%
%ADD33C,0.01000*%
%ADD34R,0.05906X0.05906*%
%ADD35C,0.05906*%
%ADD36C,0.04724*%
%ADD37R,0.04724X0.04724*%
%ADD38C,0.06000*%
%ADD39C,0.04000*%
%ADD40R,0.04000X0.04000*%
%ADD41R,0.05000X0.05000*%
%ADD42C,0.05000*%
%ADD43R,0.06500X0.06500*%
%ADD44C,0.06500*%
%ADD45C,0.12000*%
%ADD46C,0.14000*%
%ADD47R,0.06000X0.06000*%
%ADD48C,0.06693*%
%ADD49C,0.06299*%
%ADD50R,0.04000X0.04000*%
%ADD51C,0.15748*%
%ADD52R,0.06000X0.06000*%
%ADD53C,0.06200*%
%ADD54R,0.06200X0.06200*%
%ADD55C,0.08400*%
%ADD56C,0.10600*%
%ADD57C,0.12500*%
D26*
X528000Y612000D02*
D03*
X399500Y570500D02*
D03*
D30*
X98500Y98500D02*
Y119500D01*
X931500Y98500D02*
Y119500D01*
X98500Y660500D02*
Y681500D01*
Y98500D02*
X119500D01*
X910500D02*
X931500D01*
X98500Y681500D02*
X119500D01*
D34*
X345000Y551000D02*
D03*
X754000Y280000D02*
D03*
X330000Y269500D02*
D03*
X559000Y179500D02*
D03*
X398500Y535500D02*
D03*
X425000Y176000D02*
D03*
X446000Y186000D02*
D03*
X376000Y665000D02*
D03*
D35*
X345000Y561000D02*
D03*
X754000Y290000D02*
D03*
Y300000D02*
D03*
X330000Y279500D02*
D03*
X518000Y612000D02*
D03*
X508000D02*
D03*
X559000Y189500D02*
D03*
X398500Y555500D02*
D03*
Y545500D02*
D03*
X389500Y570500D02*
D03*
X425000Y186000D02*
D03*
Y196000D02*
D03*
X446000D02*
D03*
X376000Y645000D02*
D03*
Y655000D02*
D03*
D36*
X423500Y540000D02*
D03*
X433500Y550000D02*
D03*
D37*
Y530000D02*
D03*
D38*
X559500Y117000D02*
D03*
X574500D02*
D03*
X817047Y113500D02*
D03*
X502000Y502000D02*
D03*
X492000D02*
D03*
X482000Y443000D02*
D03*
X502000D02*
D03*
Y597500D02*
D03*
X492000D02*
D03*
X482000Y538500D02*
D03*
X502000D02*
D03*
X123500Y343500D02*
D03*
X113500Y333500D02*
D03*
X123500D02*
D03*
X113500Y323500D02*
D03*
X123500D02*
D03*
Y313500D02*
D03*
X113500D02*
D03*
Y303500D02*
D03*
X123500D02*
D03*
Y293500D02*
D03*
X113500D02*
D03*
Y283500D02*
D03*
X123500D02*
D03*
Y273500D02*
D03*
X113500D02*
D03*
Y263500D02*
D03*
X123500D02*
D03*
Y253500D02*
D03*
X113500D02*
D03*
Y243500D02*
D03*
X123500D02*
D03*
Y233500D02*
D03*
X113500D02*
D03*
Y223500D02*
D03*
X123500D02*
D03*
Y213500D02*
D03*
X113500D02*
D03*
Y203500D02*
D03*
X123500D02*
D03*
Y193500D02*
D03*
X113500D02*
D03*
Y183500D02*
D03*
X123500D02*
D03*
Y173500D02*
D03*
X113500D02*
D03*
Y163500D02*
D03*
X123500D02*
D03*
X113500Y153500D02*
D03*
X123500D02*
D03*
X590000Y669500D02*
D03*
X600000D02*
D03*
X610000D02*
D03*
X620000D02*
D03*
X630000D02*
D03*
X640000D02*
D03*
X650000D02*
D03*
X660000D02*
D03*
X670000D02*
D03*
X680000D02*
D03*
X690000D02*
D03*
X700000D02*
D03*
X710000D02*
D03*
X720000D02*
D03*
X730000D02*
D03*
X179000Y649000D02*
D03*
Y659000D02*
D03*
X169000Y354000D02*
D03*
D39*
X284000Y669000D02*
D03*
Y639000D02*
D03*
X254000D02*
D03*
X248500Y366000D02*
D03*
Y356000D02*
D03*
Y346000D02*
D03*
Y336000D02*
D03*
Y326000D02*
D03*
Y316000D02*
D03*
Y306000D02*
D03*
Y296000D02*
D03*
Y286000D02*
D03*
Y276000D02*
D03*
Y266000D02*
D03*
Y256000D02*
D03*
Y246000D02*
D03*
Y236000D02*
D03*
Y226000D02*
D03*
X308500D02*
D03*
Y236000D02*
D03*
Y246000D02*
D03*
Y256000D02*
D03*
Y266000D02*
D03*
Y276000D02*
D03*
Y286000D02*
D03*
Y296000D02*
D03*
Y306000D02*
D03*
Y316000D02*
D03*
Y326000D02*
D03*
Y336000D02*
D03*
Y346000D02*
D03*
Y356000D02*
D03*
Y366000D02*
D03*
Y376000D02*
D03*
X376500D02*
D03*
Y366000D02*
D03*
Y356000D02*
D03*
Y346000D02*
D03*
Y336000D02*
D03*
Y326000D02*
D03*
Y316000D02*
D03*
Y306000D02*
D03*
Y296000D02*
D03*
Y286000D02*
D03*
Y276000D02*
D03*
Y266000D02*
D03*
Y256000D02*
D03*
Y246000D02*
D03*
Y236000D02*
D03*
Y226000D02*
D03*
X346500D02*
D03*
Y236000D02*
D03*
Y246000D02*
D03*
Y256000D02*
D03*
Y266000D02*
D03*
Y276000D02*
D03*
Y286000D02*
D03*
Y296000D02*
D03*
Y306000D02*
D03*
Y316000D02*
D03*
Y326000D02*
D03*
Y336000D02*
D03*
Y346000D02*
D03*
Y356000D02*
D03*
Y366000D02*
D03*
X305000Y584000D02*
D03*
X315000D02*
D03*
X325000D02*
D03*
X335000D02*
D03*
X345000D02*
D03*
X355000D02*
D03*
X365000D02*
D03*
X375000D02*
D03*
X385000D02*
D03*
Y614000D02*
D03*
X375000D02*
D03*
X365000D02*
D03*
X355000D02*
D03*
X345000D02*
D03*
X335000D02*
D03*
X325000D02*
D03*
X315000D02*
D03*
X305000D02*
D03*
X295000D02*
D03*
X160000Y161500D02*
D03*
X170000D02*
D03*
X180000D02*
D03*
X190000D02*
D03*
X200000D02*
D03*
X210000D02*
D03*
X220000D02*
D03*
Y191500D02*
D03*
X210000D02*
D03*
X200000D02*
D03*
X190000D02*
D03*
X180000D02*
D03*
X170000D02*
D03*
X160000D02*
D03*
X150000D02*
D03*
X254500Y161500D02*
D03*
X264500D02*
D03*
X274500D02*
D03*
X284500D02*
D03*
X294500D02*
D03*
X304500D02*
D03*
X314500D02*
D03*
Y191500D02*
D03*
X304500D02*
D03*
X294500D02*
D03*
X284500D02*
D03*
X274500D02*
D03*
X264500D02*
D03*
X254500D02*
D03*
X244500D02*
D03*
X349500Y161500D02*
D03*
X359500D02*
D03*
X369500D02*
D03*
X379500D02*
D03*
X389500D02*
D03*
X399500D02*
D03*
X409500D02*
D03*
Y191500D02*
D03*
X399500D02*
D03*
X389500D02*
D03*
X379500D02*
D03*
X369500D02*
D03*
X359500D02*
D03*
X349500D02*
D03*
X339500D02*
D03*
D40*
X254000Y669000D02*
D03*
X248500Y376000D02*
D03*
X346500D02*
D03*
D41*
X779000Y315500D02*
D03*
D42*
X839000D02*
D03*
Y345500D02*
D03*
X779000D02*
D03*
X624000Y233000D02*
D03*
Y243000D02*
D03*
Y253000D02*
D03*
Y263000D02*
D03*
Y273000D02*
D03*
Y283000D02*
D03*
Y293000D02*
D03*
Y303000D02*
D03*
Y313000D02*
D03*
Y323000D02*
D03*
Y333000D02*
D03*
Y343000D02*
D03*
X634000Y233000D02*
D03*
Y243000D02*
D03*
Y253000D02*
D03*
Y263000D02*
D03*
Y273000D02*
D03*
Y283000D02*
D03*
Y293000D02*
D03*
Y303000D02*
D03*
Y313000D02*
D03*
Y323000D02*
D03*
Y333000D02*
D03*
Y343000D02*
D03*
X644000Y233000D02*
D03*
Y243000D02*
D03*
Y253000D02*
D03*
Y263000D02*
D03*
Y273000D02*
D03*
Y283000D02*
D03*
Y293000D02*
D03*
Y303000D02*
D03*
Y313000D02*
D03*
Y323000D02*
D03*
Y333000D02*
D03*
Y343000D02*
D03*
X654000Y233000D02*
D03*
Y243000D02*
D03*
Y253000D02*
D03*
Y263000D02*
D03*
Y273000D02*
D03*
Y283000D02*
D03*
Y293000D02*
D03*
Y303000D02*
D03*
Y313000D02*
D03*
Y323000D02*
D03*
Y333000D02*
D03*
Y343000D02*
D03*
X664000Y233000D02*
D03*
Y243000D02*
D03*
Y253000D02*
D03*
Y263000D02*
D03*
Y273000D02*
D03*
Y283000D02*
D03*
Y293000D02*
D03*
Y303000D02*
D03*
Y313000D02*
D03*
Y323000D02*
D03*
Y333000D02*
D03*
Y343000D02*
D03*
X674000Y233000D02*
D03*
Y243000D02*
D03*
Y253000D02*
D03*
Y263000D02*
D03*
Y273000D02*
D03*
Y283000D02*
D03*
Y293000D02*
D03*
Y303000D02*
D03*
Y313000D02*
D03*
Y323000D02*
D03*
Y333000D02*
D03*
Y343000D02*
D03*
X684000Y233000D02*
D03*
Y243000D02*
D03*
Y253000D02*
D03*
Y263000D02*
D03*
Y273000D02*
D03*
Y283000D02*
D03*
Y293000D02*
D03*
Y303000D02*
D03*
Y313000D02*
D03*
Y323000D02*
D03*
Y333000D02*
D03*
Y343000D02*
D03*
X694000Y233000D02*
D03*
Y243000D02*
D03*
Y253000D02*
D03*
Y263000D02*
D03*
Y273000D02*
D03*
Y283000D02*
D03*
Y293000D02*
D03*
Y303000D02*
D03*
Y313000D02*
D03*
Y323000D02*
D03*
Y333000D02*
D03*
Y343000D02*
D03*
X704000Y233000D02*
D03*
Y243000D02*
D03*
Y253000D02*
D03*
Y263000D02*
D03*
Y273000D02*
D03*
Y283000D02*
D03*
Y293000D02*
D03*
Y303000D02*
D03*
Y313000D02*
D03*
Y323000D02*
D03*
Y333000D02*
D03*
Y343000D02*
D03*
X714000Y233000D02*
D03*
Y243000D02*
D03*
Y253000D02*
D03*
Y263000D02*
D03*
Y273000D02*
D03*
Y283000D02*
D03*
Y293000D02*
D03*
Y303000D02*
D03*
Y313000D02*
D03*
Y323000D02*
D03*
Y333000D02*
D03*
Y343000D02*
D03*
X724000Y233000D02*
D03*
Y243000D02*
D03*
Y253000D02*
D03*
Y263000D02*
D03*
Y273000D02*
D03*
Y283000D02*
D03*
Y293000D02*
D03*
Y303000D02*
D03*
Y313000D02*
D03*
Y323000D02*
D03*
Y333000D02*
D03*
Y343000D02*
D03*
X734000Y233000D02*
D03*
Y243000D02*
D03*
Y253000D02*
D03*
Y263000D02*
D03*
Y273000D02*
D03*
Y283000D02*
D03*
Y293000D02*
D03*
Y303000D02*
D03*
Y313000D02*
D03*
Y323000D02*
D03*
Y333000D02*
D03*
Y343000D02*
D03*
X296500Y508000D02*
D03*
X306500D02*
D03*
X296500Y498000D02*
D03*
Y488000D02*
D03*
X306500D02*
D03*
X296500Y478000D02*
D03*
X306500D02*
D03*
X296500Y468000D02*
D03*
X306500D02*
D03*
X296500Y458000D02*
D03*
X306500D02*
D03*
X296500Y448000D02*
D03*
X306500D02*
D03*
X296500Y438000D02*
D03*
X306500D02*
D03*
X296500Y428000D02*
D03*
X306500Y418000D02*
D03*
Y428000D02*
D03*
X316500Y418000D02*
D03*
Y428000D02*
D03*
X326500Y418000D02*
D03*
Y428000D02*
D03*
X336500Y418000D02*
D03*
Y428000D02*
D03*
X346500Y418000D02*
D03*
Y428000D02*
D03*
X356500Y418000D02*
D03*
Y428000D02*
D03*
X366500Y418000D02*
D03*
Y428000D02*
D03*
X376500Y418000D02*
D03*
Y428000D02*
D03*
X386500Y418000D02*
D03*
Y428000D02*
D03*
X396500D02*
D03*
Y438000D02*
D03*
X386500D02*
D03*
X396500Y448000D02*
D03*
X386500D02*
D03*
X396500Y458000D02*
D03*
X386500D02*
D03*
X396500Y468000D02*
D03*
X386500D02*
D03*
X396500Y478000D02*
D03*
X386500D02*
D03*
X396500Y488000D02*
D03*
X386500D02*
D03*
X396500Y498000D02*
D03*
X386500D02*
D03*
X396500Y508000D02*
D03*
X386500Y518000D02*
D03*
Y508000D02*
D03*
X376500Y518000D02*
D03*
Y508000D02*
D03*
X366500Y518000D02*
D03*
Y508000D02*
D03*
X356500Y518000D02*
D03*
Y508000D02*
D03*
X346500Y518000D02*
D03*
Y508000D02*
D03*
X336500Y518000D02*
D03*
Y508000D02*
D03*
X326500Y518000D02*
D03*
Y508000D02*
D03*
X316500Y518000D02*
D03*
Y508000D02*
D03*
X306500Y518000D02*
D03*
Y498000D02*
D03*
X502500Y240000D02*
D03*
X492500Y250000D02*
D03*
Y240000D02*
D03*
X482500Y250000D02*
D03*
Y240000D02*
D03*
X472500Y250000D02*
D03*
X462500Y240000D02*
D03*
X472500D02*
D03*
X462500Y230000D02*
D03*
X472500D02*
D03*
X462500Y220000D02*
D03*
X472500D02*
D03*
X462500Y210000D02*
D03*
X472500D02*
D03*
X462500Y200000D02*
D03*
X472500D02*
D03*
X462500Y190000D02*
D03*
X472500Y180000D02*
D03*
Y190000D02*
D03*
X482500Y180000D02*
D03*
Y190000D02*
D03*
X492500Y180000D02*
D03*
Y190000D02*
D03*
X502500Y180000D02*
D03*
Y190000D02*
D03*
X512500Y180000D02*
D03*
Y190000D02*
D03*
X522500Y180000D02*
D03*
X532500Y190000D02*
D03*
X522500D02*
D03*
X532500Y200000D02*
D03*
X522500D02*
D03*
X532500Y210000D02*
D03*
X522500D02*
D03*
X532500Y220000D02*
D03*
X522500D02*
D03*
X532500Y230000D02*
D03*
X522500D02*
D03*
X532500Y240000D02*
D03*
X522500Y250000D02*
D03*
Y240000D02*
D03*
X512500Y250000D02*
D03*
Y240000D02*
D03*
X502500Y250000D02*
D03*
X152000Y649000D02*
D03*
Y659000D02*
D03*
X903000Y165000D02*
D03*
X913000D02*
D03*
X883000D02*
D03*
X873000D02*
D03*
X734000Y223000D02*
D03*
X724000D02*
D03*
X674000D02*
D03*
X684000D02*
D03*
X664000D02*
D03*
X704000D02*
D03*
X714000D02*
D03*
X694000D02*
D03*
X644000D02*
D03*
X654000D02*
D03*
X634000D02*
D03*
X624000D02*
D03*
X734000Y353000D02*
D03*
X724000D02*
D03*
X704000D02*
D03*
X714000D02*
D03*
X694000D02*
D03*
X654000D02*
D03*
X664000D02*
D03*
X644000D02*
D03*
X684000D02*
D03*
X674000D02*
D03*
X634000D02*
D03*
X624000D02*
D03*
D43*
X778232Y135000D02*
D03*
D44*
X786500D02*
D03*
Y144843D02*
D03*
X759728D02*
D03*
Y135000D02*
D03*
X767996D02*
D03*
D45*
X773114Y120039D02*
D03*
X468000Y472500D02*
D03*
X516000D02*
D03*
X468000Y568000D02*
D03*
X516000D02*
D03*
D46*
X818500Y565500D02*
D03*
Y214500D02*
D03*
X211500Y565500D02*
D03*
Y214500D02*
D03*
D47*
X482000Y502000D02*
D03*
Y597500D02*
D03*
X113500Y343500D02*
D03*
D48*
X873000Y389000D02*
D03*
X892685D02*
D03*
Y408685D02*
D03*
X873000D02*
D03*
X811500Y389000D02*
D03*
X831185D02*
D03*
Y408685D02*
D03*
X811500D02*
D03*
X750000Y389000D02*
D03*
X769685D02*
D03*
Y408685D02*
D03*
X750000D02*
D03*
X688000Y389000D02*
D03*
X707685D02*
D03*
Y408685D02*
D03*
X688000D02*
D03*
X627000Y389000D02*
D03*
X646685D02*
D03*
Y408685D02*
D03*
X627000D02*
D03*
X565000Y389000D02*
D03*
X584685D02*
D03*
Y408685D02*
D03*
X565000D02*
D03*
D49*
X891500Y136657D02*
D03*
Y116972D02*
D03*
Y107130D02*
D03*
X911185Y146500D02*
D03*
Y107130D02*
D03*
X921028Y146500D02*
D03*
Y107130D02*
D03*
X911185Y126815D02*
D03*
X891500D02*
D03*
Y146500D02*
D03*
D50*
X295000Y584000D02*
D03*
X150000Y161500D02*
D03*
X244500D02*
D03*
X339500D02*
D03*
D51*
X550472Y452965D02*
D03*
X916614D02*
D03*
Y669500D02*
D03*
X550472D02*
D03*
D52*
X580000D02*
D03*
D53*
X441500Y116500D02*
D03*
X431500D02*
D03*
X421500D02*
D03*
X411500D02*
D03*
X401500D02*
D03*
X391500D02*
D03*
X381500D02*
D03*
X371500D02*
D03*
X361500D02*
D03*
X351500D02*
D03*
X341500D02*
D03*
X331500D02*
D03*
X321500D02*
D03*
X311500D02*
D03*
X301500D02*
D03*
X291500D02*
D03*
X281500D02*
D03*
X271500D02*
D03*
X261500D02*
D03*
X251500D02*
D03*
X241500D02*
D03*
X231500D02*
D03*
X221500D02*
D03*
X211500D02*
D03*
X201500D02*
D03*
X191500D02*
D03*
X181500D02*
D03*
X171500D02*
D03*
X161500D02*
D03*
D54*
X151500D02*
D03*
X122000Y518500D02*
D03*
X132000D02*
D03*
X142000D02*
D03*
D55*
X114000Y116500D02*
D03*
D56*
X479000D02*
D03*
D57*
X132000Y588500D02*
D03*
M02*
