M48
;Layer_Color=9474304
;FILE_FORMAT=2:5
INCH,LZ
;TYPE=PLATED
T1F00S00C0.02500
T2F00S00C0.02756
T3F00S00C0.02800
T4F00S00C0.03000
T5F00S00C0.03500
T6F00S00C0.03543
T7F00S00C0.04000
T8F00S00C0.04200
T9F00S00C0.04724
T10F00S00C0.07000
T11F00S00C0.08600
T12F00S00C0.09200
T13F00S00C0.10000
T14F00S00C0.11811
T15F00S00C0.12500
%
T01
X03145Y01615
X03395
X03495
X03595
X03695
X03795
X03895
X03995
X04095
Y01915
X03995
X03895
X03795
X03695
X03595
X03495
X03395
X03145
X03465Y0226
Y0236
Y0246
Y0256
Y0266
Y0276
Y0286
Y0296
Y0306
X03765
Y0296
Y0286
Y0276
Y0266
Y0256
Y0246
Y0236
Y0226
X03085
Y0236
Y0246
Y0256
Y0266
Y0276
Y0286
Y0296
Y0306
X02485
Y0296
Y0286
Y0276
Y0266
Y0256
Y0246
Y0236
Y0226
X02445Y01915
X02545
X02645
X02745
X02845
X02945
X03045
Y01615
X02945
X02845
X02745
X02645
X02545
X02445
X022
X021
X02
X019
X018
X017
X016
Y01915
X017
X018
X019
X02
X021
X022
X015
Y01615
X02485Y0316
Y0326
Y0336
Y0346
Y0356
Y0366
Y0376
X03085
Y0366
Y0356
Y0346
Y0336
Y0326
Y0316
X03465
Y0326
Y0336
Y0346
Y0356
Y0366
Y0376
X03765
Y0366
Y0356
Y0346
Y0336
Y0326
Y0316
X0375Y0584
X0365
X0355
X0345
X0335
X0325
X0315
Y0614
X0325
X0335
X0345
X0355
X0365
X0375
X0385
Y0584
X0305
X0295
Y0614
X0305
X0284Y0639
Y0669
X0254
Y0639
T02
X04235Y054
X04335Y055
Y053
T03
X01495Y01305
X0167Y01265
X018636Y01215
X02465Y0145
X0346
X03725Y0151
X04145Y01405
X0594Y0132
X08675Y0122
X0873Y0165
X0883
X0903
X0913
X0919Y0173
X0906927Y0184073
X0907Y0201
X09105Y02115
X09068Y02208
X0907616Y0226884
X0915Y0234
X08965Y02415
X0896Y0267
X08985Y02895
X09015Y03075
X08925
X08775Y0305
X084
X08165
X078849Y030161
X07885Y02875
X07925Y02705
X081Y02435
X0819Y02375
X08255Y025
X08445Y02615
X08705Y02585
X087Y0267
X088Y02575
X0868Y024
X0862Y02405
Y0222
X0856Y0217
X0851Y02125
X08595Y0205
X0864515Y0208077
X0863675Y02005
X08805Y0207
Y02155
X08835Y0227
X08885Y0205
X0851957Y0186896
X08465Y01895
X07945
X0817Y0167
X08495Y0288
X0915Y0308
X0917Y02625
X07805Y02695
X078Y02355
X07745Y0202
X06235Y0211
X0594Y0202
X0576Y02175
X05325Y022
Y021
Y02
Y019
X05225
X05125
X05025
X04925
X04825
X04725
Y02
Y021
Y022
Y023
Y024
X04825
X04925
X05025
X05125
X05225
Y023
Y022
Y021
Y02
Y018
X05125
X05025
X04925
X04825
X04725
X04705Y0158
X04725Y025
X04825
X04925
X05025
X05125
X05225
X05325Y024
Y023
X0548Y0286
X05433Y03025
X0547Y03095
X05165Y0308
X05105Y0305
X04805Y0302
X047345Y03095
X05935Y02555
X04625Y024
Y023
Y022
Y021
Y02
Y019
X04365Y01765
Y0161
X04245Y02085
X04145Y0199
X03935Y0198
X0386Y01985
X03805Y02015
X03765Y0206
Y0216
X03825Y022
X0366Y02305
X03675Y02475
X03655Y02695
X03555Y02645
X03735Y0281
X03935Y0283
X03915Y0266
X04055Y0261
X04115Y02605
X04385Y026
X0453Y02745
Y02865
X04225Y0244
X04215Y02305
X03925Y0245
X03665Y01975
X03535Y0202
X03395Y0219
X033Y02325
X03255Y02285
X03195Y02265
X031919Y02328
X03145Y021
X03225Y0159
X03Y01785
X02845
X02805Y0199
X02708Y0196835
X0264755Y019729
X0259Y0199
X02595Y021
X0267
X0273Y02095
X0279
X02855
X02912Y02103
X03025Y021
X03082Y02103
X0290761Y02262
X0288Y02315
X02805Y0231
X0283761Y02358
X02765Y02355
Y02565
X02708Y025695
X02822
X0288Y02565
X0294Y0254
Y0276
X0288Y02765
X02822Y02768
X02765Y02765
X02685
X0269Y0291
X0286
X02185Y029
X021801Y029801
X0214Y02815
Y02755
X01935Y0268
X01905Y02435
Y02375
X0169Y02255
X016Y0249
X01585Y0272
X016Y02825
X01595Y02885
X02334Y0226833
X02305Y0216
X023Y02055
X0245Y01785
X0149Y021
X0151Y02235
X0132Y0224
Y023
X013555Y02415
X01185Y0239
X01395Y02645
X01355Y02745
Y02805
Y02885
Y0296
Y0302
X014Y0306
X01412Y02949
X014Y02845
X01345Y03225
X01344Y03465
X01456Y0346661
X01505Y03435
X01185Y03605
X01145Y0369
X01305Y03795
X01328Y03917
X01385Y03925
X0137Y0403
X0128
X01465Y0397
X01415Y04355
X01355Y0434
X01645Y04305
Y044
X01705Y0442
X0175Y04465
X0181185Y0444706
X01794Y0450832
X01851
X01908
X01965Y0452
X0200792Y0459
X02245Y04655
X02495Y04675
X0268
X02755Y0468
X0263Y0462
X02455Y04275
Y04215
Y0415
X0234833Y0414
X02345Y0406
X0231Y04185
X02395Y0423
X0219Y04165
X0216Y0428
X022Y04395
X018664Y04421
X0189241Y0395168
X01735Y03985
X01645Y03955
X016Y0373
X01995Y03785
X02025Y03405
X020355Y03348
X021075Y0336719
X0212Y0331
X02118Y03253
X02175Y0324
X0222Y032
X02265Y0316
X02055Y0323
X0282Y0328
Y03425
X0331Y03545
X03595Y03475
X038Y0351
X03845Y0376
X03935Y0374
X0392Y038
X0391Y03935
X04Y0403
X04165Y0399
X0420505Y04218
X04182Y04292
X0429Y0434
X04287Y04397
X04375Y0426
X0444Y04245
X0465Y04075
X0457Y0389
X04485Y03875
X0453Y0366
X0459
Y03575
X04455Y03615
X0439Y03565
X0427
X0422Y03655
X04255Y0322
X04435Y0337
X04495Y0332
X0465454Y0345954
X03885Y03265
X0378Y04105
X0372Y04142
X03645Y0434
X035Y04345
X03415Y0449
X03315Y04585
X0328Y04655
X0321Y04465
X0352Y04625
X03775Y04485
X04088Y0445909
Y0451609
X04085Y04585
X04955Y0426
X05145Y04125
X0516739Y0406471
X05225Y0407
X052723Y0403669
X05275Y0396
X0548Y04
X0552Y04165
X05605Y04225
X0524Y0422
X05005Y0392
X0490953Y0397453
X04725Y0388
X04785Y03655
X048248Y0360541
X04865Y03565
X05025Y0361
X0511Y03625
X05105Y03795
X05235Y0355
X0517Y0338
Y0332
Y0326
Y032
X05165Y0314
X05345Y03125
X0551Y03205
X0484Y032
X05005Y03435
X05065
X05735Y03847
X0574Y03905
X059Y0375
X0612Y03395
X0746Y0343
Y0358
X082Y03395
X08335Y0323
X0845
X08045Y03145
X08915Y03185
X08975
X09035
X0556Y05935
X04975Y0587
X04715Y05935
X0468302Y06129
X0448Y06125
X04545Y0604
X0424Y060525
X0409
X04095Y0584
X04245Y0587
X0388Y0538
X0363Y05385
X0352
X03395Y0531
X0331Y05485
X0327Y0553
X0335
X0319Y0501
X0326Y04765
X03485Y04715
X03605Y04785
X0405Y04705
X0396477Y051379
X0262Y05265
X02562Y05292
X02505Y0529
X02545Y05235
X02455Y05125
X0235Y0505
X02355Y0499
Y0493
X0234Y0487
X02325Y052
X0226904Y0533111
X023Y05385
X0231Y05445
X0225
X0219Y0544
X0208Y0539
X0222Y0529
X02175Y05245
X02145Y0519
X0198Y0485
X01922Y0485232
X01865Y0485
X0202Y04805
X01675Y04705
X01615Y0538
X0181Y05955
X01905Y0595
X0179Y0611
X0157Y0622
X02165Y0616
X0256Y04735
X0147Y0622
X0152Y0649
Y0659
X02075Y0669
Y06465
X0218Y06475
X0298Y0629
X03115Y066
X0329Y0631
X0399Y0647
X0403Y0652
X04215Y06445
X0463Y06395
X05845Y065
T04
X02965Y0428
Y0438
Y0448
Y0458
Y0468
X03065
Y0458
Y0448
Y0438
Y0428
Y0418
X03165
Y0428
X03265
Y0418
X03365
Y0428
X03465
Y0418
X03565
Y0428
X03665
Y0418
X03765
Y0428
X03865
Y0418
X03965Y0428
Y0438
X03865
Y0448
X03965
Y0458
X03865
Y0468
X03965
Y0478
X03865
Y0488
X03965
Y0498
X03865
Y0508
X03965
X03865Y0518
X03765
Y0508
X03665
Y0518
X03565
Y0508
X03465
Y0518
X03365
Y0508
X03265
Y0518
X03165
Y0508
X03065
X02965
Y0498
Y0488
X03065
Y0478
X02965
X03065Y0498
Y0518
T05
X0759728Y0135
X0767996
X0778232
X0759728Y0144843
X07865
Y0135
X0734Y0223
Y0233
X0724
X0714
X0704
X0694
X0684
X0674
X0664
X0654
X0644
X0634
Y0243
Y0253
Y0263
Y0273
Y0283
Y0293
Y0303
X0644
Y0293
Y0283
Y0273
Y0263
Y0253
Y0243
X0654
Y0253
Y0263
Y0273
Y0283
Y0293
Y0303
X0664
Y0293
Y0283
Y0273
Y0263
Y0253
Y0243
X0674
Y0253
Y0263
Y0273
Y0283
Y0293
Y0303
X0684
Y0293
Y0283
Y0273
Y0263
Y0253
Y0243
X0694
Y0253
Y0263
Y0273
Y0283
Y0293
Y0303
X0704
Y0293
Y0283
Y0273
Y0263
Y0253
Y0243
X0714
Y0253
Y0263
Y0273
Y0283
Y0293
Y0303
X0724
Y0293
Y0283
Y0273
Y0263
Y0253
Y0243
X0734
Y0253
Y0263
Y0273
Y0283
Y0293
Y0303
X0724Y0223
X0714
X0704
X0694
X0684
X0674
X0664
X0654
X0644
X0634
X0624
Y0233
Y0243
Y0253
Y0263
Y0273
Y0283
Y0293
Y0303
Y0313
Y0323
Y0333
Y0343
Y0353
X0634
Y0343
Y0333
Y0323
Y0313
X0644
Y0323
Y0333
Y0343
X0654
Y0333
Y0323
Y0313
X0664
Y0323
Y0333
Y0343
X0674
Y0333
Y0323
Y0313
X0684
Y0323
Y0333
Y0343
X0694
Y0333
Y0323
Y0313
X0704
Y0323
Y0333
Y0343
X0714
Y0333
Y0323
Y0313
X0724
Y0323
Y0333
Y0343
X0734
Y0333
Y0323
Y0313
Y0353
X0724
X0714
X0704
X0694
X0684
X0674
X0664
X0654
X0644
X0779Y03455
Y03155
X0839
Y03455
T06
X0754Y028
Y029
Y03
X0559Y01895
Y01795
X0446Y0186
Y0196
X0425
Y0186
Y0176
X033Y02695
Y02795
X0565Y0389
X0584685
Y0408685
X0565
X0627
Y0389
X0646685
Y0408685
X0688
Y0389
X0707685
Y0408685
X075
Y0389
X0769685
Y0408685
X08115
Y0389
X0831185
Y0408685
X0873
Y0389
X0892685
Y0408685
X0528Y0612
X0518
X0508
X03995Y05705
X03895
X03985Y05555
Y05455
Y05355
X0345Y0551
Y0561
X0376Y0645
Y0655
Y0665
T07
X01135Y01535
X01235
Y01635
Y01735
Y01835
Y01935
Y02035
Y02135
Y02235
Y02335
Y02435
Y02535
Y02635
Y02735
Y02835
Y02935
Y03035
X01135
Y02935
Y02835
Y02735
Y02635
Y02535
Y02435
Y02335
Y02235
Y02135
Y02035
Y01935
Y01835
Y01735
Y01635
Y03135
Y03235
Y03335
X01235
Y03435
X01135
X01235Y03235
Y03135
X058Y06695
X059
X06
X061
X062
X063
X064
X065
X066
X067
X068
X069
X07
X071
X072
X073
T08
X01515Y01165
X01615
X01715
X01815
X01915
X02015
X02115
X02215
X02315
X02415
X02515
X02615
X02715
X02815
X02915
X03015
X03115
X03215
X03315
X03415
X03515
X03615
X03715
X03815
X03915
X04015
X04115
X04215
X04315
X04415
X05595Y0117
X05745
X0817047Y01135
X0169Y0354
X0482Y0443
X0502
Y0502
X0492
X0482
Y05385
X0502
Y05975
X0492
X0482
X0142Y05185
X0132
X0122
X0179Y0649
Y0659
T09
X08915Y010713
Y0116972
Y0126815
Y0136657
Y01465
X0911185
X0921028
X0911185Y0126815
Y010713
X0921028
T10
X0114Y01165
T11
X0773114Y0120039
T12
X0479Y01165
T13
X0516Y04725
Y0568
X0468
Y04725
T14
X0550472Y0452965
X0916614
X0550472Y06695
X0916614
T15
X08185Y02145
X02115
X08185Y05655
X02115
X0132Y05885
M30
